{"asset":{"version":"2.0","generator":"gltfpack 1.2","extras":{"author":"Mehdi Shahsavan (https://sketchfab.com/ahmagh2e)","license":"CC-BY-4.0 (http://creativecommons.org/licenses/by/4.0/)","source":"https://sketchfab.com/3d-models/filing-cabinet-6mb-d217a4bbdfa2426eb32ebf3b1007a8c3","title":"Filing Cabinet - 6MB"}},"extensionsUsed":["KHR_materials_specular"],"buffers":[{"uri":"packed_cabinet.bin","byteLength":41580}],"bufferViews":[{"buffer":0,"byteOffset":0,"byteLength":14148,"byteStride":12,"target":34962},{"buffer":0,"byteOffset":14148,"byteLength":14148,"byteStride":12,"target":34962},{"buffer":0,"byteOffset":28296,"byteLength":9432,"byteStride":8,"target":34962},{"buffer":0,"byteOffset":37728,"byteLength":3852,"target":34963}],"accessors":[{"bufferView":0,"byteOffset":0,"componentType":5126,"count":283,"type":"VEC3"},{"bufferView":1,"byteOffset":0,"componentType":5126,"count":283,"type":"VEC3","min":[-19.9999981,0,-0],"max":[19.9999981,120.000008,39.9999962]},{"bufferView":2,"byteOffset":0,"componentType":5126,"count":283,"type":"VEC2"},{"bufferView":3,"byteOffset":0,"componentType":5123,"count":462,"type":"SCALAR"},{"bufferView":0,"byteOffset":3396,"componentType":5126,"count":224,"type":"VEC3"},{"bufferView":1,"byteOffset":3396,"componentType":5126,"count":224,"type":"VEC3","min":[-18.8730888,0.0821886286,-0],"max":[18.8730888,27.8749256,40.064991]},{"bufferView":2,"byteOffset":2264,"componentType":5126,"count":224,"type":"VEC2"},{"bufferView":3,"byteOffset":924,"componentType":5123,"count":366,"type":"SCALAR"},{"bufferView":0,"byteOffset":6084,"componentType":5126,"count":224,"type":"VEC3"},{"bufferView":1,"byteOffset":6084,"componentType":5126,"count":224,"type":"VEC3","min":[-18.8730888,0.0821886286,-0],"max":[18.8730888,27.8749256,40.064991]},{"bufferView":2,"byteOffset":4056,"componentType":5126,"count":224,"type":"VEC2"},{"bufferView":3,"byteOffset":1656,"componentType":5123,"count":366,"type":"SCALAR"},{"bufferView":0,"byteOffset":8772,"componentType":5126,"count":224,"type":"VEC3"},{"bufferView":1,"byteOffset":8772,"componentType":5126,"count":224,"type":"VEC3","min":[-18.8730888,0.0821886286,-0],"max":[18.8730888,27.8749256,40.064991]},{"bufferView":2,"byteOffset":5848,"componentType":5126,"count":224,"type":"VEC2"},{"bufferView":3,"byteOffset":2388,"componentType":5123,"count":366,"type":"SCALAR"},{"bufferView":0,"byteOffset":11460,"componentType":5126,"count":224,"type":"VEC3"},{"bufferView":1,"byteOffset":11460,"componentType":5126,"count":224,"type":"VEC3","min":[0.46757704,0.0108603239,-0.117155157],"max":[0.824536085,0.288787693,0.283494741]},{"bufferView":2,"byteOffset":7640,"componentType":5126,"count":224,"type":"VEC2"},{"bufferView":3,"byteOffset":3120,"componentType":5123,"count":366,"type":"SCALAR"}],"samplers":[{"magFilter":9729,"minFilter":9987}],"images":[{"uri":"Scene_-_Root_baseColor.webp"},{"uri":"Scene_-_Root_metallicRoughness.webp"},{"uri":"Scene_-_Root_specularf0.webp"}],"textures":[{"sampler":0,"source":0},{"sampler":0,"source":1},{"sampler":0,"source":2}],"materials":[{"name":"Scene_-_Root","pbrMetallicRoughness":{"baseColorTexture":{"index":0},"metallicRoughnessTexture":{"index":1}},"doubleSided":true,"extensions":{"KHR_materials_specular":{"specularTexture":{"index":2}}}}],"meshes":[{"primitives":[{"attributes":{"NORMAL":0,"POSITION":1,"TEXCOORD_0":2},"indices":3,"material":0}]},{"primitives":[{"attributes":{"NORMAL":4,"POSITION":5,"TEXCOORD_0":6},"indices":7,"material":0}]},{"primitives":[{"attributes":{"NORMAL":8,"POSITION":9,"TEXCOORD_0":10},"indices":11,"material":0}]},{"primitives":[{"attributes":{"NORMAL":12,"POSITION":13,"TEXCOORD_0":14},"indices":15,"material":0}]},{"primitives":[{"attributes":{"NORMAL":16,"POSITION":17,"TEXCOORD_0":18},"indices":19,"material":0}]}],"nodes":[{"mesh":4},{"name":"Sketchfab_model","matrix":[1,0,0,0,0,2.22044605e-16,-1,0,0,1,2.22044605e-16,0,0,0,0,1],"children":[2]},{"name":"a9d4cf4503e942d8910f294925b53780.fbx","matrix":[0.00999999978,0,0,0,0,0,0.00999999978,0,0,-0.00999999978,0,0,0,0,0,1],"children":[3]},{"name":"RootNode","children":[4,14,24,34,44,48,58,66,76,86,96]},{"name":"box_7","matrix":[-1,-1.22464685e-16,1.22464685e-16,0,-1.22464685e-16,1,-1.22464685e-16,0,-1.22464685e-16,-1.22464685e-16,-1,0,-86.2922287,0,-20.2501373,1],"children":[5,6,8,10,12]},{"name":"box_7__0","mesh":0},{"name":"01","matrix":[1,2.44929371e-16,-1.23259516e-31,0,-2.44929371e-16,1,-7.39557099e-32,0,1.23259516e-31,7.39557099e-32,1,0,0.0338857733,91.0511856,2.21925569,1],"children":[7]},{"name":"01__0","mesh":1},{"name":"02","matrix":[1,2.44929371e-16,-1.23259516e-31,0,-2.44929371e-16,1,-7.39557099e-32,0,1.23259516e-31,7.39557099e-32,1,0,0.0338857733,61.0844345,2.21925569,1],"children":[9]},{"name":"02__0","mesh":1},{"name":"03","matrix":[1,2.44929371e-16,-1.23259516e-31,0,-2.44929371e-16,1,-7.39557099e-32,0,1.23259516e-31,7.39557099e-32,1,0,0.0338857733,31.073597,2.21925569,1],"children":[11]},{"name":"03__0","mesh":1},{"name":"04","matrix":[1,2.44929371e-16,-1.23259516e-31,0,-2.44929371e-16,1,-7.39557099e-32,0,1.23259516e-31,7.39557099e-32,1,0,0.0338857733,1.00384378,2.21925569,1],"children":[13]},{"name":"04__0","mesh":1},{"name":"box_8","matrix":[-1,-1.22464685e-16,1.22464685e-16,0,-1.22464685e-16,1,-1.22464685e-16,0,-1.22464685e-16,-1.22464685e-16,-1,0,-126.437881,0,-20.2501373,1],"children":[15,16,18,20,22]},{"name":"box_8__0","mesh":0},{"name":"01_2","matrix":[1,2.44929371e-16,-1.23259516e-31,0,-2.44929371e-16,1,-7.39557099e-32,0,1.23259516e-31,7.39557099e-32,1,0,0.0338857733,91.0511856,2.21925569,1],"children":[17]},{"name":"01_2__0","mesh":1},{"name":"02_2","matrix":[1,2.44929371e-16,-1.23259516e-31,0,-2.44929371e-16,1,-7.39557099e-32,0,1.23259516e-31,7.39557099e-32,1,0,0.0338857733,61.0844345,2.21925569,1],"children":[19]},{"name":"02_2__0","mesh":1},{"name":"03_2","matrix":[1,2.44929371e-16,-1.23259516e-31,0,-2.44929371e-16,1,-7.39557099e-32,0,1.23259516e-31,7.39557099e-32,1,0,0.0338857733,31.073597,2.21925569,1],"children":[21]},{"name":"03_2__0","mesh":1},{"name":"04_2","matrix":[1,2.44929371e-16,-1.23259516e-31,0,-2.44929371e-16,1,-7.39557099e-32,0,1.23259516e-31,7.39557099e-32,1,0,0.0338857733,1.00384378,2.21925569,1],"children":[23]},{"name":"04_2__0","mesh":1},{"name":"box_9","matrix":[-1,-1.22464685e-16,1.22464685e-16,0,-1.22464685e-16,1,-1.22464685e-16,0,-1.22464685e-16,-1.22464685e-16,-1,0,-166.605942,0,-20.2501373,1],"children":[25,26,28,30,32]},{"name":"box_9__0","mesh":0},{"name":"01_3","matrix":[1,2.44929371e-16,-1.23259516e-31,0,-2.44929371e-16,1,-7.39557099e-32,0,1.23259516e-31,7.39557099e-32,1,0,0.0338857733,91.0511856,2.21925569,1],"children":[27]},{"name":"01_3__0","mesh":1},{"name":"02_3","matrix":[1,2.44929371e-16,-1.23259516e-31,0,-2.44929371e-16,1,-7.39557099e-32,0,1.23259516e-31,7.39557099e-32,1,0,0.0338857733,61.0844345,2.21925569,1],"children":[29]},{"name":"02_3__0","mesh":1},{"name":"03_3","matrix":[1,2.44929371e-16,-1.23259516e-31,0,-2.44929371e-16,1,-7.39557099e-32,0,1.23259516e-31,7.39557099e-32,1,0,0.0338857733,31.073597,2.21925569,1],"children":[31]},{"name":"03_3__0","mesh":1},{"name":"04_3","matrix":[1,2.44929371e-16,-1.23259516e-31,0,-2.44929371e-16,1,-7.39557099e-32,0,1.23259516e-31,7.39557099e-32,1,0,0.0338857733,1.00384378,2.21925569,1],"children":[33]},{"name":"04_3__0","mesh":1},{"name":"box_10","matrix":[-1,-1.22464685e-16,1.22464685e-16,0,-1.22464685e-16,1,-1.22464685e-16,0,-1.22464685e-16,-1.22464685e-16,-1,0,-206.752182,0,-20.2501373,1],"children":[35,36,38,40,42]},{"name":"box_10__0","mesh":0},{"name":"01_4","matrix":[1,2.44929371e-16,-1.23259516e-31,0,-2.44929371e-16,1,-7.39557099e-32,0,1.23259516e-31,7.39557099e-32,1,0,0.0338857733,91.0511856,2.21925569,1],"children":[37]},{"name":"01_4__0","mesh":1},{"name":"02_4","matrix":[1,2.44929371e-16,-1.23259516e-31,0,-2.44929371e-16,1,-7.39557099e-32,0,1.23259516e-31,7.39557099e-32,1,0,0.0338857733,61.0844345,2.21925569,1],"children":[39]},{"name":"02_4__0","mesh":1},{"name":"03_4","matrix":[1,2.44929371e-16,-1.23259516e-31,0,-2.44929371e-16,1,-7.39557099e-32,0,1.23259516e-31,7.39557099e-32,1,0,0.0338857733,31.073597,2.21925569,1],"children":[41]},{"name":"03_4__0","mesh":1},{"name":"04_4","matrix":[1,2.44929371e-16,-1.23259516e-31,0,-2.44929371e-16,1,-7.39557099e-32,0,1.23259516e-31,7.39557099e-32,1,0,0.0338857733,1.00384378,2.21925569,1],"children":[43]},{"name":"04_4__0","mesh":1},{"name":"box_2","matrix":[1,0,0,0,0,1,0,0,0,0,1,0,209.879944,0,-19.9999981,1],"children":[45,46]},{"name":"box_2__0","mesh":0},{"name":"03_5","matrix":[1,0,0,0,0,1,0,0,0,0,1,0,0.0338857733,31.073597,73.1437836,1],"children":[47]},{"name":"03_5__0","mesh":2},{"name":"box","matrix":[1,0,0,0,0,1,0,0,0,0,1,0,139.080856,0,-19.9999981,1],"children":[49,50,52,54,56]},{"name":"box__0","mesh":0},{"name":"01_5","matrix":[1,0,0,0,0,1,0,0,0,0,1,0,0.0338857733,91.0511856,2.21925569,1],"children":[51]},{"name":"01_5__0","mesh":2},{"name":"02_5","matrix":[1,0,0,0,0,1,0,0,0,0,1,0,0.0338857733,61.0844345,2.21925569,1],"children":[53]},{"name":"02_5__0","mesh":2},{"name":"03_6","matrix":[1,0,0,0,0,1,0,0,0,0,1,0,0.0338857733,31.073597,2.21925569,1],"children":[55]},{"name":"03_6__0","mesh":2},{"name":"04_5","matrix":[1,0,0,0,0,1,0,0,0,0,1,0,0.0338857733,1.00384378,2.21925569,1],"children":[57]},{"name":"04_5__0","mesh":2},{"name":"box_1","matrix":[1,0,0,0,0,1,0,0,0,0,1,0,64.6390228,0,-19.9999981,1],"children":[59,60,62,64]},{"name":"box_1__0","mesh":0},{"name":"01_6","matrix":[1,0,0,0,0,1,0,0,0,0,1,0,0.0338857733,91.0511856,15.4610786,1],"children":[61]},{"name":"01_6__0","mesh":3},{"name":"02_6","matrix":[1,0,0,0,0,0.992619216,0.121272661,0,0,-0.121272661,0.992619216,0,0.0338857733,61.0844345,17.5611725,1],"children":[63]},{"name":"02_6__0","mesh":3},{"name":"03_7","matrix":[1,0,0,0,0,1,0,0,0,0,1,0,0.0338857733,31.073597,18.9317303,1],"children":[65]},{"name":"03_7__0","mesh":3},{"name":"box_6","matrix":[1,0,0,0,0,1,0,0,0,0,1,0,-206.752182,0,-19.9999981,1],"children":[67,68,70,72,74]},{"name":"box_6__0","mesh":0},{"name":"01_7","matrix":[1,0,0,0,0,1,0,0,0,0,1,0,0.0338857733,91.0511856,2.21925569,1],"children":[69]},{"name":"01_7__0","mesh":1},{"name":"02_7","matrix":[1,0,0,0,0,1,0,0,0,0,1,0,0.0338857733,61.0844345,2.21925569,1],"children":[71]},{"name":"02_7__0","mesh":1},{"name":"03_8","matrix":[1,0,0,0,0,1,0,0,0,0,1,0,0.0338857733,31.073597,2.21925569,1],"children":[73]},{"name":"03_8__0","mesh":1},{"name":"04_7","matrix":[1,0,0,0,0,1,0,0,0,0,1,0,0.0338857733,1.00384378,2.21925569,1],"children":[75]},{"name":"04_7__0","mesh":1},{"name":"box_5","matrix":[1,0,0,0,0,1,0,0,0,0,1,0,-166.606522,0,-19.9999981,1],"children":[77,78,80,82,84]},{"name":"box_5__0","mesh":0},{"name":"01_8","matrix":[1,0,0,0,0,1,0,0,0,0,1,0,0.0338857733,91.0511856,2.21925569,1],"children":[79]},{"name":"01_8__0","mesh":1},{"name":"02_8","matrix":[1,0,0,0,0,1,0,0,0,0,1,0,0.0338857733,61.0844345,2.21925569,1],"children":[81]},{"name":"02_8__0","mesh":1},{"name":"03_9","matrix":[1,0,0,0,0,1,0,0,0,0,1,0,0.0338857733,31.073597,2.21925569,1],"children":[83]},{"name":"03_9__0","mesh":1},{"name":"04_8","matrix":[1,0,0,0,0,1,0,0,0,0,1,0,0.0338857733,1.00384378,2.21925569,1],"children":[85]},{"name":"04_8__0","mesh":1},{"name":"box_4","matrix":[1,0,0,0,0,1,0,0,0,0,1,0,-126.438461,0,-19.9999981,1],"children":[87,88,90,92,94]},{"name":"box_4__0","mesh":0},{"name":"01_9","matrix":[1,0,0,0,0,1,0,0,0,0,1,0,0.0338857733,91.0511856,2.21925569,1],"children":[89]},{"name":"01_9__0","mesh":1},{"name":"02_9","matrix":[1,0,0,0,0,1,0,0,0,0,1,0,0.0338857733,61.0844345,2.21925569,1],"children":[91]},{"name":"02_9__0","mesh":1},{"name":"03_10","matrix":[1,0,0,0,0,1,0,0,0,0,1,0,0.0338857733,31.073597,2.21925569,1],"children":[93]},{"name":"03_10__0","mesh":1},{"name":"04_9","matrix":[1,0,0,0,0,1,0,0,0,0,1,0,0.0338857733,1.00384378,2.21925569,1],"children":[95]},{"name":"04_9__0","mesh":1},{"name":"box_3","matrix":[1,0,0,0,0,1,0,0,0,0,1,0,-86.2922287,0,-19.9999981,1],"children":[97,98,100,102,104]},{"name":"box_3__0","mesh":0},{"name":"01_10","matrix":[1,0,0,0,0,1,0,0,0,0,1,0,0.0338857733,91.0511856,2.21925569,1],"children":[99]},{"name":"01_10__0","mesh":1},{"name":"02_10","matrix":[1,0,0,0,0,1,0,0,0,0,1,0,0.0338857733,61.0844345,2.21925569,1],"children":[101]},{"name":"02_10__0","mesh":1},{"name":"03_11","matrix":[1,0,0,0,0,1,0,0,0,0,1,0,0.0338857733,31.073597,2.21925569,1],"children":[103]},{"name":"03_11__0","mesh":1},{"name":"04_10","matrix":[1,0,0,0,0,1,0,0,0,0,1,0,0.0338857733,1.00384378,2.21925569,1],"children":[105]},{"name":"04_10__0","mesh":1}],"scenes":[{"name":"Sketchfab_Scene","nodes":[0,1]}],"scene":0}