{"asset":{"version":"2.0","generator":"gltfpack 1.2","extras":{"author":"Edwin Wagha (https://sketchfab.com/edwinwagha)","license":"CC-BY-4.0 (http://creativecommons.org/licenses/by/4.0/)","source":"https://sketchfab.com/3d-models/display-terminal-b1324103648d42bdb3ffd00520df4567","title":"Display Terminal"}},"extensionsUsed":["KHR_materials_clearcoat","KHR_materials_specular"],"buffers":[{"uri":"packed_terminal.bin","byteLength":304836}],"bufferViews":[{"buffer":0,"byteOffset":0,"byteLength":66828,"byteStride":12,"target":34962},{"buffer":0,"byteOffset":66828,"byteLength":66828,"byteStride":12,"target":34962},{"buffer":0,"byteOffset":133656,"byteLength":40170,"target":34963},{"buffer":0,"byteOffset":173828,"byteLength":87232,"byteStride":16,"target":34962},{"buffer":0,"byteOffset":261060,"byteLength":43776,"byteStride":8,"target":34962}],"accessors":[{"bufferView":0,"byteOffset":0,"componentType":5126,"count":97,"type":"VEC3"},{"bufferView":1,"byteOffset":0,"componentType":5126,"count":97,"type":"VEC3","min":[-1.12860358,-0.726035237,0.545569658],"max":[1.12860346,-0.0831310153,1.23841763]},{"bufferView":2,"byteOffset":0,"componentType":5123,"count":558,"type":"SCALAR"},{"bufferView":0,"byteOffset":1164,"componentType":5126,"count":5452,"type":"VEC3"},{"bufferView":1,"byteOffset":1164,"componentType":5126,"count":5452,"type":"VEC3","min":[-1.5,-1.99441075,-0.970361769],"max":[1.50000012,1.44171715,1.25640571]},{"bufferView":3,"byteOffset":0,"componentType":5126,"count":5452,"type":"VEC4"},{"bufferView":4,"byteOffset":0,"componentType":5126,"count":5452,"type":"VEC2"},{"bufferView":2,"byteOffset":1116,"componentType":5123,"count":19473,"type":"SCALAR"},{"bufferView":0,"byteOffset":66588,"componentType":5126,"count":20,"type":"VEC3"},{"bufferView":1,"byteOffset":66588,"componentType":5126,"count":20,"type":"VEC3","min":[-1.11515689,0.126342535,-0.384993017],"max":[1.11392665,1.32147586,1.06075287]},{"bufferView":4,"byteOffset":43616,"componentType":5126,"count":20,"type":"VEC2"},{"bufferView":2,"byteOffset":40062,"componentType":5123,"count":54,"type":"SCALAR"}],"samplers":[{"magFilter":9729,"minFilter":9987},{"magFilter":9729,"minFilter":9987,"wrapS":33071,"wrapT":33071}],"images":[{"uri":"Material_baseColor.webp"},{"uri":"Material_metallicRoughness.webp"},{"uri":"Material_normal.webp"},{"uri":"Material.011_baseColor.webp"}],"textures":[{"sampler":0,"source":0},{"sampler":0,"source":1},{"sampler":0,"source":2},{"sampler":1,"source":3}],"materials":[{"name":"Material.013","pbrMetallicRoughness":{"baseColorFactor":[0.157434002,0.157434002,0.157434002,1],"metallicFactor":0,"roughnessFactor":0.5},"doubleSided":true},{"name":"Material","pbrMetallicRoughness":{"baseColorFactor":[0.985907793,0.985907793,0.985907793,1],"baseColorTexture":{"index":0},"metallicRoughnessTexture":{"index":1}},"normalTexture":{"index":2},"doubleSided":true,"extensions":{"KHR_materials_specular":{}}},{"name":"Material.011","pbrMetallicRoughness":{"baseColorTexture":{"index":3},"metallicFactor":0.713635981,"roughnessFactor":0},"doubleSided":true,"extensions":{"KHR_materials_clearcoat":{"clearcoatFactor":1,"clearcoatRoughnessFactor":0.0299999993}}}],"meshes":[{"primitives":[{"attributes":{"NORMAL":0,"POSITION":1},"indices":2,"material":0},{"attributes":{"NORMAL":3,"POSITION":4,"TANGENT":5,"TEXCOORD_0":6},"indices":7,"material":1},{"attributes":{"NORMAL":8,"POSITION":9,"TEXCOORD_0":10},"indices":11,"material":2}]}],"nodes":[{"mesh":0}],"scenes":[{"name":"Sketchfab_Scene","nodes":[0]}],"scene":0}