{
  "accessors": [
    {
      "bufferView": 2,
      "componentType": 5126,
      "count": 509,
      "max": [
        0.6890919208526611,
        2.2254838943481445,
        0.6713685393333435
      ],
      "min": [
        -0.6890919208526611,
        -2.1790645122528076,
        -0.6713685393333435
      ],
      "type": "VEC3"
    },
    {
      "bufferView": 2,
      "byteOffset": 6108,
      "componentType": 5126,
      "count": 509,
      "max": [
        0.9812366366386414,
        1.0,
        1.0
      ],
      "min": [
        -1.0,
        -1.0,
        -1.0
      ],
      "type": "VEC3"
    },
    {
      "bufferView": 3,
      "componentType": 5126,
      "count": 509,
      "max": [
        1.0,
        0.9788843393325806,
        1.0,
        1.0
      ],
      "min": [
        -1.0,
        -0.9706897139549255,
        -1.0,
        -1.0
      ],
      "type": "VEC4"
    },
    {
      "bufferView": 1,
      "componentType": 5126,
      "count": 509,
      "max": [
        0.5883858799934387,
        0.9853187799453735
      ],
      "min": [
        0.01877450942993164,
        0.43197333812713623
      ],
      "type": "VEC2"
    },
    {
      "bufferView": 1,
      "byteOffset": 4072,
      "componentType": 5126,
      "count": 509,
      "max": [
        0.5883858799934387,
        0.9853187799453735
      ],
      "min": [
        0.01877450942993164,
        0.43197333812713623
      ],
      "type": "VEC2"
    },
    {
      "bufferView": 0,
      "componentType": 5125,
      "count": 1548,
      "type": "SCALAR"
    },
    {
      "bufferView": 2,
      "byteOffset": 12216,
      "componentType": 5126,
      "count": 118,
      "max": [
        0.656721830368042,
        0.16256248950958252,
        0.6039307117462158
      ],
      "min": [
        0.38612473011016846,
        -0.04850849136710167,
        -0.5945390462875366
      ],
      "type": "VEC3"
    },
    {
      "bufferView": 2,
      "byteOffset": 13632,
      "componentType": 5126,
      "count": 118,
      "max": [
        0.9914751052856445,
        0.7071068286895752,
        0.990270733833313
      ],
      "min": [
        -0.9914751052856445,
        -0.9914751052856445,
        -0.990270733833313
      ],
      "type": "VEC3"
    },
    {
      "bufferView": 3,
      "byteOffset": 8144,
      "componentType": 5126,
      "count": 118,
      "max": [
        0.9951472878456116,
        0.9951472878456116,
        0.5542165637016296,
        -1.0
      ],
      "min": [
        -0.9925793409347534,
        -0.9951472878456116,
        -0.55483078956604,
        -1.0
      ],
      "type": "VEC4"
    },
    {
      "bufferView": 1,
      "byteOffset": 8144,
      "componentType": 5126,
      "count": 118,
      "max": [
        0.3686315715312958,
        0.42603397369384766
      ],
      "min": [
        0.009687129408121109,
        0.04471933841705322
      ],
      "type": "VEC2"
    },
    {
      "bufferView": 1,
      "byteOffset": 9088,
      "componentType": 5126,
      "count": 118,
      "max": [
        0.3686315715312958,
        0.42603397369384766
      ],
      "min": [
        0.009687129408121109,
        0.04471933841705322
      ],
      "type": "VEC2"
    },
    {
      "bufferView": 0,
      "byteOffset": 6192,
      "componentType": 5125,
      "count": 432,
      "type": "SCALAR"
    },
    {
      "bufferView": 2,
      "byteOffset": 15048,
      "componentType": 5126,
      "count": 302,
      "max": [
        1.0,
        2.2225239276885986,
        1.090541958808899
      ],
      "min": [
        -1.2301265001296997,
        -2.2602145671844482,
        -1.0908201932907104
      ],
      "type": "VEC3"
    },
    {
      "bufferView": 2,
      "byteOffset": 18672,
      "componentType": 5126,
      "count": 302,
      "max": [
        0.9999977350234985,
        1.0,
        1.0
      ],
      "min": [
        -0.9999977350234985,
        -0.9997022747993469,
        -1.0
      ],
      "type": "VEC3"
    },
    {
      "bufferView": 3,
      "byteOffset": 10032,
      "componentType": 5126,
      "count": 302,
      "max": [
        1.0,
        0.7278847098350525,
        0.9999978542327881,
        -1.0
      ],
      "min": [
        -1.0,
        -0.7278850078582764,
        -0.9999978542327881,
        -1.0
      ],
      "type": "VEC4"
    },
    {
      "bufferView": 1,
      "byteOffset": 10032,
      "componentType": 5126,
      "count": 302,
      "max": [
        0.9894402623176575,
        0.9919653534889221
      ],
      "min": [
        0.6473686695098877,
        0.7106881141662598
      ],
      "type": "VEC2"
    },
    {
      "bufferView": 1,
      "byteOffset": 12448,
      "componentType": 5126,
      "count": 302,
      "max": [
        0.9894402623176575,
        0.9919653534889221
      ],
      "min": [
        0.6473686695098877,
        0.7106881141662598
      ],
      "type": "VEC2"
    },
    {
      "bufferView": 0,
      "byteOffset": 7920,
      "componentType": 5125,
      "count": 1200,
      "type": "SCALAR"
    },
    {
      "bufferView": 2,
      "byteOffset": 22296,
      "componentType": 5126,
      "count": 640,
      "max": [
        2.094359874725342,
        181.33517456054688,
        2.211313486099243
      ],
      "min": [
        -2.093283176422119,
        -92.45677185058594,
        -1.975256085395813
      ],
      "type": "VEC3"
    },
    {
      "bufferView": 2,
      "byteOffset": 29976,
      "componentType": 5126,
      "count": 640,
      "max": [
        0.9999898672103882,
        1.0,
        0.9999918937683105
      ],
      "min": [
        -0.9999918937683105,
        -1.0,
        -0.9999933242797852
      ],
      "type": "VEC3"
    },
    {
      "bufferView": 3,
      "byteOffset": 14864,
      "componentType": 5126,
      "count": 640,
      "max": [
        1.0,
        0.9999998807907104,
        0.9053568840026855,
        1.0
      ],
      "min": [
        -0.9999998211860657,
        -0.9999998211860657,
        -0.9901959300041199,
        -1.0
      ],
      "type": "VEC4"
    },
    {
      "bufferView": 1,
      "byteOffset": 14864,
      "componentType": 5126,
      "count": 640,
      "max": [
        0.9968387484550476,
        0.3611057996749878
      ],
      "min": [
        0.3592681586742401,
        0.008116722106933594
      ],
      "type": "VEC2"
    },
    {
      "bufferView": 1,
      "byteOffset": 19984,
      "componentType": 5126,
      "count": 640,
      "max": [
        0.9968387484550476,
        0.3611057996749878
      ],
      "min": [
        0.3592681586742401,
        0.008116722106933594
      ],
      "type": "VEC2"
    },
    {
      "bufferView": 0,
      "byteOffset": 12720,
      "componentType": 5125,
      "count": 3354,
      "type": "SCALAR"
    },
    {
      "bufferView": 2,
      "byteOffset": 37656,
      "componentType": 5126,
      "count": 302,
      "max": [
        1.0,
        2.2225239276885986,
        1.090541958808899
      ],
      "min": [
        -1.2301265001296997,
        -2.2602145671844482,
        -1.0908201932907104
      ],
      "type": "VEC3"
    },
    {
      "bufferView": 2,
      "byteOffset": 41280,
      "componentType": 5126,
      "count": 302,
      "max": [
        0.9999977350234985,
        1.0,
        1.0
      ],
      "min": [
        -0.9999977350234985,
        -0.9997022747993469,
        -1.0
      ],
      "type": "VEC3"
    },
    {
      "bufferView": 3,
      "byteOffset": 25104,
      "componentType": 5126,
      "count": 302,
      "max": [
        1.0,
        0.7278846502304077,
        0.9999978542327881,
        -1.0
      ],
      "min": [
        -1.0,
        -0.7278850674629211,
        -0.9999978542327881,
        -1.0
      ],
      "type": "VEC4"
    },
    {
      "bufferView": 1,
      "byteOffset": 25104,
      "componentType": 5126,
      "count": 302,
      "max": [
        0.9945984482765198,
        0.6746169328689575
      ],
      "min": [
        0.6525265574455261,
        0.39333975315093994
      ],
      "type": "VEC2"
    },
    {
      "bufferView": 1,
      "byteOffset": 27520,
      "componentType": 5126,
      "count": 302,
      "max": [
        0.9945984482765198,
        0.6746169328689575
      ],
      "min": [
        0.6525265574455261,
        0.39333975315093994
      ],
      "type": "VEC2"
    },
    {
      "bufferView": 0,
      "byteOffset": 26136,
      "componentType": 5125,
      "count": 1200,
      "type": "SCALAR"
    }
  ],
  "asset": {
    "extras": {
      "author": "Sibghat Baloch (https://sketchfab.com/sibghatbaloch)",
      "license": "SKETCHFAB Standard (https://sketchfab.com/licenses)",
      "source": "https://sketchfab.com/3d-models/water-dispenser-2070dba0f1b14fcd819a7783816c77ec",
      "title": "Water Dispenser"
    },
    "generator": "Sketchfab-0.6.0",
    "version": "2.0"
  },
  "bufferViews": [
    {
      "buffer": 0,
      "byteLength": 30936,
      "name": "floatBufferViews",
      "target": 34963
    },
    {
      "buffer": 0,
      "byteLength": 29936,
      "byteOffset": 30936,
      "byteStride": 8,
      "name": "floatBufferViews",
      "target": 34962
    },
    {
      "buffer": 0,
      "byteLength": 44904,
      "byteOffset": 60872,
      "byteStride": 12,
      "name": "floatBufferViews",
      "target": 34962
    },
    {
      "buffer": 0,
      "byteLength": 29936,
      "byteOffset": 105776,
      "byteStride": 16,
      "name": "floatBufferViews",
      "target": 34962
    }
  ],
  "buffers": [
    {
      "byteLength": 135712,
      "uri": "scene.bin"
    }
  ],
  "extensionsUsed": [
    "KHR_materials_specular"
  ],
  "images": [
    {
      "uri": "textures/DispenserBody_baseColor.png"
    },
    {
      "uri": "textures/DispenserBody_metallicRoughness.png"
    },
    {
      "uri": "textures/DispenserBody_normal.png"
    },
    {
      "uri": "textures/DispenserBody_specularf0.png"
    },
    {
      "uri": "textures/PlasticWaterWaste_baseColor.png"
    },
    {
      "uri": "textures/PlasticWaterWaste_metallicRoughness.png"
    },
    {
      "uri": "textures/PlasticWaterWaste_normal.png"
    },
    {
      "uri": "textures/WaterTap2_baseColor.png"
    },
    {
      "uri": "textures/WaterTap2_metallicRoughness.png"
    },
    {
      "uri": "textures/WaterTap2_normal.png"
    },
    {
      "uri": "textures/WaterCan_baseColor.png"
    },
    {
      "uri": "textures/WaterCan_metallicRoughness.png"
    },
    {
      "uri": "textures/WaterCan_normal.png"
    },
    {
      "uri": "textures/WaterTap1_baseColor.png"
    },
    {
      "uri": "textures/WaterTap1_metallicRoughness.png"
    },
    {
      "uri": "textures/WaterTap1_normal.png"
    }
  ],
  "materials": [
    {
      "doubleSided": true,
      "extensions": {
        "KHR_materials_specular": {
          "specularColorFactor": [
            1.0,
            1.0,
            1.0
          ],
          "specularFactor": 1.0,
          "specularTexture": {
            "index": 3
          }
        }
      },
      "name": "DispenserBody",
      "normalTexture": {
        "index": 2,
        "texCoord": 1
      },
      "occlusionTexture": {
        "index": 1
      },
      "pbrMetallicRoughness": {
        "baseColorTexture": {
          "index": 0
        },
        "metallicFactor": 0.0,
        "metallicRoughnessTexture": {
          "index": 1
        },
        "roughnessFactor": 0.5
      }
    },
    {
      "doubleSided": true,
      "name": "PlasticWaterWaste",
      "normalTexture": {
        "index": 6
      },
      "occlusionTexture": {
        "index": 5
      },
      "pbrMetallicRoughness": {
        "baseColorTexture": {
          "index": 4
        },
        "metallicFactor": 0.0,
        "metallicRoughnessTexture": {
          "index": 5
        },
        "roughnessFactor": 0.5
      }
    },
    {
      "doubleSided": true,
      "name": "WaterTap2",
      "normalTexture": {
        "index": 9
      },
      "occlusionTexture": {
        "index": 8
      },
      "pbrMetallicRoughness": {
        "baseColorTexture": {
          "index": 7
        },
        "metallicFactor": 0.0,
        "metallicRoughnessTexture": {
          "index": 8
        },
        "roughnessFactor": 0.5
      }
    },
    {
      "doubleSided": true,
      "name": "WaterCan",
      "normalTexture": {
        "index": 12
      },
      "occlusionTexture": {
        "index": 11
      },
      "pbrMetallicRoughness": {
        "baseColorTexture": {
          "index": 10
        },
        "metallicFactor": 0.0,
        "metallicRoughnessTexture": {
          "index": 11
        },
        "roughnessFactor": 0.5
      }
    },
    {
      "doubleSided": true,
      "name": "WaterTap1",
      "normalTexture": {
        "index": 15
      },
      "occlusionTexture": {
        "index": 14
      },
      "pbrMetallicRoughness": {
        "baseColorTexture": {
          "index": 13
        },
        "metallicFactor": 0.0,
        "metallicRoughnessTexture": {
          "index": 14
        },
        "roughnessFactor": 0.5
      }
    }
  ],
  "meshes": [
    {
      "name": "Object_0",
      "primitives": [
        {
          "attributes": {
            "NORMAL": 1,
            "POSITION": 0,
            "TANGENT": 2,
            "TEXCOORD_0": 3,
            "TEXCOORD_1": 4
          },
          "indices": 5,
          "material": 0,
          "mode": 4
        }
      ]
    },
    {
      "name": "Object_1",
      "primitives": [
        {
          "attributes": {
            "NORMAL": 7,
            "POSITION": 6,
            "TANGENT": 8,
            "TEXCOORD_0": 9,
            "TEXCOORD_1": 10
          },
          "indices": 11,
          "material": 1,
          "mode": 4
        }
      ]
    },
    {
      "name": "Object_2",
      "primitives": [
        {
          "attributes": {
            "NORMAL": 13,
            "POSITION": 12,
            "TANGENT": 14,
            "TEXCOORD_0": 15,
            "TEXCOORD_1": 16
          },
          "indices": 17,
          "material": 2,
          "mode": 4
        }
      ]
    },
    {
      "name": "Object_3",
      "primitives": [
        {
          "attributes": {
            "NORMAL": 19,
            "POSITION": 18,
            "TANGENT": 20,
            "TEXCOORD_0": 21,
            "TEXCOORD_1": 22
          },
          "indices": 23,
          "material": 3,
          "mode": 4
        }
      ]
    },
    {
      "name": "Object_4",
      "primitives": [
        {
          "attributes": {
            "NORMAL": 25,
            "POSITION": 24,
            "TANGENT": 26,
            "TEXCOORD_0": 27,
            "TEXCOORD_1": 28
          },
          "indices": 29,
          "material": 4,
          "mode": 4
        }
      ]
    }
  ],
  "nodes": [
    {
      "children": [
        1
      ],
      "matrix": [
        1.0,
        0.0,
        0.0,
        0.0,
        0.0,
        2.220446049250313e-16,
        -1.0,
        0.0,
        0.0,
        1.0,
        2.220446049250313e-16,
        0.0,
        0.0,
        0.0,
        0.0,
        1.0
      ],
      "name": "Sketchfab_model"
    },
    {
      "children": [
        2
      ],
      "name": "root"
    },
    {
      "children": [
        3,
        5,
        7,
        9,
        11
      ],
      "matrix": [
        1.0,
        0.0,
        0.0,
        0.0,
        0.0,
        2.220446049250313e-16,
        1.0,
        0.0,
        0.0,
        -1.0,
        2.220446049250313e-16,
        0.0,
        0.0,
        0.0,
        0.0,
        1.0
      ],
      "name": "GLTF_SceneRootNode"
    },
    {
      "children": [
        4
      ],
      "name": "DispenserBody_0"
    },
    {
      "mesh": 0,
      "name": "Object_4"
    },
    {
      "children": [
        6
      ],
      "matrix": [
        1.0762176513671875,
        0.0,
        0.0,
        0.0,
        0.0,
        1.0168094635009766,
        0.0,
        0.0,
        0.0,
        0.0,
        0.9669895172119141,
        0.0,
        -0.04328092932701111,
        -0.011537233367562294,
        0.0,
        1.0
      ],
      "name": "PlasticWaterWaste_1"
    },
    {
      "mesh": 1,
      "name": "Object_6"
    },
    {
      "children": [
        8
      ],
      "matrix": [
        0.10086609423160553,
        0.0,
        0.0,
        0.0,
        0.0,
        0.17624184489250183,
        0.0,
        0.0,
        0.0,
        0.0,
        0.10086609423160553,
        0.0,
        0.5819475650787354,
        1.2019490003585815,
        0.28224122524261475,
        1.0
      ],
      "name": "WaterTap2_2"
    },
    {
      "mesh": 2,
      "name": "Object_8"
    },
    {
      "children": [
        10
      ],
      "matrix": [
        0.25733616948127747,
        -0.0,
        0.0,
        -0.0,
        -0.0,
        0.0059607080183923244,
        -0.0,
        -0.0,
        -0.0,
        0.0,
        -0.2548089027404785,
        -0.0,
        0.0,
        2.6703765392303467,
        0.0,
        1.0
      ],
      "name": "WaterCan_3"
    },
    {
      "mesh": 3,
      "name": "Object_10"
    },
    {
      "children": [
        12
      ],
      "matrix": [
        0.10086609423160553,
        0.0,
        0.0,
        0.0,
        0.0,
        0.17624184489250183,
        0.0,
        0.0,
        0.0,
        0.0,
        0.10086609423160553,
        0.0,
        0.5819475650787354,
        1.2019490003585815,
        -0.3188721537590027,
        1.0
      ],
      "name": "WaterTap1_4"
    },
    {
      "mesh": 4,
      "name": "Object_12"
    }
  ],
  "samplers": [
    {
      "magFilter": 9729,
      "minFilter": 9987,
      "wrapS": 10497,
      "wrapT": 10497
    }
  ],
  "scene": 0,
  "scenes": [
    {
      "name": "Sketchfab_Scene",
      "nodes": [
        0
      ]
    }
  ],
  "textures": [
    {
      "sampler": 0,
      "source": 0
    },
    {
      "sampler": 0,
      "source": 1
    },
    {
      "sampler": 0,
      "source": 2
    },
    {
      "sampler": 0,
      "source": 3
    },
    {
      "sampler": 0,
      "source": 4
    },
    {
      "sampler": 0,
      "source": 5
    },
    {
      "sampler": 0,
      "source": 6
    },
    {
      "sampler": 0,
      "source": 7
    },
    {
      "sampler": 0,
      "source": 8
    },
    {
      "sampler": 0,
      "source": 9
    },
    {
      "sampler": 0,
      "source": 10
    },
    {
      "sampler": 0,
      "source": 11
    },
    {
      "sampler": 0,
      "source": 12
    },
    {
      "sampler": 0,
      "source": 13
    },
    {
      "sampler": 0,
      "source": 14
    },
    {
      "sampler": 0,
      "source": 15
    }
  ]
}
