ISO-10303-21;

HEADER;
FILE_DESCRIPTION((' '),'2;1');
FILE_NAME( 'CENTER TABLE.stp',
           '2026-08-19T20:48:28',
           (' '),
           ('---                        ---'),
           '                      V2026.1  Dec 31 2025',
           '        2026 (c)',
           ' ');
FILE_SCHEMA(('AP242_MANAGED_MODEL_BASED_3D_ENGINEERING_MIM_LF { 1 0 10303 442 1 1 4 }'));
ENDSEC;

DATA;
#1=APPLICATION_CONTEXT('Managed model based 3d engineering');
#2=APPLICATION_PROTOCOL_DEFINITION('international standard','ap242_managed_model_based_3d_engineering',2013,#1);
#3=(LENGTH_UNIT()NAMED_UNIT(*)SI_UNIT(.MILLI.,.METRE.));
#4=(NAMED_UNIT(*)PLANE_ANGLE_UNIT()SI_UNIT($,.RADIAN.));
#5=( GEOMETRIC_REPRESENTATION_CONTEXT(3)
       GLOBAL_UNCERTAINTY_ASSIGNED_CONTEXT((#6)) GLOBAL_UNIT_ASSIGNED_CONTEXT
  ((#3,#4)) REPRESENTATION_CONTEXT('Context #1',
  '3D Context with UNIT and UNCERTAINTY') );
#6=UNCERTAINTY_MEASURE_WITH_UNIT(LENGTH_MEASURE(0.005),#3,'distance_accuracy_value','Confusion accuracy');
#7=PRODUCT_CONTEXT('',#1,'mechanical');
#8=PRODUCT('P006','','',(#7));
#9=PRODUCT_DEFINITION_FORMATION('','',#8);
#10=PRODUCT_DEFINITION_CONTEXT('part definition',#1,'design');
#11=PRODUCT_DEFINITION('design','',#9,#10);
#12=PRODUCT_DEFINITION_SHAPE('','',#11);
#13=PRODUCT_CATEGORY('part',$);
#14=PRODUCT_RELATED_PRODUCT_CATEGORY('part',$,(#8));
#15=PRODUCT_CATEGORY_RELATIONSHIP('','',#13,#14);
#16=CARTESIAN_POINT('',(1.6597231065,0.0,0.0));
#17=VERTEX_POINT('',#16);
#18=CARTESIAN_POINT('',(1.0247231065,0.0,0.0));
#19=DIRECTION('',(0.0,0.0,1.0));
#20=DIRECTION('',(1.0,0.0,0.0));
#21=AXIS2_PLACEMENT_3D('',#18,#19,#20);
#22=CIRCLE('',#21,0.635);
#23=EDGE_CURVE('no 18',#17,#17,#22,.T.);
#24=ORIENTED_EDGE('',*,*,#23,.T.);
#25=EDGE_LOOP('',(#24));
#26=FACE_OUTER_BOUND('',#25,.T.);
#27=CARTESIAN_POINT('',(1.6597231065,0.0,38.1));
#28=VERTEX_POINT('',#27);
#29=CARTESIAN_POINT('',(1.0247231065,0.0,38.1));
#30=DIRECTION('',(0.0,0.0,1.0));
#31=DIRECTION('',(1.0,0.0,0.0));
#32=AXIS2_PLACEMENT_3D('',#29,#30,#31);
#33=CIRCLE('',#32,0.635);
#34=EDGE_CURVE('no 57',#28,#28,#33,.T.);
#35=ORIENTED_EDGE('',*,*,#34,.F.);
#36=EDGE_LOOP('',(#35));
#37=FACE_BOUND('',#36,.T.);
#38=CARTESIAN_POINT('',(1.0247231065,0.0,19.05));
#39=DIRECTION('',(0.0,0.0,-1.0));
#40=DIRECTION('',(-1.0,0.0,0.0));
#41=AXIS2_PLACEMENT_3D('',#38,#39,#40);
#42=CYLINDRICAL_SURFACE('',#41,0.635);
#43=ADVANCED_FACE('no 25',(#26,#37),#42,.T.);
#44=ORIENTED_EDGE('',*,*,#23,.F.);
#45=EDGE_LOOP('',(#44));
#46=FACE_OUTER_BOUND('',#45,.T.);
#47=CARTESIAN_POINT('',(1.0247231065,0.0,0.0));
#48=DIRECTION('',(0.0,0.0,1.0));
#49=DIRECTION('',(1.0,0.0,0.0));
#50=AXIS2_PLACEMENT_3D('',#47,#48,#49);
#51=PLANE('',#50);
#52=ADVANCED_FACE('no 16',(#46),#51,.F.);
#53=ORIENTED_EDGE('',*,*,#34,.T.);
#54=EDGE_LOOP('',(#53));
#55=FACE_OUTER_BOUND('',#54,.T.);
#56=CARTESIAN_POINT('',(1.0247231065,0.0,38.1));
#57=DIRECTION('',(0.0,0.0,1.0));
#58=DIRECTION('',(1.0,0.0,0.0));
#59=AXIS2_PLACEMENT_3D('',#56,#57,#58);
#60=PLANE('',#59);
#61=ADVANCED_FACE('no 65',(#55),#60,.T.);
#62=CLOSED_SHELL('P006',(#43,#52,#61));
#63=MANIFOLD_SOLID_BREP('P006',#62);
#64=COLOUR_RGB('',0.9,0.9,0.9);
#65=FILL_AREA_STYLE_COLOUR('',#64);
#66=FILL_AREA_STYLE('',(#65));
#67=SURFACE_STYLE_FILL_AREA(#66);
#68=SURFACE_SIDE_STYLE('',(#67));
#69=SURFACE_STYLE_USAGE(.BOTH.,#68);
#70=PRESENTATION_STYLE_ASSIGNMENT((#69));
#71=STYLED_ITEM('',(#70),#63);
#72=CARTESIAN_POINT('',(0.,0.,0.));
#73=DIRECTION('',(0.,0.,1.));
#74=DIRECTION('',(1.,0.,0.));
#75=AXIS2_PLACEMENT_3D('Reference Axes',#72,#73,#74);
#76=SHAPE_REPRESENTATION('',(#75,#63),#5);
#77=SHAPE_DEFINITION_REPRESENTATION(#12,#76);
#78=( GEOMETRIC_REPRESENTATION_CONTEXT(3)
       GLOBAL_UNCERTAINTY_ASSIGNED_CONTEXT((#79)) GLOBAL_UNIT_ASSIGNED_CONTEXT
  ((#3,#4)) REPRESENTATION_CONTEXT('Context #2',
  '3D Context with UNIT and UNCERTAINTY') );
#79=UNCERTAINTY_MEASURE_WITH_UNIT(LENGTH_MEASURE(0.005),#3,'distance_accuracy_value','Confusion accuracy');
#80=PRODUCT_CONTEXT('',#1,'mechanical');
#81=PRODUCT('P005','','',(#80));
#82=PRODUCT_DEFINITION_FORMATION('','',#81);
#83=PRODUCT_DEFINITION_CONTEXT('part definition',#1,'design');
#84=PRODUCT_DEFINITION('design','',#82,#83);
#85=PRODUCT_DEFINITION_SHAPE('','',#84);
#86=PRODUCT_CATEGORY('part',$);
#87=PRODUCT_RELATED_PRODUCT_CATEGORY('part',$,(#81));
#88=PRODUCT_CATEGORY_RELATIONSHIP('','',#86,#87);
#89=CARTESIAN_POINT('',(32.385,-7.62,0.635));
#90=VERTEX_POINT('',#89);
#91=CARTESIAN_POINT('',(32.385,-7.62,0.0));
#92=DIRECTION('',(-0.0,-1.0,0.0));
#93=DIRECTION('',(0.0,0.0,1.0));
#94=AXIS2_PLACEMENT_3D('',#91,#92,#93);
#95=CIRCLE('',#94,0.635);
#96=EDGE_CURVE('no 59',#90,#90,#95,.T.);
#97=ORIENTED_EDGE('',*,*,#96,.T.);
#98=EDGE_LOOP('',(#97));
#99=FACE_OUTER_BOUND('',#98,.T.);
#100=CARTESIAN_POINT('',(32.385,-17.78,0.635));
#101=VERTEX_POINT('',#100);
#102=CARTESIAN_POINT('',(32.385,-17.78,0.0));
#103=DIRECTION('',(-0.0,-1.0,0.0));
#104=DIRECTION('',(0.0,0.0,1.0));
#105=AXIS2_PLACEMENT_3D('',#102,#103,#104);
#106=CIRCLE('',#105,0.635);
#107=EDGE_CURVE('no 71',#101,#101,#106,.T.);
#108=ORIENTED_EDGE('',*,*,#107,.F.);
#109=EDGE_LOOP('',(#108));
#110=FACE_BOUND('',#109,.T.);
#111=CARTESIAN_POINT('',(32.385,-7.62,0.0));
#112=DIRECTION('',(0.0,-1.0,0.0));
#113=DIRECTION('',(0.0,0.0,-1.0));
#114=AXIS2_PLACEMENT_3D('',#111,#112,#113);
#115=CYLINDRICAL_SURFACE('',#114,0.635);
#116=ADVANCED_FACE('no 68',(#99,#110),#115,.T.);
#117=CARTESIAN_POINT('',(25.4,-0.635,0.635));
#118=VERTEX_POINT('',#117);
#119=CARTESIAN_POINT('',(25.4,-0.635,0.0));
#120=DIRECTION('',(1.0,-0.0,0.0));
#121=DIRECTION('',(0.0,0.0,1.0));
#122=AXIS2_PLACEMENT_3D('',#119,#120,#121);
#123=CIRCLE('',#122,0.635);
#124=EDGE_CURVE('no 49',#118,#118,#123,.T.);
#125=ORIENTED_EDGE('',*,*,#124,.T.);
#126=EDGE_LOOP('',(#125));
#127=FACE_OUTER_BOUND('',#126,.T.);
#128=ORIENTED_EDGE('',*,*,#96,.F.);
#129=EDGE_LOOP('',(#128));
#130=FACE_BOUND('',#129,.T.);
#131=CARTESIAN_POINT('',(25.4,-7.62,0.0));
#132=DIRECTION('',(0.0,0.0,-1.0));
#133=DIRECTION('',(-1.0,0.0,0.0));
#134=AXIS2_PLACEMENT_3D('',#131,#132,#133);
#135=TOROIDAL_SURFACE('',#134,6.985,0.635);
#136=ADVANCED_FACE('no 56',(#127,#130),#135,.T.);
#137=CARTESIAN_POINT('',(7.62,-0.635,0.635));
#138=VERTEX_POINT('',#137);
#139=CARTESIAN_POINT('',(7.62,-0.635,0.0));
#140=DIRECTION('',(1.0,-0.0,0.0));
#141=DIRECTION('',(0.0,0.0,1.0));
#142=AXIS2_PLACEMENT_3D('',#139,#140,#141);
#143=CIRCLE('',#142,0.635);
#144=EDGE_CURVE('no 37',#138,#138,#143,.T.);
#145=ORIENTED_EDGE('',*,*,#144,.T.);
#146=EDGE_LOOP('',(#145));
#147=FACE_OUTER_BOUND('',#146,.T.);
#148=ORIENTED_EDGE('',*,*,#124,.F.);
#149=EDGE_LOOP('',(#148));
#150=FACE_BOUND('',#149,.T.);
#151=CARTESIAN_POINT('',(7.62,-0.635,0.0));
#152=DIRECTION('',(1.0,-0.0,0.0));
#153=DIRECTION('',(0.0,1.0,0.0));
#154=AXIS2_PLACEMENT_3D('',#151,#152,#153);
#155=CYLINDRICAL_SURFACE('',#154,0.635);
#156=ADVANCED_FACE('no 46',(#147,#150),#155,.T.);
#157=CARTESIAN_POINT('',(0.635,-7.62,0.635));
#158=VERTEX_POINT('',#157);
#159=CARTESIAN_POINT('',(0.635,-7.62,0.0));
#160=DIRECTION('',(0.0,1.0,0.0));
#161=DIRECTION('',(0.0,0.0,1.0));
#162=AXIS2_PLACEMENT_3D('',#159,#160,#161);
#163=CIRCLE('',#162,0.635);
#164=EDGE_CURVE('no 4',#158,#158,#163,.T.);
#165=ORIENTED_EDGE('',*,*,#164,.T.);
#166=EDGE_LOOP('',(#165));
#167=FACE_OUTER_BOUND('',#166,.T.);
#168=ORIENTED_EDGE('',*,*,#144,.F.);
#169=EDGE_LOOP('',(#168));
#170=FACE_BOUND('',#169,.T.);
#171=CARTESIAN_POINT('',(7.62,-7.62,0.0));
#172=DIRECTION('',(0.0,0.0,-1.0));
#173=DIRECTION('',(-1.0,0.0,0.0));
#174=AXIS2_PLACEMENT_3D('',#171,#172,#173);
#175=TOROIDAL_SURFACE('',#174,6.985,0.635);
#176=ADVANCED_FACE('no 34',(#167,#170),#175,.T.);
#177=ORIENTED_EDGE('',*,*,#164,.F.);
#178=EDGE_LOOP('',(#177));
#179=FACE_OUTER_BOUND('',#178,.T.);
#180=CARTESIAN_POINT('',(0.635,-17.78,0.635));
#181=VERTEX_POINT('',#180);
#182=CARTESIAN_POINT('',(0.635,-17.78,0.0));
#183=DIRECTION('',(0.0,1.0,0.0));
#184=DIRECTION('',(0.0,0.0,1.0));
#185=AXIS2_PLACEMENT_3D('',#182,#183,#184);
#186=CIRCLE('',#185,0.635);
#187=EDGE_CURVE('no 18',#181,#181,#186,.T.);
#188=ORIENTED_EDGE('',*,*,#187,.T.);
#189=EDGE_LOOP('',(#188));
#190=FACE_BOUND('',#189,.T.);
#191=CARTESIAN_POINT('',(0.635,-7.62,0.0));
#192=DIRECTION('',(0.0,-1.0,0.0));
#193=DIRECTION('',(1.0,0.0,0.0));
#194=AXIS2_PLACEMENT_3D('',#191,#192,#193);
#195=CYLINDRICAL_SURFACE('',#194,0.635);
#196=ADVANCED_FACE('no 25',(#179,#190),#195,.T.);
#197=CARTESIAN_POINT('',(32.893,-17.78,0.0));
#198=VERTEX_POINT('',#197);
#199=CARTESIAN_POINT('',(32.385,-17.78,0.0));
#200=DIRECTION('',(-0.0,-1.0,0.0));
#201=DIRECTION('',(1.0,-0.0,0.0));
#202=AXIS2_PLACEMENT_3D('',#199,#200,#201);
#203=CIRCLE('',#202,0.508);
#204=EDGE_CURVE('no 124',#198,#198,#203,.T.);
#205=ORIENTED_EDGE('',*,*,#204,.F.);
#206=EDGE_LOOP('',(#205));
#207=FACE_OUTER_BOUND('',#206,.T.);
#208=ORIENTED_EDGE('',*,*,#107,.T.);
#209=EDGE_LOOP('',(#208));
#210=FACE_BOUND('',#209,.T.);
#211=CARTESIAN_POINT('',(32.385,-17.78,0.0));
#212=DIRECTION('',(-0.0,-1.0,0.0));
#213=DIRECTION('',(0.0,0.0,1.0));
#214=AXIS2_PLACEMENT_3D('',#211,#212,#213);
#215=PLANE('',#214);
#216=ADVANCED_FACE('no 1',(#207,#210),#215,.T.);
#217=ORIENTED_EDGE('',*,*,#187,.F.);
#218=EDGE_LOOP('',(#217));
#219=FACE_OUTER_BOUND('',#218,.T.);
#220=CARTESIAN_POINT('',(0.635,-17.78,0.0));
#221=DIRECTION('',(0.0,1.0,0.0));
#222=DIRECTION('',(0.0,0.0,1.0));
#223=AXIS2_PLACEMENT_3D('',#220,#221,#222);
#224=PLANE('',#223);
#225=ADVANCED_FACE('no 16',(#219),#224,.F.);
#226=CARTESIAN_POINT('',(32.385,-7.62,-0.508));
#227=VERTEX_POINT('',#226);
#228=CARTESIAN_POINT('',(32.385,-7.62,0.0));
#229=DIRECTION('',(0.0,-1.0,0.0));
#230=DIRECTION('',(0.0,0.0,-1.0));
#231=AXIS2_PLACEMENT_3D('',#228,#229,#230);
#232=CIRCLE('',#231,0.508);
#233=EDGE_CURVE('no 119',#227,#227,#232,.T.);
#234=ORIENTED_EDGE('',*,*,#233,.F.);
#235=EDGE_LOOP('',(#234));
#236=FACE_OUTER_BOUND('',#235,.T.);
#237=ORIENTED_EDGE('',*,*,#204,.T.);
#238=EDGE_LOOP('',(#237));
#239=FACE_BOUND('',#238,.T.);
#240=CARTESIAN_POINT('',(32.385,-7.62,0.0));
#241=DIRECTION('',(0.0,-1.0,0.0));
#242=DIRECTION('',(0.0,0.0,-1.0));
#243=AXIS2_PLACEMENT_3D('',#240,#241,#242);
#244=CYLINDRICAL_SURFACE('',#243,0.508);
#245=ADVANCED_FACE('no 125',(#236,#239),#244,.F.);
#246=CARTESIAN_POINT('',(25.4,-1.143,0.0));
#247=VERTEX_POINT('',#246);
#248=CARTESIAN_POINT('',(25.4,-0.635,0.0));
#249=DIRECTION('',(1.0,0.0,-0.0));
#250=DIRECTION('',(0.0,-1.0,0.0));
#251=AXIS2_PLACEMENT_3D('',#248,#249,#250);
#252=CIRCLE('',#251,0.508);
#253=EDGE_CURVE('no 120',#247,#247,#252,.T.);
#254=ORIENTED_EDGE('',*,*,#253,.F.);
#255=EDGE_LOOP('',(#254));
#256=FACE_OUTER_BOUND('',#255,.T.);
#257=ORIENTED_EDGE('',*,*,#233,.T.);
#258=EDGE_LOOP('',(#257));
#259=FACE_BOUND('',#258,.T.);
#260=CARTESIAN_POINT('',(25.4,-7.62,0.0));
#261=DIRECTION('',(0.0,0.0,-1.0));
#262=DIRECTION('',(-1.0,0.0,0.0));
#263=AXIS2_PLACEMENT_3D('',#260,#261,#262);
#264=TOROIDAL_SURFACE('',#263,6.985,0.508);
#265=ADVANCED_FACE('no 130',(#256,#259),#264,.F.);
#266=CARTESIAN_POINT('',(7.62,-0.127,0.0));
#267=VERTEX_POINT('',#266);
#268=CARTESIAN_POINT('',(7.62,-0.635,0.0));
#269=DIRECTION('',(1.0,-0.0,0.0));
#270=DIRECTION('',(0.0,1.0,0.0));
#271=AXIS2_PLACEMENT_3D('',#268,#269,#270);
#272=CIRCLE('',#271,0.508);
#273=EDGE_CURVE('no 121',#267,#267,#272,.T.);
#274=ORIENTED_EDGE('',*,*,#273,.F.);
#275=EDGE_LOOP('',(#274));
#276=FACE_OUTER_BOUND('',#275,.T.);
#277=ORIENTED_EDGE('',*,*,#253,.T.);
#278=EDGE_LOOP('',(#277));
#279=FACE_BOUND('',#278,.T.);
#280=CARTESIAN_POINT('',(7.62,-0.635,0.0));
#281=DIRECTION('',(1.0,-0.0,0.0));
#282=DIRECTION('',(0.0,1.0,0.0));
#283=AXIS2_PLACEMENT_3D('',#280,#281,#282);
#284=CYLINDRICAL_SURFACE('',#283,0.508);
#285=ADVANCED_FACE('no 135',(#276,#279),#284,.F.);
#286=CARTESIAN_POINT('',(1.143,-7.62,0.0));
#287=VERTEX_POINT('',#286);
#288=CARTESIAN_POINT('',(0.635,-7.62,0.0));
#289=DIRECTION('',(-0.0,1.0,-0.0));
#290=DIRECTION('',(1.0,0.0,0.0));
#291=AXIS2_PLACEMENT_3D('',#288,#289,#290);
#292=CIRCLE('',#291,0.508);
#293=EDGE_CURVE('no 122',#287,#287,#292,.T.);
#294=ORIENTED_EDGE('',*,*,#293,.F.);
#295=EDGE_LOOP('',(#294));
#296=FACE_OUTER_BOUND('',#295,.T.);
#297=ORIENTED_EDGE('',*,*,#273,.T.);
#298=EDGE_LOOP('',(#297));
#299=FACE_BOUND('',#298,.T.);
#300=CARTESIAN_POINT('',(7.62,-7.62,0.0));
#301=DIRECTION('',(0.0,0.0,-1.0));
#302=DIRECTION('',(-1.0,0.0,0.0));
#303=AXIS2_PLACEMENT_3D('',#300,#301,#302);
#304=TOROIDAL_SURFACE('',#303,6.985,0.508);
#305=ADVANCED_FACE('no 140',(#296,#299),#304,.F.);
#306=ORIENTED_EDGE('',*,*,#293,.T.);
#307=EDGE_LOOP('',(#306));
#308=FACE_OUTER_BOUND('',#307,.T.);
#309=CARTESIAN_POINT('',(0.635,-17.653,0.508));
#310=VERTEX_POINT('',#309);
#311=CARTESIAN_POINT('',(0.635,-17.653,0.0));
#312=DIRECTION('',(0.0,1.0,0.0));
#313=DIRECTION('',(0.0,0.0,1.0));
#314=AXIS2_PLACEMENT_3D('',#311,#312,#313);
#315=CIRCLE('',#314,0.508);
#316=EDGE_CURVE('no 123',#310,#310,#315,.T.);
#317=ORIENTED_EDGE('',*,*,#316,.F.);
#318=EDGE_LOOP('',(#317));
#319=FACE_BOUND('',#318,.T.);
#320=CARTESIAN_POINT('',(0.635,-7.62,0.0));
#321=DIRECTION('',(0.0,-1.0,0.0));
#322=DIRECTION('',(1.0,0.0,0.0));
#323=AXIS2_PLACEMENT_3D('',#320,#321,#322);
#324=CYLINDRICAL_SURFACE('',#323,0.508);
#325=ADVANCED_FACE('no 145',(#308,#319),#324,.F.);
#326=ORIENTED_EDGE('',*,*,#316,.T.);
#327=EDGE_LOOP('',(#326));
#328=FACE_OUTER_BOUND('',#327,.T.);
#329=CARTESIAN_POINT('',(0.635,-17.653,0.0));
#330=DIRECTION('',(0.0,1.0,0.0));
#331=DIRECTION('',(0.0,0.0,1.0));
#332=AXIS2_PLACEMENT_3D('',#329,#330,#331);
#333=PLANE('',#332);
#334=ADVANCED_FACE('no 153',(#328),#333,.T.);
#335=CLOSED_SHELL('P005',(
    #116,#136,#156,#176,#196,#216,#225,#245,#265,#285,
    #305,#325,#334));
#336=MANIFOLD_SOLID_BREP('P005',#335);
#337=COLOUR_RGB('',0.84706,0.84706,0.84706);
#338=FILL_AREA_STYLE_COLOUR('',#337);
#339=FILL_AREA_STYLE('',(#338));
#340=SURFACE_STYLE_FILL_AREA(#339);
#341=SURFACE_SIDE_STYLE('',(#340));
#342=SURFACE_STYLE_USAGE(.BOTH.,#341);
#343=PRESENTATION_STYLE_ASSIGNMENT((#342));
#344=STYLED_ITEM('',(#343),#336);
#345=CARTESIAN_POINT('',(0.,0.,0.));
#346=DIRECTION('',(0.,0.,1.));
#347=DIRECTION('',(1.,0.,0.));
#348=AXIS2_PLACEMENT_3D('Reference Axes',#345,#346,#347);
#349=SHAPE_REPRESENTATION('',(#348,#336),#78);
#350=SHAPE_DEFINITION_REPRESENTATION(#85,#349);
#351=( GEOMETRIC_REPRESENTATION_CONTEXT(3)
       GLOBAL_UNCERTAINTY_ASSIGNED_CONTEXT((#352)) GLOBAL_UNIT_ASSIGNED_CONTEXT
  ((#3,#4)) REPRESENTATION_CONTEXT('Context #3',
  '3D Context with UNIT and UNCERTAINTY') );
#352=UNCERTAINTY_MEASURE_WITH_UNIT(LENGTH_MEASURE(0.005),#3,'distance_accuracy_value','Confusion accuracy');
#353=PRODUCT_CONTEXT('',#1,'mechanical');
#354=PRODUCT('P004','','',(#353));
#355=PRODUCT_DEFINITION_FORMATION('','',#354);
#356=PRODUCT_DEFINITION_CONTEXT('part definition',#1,'design');
#357=PRODUCT_DEFINITION('design','',#355,#356);
#358=PRODUCT_DEFINITION_SHAPE('','',#357);
#359=PRODUCT_CATEGORY('part',$);
#360=PRODUCT_RELATED_PRODUCT_CATEGORY('part',$,(#354));
#361=PRODUCT_CATEGORY_RELATIONSHIP('','',#359,#360);
#362=CARTESIAN_POINT('',(60.325,-7.62,0.635));
#363=VERTEX_POINT('',#362);
#364=CARTESIAN_POINT('',(60.325,-7.62,0.0));
#365=DIRECTION('',(-0.0,-1.0,0.0));
#366=DIRECTION('',(0.0,0.0,1.0));
#367=AXIS2_PLACEMENT_3D('',#364,#365,#366);
#368=CIRCLE('',#367,0.635);
#369=EDGE_CURVE('no 59',#363,#363,#368,.T.);
#370=ORIENTED_EDGE('',*,*,#369,.T.);
#371=EDGE_LOOP('',(#370));
#372=FACE_OUTER_BOUND('',#371,.T.);
#373=CARTESIAN_POINT('',(60.325,-17.78,0.635));
#374=VERTEX_POINT('',#373);
#375=CARTESIAN_POINT('',(60.325,-17.78,0.0));
#376=DIRECTION('',(-0.0,-1.0,0.0));
#377=DIRECTION('',(0.0,0.0,1.0));
#378=AXIS2_PLACEMENT_3D('',#375,#376,#377);
#379=CIRCLE('',#378,0.635);
#380=EDGE_CURVE('no 71',#374,#374,#379,.T.);
#381=ORIENTED_EDGE('',*,*,#380,.F.);
#382=EDGE_LOOP('',(#381));
#383=FACE_BOUND('',#382,.T.);
#384=CARTESIAN_POINT('',(60.325,-7.62,0.0));
#385=DIRECTION('',(0.0,-1.0,0.0));
#386=DIRECTION('',(0.0,0.0,-1.0));
#387=AXIS2_PLACEMENT_3D('',#384,#385,#386);
#388=CYLINDRICAL_SURFACE('',#387,0.635);
#389=ADVANCED_FACE('no 68',(#372,#383),#388,.T.);
#390=CARTESIAN_POINT('',(53.34,-0.635,0.635));
#391=VERTEX_POINT('',#390);
#392=CARTESIAN_POINT('',(53.34,-0.635,0.0));
#393=DIRECTION('',(1.0,-0.0,0.0));
#394=DIRECTION('',(0.0,0.0,1.0));
#395=AXIS2_PLACEMENT_3D('',#392,#393,#394);
#396=CIRCLE('',#395,0.635);
#397=EDGE_CURVE('no 49',#391,#391,#396,.T.);
#398=ORIENTED_EDGE('',*,*,#397,.T.);
#399=EDGE_LOOP('',(#398));
#400=FACE_OUTER_BOUND('',#399,.T.);
#401=ORIENTED_EDGE('',*,*,#369,.F.);
#402=EDGE_LOOP('',(#401));
#403=FACE_BOUND('',#402,.T.);
#404=CARTESIAN_POINT('',(53.34,-7.62,0.0));
#405=DIRECTION('',(0.0,0.0,-1.0));
#406=DIRECTION('',(-1.0,0.0,0.0));
#407=AXIS2_PLACEMENT_3D('',#404,#405,#406);
#408=TOROIDAL_SURFACE('',#407,6.985,0.635);
#409=ADVANCED_FACE('no 56',(#400,#403),#408,.T.);
#410=CARTESIAN_POINT('',(7.62,-0.635,0.635));
#411=VERTEX_POINT('',#410);
#412=CARTESIAN_POINT('',(7.62,-0.635,0.0));
#413=DIRECTION('',(1.0,-0.0,0.0));
#414=DIRECTION('',(0.0,0.0,1.0));
#415=AXIS2_PLACEMENT_3D('',#412,#413,#414);
#416=CIRCLE('',#415,0.635);
#417=EDGE_CURVE('no 37',#411,#411,#416,.T.);
#418=ORIENTED_EDGE('',*,*,#417,.T.);
#419=EDGE_LOOP('',(#418));
#420=FACE_OUTER_BOUND('',#419,.T.);
#421=ORIENTED_EDGE('',*,*,#397,.F.);
#422=EDGE_LOOP('',(#421));
#423=FACE_BOUND('',#422,.T.);
#424=CARTESIAN_POINT('',(7.62,-0.635,0.0));
#425=DIRECTION('',(1.0,-0.0,0.0));
#426=DIRECTION('',(0.0,1.0,0.0));
#427=AXIS2_PLACEMENT_3D('',#424,#425,#426);
#428=CYLINDRICAL_SURFACE('',#427,0.635);
#429=ADVANCED_FACE('no 46',(#420,#423),#428,.T.);
#430=CARTESIAN_POINT('',(0.635,-7.62,0.635));
#431=VERTEX_POINT('',#430);
#432=CARTESIAN_POINT('',(0.635,-7.62,0.0));
#433=DIRECTION('',(0.0,1.0,0.0));
#434=DIRECTION('',(0.0,0.0,1.0));
#435=AXIS2_PLACEMENT_3D('',#432,#433,#434);
#436=CIRCLE('',#435,0.635);
#437=EDGE_CURVE('no 4',#431,#431,#436,.T.);
#438=ORIENTED_EDGE('',*,*,#437,.T.);
#439=EDGE_LOOP('',(#438));
#440=FACE_OUTER_BOUND('',#439,.T.);
#441=ORIENTED_EDGE('',*,*,#417,.F.);
#442=EDGE_LOOP('',(#441));
#443=FACE_BOUND('',#442,.T.);
#444=CARTESIAN_POINT('',(7.62,-7.62,0.0));
#445=DIRECTION('',(0.0,0.0,-1.0));
#446=DIRECTION('',(-1.0,0.0,0.0));
#447=AXIS2_PLACEMENT_3D('',#444,#445,#446);
#448=TOROIDAL_SURFACE('',#447,6.985,0.635);
#449=ADVANCED_FACE('no 34',(#440,#443),#448,.T.);
#450=ORIENTED_EDGE('',*,*,#437,.F.);
#451=EDGE_LOOP('',(#450));
#452=FACE_OUTER_BOUND('',#451,.T.);
#453=CARTESIAN_POINT('',(0.635,-17.78,0.635));
#454=VERTEX_POINT('',#453);
#455=CARTESIAN_POINT('',(0.635,-17.78,0.0));
#456=DIRECTION('',(0.0,1.0,0.0));
#457=DIRECTION('',(0.0,0.0,1.0));
#458=AXIS2_PLACEMENT_3D('',#455,#456,#457);
#459=CIRCLE('',#458,0.635);
#460=EDGE_CURVE('no 18',#454,#454,#459,.T.);
#461=ORIENTED_EDGE('',*,*,#460,.T.);
#462=EDGE_LOOP('',(#461));
#463=FACE_BOUND('',#462,.T.);
#464=CARTESIAN_POINT('',(0.635,-7.62,0.0));
#465=DIRECTION('',(0.0,-1.0,0.0));
#466=DIRECTION('',(1.0,0.0,0.0));
#467=AXIS2_PLACEMENT_3D('',#464,#465,#466);
#468=CYLINDRICAL_SURFACE('',#467,0.635);
#469=ADVANCED_FACE('no 25',(#452,#463),#468,.T.);
#470=CARTESIAN_POINT('',(60.833,-17.78,0.0));
#471=VERTEX_POINT('',#470);
#472=CARTESIAN_POINT('',(60.325,-17.78,0.0));
#473=DIRECTION('',(-0.0,-1.0,0.0));
#474=DIRECTION('',(1.0,-0.0,0.0));
#475=AXIS2_PLACEMENT_3D('',#472,#473,#474);
#476=CIRCLE('',#475,0.508);
#477=EDGE_CURVE('no 129',#471,#471,#476,.T.);
#478=ORIENTED_EDGE('',*,*,#477,.F.);
#479=EDGE_LOOP('',(#478));
#480=FACE_OUTER_BOUND('',#479,.T.);
#481=ORIENTED_EDGE('',*,*,#380,.T.);
#482=EDGE_LOOP('',(#481));
#483=FACE_BOUND('',#482,.T.);
#484=CARTESIAN_POINT('',(60.325,-17.78,0.0));
#485=DIRECTION('',(-0.0,-1.0,0.0));
#486=DIRECTION('',(0.0,0.0,1.0));
#487=AXIS2_PLACEMENT_3D('',#484,#485,#486);
#488=PLANE('',#487);
#489=ADVANCED_FACE('no 1',(#480,#483),#488,.T.);
#490=CARTESIAN_POINT('',(0.635,-17.78,0.508));
#491=VERTEX_POINT('',#490);
#492=CARTESIAN_POINT('',(0.635,-17.78,0.0));
#493=DIRECTION('',(0.0,1.0,0.0));
#494=DIRECTION('',(0.0,0.0,1.0));
#495=AXIS2_PLACEMENT_3D('',#492,#493,#494);
#496=CIRCLE('',#495,0.508);
#497=EDGE_CURVE('no 128',#491,#491,#496,.T.);
#498=ORIENTED_EDGE('',*,*,#497,.T.);
#499=EDGE_LOOP('',(#498));
#500=FACE_OUTER_BOUND('',#499,.T.);
#501=ORIENTED_EDGE('',*,*,#460,.F.);
#502=EDGE_LOOP('',(#501));
#503=FACE_BOUND('',#502,.T.);
#504=CARTESIAN_POINT('',(0.635,-17.78,0.0));
#505=DIRECTION('',(0.0,1.0,0.0));
#506=DIRECTION('',(0.0,0.0,1.0));
#507=AXIS2_PLACEMENT_3D('',#504,#505,#506);
#508=PLANE('',#507);
#509=ADVANCED_FACE('no 16',(#500,#503),#508,.F.);
#510=CARTESIAN_POINT('',(60.325,-7.62,-0.508));
#511=VERTEX_POINT('',#510);
#512=CARTESIAN_POINT('',(60.325,-7.62,0.0));
#513=DIRECTION('',(0.0,-1.0,0.0));
#514=DIRECTION('',(0.0,0.0,-1.0));
#515=AXIS2_PLACEMENT_3D('',#512,#513,#514);
#516=CIRCLE('',#515,0.508);
#517=EDGE_CURVE('no 124',#511,#511,#516,.T.);
#518=ORIENTED_EDGE('',*,*,#517,.F.);
#519=EDGE_LOOP('',(#518));
#520=FACE_OUTER_BOUND('',#519,.T.);
#521=ORIENTED_EDGE('',*,*,#477,.T.);
#522=EDGE_LOOP('',(#521));
#523=FACE_BOUND('',#522,.T.);
#524=CARTESIAN_POINT('',(60.325,-7.62,0.0));
#525=DIRECTION('',(0.0,-1.0,0.0));
#526=DIRECTION('',(0.0,0.0,-1.0));
#527=AXIS2_PLACEMENT_3D('',#524,#525,#526);
#528=CYLINDRICAL_SURFACE('',#527,0.508);
#529=ADVANCED_FACE('no 130',(#520,#523),#528,.F.);
#530=CARTESIAN_POINT('',(53.34,-1.143,0.0));
#531=VERTEX_POINT('',#530);
#532=CARTESIAN_POINT('',(53.34,-0.635,0.0));
#533=DIRECTION('',(1.0,0.0,-0.0));
#534=DIRECTION('',(0.0,-1.0,0.0));
#535=AXIS2_PLACEMENT_3D('',#532,#533,#534);
#536=CIRCLE('',#535,0.508);
#537=EDGE_CURVE('no 125',#531,#531,#536,.T.);
#538=ORIENTED_EDGE('',*,*,#537,.F.);
#539=EDGE_LOOP('',(#538));
#540=FACE_OUTER_BOUND('',#539,.T.);
#541=ORIENTED_EDGE('',*,*,#517,.T.);
#542=EDGE_LOOP('',(#541));
#543=FACE_BOUND('',#542,.T.);
#544=CARTESIAN_POINT('',(53.34,-7.62,0.0));
#545=DIRECTION('',(0.0,0.0,-1.0));
#546=DIRECTION('',(-1.0,0.0,0.0));
#547=AXIS2_PLACEMENT_3D('',#544,#545,#546);
#548=TOROIDAL_SURFACE('',#547,6.985,0.508);
#549=ADVANCED_FACE('no 135',(#540,#543),#548,.F.);
#550=CARTESIAN_POINT('',(7.62,-0.127,0.0));
#551=VERTEX_POINT('',#550);
#552=CARTESIAN_POINT('',(7.62,-0.635,0.0));
#553=DIRECTION('',(1.0,-0.0,0.0));
#554=DIRECTION('',(0.0,1.0,0.0));
#555=AXIS2_PLACEMENT_3D('',#552,#553,#554);
#556=CIRCLE('',#555,0.508);
#557=EDGE_CURVE('no 126',#551,#551,#556,.T.);
#558=ORIENTED_EDGE('',*,*,#557,.F.);
#559=EDGE_LOOP('',(#558));
#560=FACE_OUTER_BOUND('',#559,.T.);
#561=ORIENTED_EDGE('',*,*,#537,.T.);
#562=EDGE_LOOP('',(#561));
#563=FACE_BOUND('',#562,.T.);
#564=CARTESIAN_POINT('',(7.62,-0.635,0.0));
#565=DIRECTION('',(1.0,-0.0,0.0));
#566=DIRECTION('',(0.0,1.0,0.0));
#567=AXIS2_PLACEMENT_3D('',#564,#565,#566);
#568=CYLINDRICAL_SURFACE('',#567,0.508);
#569=ADVANCED_FACE('no 140',(#560,#563),#568,.F.);
#570=CARTESIAN_POINT('',(1.143,-7.62,0.0));
#571=VERTEX_POINT('',#570);
#572=CARTESIAN_POINT('',(0.635,-7.62,0.0));
#573=DIRECTION('',(-0.0,1.0,-0.0));
#574=DIRECTION('',(1.0,0.0,0.0));
#575=AXIS2_PLACEMENT_3D('',#572,#573,#574);
#576=CIRCLE('',#575,0.508);
#577=EDGE_CURVE('no 127',#571,#571,#576,.T.);
#578=ORIENTED_EDGE('',*,*,#577,.F.);
#579=EDGE_LOOP('',(#578));
#580=FACE_OUTER_BOUND('',#579,.T.);
#581=ORIENTED_EDGE('',*,*,#557,.T.);
#582=EDGE_LOOP('',(#581));
#583=FACE_BOUND('',#582,.T.);
#584=CARTESIAN_POINT('',(7.62,-7.62,0.0));
#585=DIRECTION('',(0.0,0.0,-1.0));
#586=DIRECTION('',(-1.0,0.0,0.0));
#587=AXIS2_PLACEMENT_3D('',#584,#585,#586);
#588=TOROIDAL_SURFACE('',#587,6.985,0.508);
#589=ADVANCED_FACE('no 145',(#580,#583),#588,.F.);
#590=ORIENTED_EDGE('',*,*,#577,.T.);
#591=EDGE_LOOP('',(#590));
#592=FACE_OUTER_BOUND('',#591,.T.);
#593=ORIENTED_EDGE('',*,*,#497,.F.);
#594=EDGE_LOOP('',(#593));
#595=FACE_BOUND('',#594,.T.);
#596=CARTESIAN_POINT('',(0.635,-7.62,0.0));
#597=DIRECTION('',(0.0,-1.0,0.0));
#598=DIRECTION('',(1.0,0.0,0.0));
#599=AXIS2_PLACEMENT_3D('',#596,#597,#598);
#600=CYLINDRICAL_SURFACE('',#599,0.508);
#601=ADVANCED_FACE('no 150',(#592,#595),#600,.F.);
#602=CLOSED_SHELL('P004',(
    #389,#409,#429,#449,#469,#489,#509,#529,#549,#569,
    #589,#601));
#603=MANIFOLD_SOLID_BREP('P004',#602);
#604=STYLED_ITEM('',(#343),#603);
#605=CARTESIAN_POINT('',(0.,0.,0.));
#606=DIRECTION('',(0.,0.,1.));
#607=DIRECTION('',(1.,0.,0.));
#608=AXIS2_PLACEMENT_3D('Reference Axes',#605,#606,#607);
#609=SHAPE_REPRESENTATION('',(#608,#603),#351);
#610=SHAPE_DEFINITION_REPRESENTATION(#358,#609);
#611=( GEOMETRIC_REPRESENTATION_CONTEXT(3)
       GLOBAL_UNCERTAINTY_ASSIGNED_CONTEXT((#612)) GLOBAL_UNIT_ASSIGNED_CONTEXT
  ((#3,#4)) REPRESENTATION_CONTEXT('Context #4',
  '3D Context with UNIT and UNCERTAINTY') );
#612=UNCERTAINTY_MEASURE_WITH_UNIT(LENGTH_MEASURE(0.005),#3,'distance_accuracy_value','Confusion accuracy');
#613=PRODUCT_CONTEXT('',#1,'mechanical');
#614=PRODUCT('P003','','',(#613));
#615=PRODUCT_DEFINITION_FORMATION('','',#614);
#616=PRODUCT_DEFINITION_CONTEXT('part definition',#1,'design');
#617=PRODUCT_DEFINITION('design','',#615,#616);
#618=PRODUCT_DEFINITION_SHAPE('','',#617);
#619=PRODUCT_CATEGORY('part',$);
#620=PRODUCT_RELATED_PRODUCT_CATEGORY('part',$,(#614));
#621=PRODUCT_CATEGORY_RELATIONSHIP('','',#619,#620);
#622=CARTESIAN_POINT('',(0.0,2.54,2.54));
#623=VERTEX_POINT('',#622);
#624=CARTESIAN_POINT('',(0.0,2.54,0.0));
#625=DIRECTION('',(0.0,1.0,0.0));
#626=DIRECTION('',(0.0,0.0,1.0));
#627=AXIS2_PLACEMENT_3D('',#624,#625,#626);
#628=CIRCLE('',#627,2.54);
#629=EDGE_CURVE('no 4',#623,#623,#628,.T.);
#630=ORIENTED_EDGE('',*,*,#629,.F.);
#631=EDGE_LOOP('',(#630));
#632=FACE_OUTER_BOUND('',#631,.T.);
#633=CARTESIAN_POINT('',(0.0,0.0,2.54));
#634=VERTEX_POINT('',#633);
#635=CARTESIAN_POINT('',(0.0,0.0,0.0));
#636=DIRECTION('',(0.0,1.0,0.0));
#637=DIRECTION('',(0.0,0.0,1.0));
#638=AXIS2_PLACEMENT_3D('',#635,#636,#637);
#639=CIRCLE('',#638,2.54);
#640=EDGE_CURVE('no 18',#634,#634,#639,.T.);
#641=ORIENTED_EDGE('',*,*,#640,.T.);
#642=EDGE_LOOP('',(#641));
#643=FACE_BOUND('',#642,.T.);
#644=CARTESIAN_POINT('',(0.0,2.54,0.0));
#645=DIRECTION('',(0.0,-1.0,0.0));
#646=DIRECTION('',(0.0,0.0,-1.0));
#647=AXIS2_PLACEMENT_3D('',#644,#645,#646);
#648=CYLINDRICAL_SURFACE('',#647,2.54);
#649=ADVANCED_FACE('no 25',(#632,#643),#648,.T.);
#650=CARTESIAN_POINT('',(0.0,2.54,2.286));
#651=VERTEX_POINT('',#650);
#652=CARTESIAN_POINT('',(0.0,2.54,0.0));
#653=DIRECTION('',(0.0,1.0,0.0));
#654=DIRECTION('',(0.0,0.0,1.0));
#655=AXIS2_PLACEMENT_3D('',#652,#653,#654);
#656=CIRCLE('',#655,2.286);
#657=EDGE_CURVE('no 61',#651,#651,#656,.T.);
#658=ORIENTED_EDGE('',*,*,#657,.F.);
#659=EDGE_LOOP('',(#658));
#660=FACE_OUTER_BOUND('',#659,.T.);
#661=ORIENTED_EDGE('',*,*,#629,.T.);
#662=EDGE_LOOP('',(#661));
#663=FACE_BOUND('',#662,.T.);
#664=CARTESIAN_POINT('',(0.0,2.54,0.0));
#665=DIRECTION('',(0.0,1.0,0.0));
#666=DIRECTION('',(0.0,0.0,1.0));
#667=AXIS2_PLACEMENT_3D('',#664,#665,#666);
#668=PLANE('',#667);
#669=ADVANCED_FACE('no 1',(#660,#663),#668,.T.);
#670=ORIENTED_EDGE('',*,*,#640,.F.);
#671=EDGE_LOOP('',(#670));
#672=FACE_OUTER_BOUND('',#671,.T.);
#673=CARTESIAN_POINT('',(0.0,0.0,0.0));
#674=DIRECTION('',(0.0,1.0,0.0));
#675=DIRECTION('',(0.0,0.0,1.0));
#676=AXIS2_PLACEMENT_3D('',#673,#674,#675);
#677=PLANE('',#676);
#678=ADVANCED_FACE('no 16',(#672),#677,.F.);
#679=ORIENTED_EDGE('',*,*,#657,.T.);
#680=EDGE_LOOP('',(#679));
#681=FACE_OUTER_BOUND('',#680,.T.);
#682=CARTESIAN_POINT('',(0.0,0.254,2.286));
#683=VERTEX_POINT('',#682);
#684=CARTESIAN_POINT('',(0.0,0.254,0.0));
#685=DIRECTION('',(0.0,1.0,0.0));
#686=DIRECTION('',(0.0,0.0,1.0));
#687=AXIS2_PLACEMENT_3D('',#684,#685,#686);
#688=CIRCLE('',#687,2.286);
#689=EDGE_CURVE('no 60',#683,#683,#688,.T.);
#690=ORIENTED_EDGE('',*,*,#689,.F.);
#691=EDGE_LOOP('',(#690));
#692=FACE_BOUND('',#691,.T.);
#693=CARTESIAN_POINT('',(0.0,2.54,0.0));
#694=DIRECTION('',(0.0,-1.0,0.0));
#695=DIRECTION('',(0.0,0.0,-1.0));
#696=AXIS2_PLACEMENT_3D('',#693,#694,#695);
#697=CYLINDRICAL_SURFACE('',#696,2.286);
#698=ADVANCED_FACE('no 62',(#681,#692),#697,.F.);
#699=ORIENTED_EDGE('',*,*,#689,.T.);
#700=EDGE_LOOP('',(#699));
#701=FACE_OUTER_BOUND('',#700,.T.);
#702=CARTESIAN_POINT('',(0.0,0.254,0.0));
#703=DIRECTION('',(0.0,1.0,0.0));
#704=DIRECTION('',(0.0,0.0,1.0));
#705=AXIS2_PLACEMENT_3D('',#702,#703,#704);
#706=PLANE('',#705);
#707=ADVANCED_FACE('no 70',(#701),#706,.T.);
#708=CLOSED_SHELL('P003',(#649,#669,#678,#698,#707));
#709=MANIFOLD_SOLID_BREP('P003',#708);
#710=COLOUR_RGB('',0.2902,0.2902,0.2902);
#711=FILL_AREA_STYLE_COLOUR('',#710);
#712=FILL_AREA_STYLE('',(#711));
#713=SURFACE_STYLE_FILL_AREA(#712);
#714=SURFACE_SIDE_STYLE('',(#713));
#715=SURFACE_STYLE_USAGE(.BOTH.,#714);
#716=PRESENTATION_STYLE_ASSIGNMENT((#715));
#717=STYLED_ITEM('',(#716),#709);
#718=CARTESIAN_POINT('',(0.,0.,0.));
#719=DIRECTION('',(0.,0.,1.));
#720=DIRECTION('',(1.,0.,0.));
#721=AXIS2_PLACEMENT_3D('Reference Axes',#718,#719,#720);
#722=SHAPE_REPRESENTATION('',(#721,#709),#611);
#723=SHAPE_DEFINITION_REPRESENTATION(#618,#722);
#724=( GEOMETRIC_REPRESENTATION_CONTEXT(3)
       GLOBAL_UNCERTAINTY_ASSIGNED_CONTEXT((#725)) GLOBAL_UNIT_ASSIGNED_CONTEXT
  ((#3,#4)) REPRESENTATION_CONTEXT('Context #5',
  '3D Context with UNIT and UNCERTAINTY') );
#725=UNCERTAINTY_MEASURE_WITH_UNIT(LENGTH_MEASURE(0.005),#3,'distance_accuracy_value','Confusion accuracy');
#726=PRODUCT_CONTEXT('',#1,'mechanical');
#727=PRODUCT('P002','','',(#726));
#728=PRODUCT_DEFINITION_FORMATION('','',#727);
#729=PRODUCT_DEFINITION_CONTEXT('part definition',#1,'design');
#730=PRODUCT_DEFINITION('design','',#728,#729);
#731=PRODUCT_DEFINITION_SHAPE('','',#730);
#732=PRODUCT_CATEGORY('part',$);
#733=PRODUCT_RELATED_PRODUCT_CATEGORY('part',$,(#727));
#734=PRODUCT_CATEGORY_RELATIONSHIP('','',#732,#733);
#735=CARTESIAN_POINT('',(0.0,33.02,2.286));
#736=VERTEX_POINT('',#735);
#737=CARTESIAN_POINT('',(0.0,33.02,0.0));
#738=DIRECTION('',(0.0,1.0,0.0));
#739=DIRECTION('',(0.0,0.0,1.0));
#740=AXIS2_PLACEMENT_3D('',#737,#738,#739);
#741=CIRCLE('',#740,2.286);
#742=EDGE_CURVE('no 4',#736,#736,#741,.T.);
#743=ORIENTED_EDGE('',*,*,#742,.F.);
#744=EDGE_LOOP('',(#743));
#745=FACE_OUTER_BOUND('',#744,.T.);
#746=CARTESIAN_POINT('',(0.0,0.0,2.286));
#747=VERTEX_POINT('',#746);
#748=CARTESIAN_POINT('',(0.0,0.0,0.0));
#749=DIRECTION('',(0.0,1.0,0.0));
#750=DIRECTION('',(0.0,0.0,1.0));
#751=AXIS2_PLACEMENT_3D('',#748,#749,#750);
#752=CIRCLE('',#751,2.286);
#753=EDGE_CURVE('no 18',#747,#747,#752,.T.);
#754=ORIENTED_EDGE('',*,*,#753,.T.);
#755=EDGE_LOOP('',(#754));
#756=FACE_BOUND('',#755,.T.);
#757=CARTESIAN_POINT('',(0.0,33.02,0.0));
#758=DIRECTION('',(0.0,-1.0,0.0));
#759=DIRECTION('',(0.0,0.0,-1.0));
#760=AXIS2_PLACEMENT_3D('',#757,#758,#759);
#761=CYLINDRICAL_SURFACE('',#760,2.286);
#762=ADVANCED_FACE('no 25',(#745,#756),#761,.T.);
#763=CARTESIAN_POINT('',(0.0,33.02,1.778));
#764=VERTEX_POINT('',#763);
#765=CARTESIAN_POINT('',(0.0,33.02,0.0));
#766=DIRECTION('',(0.0,1.0,0.0));
#767=DIRECTION('',(0.0,0.0,1.0));
#768=AXIS2_PLACEMENT_3D('',#765,#766,#767);
#769=CIRCLE('',#768,1.778);
#770=EDGE_CURVE('no 66',#764,#764,#769,.T.);
#771=ORIENTED_EDGE('',*,*,#770,.F.);
#772=EDGE_LOOP('',(#771));
#773=FACE_OUTER_BOUND('',#772,.T.);
#774=ORIENTED_EDGE('',*,*,#742,.T.);
#775=EDGE_LOOP('',(#774));
#776=FACE_BOUND('',#775,.T.);
#777=CARTESIAN_POINT('',(0.0,33.02,0.0));
#778=DIRECTION('',(0.0,1.0,0.0));
#779=DIRECTION('',(0.0,0.0,1.0));
#780=AXIS2_PLACEMENT_3D('',#777,#778,#779);
#781=PLANE('',#780);
#782=ADVANCED_FACE('no 1',(#773,#776),#781,.T.);
#783=CARTESIAN_POINT('',(0.0,0.0,1.778));
#784=VERTEX_POINT('',#783);
#785=CARTESIAN_POINT('',(0.0,0.0,0.0));
#786=DIRECTION('',(0.0,1.0,0.0));
#787=DIRECTION('',(0.0,0.0,1.0));
#788=AXIS2_PLACEMENT_3D('',#785,#786,#787);
#789=CIRCLE('',#788,1.778);
#790=EDGE_CURVE('no 65',#784,#784,#789,.T.);
#791=ORIENTED_EDGE('',*,*,#790,.T.);
#792=EDGE_LOOP('',(#791));
#793=FACE_OUTER_BOUND('',#792,.T.);
#794=ORIENTED_EDGE('',*,*,#753,.F.);
#795=EDGE_LOOP('',(#794));
#796=FACE_BOUND('',#795,.T.);
#797=CARTESIAN_POINT('',(0.0,0.0,0.0));
#798=DIRECTION('',(0.0,1.0,0.0));
#799=DIRECTION('',(0.0,0.0,1.0));
#800=AXIS2_PLACEMENT_3D('',#797,#798,#799);
#801=PLANE('',#800);
#802=ADVANCED_FACE('no 16',(#793,#796),#801,.F.);
#803=ORIENTED_EDGE('',*,*,#770,.T.);
#804=EDGE_LOOP('',(#803));
#805=FACE_OUTER_BOUND('',#804,.T.);
#806=ORIENTED_EDGE('',*,*,#790,.F.);
#807=EDGE_LOOP('',(#806));
#808=FACE_BOUND('',#807,.T.);
#809=CARTESIAN_POINT('',(0.0,33.02,0.0));
#810=DIRECTION('',(0.0,-1.0,0.0));
#811=DIRECTION('',(0.0,0.0,-1.0));
#812=AXIS2_PLACEMENT_3D('',#809,#810,#811);
#813=CYLINDRICAL_SURFACE('',#812,1.778);
#814=ADVANCED_FACE('no 67',(#805,#808),#813,.F.);
#815=CLOSED_SHELL('P002',(#762,#782,#802,#814));
#816=MANIFOLD_SOLID_BREP('P002',#815);
#817=DRAUGHTING_PRE_DEFINED_COLOUR('white');
#818=FILL_AREA_STYLE_COLOUR('',#817);
#819=FILL_AREA_STYLE('',(#818));
#820=SURFACE_STYLE_FILL_AREA(#819);
#821=SURFACE_SIDE_STYLE('',(#820));
#822=SURFACE_STYLE_USAGE(.BOTH.,#821);
#823=PRESENTATION_STYLE_ASSIGNMENT((#822));
#824=STYLED_ITEM('',(#823),#816);
#825=CARTESIAN_POINT('',(0.,0.,0.));
#826=DIRECTION('',(0.,0.,1.));
#827=DIRECTION('',(1.,0.,0.));
#828=AXIS2_PLACEMENT_3D('Reference Axes',#825,#826,#827);
#829=SHAPE_REPRESENTATION('',(#828,#816),#724);
#830=SHAPE_DEFINITION_REPRESENTATION(#731,#829);
#831=( GEOMETRIC_REPRESENTATION_CONTEXT(3)
       GLOBAL_UNCERTAINTY_ASSIGNED_CONTEXT((#832)) GLOBAL_UNIT_ASSIGNED_CONTEXT
  ((#3,#4)) REPRESENTATION_CONTEXT('Context #6',
  '3D Context with UNIT and UNCERTAINTY') );
#832=UNCERTAINTY_MEASURE_WITH_UNIT(LENGTH_MEASURE(0.005),#3,'distance_accuracy_value','Confusion accuracy');
#833=PRODUCT_CONTEXT('',#1,'mechanical');
#834=PRODUCT('P001','','',(#833));
#835=PRODUCT_DEFINITION_FORMATION('','',#834);
#836=PRODUCT_DEFINITION_CONTEXT('part definition',#1,'design');
#837=PRODUCT_DEFINITION('design','',#835,#836);
#838=PRODUCT_DEFINITION_SHAPE('','',#837);
#839=PRODUCT_CATEGORY('part',$);
#840=PRODUCT_RELATED_PRODUCT_CATEGORY('part',$,(#834));
#841=PRODUCT_CATEGORY_RELATIONSHIP('','',#839,#840);
#842=CARTESIAN_POINT('',(-33.02,0.0,21.59));
#843=VERTEX_POINT('',#842);
#844=CARTESIAN_POINT('',(-33.02,0.0,19.05));
#845=DIRECTION('',(0.0,1.0,0.0));
#846=DIRECTION('',(0.0,0.0,1.0));
#847=AXIS2_PLACEMENT_3D('',#844,#845,#846);
#848=CIRCLE('',#847,2.54);
#849=EDGE_CURVE('no 301',#843,#843,#848,.T.);
#850=ORIENTED_EDGE('',*,*,#849,.T.);
#851=EDGE_LOOP('',(#850));
#852=FACE_OUTER_BOUND('',#851,.T.);
#853=CARTESIAN_POINT('',(-33.02,0.0,-16.51));
#854=VERTEX_POINT('',#853);
#855=CARTESIAN_POINT('',(-33.02,0.0,-19.05));
#856=DIRECTION('',(0.0,1.0,0.0));
#857=DIRECTION('',(0.0,0.0,1.0));
#858=AXIS2_PLACEMENT_3D('',#855,#856,#857);
#859=CIRCLE('',#858,2.54);
#860=EDGE_CURVE('no 239',#854,#854,#859,.T.);
#861=ORIENTED_EDGE('',*,*,#860,.T.);
#862=EDGE_LOOP('',(#861));
#863=FACE_BOUND('',#862,.T.);
#864=CARTESIAN_POINT('',(-44.45,0.0,-30.48));
#865=VERTEX_POINT('',#864);
#866=CARTESIAN_POINT('',(-45.72,0.0,-29.21));
#867=VERTEX_POINT('',#866);
#868=CARTESIAN_POINT('',(-44.45,0.0,-29.21));
#869=DIRECTION('',(0.0,1.0,0.0));
#870=DIRECTION('',(0.0,0.0,1.0));
#871=AXIS2_PLACEMENT_3D('',#868,#869,#870);
#872=CIRCLE('',#871,1.27);
#873=EDGE_CURVE('no 105',#865,#867,#872,.T.);
#874=ORIENTED_EDGE('',*,*,#873,.F.);
#875=CARTESIAN_POINT('',(44.45,0.0,-30.48));
#876=VERTEX_POINT('',#875);
#877=CARTESIAN_POINT('',(-44.45,0.0,-30.48));
#878=DIRECTION('',(-1.0,0.0,0.0));
#879=VECTOR('',#878,1.0);
#880=LINE('',#877,#879);
#881=EDGE_CURVE('no 77',#876,#865,#880,.T.);
#882=ORIENTED_EDGE('',*,*,#881,.F.);
#883=CARTESIAN_POINT('',(45.72,0.0,-29.21));
#884=VERTEX_POINT('',#883);
#885=CARTESIAN_POINT('',(44.45,0.0,-29.21));
#886=DIRECTION('',(0.0,1.0,0.0));
#887=DIRECTION('',(0.0,0.0,-1.0));
#888=AXIS2_PLACEMENT_3D('',#885,#886,#887);
#889=CIRCLE('',#888,1.27);
#890=EDGE_CURVE('no 81',#884,#876,#889,.T.);
#891=ORIENTED_EDGE('',*,*,#890,.F.);
#892=CARTESIAN_POINT('',(45.72,0.0,29.21));
#893=VERTEX_POINT('',#892);
#894=CARTESIAN_POINT('',(45.72,0.0,-29.21));
#895=DIRECTION('',(-0.0,0.0,-1.0));
#896=VECTOR('',#895,1.0);
#897=LINE('',#894,#896);
#898=EDGE_CURVE('no 85',#893,#884,#897,.T.);
#899=ORIENTED_EDGE('',*,*,#898,.F.);
#900=CARTESIAN_POINT('',(44.45,0.0,30.48));
#901=VERTEX_POINT('',#900);
#902=CARTESIAN_POINT('',(44.45,0.0,29.21));
#903=DIRECTION('',(0.0,1.0,0.0));
#904=DIRECTION('',(0.0,0.0,1.0));
#905=AXIS2_PLACEMENT_3D('',#902,#903,#904);
#906=CIRCLE('',#905,1.27);
#907=EDGE_CURVE('no 89',#901,#893,#906,.T.);
#908=ORIENTED_EDGE('',*,*,#907,.F.);
#909=CARTESIAN_POINT('',(-44.45,0.0,30.48));
#910=VERTEX_POINT('',#909);
#911=CARTESIAN_POINT('',(-44.45,0.0,30.48));
#912=DIRECTION('',(1.0,0.0,0.0));
#913=VECTOR('',#912,1.0);
#914=LINE('',#911,#913);
#915=EDGE_CURVE('no 93',#910,#901,#914,.T.);
#916=ORIENTED_EDGE('',*,*,#915,.F.);
#917=CARTESIAN_POINT('',(-45.72,0.0,29.21));
#918=VERTEX_POINT('',#917);
#919=CARTESIAN_POINT('',(-44.45,0.0,29.21));
#920=DIRECTION('',(0.0,1.0,0.0));
#921=DIRECTION('',(0.0,0.0,1.0));
#922=AXIS2_PLACEMENT_3D('',#919,#920,#921);
#923=CIRCLE('',#922,1.27);
#924=EDGE_CURVE('no 97',#918,#910,#923,.T.);
#925=ORIENTED_EDGE('',*,*,#924,.F.);
#926=CARTESIAN_POINT('',(-45.72,0.0,-29.21));
#927=DIRECTION('',(0.0,0.0,1.0));
#928=VECTOR('',#927,1.0);
#929=LINE('',#926,#928);
#930=EDGE_CURVE('no 101',#867,#918,#929,.T.);
#931=ORIENTED_EDGE('',*,*,#930,.F.);
#932=EDGE_LOOP('',(#874,#882,#891,#899,#908,#916,#925,#931));
#933=FACE_BOUND('',#932,.T.);
#934=CARTESIAN_POINT('',(33.02,0.0,-16.51));
#935=VERTEX_POINT('',#934);
#936=CARTESIAN_POINT('',(33.02,0.0,-19.05));
#937=DIRECTION('',(0.0,1.0,0.0));
#938=DIRECTION('',(0.0,0.0,1.0));
#939=AXIS2_PLACEMENT_3D('',#936,#937,#938);
#940=CIRCLE('',#939,2.54);
#941=EDGE_CURVE('no 270',#935,#935,#940,.T.);
#942=ORIENTED_EDGE('',*,*,#941,.T.);
#943=EDGE_LOOP('',(#942));
#944=FACE_BOUND('',#943,.T.);
#945=CARTESIAN_POINT('',(33.02,0.0,21.59));
#946=VERTEX_POINT('',#945);
#947=CARTESIAN_POINT('',(33.02,0.0,19.05));
#948=DIRECTION('',(0.0,1.0,0.0));
#949=DIRECTION('',(0.0,0.0,1.0));
#950=AXIS2_PLACEMENT_3D('',#947,#948,#949);
#951=CIRCLE('',#950,2.54);
#952=EDGE_CURVE('no 332',#946,#946,#951,.T.);
#953=ORIENTED_EDGE('',*,*,#952,.T.);
#954=EDGE_LOOP('',(#953));
#955=FACE_BOUND('',#954,.T.);
#956=CARTESIAN_POINT('',(-44.45,0.0,-29.21));
#957=DIRECTION('',(0.0,1.0,0.0));
#958=DIRECTION('',(0.0,0.0,1.0));
#959=AXIS2_PLACEMENT_3D('',#956,#957,#958);
#960=PLANE('',#959);
#961=ADVANCED_FACE('no 329',(#852,#863,#933,#944,#955),#960,.F.);
#962=ORIENTED_EDGE('',*,*,#873,.T.);
#963=CARTESIAN_POINT('',(-45.72,1.27,-29.21));
#964=VERTEX_POINT('',#963);
#965=CARTESIAN_POINT('',(-45.72,1.27,-29.21));
#966=DIRECTION('',(0.0,-1.0,0.0));
#967=VECTOR('',#966,1.0);
#968=LINE('',#965,#967);
#969=EDGE_CURVE('no 141',#964,#867,#968,.T.);
#970=ORIENTED_EDGE('',*,*,#969,.F.);
#971=CARTESIAN_POINT('',(-44.45,1.27,-30.48));
#972=VERTEX_POINT('',#971);
#973=CARTESIAN_POINT('',(-44.45,1.27,-29.21));
#974=DIRECTION('',(0.0,1.0,0.0));
#975=DIRECTION('',(0.0,0.0,1.0));
#976=AXIS2_PLACEMENT_3D('',#973,#974,#975);
#977=CIRCLE('',#976,1.27);
#978=EDGE_CURVE('no 4',#972,#964,#977,.T.);
#979=ORIENTED_EDGE('',*,*,#978,.F.);
#980=CARTESIAN_POINT('',(-44.45,1.27,-30.48));
#981=DIRECTION('',(0.0,-1.0,0.0));
#982=VECTOR('',#981,1.0);
#983=LINE('',#980,#982);
#984=EDGE_CURVE('no 134',#972,#865,#983,.T.);
#985=ORIENTED_EDGE('',*,*,#984,.T.);
#986=EDGE_LOOP('',(#962,#970,#979,#985));
#987=FACE_OUTER_BOUND('',#986,.T.);
#988=CARTESIAN_POINT('',(-44.45,1.27,-29.21));
#989=DIRECTION('',(0.0,-1.0,0.0));
#990=DIRECTION('',(0.0,0.0,-1.0));
#991=AXIS2_PLACEMENT_3D('',#988,#989,#990);
#992=CYLINDRICAL_SURFACE('',#991,1.27);
#993=ADVANCED_FACE('no 157',(#987),#992,.T.);
#994=ORIENTED_EDGE('',*,*,#930,.T.);
#995=CARTESIAN_POINT('',(-45.72,1.27,29.21));
#996=VERTEX_POINT('',#995);
#997=CARTESIAN_POINT('',(-45.72,1.27,29.21));
#998=DIRECTION('',(0.0,-1.0,0.0));
#999=VECTOR('',#998,1.0);
#1000=LINE('',#997,#999);
#1001=EDGE_CURVE('no 140',#996,#918,#1000,.T.);
#1002=ORIENTED_EDGE('',*,*,#1001,.F.);
#1003=CARTESIAN_POINT('',(-45.72,1.27,-29.21));
#1004=DIRECTION('',(0.0,0.0,1.0));
#1005=VECTOR('',#1004,1.0);
#1006=LINE('',#1003,#1005);
#1007=EDGE_CURVE('no 7',#964,#996,#1006,.T.);
#1008=ORIENTED_EDGE('',*,*,#1007,.F.);
#1009=ORIENTED_EDGE('',*,*,#969,.T.);
#1010=EDGE_LOOP('',(#994,#1002,#1008,#1009));
#1011=FACE_OUTER_BOUND('',#1010,.T.);
#1012=CARTESIAN_POINT('',(-45.72,1.27,-29.21));
#1013=DIRECTION('',(1.0,0.0,0.0));
#1014=DIRECTION('',(0.0,0.0,-1.0));
#1015=AXIS2_PLACEMENT_3D('',#1012,#1013,#1014);
#1016=PLANE('',#1015);
#1017=ADVANCED_FACE('no 155',(#1011),#1016,.F.);
#1018=ORIENTED_EDGE('',*,*,#924,.T.);
#1019=CARTESIAN_POINT('',(-44.45,1.27,30.48));
#1020=VERTEX_POINT('',#1019);
#1021=CARTESIAN_POINT('',(-44.45,1.27,30.48));
#1022=DIRECTION('',(0.0,-1.0,0.0));
#1023=VECTOR('',#1022,1.0);
#1024=LINE('',#1021,#1023);
#1025=EDGE_CURVE('no 139',#1020,#910,#1024,.T.);
#1026=ORIENTED_EDGE('',*,*,#1025,.F.);
#1027=CARTESIAN_POINT('',(-44.45,1.27,29.21));
#1028=DIRECTION('',(0.0,1.0,0.0));
#1029=DIRECTION('',(0.0,0.0,1.0));
#1030=AXIS2_PLACEMENT_3D('',#1027,#1028,#1029);
#1031=CIRCLE('',#1030,1.27);
#1032=EDGE_CURVE('no 10',#996,#1020,#1031,.T.);
#1033=ORIENTED_EDGE('',*,*,#1032,.F.);
#1034=ORIENTED_EDGE('',*,*,#1001,.T.);
#1035=EDGE_LOOP('',(#1018,#1026,#1033,#1034));
#1036=FACE_OUTER_BOUND('',#1035,.T.);
#1037=CARTESIAN_POINT('',(-44.45,1.27,29.21));
#1038=DIRECTION('',(0.0,-1.0,0.0));
#1039=DIRECTION('',(0.0,0.0,-1.0));
#1040=AXIS2_PLACEMENT_3D('',#1037,#1038,#1039);
#1041=CYLINDRICAL_SURFACE('',#1040,1.27);
#1042=ADVANCED_FACE('no 153',(#1036),#1041,.T.);
#1043=ORIENTED_EDGE('',*,*,#915,.T.);
#1044=CARTESIAN_POINT('',(44.45,1.27,30.48));
#1045=VERTEX_POINT('',#1044);
#1046=CARTESIAN_POINT('',(44.45,1.27,30.48));
#1047=DIRECTION('',(0.0,-1.0,0.0));
#1048=VECTOR('',#1047,1.0);
#1049=LINE('',#1046,#1048);
#1050=EDGE_CURVE('no 138',#1045,#901,#1049,.T.);
#1051=ORIENTED_EDGE('',*,*,#1050,.F.);
#1052=CARTESIAN_POINT('',(-44.45,1.27,30.48));
#1053=DIRECTION('',(1.0,0.0,0.0));
#1054=VECTOR('',#1053,1.0);
#1055=LINE('',#1052,#1054);
#1056=EDGE_CURVE('no 13',#1020,#1045,#1055,.T.);
#1057=ORIENTED_EDGE('',*,*,#1056,.F.);
#1058=ORIENTED_EDGE('',*,*,#1025,.T.);
#1059=EDGE_LOOP('',(#1043,#1051,#1057,#1058));
#1060=FACE_OUTER_BOUND('',#1059,.T.);
#1061=CARTESIAN_POINT('',(-44.45,1.27,30.48));
#1062=DIRECTION('',(0.0,0.0,-1.0));
#1063=DIRECTION('',(-1.0,0.0,0.0));
#1064=AXIS2_PLACEMENT_3D('',#1061,#1062,#1063);
#1065=PLANE('',#1064);
#1066=ADVANCED_FACE('no 151',(#1060),#1065,.F.);
#1067=ORIENTED_EDGE('',*,*,#907,.T.);
#1068=CARTESIAN_POINT('',(45.72,1.27,29.21));
#1069=VERTEX_POINT('',#1068);
#1070=CARTESIAN_POINT('',(45.72,1.27,29.21));
#1071=DIRECTION('',(0.0,-1.0,0.0));
#1072=VECTOR('',#1071,1.0);
#1073=LINE('',#1070,#1072);
#1074=EDGE_CURVE('no 137',#1069,#893,#1073,.T.);
#1075=ORIENTED_EDGE('',*,*,#1074,.F.);
#1076=CARTESIAN_POINT('',(44.45,1.27,29.21));
#1077=DIRECTION('',(0.0,1.0,0.0));
#1078=DIRECTION('',(0.0,0.0,1.0));
#1079=AXIS2_PLACEMENT_3D('',#1076,#1077,#1078);
#1080=CIRCLE('',#1079,1.27);
#1081=EDGE_CURVE('no 16',#1045,#1069,#1080,.T.);
#1082=ORIENTED_EDGE('',*,*,#1081,.F.);
#1083=ORIENTED_EDGE('',*,*,#1050,.T.);
#1084=EDGE_LOOP('',(#1067,#1075,#1082,#1083));
#1085=FACE_OUTER_BOUND('',#1084,.T.);
#1086=CARTESIAN_POINT('',(44.45,1.27,29.21));
#1087=DIRECTION('',(0.0,-1.0,0.0));
#1088=DIRECTION('',(0.0,0.0,-1.0));
#1089=AXIS2_PLACEMENT_3D('',#1086,#1087,#1088);
#1090=CYLINDRICAL_SURFACE('',#1089,1.27);
#1091=ADVANCED_FACE('no 149',(#1085),#1090,.T.);
#1092=ORIENTED_EDGE('',*,*,#898,.T.);
#1093=CARTESIAN_POINT('',(45.72,1.27,-29.21));
#1094=VERTEX_POINT('',#1093);
#1095=CARTESIAN_POINT('',(45.72,1.27,-29.21));
#1096=DIRECTION('',(0.0,-1.0,0.0));
#1097=VECTOR('',#1096,1.0);
#1098=LINE('',#1095,#1097);
#1099=EDGE_CURVE('no 136',#1094,#884,#1098,.T.);
#1100=ORIENTED_EDGE('',*,*,#1099,.F.);
#1101=CARTESIAN_POINT('',(45.72,1.27,-29.21));
#1102=DIRECTION('',(-0.0,0.0,-1.0));
#1103=VECTOR('',#1102,1.0);
#1104=LINE('',#1101,#1103);
#1105=EDGE_CURVE('no 19',#1069,#1094,#1104,.T.);
#1106=ORIENTED_EDGE('',*,*,#1105,.F.);
#1107=ORIENTED_EDGE('',*,*,#1074,.T.);
#1108=EDGE_LOOP('',(#1092,#1100,#1106,#1107));
#1109=FACE_OUTER_BOUND('',#1108,.T.);
#1110=CARTESIAN_POINT('',(45.72,1.27,-29.21));
#1111=DIRECTION('',(-1.0,0.0,0.0));
#1112=DIRECTION('',(0.0,0.0,1.0));
#1113=AXIS2_PLACEMENT_3D('',#1110,#1111,#1112);
#1114=PLANE('',#1113);
#1115=ADVANCED_FACE('no 147',(#1109),#1114,.F.);
#1116=ORIENTED_EDGE('',*,*,#890,.T.);
#1117=CARTESIAN_POINT('',(44.45,1.27,-30.48));
#1118=VERTEX_POINT('',#1117);
#1119=CARTESIAN_POINT('',(44.45,1.27,-30.48));
#1120=DIRECTION('',(0.0,-1.0,0.0));
#1121=VECTOR('',#1120,1.0);
#1122=LINE('',#1119,#1121);
#1123=EDGE_CURVE('no 135',#1118,#876,#1122,.T.);
#1124=ORIENTED_EDGE('',*,*,#1123,.F.);
#1125=CARTESIAN_POINT('',(44.45,1.27,-29.21));
#1126=DIRECTION('',(0.0,1.0,0.0));
#1127=DIRECTION('',(0.0,0.0,-1.0));
#1128=AXIS2_PLACEMENT_3D('',#1125,#1126,#1127);
#1129=CIRCLE('',#1128,1.27);
#1130=EDGE_CURVE('no 22',#1094,#1118,#1129,.T.);
#1131=ORIENTED_EDGE('',*,*,#1130,.F.);
#1132=ORIENTED_EDGE('',*,*,#1099,.T.);
#1133=EDGE_LOOP('',(#1116,#1124,#1131,#1132));
#1134=FACE_OUTER_BOUND('',#1133,.T.);
#1135=CARTESIAN_POINT('',(44.45,1.27,-29.21));
#1136=DIRECTION('',(0.0,-1.0,0.0));
#1137=DIRECTION('',(0.0,0.0,-1.0));
#1138=AXIS2_PLACEMENT_3D('',#1135,#1136,#1137);
#1139=CYLINDRICAL_SURFACE('',#1138,1.27);
#1140=ADVANCED_FACE('no 145',(#1134),#1139,.T.);
#1141=ORIENTED_EDGE('',*,*,#881,.T.);
#1142=ORIENTED_EDGE('',*,*,#984,.F.);
#1143=CARTESIAN_POINT('',(-44.45,1.27,-30.48));
#1144=DIRECTION('',(-1.0,0.0,0.0));
#1145=VECTOR('',#1144,1.0);
#1146=LINE('',#1143,#1145);
#1147=EDGE_CURVE('no 25',#1118,#972,#1146,.T.);
#1148=ORIENTED_EDGE('',*,*,#1147,.F.);
#1149=ORIENTED_EDGE('',*,*,#1123,.T.);
#1150=EDGE_LOOP('',(#1141,#1142,#1148,#1149));
#1151=FACE_OUTER_BOUND('',#1150,.T.);
#1152=CARTESIAN_POINT('',(-44.45,1.27,-30.48));
#1153=DIRECTION('',(0.0,0.0,1.0));
#1154=DIRECTION('',(1.0,0.0,0.0));
#1155=AXIS2_PLACEMENT_3D('',#1152,#1153,#1154);
#1156=PLANE('',#1155);
#1157=ADVANCED_FACE('no 143',(#1151),#1156,.F.);
#1158=ORIENTED_EDGE('',*,*,#978,.T.);
#1159=ORIENTED_EDGE('',*,*,#1007,.T.);
#1160=ORIENTED_EDGE('',*,*,#1032,.T.);
#1161=ORIENTED_EDGE('',*,*,#1056,.T.);
#1162=ORIENTED_EDGE('',*,*,#1081,.T.);
#1163=ORIENTED_EDGE('',*,*,#1105,.T.);
#1164=ORIENTED_EDGE('',*,*,#1130,.T.);
#1165=ORIENTED_EDGE('',*,*,#1147,.T.);
#1166=EDGE_LOOP('',(#1158,#1159,#1160,#1161,#1162,#1163,#1164,#1165));
#1167=FACE_OUTER_BOUND('',#1166,.T.);
#1168=CARTESIAN_POINT('',(-44.45,1.27,-29.21));
#1169=DIRECTION('',(0.0,1.0,0.0));
#1170=DIRECTION('',(0.0,0.0,1.0));
#1171=AXIS2_PLACEMENT_3D('',#1168,#1169,#1170);
#1172=PLANE('',#1171);
#1173=ADVANCED_FACE('no 1',(#1167),#1172,.T.);
#1174=CARTESIAN_POINT('',(-33.02,0.127,-16.51));
#1175=VERTEX_POINT('',#1174);
#1176=CARTESIAN_POINT('',(-33.02,0.127,-19.05));
#1177=DIRECTION('',(0.0,1.0,0.0));
#1178=DIRECTION('',(0.0,0.0,1.0));
#1179=AXIS2_PLACEMENT_3D('',#1176,#1177,#1178);
#1180=CIRCLE('',#1179,2.54);
#1181=EDGE_CURVE('no 242',#1175,#1175,#1180,.T.);
#1182=ORIENTED_EDGE('',*,*,#1181,.T.);
#1183=EDGE_LOOP('',(#1182));
#1184=FACE_OUTER_BOUND('',#1183,.T.);
#1185=ORIENTED_EDGE('',*,*,#860,.F.);
#1186=EDGE_LOOP('',(#1185));
#1187=FACE_BOUND('',#1186,.T.);
#1188=CARTESIAN_POINT('',(-33.02,0.127,-19.05));
#1189=DIRECTION('',(0.0,-1.0,0.0));
#1190=DIRECTION('',(0.0,0.0,-1.0));
#1191=AXIS2_PLACEMENT_3D('',#1188,#1189,#1190);
#1192=CYLINDRICAL_SURFACE('',#1191,2.54);
#1193=ADVANCED_FACE('no 245',(#1184,#1187),#1192,.F.);
#1194=ORIENTED_EDGE('',*,*,#1181,.F.);
#1195=EDGE_LOOP('',(#1194));
#1196=FACE_OUTER_BOUND('',#1195,.T.);
#1197=CARTESIAN_POINT('',(-33.02,0.127,-19.05));
#1198=DIRECTION('',(0.0,1.0,0.0));
#1199=DIRECTION('',(0.0,0.0,1.0));
#1200=AXIS2_PLACEMENT_3D('',#1197,#1198,#1199);
#1201=PLANE('',#1200);
#1202=ADVANCED_FACE('no 250',(#1196),#1201,.F.);
#1203=CARTESIAN_POINT('',(33.02,0.127,-16.51));
#1204=VERTEX_POINT('',#1203);
#1205=CARTESIAN_POINT('',(33.02,0.127,-19.05));
#1206=DIRECTION('',(0.0,1.0,0.0));
#1207=DIRECTION('',(0.0,0.0,1.0));
#1208=AXIS2_PLACEMENT_3D('',#1205,#1206,#1207);
#1209=CIRCLE('',#1208,2.54);
#1210=EDGE_CURVE('no 273',#1204,#1204,#1209,.T.);
#1211=ORIENTED_EDGE('',*,*,#1210,.T.);
#1212=EDGE_LOOP('',(#1211));
#1213=FACE_OUTER_BOUND('',#1212,.T.);
#1214=ORIENTED_EDGE('',*,*,#941,.F.);
#1215=EDGE_LOOP('',(#1214));
#1216=FACE_BOUND('',#1215,.T.);
#1217=CARTESIAN_POINT('',(33.02,0.127,-19.05));
#1218=DIRECTION('',(0.0,-1.0,0.0));
#1219=DIRECTION('',(0.0,0.0,-1.0));
#1220=AXIS2_PLACEMENT_3D('',#1217,#1218,#1219);
#1221=CYLINDRICAL_SURFACE('',#1220,2.54);
#1222=ADVANCED_FACE('no 276',(#1213,#1216),#1221,.F.);
#1223=ORIENTED_EDGE('',*,*,#1210,.F.);
#1224=EDGE_LOOP('',(#1223));
#1225=FACE_OUTER_BOUND('',#1224,.T.);
#1226=CARTESIAN_POINT('',(33.02,0.127,-19.05));
#1227=DIRECTION('',(0.0,1.0,0.0));
#1228=DIRECTION('',(0.0,0.0,1.0));
#1229=AXIS2_PLACEMENT_3D('',#1226,#1227,#1228);
#1230=PLANE('',#1229);
#1231=ADVANCED_FACE('no 281',(#1225),#1230,.F.);
#1232=CARTESIAN_POINT('',(-33.02,0.127,21.59));
#1233=VERTEX_POINT('',#1232);
#1234=CARTESIAN_POINT('',(-33.02,0.127,19.05));
#1235=DIRECTION('',(0.0,1.0,0.0));
#1236=DIRECTION('',(0.0,0.0,1.0));
#1237=AXIS2_PLACEMENT_3D('',#1234,#1235,#1236);
#1238=CIRCLE('',#1237,2.54);
#1239=EDGE_CURVE('no 304',#1233,#1233,#1238,.T.);
#1240=ORIENTED_EDGE('',*,*,#1239,.T.);
#1241=EDGE_LOOP('',(#1240));
#1242=FACE_OUTER_BOUND('',#1241,.T.);
#1243=ORIENTED_EDGE('',*,*,#849,.F.);
#1244=EDGE_LOOP('',(#1243));
#1245=FACE_BOUND('',#1244,.T.);
#1246=CARTESIAN_POINT('',(-33.02,0.127,19.05));
#1247=DIRECTION('',(0.0,-1.0,0.0));
#1248=DIRECTION('',(0.0,0.0,-1.0));
#1249=AXIS2_PLACEMENT_3D('',#1246,#1247,#1248);
#1250=CYLINDRICAL_SURFACE('',#1249,2.54);
#1251=ADVANCED_FACE('no 307',(#1242,#1245),#1250,.F.);
#1252=ORIENTED_EDGE('',*,*,#1239,.F.);
#1253=EDGE_LOOP('',(#1252));
#1254=FACE_OUTER_BOUND('',#1253,.T.);
#1255=CARTESIAN_POINT('',(-33.02,0.127,19.05));
#1256=DIRECTION('',(0.0,1.0,0.0));
#1257=DIRECTION('',(0.0,0.0,1.0));
#1258=AXIS2_PLACEMENT_3D('',#1255,#1256,#1257);
#1259=PLANE('',#1258);
#1260=ADVANCED_FACE('no 312',(#1254),#1259,.F.);
#1261=CARTESIAN_POINT('',(33.02,0.127,21.59));
#1262=VERTEX_POINT('',#1261);
#1263=CARTESIAN_POINT('',(33.02,0.127,19.05));
#1264=DIRECTION('',(0.0,1.0,0.0));
#1265=DIRECTION('',(0.0,0.0,1.0));
#1266=AXIS2_PLACEMENT_3D('',#1263,#1264,#1265);
#1267=CIRCLE('',#1266,2.54);
#1268=EDGE_CURVE('no 335',#1262,#1262,#1267,.T.);
#1269=ORIENTED_EDGE('',*,*,#1268,.T.);
#1270=EDGE_LOOP('',(#1269));
#1271=FACE_OUTER_BOUND('',#1270,.T.);
#1272=ORIENTED_EDGE('',*,*,#952,.F.);
#1273=EDGE_LOOP('',(#1272));
#1274=FACE_BOUND('',#1273,.T.);
#1275=CARTESIAN_POINT('',(33.02,0.127,19.05));
#1276=DIRECTION('',(0.0,-1.0,0.0));
#1277=DIRECTION('',(0.0,0.0,-1.0));
#1278=AXIS2_PLACEMENT_3D('',#1275,#1276,#1277);
#1279=CYLINDRICAL_SURFACE('',#1278,2.54);
#1280=ADVANCED_FACE('no 338',(#1271,#1274),#1279,.F.);
#1281=ORIENTED_EDGE('',*,*,#1268,.F.);
#1282=EDGE_LOOP('',(#1281));
#1283=FACE_OUTER_BOUND('',#1282,.T.);
#1284=CARTESIAN_POINT('',(33.02,0.127,19.05));
#1285=DIRECTION('',(0.0,1.0,0.0));
#1286=DIRECTION('',(0.0,0.0,1.0));
#1287=AXIS2_PLACEMENT_3D('',#1284,#1285,#1286);
#1288=PLANE('',#1287);
#1289=ADVANCED_FACE('no 343',(#1283),#1288,.F.);
#1290=CLOSED_SHELL('P001',(
    #961,#993,#1017,#1042,#1066,#1091,#1115,#1140,#1157,#1173,
    #1193,#1202,#1222,#1231,#1251,#1260,#1280,#1289));
#1291=MANIFOLD_SOLID_BREP('P001',#1290);
#1292=COLOUR_RGB('',0.93333,0.95294,0.96471);
#1293=FILL_AREA_STYLE_COLOUR('',#1292);
#1294=FILL_AREA_STYLE('',(#1293));
#1295=SURFACE_STYLE_FILL_AREA(#1294);
#1296=SURFACE_SIDE_STYLE('',(#1295));
#1297=SURFACE_STYLE_USAGE(.BOTH.,#1296);
#1298=PRESENTATION_STYLE_ASSIGNMENT((#1297));
#1299=STYLED_ITEM('',(#1298),#1291);
#1300=CARTESIAN_POINT('',(0.,0.,0.));
#1301=DIRECTION('',(0.,0.,1.));
#1302=DIRECTION('',(1.,0.,0.));
#1303=AXIS2_PLACEMENT_3D('Reference Axes',#1300,#1301,#1302);
#1304=SHAPE_REPRESENTATION('',(#1303,#1291),#831);
#1305=SHAPE_DEFINITION_REPRESENTATION(#838,#1304);
#1306=CARTESIAN_POINT('',(-21.163237254,43.4599228535,-38.6856006489));
#1307=DIRECTION('',(0.0,0.0,1.0));
#1308=DIRECTION('',(1.0,0.0,0.0));
#1309=AXIS2_PLACEMENT_3D('Instance Position',#1306,#1307,#1308);
#1310=CARTESIAN_POINT('',(-15.575237254,43.4599228535,-38.6856006489));
#1311=DIRECTION('',(0.0,0.0,1.0));
#1312=DIRECTION('',(1.0,0.0,0.0));
#1313=AXIS2_PLACEMENT_3D('Instance Position',#1310,#1311,#1312);
#1314=CARTESIAN_POINT('',(-9.987237254,43.4599228535,-38.6856006489));
#1315=DIRECTION('',(0.0,0.0,1.0));
#1316=DIRECTION('',(1.0,0.0,0.0));
#1317=AXIS2_PLACEMENT_3D('Instance Position',#1314,#1315,#1316);
#1318=CARTESIAN_POINT('',(-4.399237254,43.4599228535,-38.6856006489));
#1319=DIRECTION('',(0.0,0.0,1.0));
#1320=DIRECTION('',(1.0,0.0,0.0));
#1321=AXIS2_PLACEMENT_3D('Instance Position',#1318,#1319,#1320);
#1322=CARTESIAN_POINT('',(1.188762746,43.4599228535,-38.6856006489));
#1323=DIRECTION('',(0.0,0.0,1.0));
#1324=DIRECTION('',(1.0,0.0,0.0));
#1325=AXIS2_PLACEMENT_3D('Instance Position',#1322,#1323,#1324);
#1326=CARTESIAN_POINT('',(-26.751237254,43.4599228535,-38.6856006489));
#1327=DIRECTION('',(0.0,0.0,1.0));
#1328=DIRECTION('',(1.0,0.0,0.0));
#1329=AXIS2_PLACEMENT_3D('Instance Position',#1326,#1327,#1328);
#1330=CARTESIAN_POINT('',(-21.163237254,43.4599228535,-38.6856006489));
#1331=DIRECTION('',(0.0,0.0,1.0));
#1332=DIRECTION('',(1.0,0.0,0.0));
#1333=AXIS2_PLACEMENT_3D('Instance Position',#1330,#1331,#1332);
#1334=CARTESIAN_POINT('',(-15.575237254,43.4599228535,-38.6856006489));
#1335=DIRECTION('',(0.0,0.0,1.0));
#1336=DIRECTION('',(1.0,0.0,0.0));
#1337=AXIS2_PLACEMENT_3D('Instance Position',#1334,#1335,#1336);
#1338=CARTESIAN_POINT('',(-9.987237254,43.4599228535,-38.6856006489));
#1339=DIRECTION('',(0.0,0.0,1.0));
#1340=DIRECTION('',(1.0,0.0,0.0));
#1341=AXIS2_PLACEMENT_3D('Instance Position',#1338,#1339,#1340);
#1342=CARTESIAN_POINT('',(-4.399237254,43.4599228535,-38.6856006489));
#1343=DIRECTION('',(0.0,0.0,1.0));
#1344=DIRECTION('',(1.0,0.0,0.0));
#1345=AXIS2_PLACEMENT_3D('Instance Position',#1342,#1343,#1344);
#1346=CARTESIAN_POINT('',(-32.339237254,43.4599228535,-38.6856006489));
#1347=DIRECTION('',(0.0,0.0,1.0));
#1348=DIRECTION('',(1.0,0.0,0.0));
#1349=AXIS2_PLACEMENT_3D('Instance Position',#1346,#1347,#1348);
#1350=CARTESIAN_POINT('',(-26.751237254,43.4599228535,-38.6856006489));
#1351=DIRECTION('',(0.0,0.0,1.0));
#1352=DIRECTION('',(1.0,0.0,0.0));
#1353=AXIS2_PLACEMENT_3D('Instance Position',#1350,#1351,#1352);
#1354=CARTESIAN_POINT('',(-21.163237254,43.4599228535,-38.6856006489));
#1355=DIRECTION('',(0.0,0.0,1.0));
#1356=DIRECTION('',(1.0,0.0,0.0));
#1357=AXIS2_PLACEMENT_3D('Instance Position',#1354,#1355,#1356);
#1358=CARTESIAN_POINT('',(-15.575237254,43.4599228535,-38.6856006489));
#1359=DIRECTION('',(0.0,0.0,1.0));
#1360=DIRECTION('',(1.0,0.0,0.0));
#1361=AXIS2_PLACEMENT_3D('Instance Position',#1358,#1359,#1360);
#1362=CARTESIAN_POINT('',(-9.987237254,43.4599228535,-38.6856006489));
#1363=DIRECTION('',(0.0,0.0,1.0));
#1364=DIRECTION('',(1.0,0.0,0.0));
#1365=AXIS2_PLACEMENT_3D('Instance Position',#1362,#1363,#1364);
#1366=CARTESIAN_POINT('',(-37.927237254,43.4599228535,-38.6856006489));
#1367=DIRECTION('',(0.0,0.0,1.0));
#1368=DIRECTION('',(1.0,0.0,0.0));
#1369=AXIS2_PLACEMENT_3D('Instance Position',#1366,#1367,#1368);
#1370=CARTESIAN_POINT('',(-32.339237254,43.4599228535,-38.6856006489));
#1371=DIRECTION('',(0.0,0.0,1.0));
#1372=DIRECTION('',(1.0,0.0,0.0));
#1373=AXIS2_PLACEMENT_3D('Instance Position',#1370,#1371,#1372);
#1374=CARTESIAN_POINT('',(-26.751237254,43.4599228535,-38.6856006489));
#1375=DIRECTION('',(0.0,0.0,1.0));
#1376=DIRECTION('',(1.0,0.0,0.0));
#1377=AXIS2_PLACEMENT_3D('Instance Position',#1374,#1375,#1376);
#1378=CARTESIAN_POINT('',(-21.163237254,43.4599228535,-38.6856006489));
#1379=DIRECTION('',(0.0,0.0,1.0));
#1380=DIRECTION('',(1.0,0.0,0.0));
#1381=AXIS2_PLACEMENT_3D('Instance Position',#1378,#1379,#1380);
#1382=CARTESIAN_POINT('',(-15.575237254,43.4599228535,-38.6856006489));
#1383=DIRECTION('',(0.0,0.0,1.0));
#1384=DIRECTION('',(1.0,0.0,0.0));
#1385=AXIS2_PLACEMENT_3D('Instance Position',#1382,#1383,#1384);
#1386=CARTESIAN_POINT('',(-43.515237254,43.4599228535,-38.6856006489));
#1387=DIRECTION('',(0.0,0.0,1.0));
#1388=DIRECTION('',(1.0,0.0,0.0));
#1389=AXIS2_PLACEMENT_3D('Instance Position',#1386,#1387,#1388);
#1390=CARTESIAN_POINT('',(-37.927237254,43.4599228535,-38.6856006489));
#1391=DIRECTION('',(0.0,0.0,1.0));
#1392=DIRECTION('',(1.0,0.0,0.0));
#1393=AXIS2_PLACEMENT_3D('Instance Position',#1390,#1391,#1392);
#1394=CARTESIAN_POINT('',(-32.339237254,43.4599228535,-38.6856006489));
#1395=DIRECTION('',(0.0,0.0,1.0));
#1396=DIRECTION('',(1.0,0.0,0.0));
#1397=AXIS2_PLACEMENT_3D('Instance Position',#1394,#1395,#1396);
#1398=CARTESIAN_POINT('',(-26.751237254,43.4599228535,-38.6856006489));
#1399=DIRECTION('',(0.0,0.0,1.0));
#1400=DIRECTION('',(1.0,0.0,0.0));
#1401=AXIS2_PLACEMENT_3D('Instance Position',#1398,#1399,#1400);
#1402=CARTESIAN_POINT('',(-21.163237254,43.4599228535,-38.6856006489));
#1403=DIRECTION('',(0.0,0.0,1.0));
#1404=DIRECTION('',(1.0,0.0,0.0));
#1405=AXIS2_PLACEMENT_3D('Instance Position',#1402,#1403,#1404);
#1406=CARTESIAN_POINT('',(12.8814858525,44.0949228535,-3.0640975808));
#1407=DIRECTION('',(1.0,-0.0,-0.0));
#1408=DIRECTION('',(-0.0,0.0,-1.0));
#1409=AXIS2_PLACEMENT_3D('Instance Position',#1406,#1407,#1408);
#1410=CARTESIAN_POINT('',(-53.1585141475,44.0949228535,-3.0584921445));
#1411=DIRECTION('',(1.0,-0.0,-0.0));
#1412=DIRECTION('',(-0.0,0.0,-1.0));
#1413=AXIS2_PLACEMENT_3D('Instance Position',#1410,#1411,#1412);
#1414=CARTESIAN_POINT('',(-50.6185141475,44.0949228535,-38.610773408));
#1415=DIRECTION('',(0.0,0.0,1.0));
#1416=DIRECTION('',(1.0,0.0,0.0));
#1417=AXIS2_PLACEMENT_3D('Instance Position',#1414,#1415,#1416);
#1418=CARTESIAN_POINT('',(-50.6185141475,44.0949228535,-0.510773408));
#1419=DIRECTION('',(0.0,0.0,1.0));
#1420=DIRECTION('',(1.0,0.0,0.0));
#1421=AXIS2_PLACEMENT_3D('Instance Position',#1418,#1419,#1420);
#1422=CARTESIAN_POINT('',(12.8814858525,57.0589228535,-0.510773408));
#1423=DIRECTION('',(0.0,0.0,-1.0));
#1424=DIRECTION('',(1.0,0.0,0.0));
#1425=AXIS2_PLACEMENT_3D('Instance Position',#1422,#1423,#1424);
#1426=CARTESIAN_POINT('',(12.8814858525,57.0589228535,-38.610773408));
#1427=DIRECTION('',(0.0,0.0,-1.0));
#1428=DIRECTION('',(1.0,0.0,0.0));
#1429=AXIS2_PLACEMENT_3D('Instance Position',#1426,#1427,#1428);
#1430=CARTESIAN_POINT('',(-53.1585141475,57.0589228535,-0.510773408));
#1431=DIRECTION('',(0.0,0.0,-1.0));
#1432=DIRECTION('',(1.0,0.0,0.0));
#1433=AXIS2_PLACEMENT_3D('Instance Position',#1430,#1431,#1432);
#1434=CARTESIAN_POINT('',(-53.1585141475,57.0589228535,-38.610773408));
#1435=DIRECTION('',(0.0,0.0,-1.0));
#1436=DIRECTION('',(1.0,0.0,0.0));
#1437=AXIS2_PLACEMENT_3D('Instance Position',#1434,#1435,#1436);
#1438=CARTESIAN_POINT('',(12.8814858525,23.7749228535,-38.610773408));
#1439=DIRECTION('',(0.0,0.0,1.0));
#1440=DIRECTION('',(1.0,0.0,0.0));
#1441=AXIS2_PLACEMENT_3D('Instance Position',#1438,#1439,#1440);
#1442=CARTESIAN_POINT('',(12.8814858525,23.7749228535,-0.510773408));
#1443=DIRECTION('',(0.0,0.0,1.0));
#1444=DIRECTION('',(1.0,0.0,0.0));
#1445=AXIS2_PLACEMENT_3D('Instance Position',#1442,#1443,#1444);
#1446=CARTESIAN_POINT('',(-53.1585141475,23.7749228535,-38.610773408));
#1447=DIRECTION('',(0.0,0.0,1.0));
#1448=DIRECTION('',(1.0,0.0,0.0));
#1449=AXIS2_PLACEMENT_3D('Instance Position',#1446,#1447,#1448);
#1450=CARTESIAN_POINT('',(-53.1585141475,23.7749228535,-0.510773408));
#1451=DIRECTION('',(0.0,0.0,1.0));
#1452=DIRECTION('',(1.0,0.0,0.0));
#1453=AXIS2_PLACEMENT_3D('Instance Position',#1450,#1451,#1452);
#1454=CARTESIAN_POINT('',(12.8814858525,24.0289228535,-0.510773408));
#1455=DIRECTION('',(0.0,0.0,1.0));
#1456=DIRECTION('',(1.0,0.0,0.0));
#1457=AXIS2_PLACEMENT_3D('Instance Position',#1454,#1455,#1456);
#1458=CARTESIAN_POINT('',(12.8814858525,24.0289228535,-38.610773408));
#1459=DIRECTION('',(0.0,0.0,1.0));
#1460=DIRECTION('',(1.0,0.0,0.0));
#1461=AXIS2_PLACEMENT_3D('Instance Position',#1458,#1459,#1460);
#1462=CARTESIAN_POINT('',(-53.1585141475,24.0289228535,-0.510773408));
#1463=DIRECTION('',(0.0,0.0,1.0));
#1464=DIRECTION('',(1.0,0.0,0.0));
#1465=AXIS2_PLACEMENT_3D('Instance Position',#1462,#1463,#1464);
#1466=CARTESIAN_POINT('',(-53.1585141475,24.0289228535,-38.610773408));
#1467=DIRECTION('',(0.0,0.0,1.0));
#1468=DIRECTION('',(1.0,0.0,0.0));
#1469=AXIS2_PLACEMENT_3D('Instance Position',#1466,#1467,#1468);
#1470=CARTESIAN_POINT('',(-20.1385141475,57.0589228535,-19.560773408));
#1471=DIRECTION('',(0.0,0.0,1.0));
#1472=DIRECTION('',(1.0,0.0,0.0));
#1473=AXIS2_PLACEMENT_3D('Instance Position',#1470,#1471,#1472);
#1474=( GEOMETRIC_REPRESENTATION_CONTEXT(3)
       GLOBAL_UNCERTAINTY_ASSIGNED_CONTEXT((#1475)) GLOBAL_UNIT_ASSIGNED_CONTEXT
  ((#3,#4)) REPRESENTATION_CONTEXT('Context #7',
  '3D Context with UNIT and UNCERTAINTY') );
#1475=UNCERTAINTY_MEASURE_WITH_UNIT(LENGTH_MEASURE(0.005),#3,'distance_accuracy_value','Confusion accuracy');
#1476=PRODUCT_CONTEXT('',#1,'mechanical');
#1477=PRODUCT('Compo-1','','',(#1476));
#1478=PRODUCT_DEFINITION_FORMATION('','',#1477);
#1479=PRODUCT_DEFINITION_CONTEXT('part definition',#1,'design');
#1480=PRODUCT_DEFINITION('design','',#1478,#1479);
#1481=PRODUCT_DEFINITION_SHAPE('','',#1480);
#1482=PRODUCT_CATEGORY('part',$);
#1483=PRODUCT_RELATED_PRODUCT_CATEGORY('part',$,(#1477));
#1484=PRODUCT_CATEGORY_RELATIONSHIP('','',#1482,#1483);
#1485=CARTESIAN_POINT('',(0.,0.,0.));
#1486=DIRECTION('',(0.,0.,1.));
#1487=DIRECTION('',(1.,0.,0.));
#1488=AXIS2_PLACEMENT_3D('Reference Axes',#1485,#1486,#1487);
#1489=SHAPE_REPRESENTATION('',(#1488,
    #1309,#1313,#1317,#1321,#1325,#1329,#1333,#1337,#1341,#1345,
    #1349,#1353,#1357,#1361,#1365,#1369,#1373,#1377,#1381,#1385,
    #1389,#1393,#1397,#1401,#1405,#1409,#1413,#1417,#1421,#1425,
    #1429,#1433,#1437,#1441,#1445,#1449,#1453,#1457,#1461,#1465,
    #1469,#1473),#1474);
#1490=SHAPE_DEFINITION_REPRESENTATION(#1481,#1489);
#1491=CONTEXT_DEPENDENT_SHAPE_REPRESENTATION(#1492,#1494);
#1492=( REPRESENTATION_RELATIONSHIP('','',#76,#1489)
  REPRESENTATION_RELATIONSHIP_WITH_TRANSFORMATION(#1493) SHAPE_REPRESENTATION_RELATIONSHIP() );
#1493=ITEM_DEFINED_TRANSFORMATION('','',#75,#1309);
#1494=PRODUCT_DEFINITION_SHAPE('Placement','Placement of an item',#1495);
#1495=NEXT_ASSEMBLY_USAGE_OCCURRENCE('1495','P006','P006',#1480,#11,$);
#1496=CONTEXT_DEPENDENT_SHAPE_REPRESENTATION(#1497,#1499);
#1497=( REPRESENTATION_RELATIONSHIP('','',#76,#1489)
  REPRESENTATION_RELATIONSHIP_WITH_TRANSFORMATION(#1498) SHAPE_REPRESENTATION_RELATIONSHIP() );
#1498=ITEM_DEFINED_TRANSFORMATION('','',#75,#1313);
#1499=PRODUCT_DEFINITION_SHAPE('Placement','Placement of an item',#1500);
#1500=NEXT_ASSEMBLY_USAGE_OCCURRENCE('1500','P006','P006',#1480,#11,$);
#1501=CONTEXT_DEPENDENT_SHAPE_REPRESENTATION(#1502,#1504);
#1502=( REPRESENTATION_RELATIONSHIP('','',#76,#1489)
  REPRESENTATION_RELATIONSHIP_WITH_TRANSFORMATION(#1503) SHAPE_REPRESENTATION_RELATIONSHIP() );
#1503=ITEM_DEFINED_TRANSFORMATION('','',#75,#1317);
#1504=PRODUCT_DEFINITION_SHAPE('Placement','Placement of an item',#1505);
#1505=NEXT_ASSEMBLY_USAGE_OCCURRENCE('1505','P006','P006',#1480,#11,$);
#1506=CONTEXT_DEPENDENT_SHAPE_REPRESENTATION(#1507,#1509);
#1507=( REPRESENTATION_RELATIONSHIP('','',#76,#1489)
  REPRESENTATION_RELATIONSHIP_WITH_TRANSFORMATION(#1508) SHAPE_REPRESENTATION_RELATIONSHIP() );
#1508=ITEM_DEFINED_TRANSFORMATION('','',#75,#1321);
#1509=PRODUCT_DEFINITION_SHAPE('Placement','Placement of an item',#1510);
#1510=NEXT_ASSEMBLY_USAGE_OCCURRENCE('1510','P006','P006',#1480,#11,$);
#1511=CONTEXT_DEPENDENT_SHAPE_REPRESENTATION(#1512,#1514);
#1512=( REPRESENTATION_RELATIONSHIP('','',#76,#1489)
  REPRESENTATION_RELATIONSHIP_WITH_TRANSFORMATION(#1513) SHAPE_REPRESENTATION_RELATIONSHIP() );
#1513=ITEM_DEFINED_TRANSFORMATION('','',#75,#1325);
#1514=PRODUCT_DEFINITION_SHAPE('Placement','Placement of an item',#1515);
#1515=NEXT_ASSEMBLY_USAGE_OCCURRENCE('1515','P006','P006',#1480,#11,$);
#1516=CONTEXT_DEPENDENT_SHAPE_REPRESENTATION(#1517,#1519);
#1517=( REPRESENTATION_RELATIONSHIP('','',#76,#1489)
  REPRESENTATION_RELATIONSHIP_WITH_TRANSFORMATION(#1518) SHAPE_REPRESENTATION_RELATIONSHIP() );
#1518=ITEM_DEFINED_TRANSFORMATION('','',#75,#1329);
#1519=PRODUCT_DEFINITION_SHAPE('Placement','Placement of an item',#1520);
#1520=NEXT_ASSEMBLY_USAGE_OCCURRENCE('1520','P006','P006',#1480,#11,$);
#1521=CONTEXT_DEPENDENT_SHAPE_REPRESENTATION(#1522,#1524);
#1522=( REPRESENTATION_RELATIONSHIP('','',#76,#1489)
  REPRESENTATION_RELATIONSHIP_WITH_TRANSFORMATION(#1523) SHAPE_REPRESENTATION_RELATIONSHIP() );
#1523=ITEM_DEFINED_TRANSFORMATION('','',#75,#1333);
#1524=PRODUCT_DEFINITION_SHAPE('Placement','Placement of an item',#1525);
#1525=NEXT_ASSEMBLY_USAGE_OCCURRENCE('1525','P006','P006',#1480,#11,$);
#1526=CONTEXT_DEPENDENT_SHAPE_REPRESENTATION(#1527,#1529);
#1527=( REPRESENTATION_RELATIONSHIP('','',#76,#1489)
  REPRESENTATION_RELATIONSHIP_WITH_TRANSFORMATION(#1528) SHAPE_REPRESENTATION_RELATIONSHIP() );
#1528=ITEM_DEFINED_TRANSFORMATION('','',#75,#1337);
#1529=PRODUCT_DEFINITION_SHAPE('Placement','Placement of an item',#1530);
#1530=NEXT_ASSEMBLY_USAGE_OCCURRENCE('1530','P006','P006',#1480,#11,$);
#1531=CONTEXT_DEPENDENT_SHAPE_REPRESENTATION(#1532,#1534);
#1532=( REPRESENTATION_RELATIONSHIP('','',#76,#1489)
  REPRESENTATION_RELATIONSHIP_WITH_TRANSFORMATION(#1533) SHAPE_REPRESENTATION_RELATIONSHIP() );
#1533=ITEM_DEFINED_TRANSFORMATION('','',#75,#1341);
#1534=PRODUCT_DEFINITION_SHAPE('Placement','Placement of an item',#1535);
#1535=NEXT_ASSEMBLY_USAGE_OCCURRENCE('1535','P006','P006',#1480,#11,$);
#1536=CONTEXT_DEPENDENT_SHAPE_REPRESENTATION(#1537,#1539);
#1537=( REPRESENTATION_RELATIONSHIP('','',#76,#1489)
  REPRESENTATION_RELATIONSHIP_WITH_TRANSFORMATION(#1538) SHAPE_REPRESENTATION_RELATIONSHIP() );
#1538=ITEM_DEFINED_TRANSFORMATION('','',#75,#1345);
#1539=PRODUCT_DEFINITION_SHAPE('Placement','Placement of an item',#1540);
#1540=NEXT_ASSEMBLY_USAGE_OCCURRENCE('1540','P006','P006',#1480,#11,$);
#1541=CONTEXT_DEPENDENT_SHAPE_REPRESENTATION(#1542,#1544);
#1542=( REPRESENTATION_RELATIONSHIP('','',#76,#1489)
  REPRESENTATION_RELATIONSHIP_WITH_TRANSFORMATION(#1543) SHAPE_REPRESENTATION_RELATIONSHIP() );
#1543=ITEM_DEFINED_TRANSFORMATION('','',#75,#1349);
#1544=PRODUCT_DEFINITION_SHAPE('Placement','Placement of an item',#1545);
#1545=NEXT_ASSEMBLY_USAGE_OCCURRENCE('1545','P006','P006',#1480,#11,$);
#1546=CONTEXT_DEPENDENT_SHAPE_REPRESENTATION(#1547,#1549);
#1547=( REPRESENTATION_RELATIONSHIP('','',#76,#1489)
  REPRESENTATION_RELATIONSHIP_WITH_TRANSFORMATION(#1548) SHAPE_REPRESENTATION_RELATIONSHIP() );
#1548=ITEM_DEFINED_TRANSFORMATION('','',#75,#1353);
#1549=PRODUCT_DEFINITION_SHAPE('Placement','Placement of an item',#1550);
#1550=NEXT_ASSEMBLY_USAGE_OCCURRENCE('1550','P006','P006',#1480,#11,$);
#1551=CONTEXT_DEPENDENT_SHAPE_REPRESENTATION(#1552,#1554);
#1552=( REPRESENTATION_RELATIONSHIP('','',#76,#1489)
  REPRESENTATION_RELATIONSHIP_WITH_TRANSFORMATION(#1553) SHAPE_REPRESENTATION_RELATIONSHIP() );
#1553=ITEM_DEFINED_TRANSFORMATION('','',#75,#1357);
#1554=PRODUCT_DEFINITION_SHAPE('Placement','Placement of an item',#1555);
#1555=NEXT_ASSEMBLY_USAGE_OCCURRENCE('1555','P006','P006',#1480,#11,$);
#1556=CONTEXT_DEPENDENT_SHAPE_REPRESENTATION(#1557,#1559);
#1557=( REPRESENTATION_RELATIONSHIP('','',#76,#1489)
  REPRESENTATION_RELATIONSHIP_WITH_TRANSFORMATION(#1558) SHAPE_REPRESENTATION_RELATIONSHIP() );
#1558=ITEM_DEFINED_TRANSFORMATION('','',#75,#1361);
#1559=PRODUCT_DEFINITION_SHAPE('Placement','Placement of an item',#1560);
#1560=NEXT_ASSEMBLY_USAGE_OCCURRENCE('1560','P006','P006',#1480,#11,$);
#1561=CONTEXT_DEPENDENT_SHAPE_REPRESENTATION(#1562,#1564);
#1562=( REPRESENTATION_RELATIONSHIP('','',#76,#1489)
  REPRESENTATION_RELATIONSHIP_WITH_TRANSFORMATION(#1563) SHAPE_REPRESENTATION_RELATIONSHIP() );
#1563=ITEM_DEFINED_TRANSFORMATION('','',#75,#1365);
#1564=PRODUCT_DEFINITION_SHAPE('Placement','Placement of an item',#1565);
#1565=NEXT_ASSEMBLY_USAGE_OCCURRENCE('1565','P006','P006',#1480,#11,$);
#1566=CONTEXT_DEPENDENT_SHAPE_REPRESENTATION(#1567,#1569);
#1567=( REPRESENTATION_RELATIONSHIP('','',#76,#1489)
  REPRESENTATION_RELATIONSHIP_WITH_TRANSFORMATION(#1568) SHAPE_REPRESENTATION_RELATIONSHIP() );
#1568=ITEM_DEFINED_TRANSFORMATION('','',#75,#1369);
#1569=PRODUCT_DEFINITION_SHAPE('Placement','Placement of an item',#1570);
#1570=NEXT_ASSEMBLY_USAGE_OCCURRENCE('1570','P006','P006',#1480,#11,$);
#1571=CONTEXT_DEPENDENT_SHAPE_REPRESENTATION(#1572,#1574);
#1572=( REPRESENTATION_RELATIONSHIP('','',#76,#1489)
  REPRESENTATION_RELATIONSHIP_WITH_TRANSFORMATION(#1573) SHAPE_REPRESENTATION_RELATIONSHIP() );
#1573=ITEM_DEFINED_TRANSFORMATION('','',#75,#1373);
#1574=PRODUCT_DEFINITION_SHAPE('Placement','Placement of an item',#1575);
#1575=NEXT_ASSEMBLY_USAGE_OCCURRENCE('1575','P006','P006',#1480,#11,$);
#1576=CONTEXT_DEPENDENT_SHAPE_REPRESENTATION(#1577,#1579);
#1577=( REPRESENTATION_RELATIONSHIP('','',#76,#1489)
  REPRESENTATION_RELATIONSHIP_WITH_TRANSFORMATION(#1578) SHAPE_REPRESENTATION_RELATIONSHIP() );
#1578=ITEM_DEFINED_TRANSFORMATION('','',#75,#1377);
#1579=PRODUCT_DEFINITION_SHAPE('Placement','Placement of an item',#1580);
#1580=NEXT_ASSEMBLY_USAGE_OCCURRENCE('1580','P006','P006',#1480,#11,$);
#1581=CONTEXT_DEPENDENT_SHAPE_REPRESENTATION(#1582,#1584);
#1582=( REPRESENTATION_RELATIONSHIP('','',#76,#1489)
  REPRESENTATION_RELATIONSHIP_WITH_TRANSFORMATION(#1583) SHAPE_REPRESENTATION_RELATIONSHIP() );
#1583=ITEM_DEFINED_TRANSFORMATION('','',#75,#1381);
#1584=PRODUCT_DEFINITION_SHAPE('Placement','Placement of an item',#1585);
#1585=NEXT_ASSEMBLY_USAGE_OCCURRENCE('1585','P006','P006',#1480,#11,$);
#1586=CONTEXT_DEPENDENT_SHAPE_REPRESENTATION(#1587,#1589);
#1587=( REPRESENTATION_RELATIONSHIP('','',#76,#1489)
  REPRESENTATION_RELATIONSHIP_WITH_TRANSFORMATION(#1588) SHAPE_REPRESENTATION_RELATIONSHIP() );
#1588=ITEM_DEFINED_TRANSFORMATION('','',#75,#1385);
#1589=PRODUCT_DEFINITION_SHAPE('Placement','Placement of an item',#1590);
#1590=NEXT_ASSEMBLY_USAGE_OCCURRENCE('1590','P006','P006',#1480,#11,$);
#1591=CONTEXT_DEPENDENT_SHAPE_REPRESENTATION(#1592,#1594);
#1592=( REPRESENTATION_RELATIONSHIP('','',#76,#1489)
  REPRESENTATION_RELATIONSHIP_WITH_TRANSFORMATION(#1593) SHAPE_REPRESENTATION_RELATIONSHIP() );
#1593=ITEM_DEFINED_TRANSFORMATION('','',#75,#1389);
#1594=PRODUCT_DEFINITION_SHAPE('Placement','Placement of an item',#1595);
#1595=NEXT_ASSEMBLY_USAGE_OCCURRENCE('1595','P006','P006',#1480,#11,$);
#1596=CONTEXT_DEPENDENT_SHAPE_REPRESENTATION(#1597,#1599);
#1597=( REPRESENTATION_RELATIONSHIP('','',#76,#1489)
  REPRESENTATION_RELATIONSHIP_WITH_TRANSFORMATION(#1598) SHAPE_REPRESENTATION_RELATIONSHIP() );
#1598=ITEM_DEFINED_TRANSFORMATION('','',#75,#1393);
#1599=PRODUCT_DEFINITION_SHAPE('Placement','Placement of an item',#1600);
#1600=NEXT_ASSEMBLY_USAGE_OCCURRENCE('1600','P006','P006',#1480,#11,$);
#1601=CONTEXT_DEPENDENT_SHAPE_REPRESENTATION(#1602,#1604);
#1602=( REPRESENTATION_RELATIONSHIP('','',#76,#1489)
  REPRESENTATION_RELATIONSHIP_WITH_TRANSFORMATION(#1603) SHAPE_REPRESENTATION_RELATIONSHIP() );
#1603=ITEM_DEFINED_TRANSFORMATION('','',#75,#1397);
#1604=PRODUCT_DEFINITION_SHAPE('Placement','Placement of an item',#1605);
#1605=NEXT_ASSEMBLY_USAGE_OCCURRENCE('1605','P006','P006',#1480,#11,$);
#1606=CONTEXT_DEPENDENT_SHAPE_REPRESENTATION(#1607,#1609);
#1607=( REPRESENTATION_RELATIONSHIP('','',#76,#1489)
  REPRESENTATION_RELATIONSHIP_WITH_TRANSFORMATION(#1608) SHAPE_REPRESENTATION_RELATIONSHIP() );
#1608=ITEM_DEFINED_TRANSFORMATION('','',#75,#1401);
#1609=PRODUCT_DEFINITION_SHAPE('Placement','Placement of an item',#1610);
#1610=NEXT_ASSEMBLY_USAGE_OCCURRENCE('1610','P006','P006',#1480,#11,$);
#1611=CONTEXT_DEPENDENT_SHAPE_REPRESENTATION(#1612,#1614);
#1612=( REPRESENTATION_RELATIONSHIP('','',#76,#1489)
  REPRESENTATION_RELATIONSHIP_WITH_TRANSFORMATION(#1613) SHAPE_REPRESENTATION_RELATIONSHIP() );
#1613=ITEM_DEFINED_TRANSFORMATION('','',#75,#1405);
#1614=PRODUCT_DEFINITION_SHAPE('Placement','Placement of an item',#1615);
#1615=NEXT_ASSEMBLY_USAGE_OCCURRENCE('1615','P006','P006',#1480,#11,$);
#1616=CONTEXT_DEPENDENT_SHAPE_REPRESENTATION(#1617,#1619);
#1617=( REPRESENTATION_RELATIONSHIP('','',#349,#1489)
  REPRESENTATION_RELATIONSHIP_WITH_TRANSFORMATION(#1618) SHAPE_REPRESENTATION_RELATIONSHIP() );
#1618=ITEM_DEFINED_TRANSFORMATION('','',#348,#1409);
#1619=PRODUCT_DEFINITION_SHAPE('Placement','Placement of an item',#1620);
#1620=NEXT_ASSEMBLY_USAGE_OCCURRENCE('1620','P005','P005',#1480,#84,$);
#1621=CONTEXT_DEPENDENT_SHAPE_REPRESENTATION(#1622,#1624);
#1622=( REPRESENTATION_RELATIONSHIP('','',#349,#1489)
  REPRESENTATION_RELATIONSHIP_WITH_TRANSFORMATION(#1623) SHAPE_REPRESENTATION_RELATIONSHIP() );
#1623=ITEM_DEFINED_TRANSFORMATION('','',#348,#1413);
#1624=PRODUCT_DEFINITION_SHAPE('Placement','Placement of an item',#1625);
#1625=NEXT_ASSEMBLY_USAGE_OCCURRENCE('1625','P005','P005',#1480,#84,$);
#1626=CONTEXT_DEPENDENT_SHAPE_REPRESENTATION(#1627,#1629);
#1627=( REPRESENTATION_RELATIONSHIP('','',#609,#1489)
  REPRESENTATION_RELATIONSHIP_WITH_TRANSFORMATION(#1628) SHAPE_REPRESENTATION_RELATIONSHIP() );
#1628=ITEM_DEFINED_TRANSFORMATION('','',#608,#1417);
#1629=PRODUCT_DEFINITION_SHAPE('Placement','Placement of an item',#1630);
#1630=NEXT_ASSEMBLY_USAGE_OCCURRENCE('1630','P004','P004',#1480,#357,$);
#1631=CONTEXT_DEPENDENT_SHAPE_REPRESENTATION(#1632,#1634);
#1632=( REPRESENTATION_RELATIONSHIP('','',#609,#1489)
  REPRESENTATION_RELATIONSHIP_WITH_TRANSFORMATION(#1633) SHAPE_REPRESENTATION_RELATIONSHIP() );
#1633=ITEM_DEFINED_TRANSFORMATION('','',#608,#1421);
#1634=PRODUCT_DEFINITION_SHAPE('Placement','Placement of an item',#1635);
#1635=NEXT_ASSEMBLY_USAGE_OCCURRENCE('1635','P004','P004',#1480,#357,$);
#1636=CONTEXT_DEPENDENT_SHAPE_REPRESENTATION(#1637,#1639);
#1637=( REPRESENTATION_RELATIONSHIP('','',#722,#1489)
  REPRESENTATION_RELATIONSHIP_WITH_TRANSFORMATION(#1638) SHAPE_REPRESENTATION_RELATIONSHIP() );
#1638=ITEM_DEFINED_TRANSFORMATION('','',#721,#1425);
#1639=PRODUCT_DEFINITION_SHAPE('Placement','Placement of an item',#1640);
#1640=NEXT_ASSEMBLY_USAGE_OCCURRENCE('1640','P003','P003',#1480,#617,$);
#1641=CONTEXT_DEPENDENT_SHAPE_REPRESENTATION(#1642,#1644);
#1642=( REPRESENTATION_RELATIONSHIP('','',#722,#1489)
  REPRESENTATION_RELATIONSHIP_WITH_TRANSFORMATION(#1643) SHAPE_REPRESENTATION_RELATIONSHIP() );
#1643=ITEM_DEFINED_TRANSFORMATION('','',#721,#1429);
#1644=PRODUCT_DEFINITION_SHAPE('Placement','Placement of an item',#1645);
#1645=NEXT_ASSEMBLY_USAGE_OCCURRENCE('1645','P003','P003',#1480,#617,$);
#1646=CONTEXT_DEPENDENT_SHAPE_REPRESENTATION(#1647,#1649);
#1647=( REPRESENTATION_RELATIONSHIP('','',#722,#1489)
  REPRESENTATION_RELATIONSHIP_WITH_TRANSFORMATION(#1648) SHAPE_REPRESENTATION_RELATIONSHIP() );
#1648=ITEM_DEFINED_TRANSFORMATION('','',#721,#1433);
#1649=PRODUCT_DEFINITION_SHAPE('Placement','Placement of an item',#1650);
#1650=NEXT_ASSEMBLY_USAGE_OCCURRENCE('1650','P003','P003',#1480,#617,$);
#1651=CONTEXT_DEPENDENT_SHAPE_REPRESENTATION(#1652,#1654);
#1652=( REPRESENTATION_RELATIONSHIP('','',#722,#1489)
  REPRESENTATION_RELATIONSHIP_WITH_TRANSFORMATION(#1653) SHAPE_REPRESENTATION_RELATIONSHIP() );
#1653=ITEM_DEFINED_TRANSFORMATION('','',#721,#1437);
#1654=PRODUCT_DEFINITION_SHAPE('Placement','Placement of an item',#1655);
#1655=NEXT_ASSEMBLY_USAGE_OCCURRENCE('1655','P003','P003',#1480,#617,$);
#1656=CONTEXT_DEPENDENT_SHAPE_REPRESENTATION(#1657,#1659);
#1657=( REPRESENTATION_RELATIONSHIP('','',#722,#1489)
  REPRESENTATION_RELATIONSHIP_WITH_TRANSFORMATION(#1658) SHAPE_REPRESENTATION_RELATIONSHIP() );
#1658=ITEM_DEFINED_TRANSFORMATION('','',#721,#1441);
#1659=PRODUCT_DEFINITION_SHAPE('Placement','Placement of an item',#1660);
#1660=NEXT_ASSEMBLY_USAGE_OCCURRENCE('1660','P003','P003',#1480,#617,$);
#1661=CONTEXT_DEPENDENT_SHAPE_REPRESENTATION(#1662,#1664);
#1662=( REPRESENTATION_RELATIONSHIP('','',#722,#1489)
  REPRESENTATION_RELATIONSHIP_WITH_TRANSFORMATION(#1663) SHAPE_REPRESENTATION_RELATIONSHIP() );
#1663=ITEM_DEFINED_TRANSFORMATION('','',#721,#1445);
#1664=PRODUCT_DEFINITION_SHAPE('Placement','Placement of an item',#1665);
#1665=NEXT_ASSEMBLY_USAGE_OCCURRENCE('1665','P003','P003',#1480,#617,$);
#1666=CONTEXT_DEPENDENT_SHAPE_REPRESENTATION(#1667,#1669);
#1667=( REPRESENTATION_RELATIONSHIP('','',#722,#1489)
  REPRESENTATION_RELATIONSHIP_WITH_TRANSFORMATION(#1668) SHAPE_REPRESENTATION_RELATIONSHIP() );
#1668=ITEM_DEFINED_TRANSFORMATION('','',#721,#1449);
#1669=PRODUCT_DEFINITION_SHAPE('Placement','Placement of an item',#1670);
#1670=NEXT_ASSEMBLY_USAGE_OCCURRENCE('1670','P003','P003',#1480,#617,$);
#1671=CONTEXT_DEPENDENT_SHAPE_REPRESENTATION(#1672,#1674);
#1672=( REPRESENTATION_RELATIONSHIP('','',#722,#1489)
  REPRESENTATION_RELATIONSHIP_WITH_TRANSFORMATION(#1673) SHAPE_REPRESENTATION_RELATIONSHIP() );
#1673=ITEM_DEFINED_TRANSFORMATION('','',#721,#1453);
#1674=PRODUCT_DEFINITION_SHAPE('Placement','Placement of an item',#1675);
#1675=NEXT_ASSEMBLY_USAGE_OCCURRENCE('1675','P003','P003',#1480,#617,$);
#1676=CONTEXT_DEPENDENT_SHAPE_REPRESENTATION(#1677,#1679);
#1677=( REPRESENTATION_RELATIONSHIP('','',#829,#1489)
  REPRESENTATION_RELATIONSHIP_WITH_TRANSFORMATION(#1678) SHAPE_REPRESENTATION_RELATIONSHIP() );
#1678=ITEM_DEFINED_TRANSFORMATION('','',#828,#1457);
#1679=PRODUCT_DEFINITION_SHAPE('Placement','Placement of an item',#1680);
#1680=NEXT_ASSEMBLY_USAGE_OCCURRENCE('1680','P002','P002',#1480,#730,$);
#1681=CONTEXT_DEPENDENT_SHAPE_REPRESENTATION(#1682,#1684);
#1682=( REPRESENTATION_RELATIONSHIP('','',#829,#1489)
  REPRESENTATION_RELATIONSHIP_WITH_TRANSFORMATION(#1683) SHAPE_REPRESENTATION_RELATIONSHIP() );
#1683=ITEM_DEFINED_TRANSFORMATION('','',#828,#1461);
#1684=PRODUCT_DEFINITION_SHAPE('Placement','Placement of an item',#1685);
#1685=NEXT_ASSEMBLY_USAGE_OCCURRENCE('1685','P002','P002',#1480,#730,$);
#1686=CONTEXT_DEPENDENT_SHAPE_REPRESENTATION(#1687,#1689);
#1687=( REPRESENTATION_RELATIONSHIP('','',#829,#1489)
  REPRESENTATION_RELATIONSHIP_WITH_TRANSFORMATION(#1688) SHAPE_REPRESENTATION_RELATIONSHIP() );
#1688=ITEM_DEFINED_TRANSFORMATION('','',#828,#1465);
#1689=PRODUCT_DEFINITION_SHAPE('Placement','Placement of an item',#1690);
#1690=NEXT_ASSEMBLY_USAGE_OCCURRENCE('1690','P002','P002',#1480,#730,$);
#1691=CONTEXT_DEPENDENT_SHAPE_REPRESENTATION(#1692,#1694);
#1692=( REPRESENTATION_RELATIONSHIP('','',#829,#1489)
  REPRESENTATION_RELATIONSHIP_WITH_TRANSFORMATION(#1693) SHAPE_REPRESENTATION_RELATIONSHIP() );
#1693=ITEM_DEFINED_TRANSFORMATION('','',#828,#1469);
#1694=PRODUCT_DEFINITION_SHAPE('Placement','Placement of an item',#1695);
#1695=NEXT_ASSEMBLY_USAGE_OCCURRENCE('1695','P002','P002',#1480,#730,$);
#1696=CONTEXT_DEPENDENT_SHAPE_REPRESENTATION(#1697,#1699);
#1697=( REPRESENTATION_RELATIONSHIP('','',#1304,#1489)
  REPRESENTATION_RELATIONSHIP_WITH_TRANSFORMATION(#1698) SHAPE_REPRESENTATION_RELATIONSHIP() );
#1698=ITEM_DEFINED_TRANSFORMATION('','',#1303,#1473);
#1699=PRODUCT_DEFINITION_SHAPE('Placement','Placement of an item',#1700);
#1700=NEXT_ASSEMBLY_USAGE_OCCURRENCE('1700','P001','P001',#1480,#837,$);
#1701=CARTESIAN_POINT('',(0.,0.,0.));
#1702=DIRECTION('',(0.,0.,1.));
#1703=DIRECTION('',(1.,0.,0.));
#1704=AXIS2_PLACEMENT_3D('',#1701,#1702,#1703);
#1705=REPRESENTATION_MAP(#1704,#1489);
#1706=MAPPED_ITEM('',#1705,#1704);
#1707=PRESENTATION_STYLE_ASSIGNMENT((NULL_STYLE(.NULL.)));
#1708=STYLED_ITEM('',(#1707),#1489);
#1709=MECHANICAL_DESIGN_GEOMETRIC_PRESENTATION_REPRESENTATION('',(#71,#344,#604,#717,#824,#1299,#1706,#1708),#1474);
ENDSEC;
END-ISO-10303-21;
