{
  "accessors": [
    {
      "bufferView": 2,
      "componentType": 5126,
      "count": 13,
      "max": [
        59.055118560791016,
        3.3306690738754696e-16,
        50.846458435058594
      ],
      "min": [
        19.685039520263672,
        3.3306690738754696e-16,
        30.177169799804688
      ],
      "type": "VEC3"
    },
    {
      "bufferView": 0,
      "componentType": 5125,
      "count": 24,
      "type": "SCALAR"
    },
    {
      "bufferView": 2,
      "byteOffset": 156,
      "componentType": 5126,
      "count": 8,
      "max": [
        12.793169975280762,
        -4.194109916687012,
        50.62984085083008
      ],
      "min": [
        6.891867160797119,
        -5.490240097045898,
        11.368109703063965
      ],
      "type": "VEC3"
    },
    {
      "bufferView": 0,
      "byteOffset": 96,
      "componentType": 5125,
      "count": 8,
      "type": "SCALAR"
    },
    {
      "bufferView": 2,
      "byteOffset": 252,
      "componentType": 5126,
      "count": 15837,
      "max": [
        86.61416625976563,
        29.527559280395508,
        68.50393676757813
      ],
      "min": [
        -7.874015808105469,
        -15.748029708862305,
        0.0
      ],
      "type": "VEC3"
    },
    {
      "bufferView": 2,
      "byteOffset": 190296,
      "componentType": 5126,
      "count": 15837,
      "max": [
        1.0,
        1.0,
        1.0
      ],
      "min": [
        -1.0,
        -1.0,
        -1.0
      ],
      "type": "VEC3"
    },
    {
      "bufferView": 1,
      "componentType": 5126,
      "count": 15837,
      "max": [
        10.875,
        17.02004051208496
      ],
      "min": [
        -11.0,
        -15.914259910583496
      ],
      "type": "VEC2"
    },
    {
      "bufferView": 0,
      "byteOffset": 128,
      "componentType": 5125,
      "count": 25581,
      "type": "SCALAR"
    },
    {
      "bufferView": 2,
      "byteOffset": 380340,
      "componentType": 5126,
      "count": 12,
      "max": [
        78.74015808105469,
        29.527559280395508,
        68.50393676757813
      ],
      "min": [
        1.8314350070548794e-34,
        -1.9685039520263672,
        60.50653839111328
      ],
      "type": "VEC3"
    },
    {
      "bufferView": 2,
      "byteOffset": 380484,
      "componentType": 5126,
      "count": 12,
      "max": [
        1.0,
        9.860260701355404e-19,
        1.911542995559125e-34
      ],
      "min": [
        -1.0,
        -1.0,
        0.0
      ],
      "type": "VEC3"
    },
    {
      "bufferView": 1,
      "byteOffset": 126696,
      "componentType": 5126,
      "count": 12,
      "max": [
        14.019109725952148,
        8.982189178466797
      ],
      "min": [
        -3.980890989303589,
        7.966519832611084
      ],
      "type": "VEC2"
    },
    {
      "bufferView": 0,
      "byteOffset": 102452,
      "componentType": 5125,
      "count": 18,
      "type": "SCALAR"
    },
    {
      "bufferView": 2,
      "byteOffset": 380628,
      "componentType": 5126,
      "count": 2674,
      "max": [
        61.806739807128906,
        2.755906105041504,
        53.62424087524414
      ],
      "min": [
        16.933420181274414,
        -7.874015808105469,
        8.267717361450195
      ],
      "type": "VEC3"
    },
    {
      "bufferView": 2,
      "byteOffset": 412716,
      "componentType": 5126,
      "count": 2674,
      "max": [
        1.0,
        1.0,
        1.0
      ],
      "min": [
        -1.0,
        -1.0,
        -1.0
      ],
      "type": "VEC3"
    },
    {
      "bufferView": 0,
      "byteOffset": 102524,
      "componentType": 5125,
      "count": 13293,
      "type": "SCALAR"
    },
    {
      "bufferView": 2,
      "byteOffset": 444804,
      "componentType": 5126,
      "count": 7254,
      "max": [
        86.61416625976563,
        29.527559280395508,
        68.50393676757813
      ],
      "min": [
        -7.874015808105469,
        -15.748029708862305,
        0.0
      ],
      "type": "VEC3"
    },
    {
      "bufferView": 0,
      "byteOffset": 155696,
      "componentType": 5125,
      "count": 26858,
      "type": "SCALAR"
    },
    {
      "bufferView": 2,
      "byteOffset": 531852,
      "componentType": 5126,
      "count": 2,
      "max": [
        84.96595001220703,
        -14.099800109863281,
        2.0669291019439697
      ],
      "min": [
        -6.225788116455078,
        -14.099800109863281,
        2.0669291019439697
      ],
      "type": "VEC3"
    },
    {
      "bufferView": 0,
      "byteOffset": 263128,
      "componentType": 5125,
      "count": 2,
      "type": "SCALAR"
    },
    {
      "bufferView": 2,
      "byteOffset": 531876,
      "componentType": 5126,
      "count": 26,
      "max": [
        83.07086944580078,
        29.527559280395508,
        60.11283874511719
      ],
      "min": [
        -4.330708980560303,
        -7.480315208435059,
        53.478981018066406
      ],
      "type": "VEC3"
    },
    {
      "bufferView": 2,
      "byteOffset": 532188,
      "componentType": 5126,
      "count": 26,
      "max": [
        1.0,
        0.0,
        0.0
      ],
      "min": [
        -1.0,
        -1.0,
        -8.03538268633935e-17
      ],
      "type": "VEC3"
    },
    {
      "bufferView": 1,
      "byteOffset": 126792,
      "componentType": 5126,
      "count": 26,
      "max": [
        9.530732154846191,
        18.851280212402344
      ],
      "min": [
        -3.2817680835723877,
        17.006010055541992
      ],
      "type": "VEC2"
    },
    {
      "bufferView": 0,
      "byteOffset": 263136,
      "componentType": 5125,
      "count": 42,
      "type": "SCALAR"
    },
    {
      "bufferView": 2,
      "byteOffset": 532500,
      "componentType": 5126,
      "count": 801,
      "max": [
        86.61416625976563,
        29.527559280395508,
        60.50653839111328
      ],
      "min": [
        -7.874015808105469,
        -15.748029708862305,
        0.0
      ],
      "type": "VEC3"
    },
    {
      "bufferView": 2,
      "byteOffset": 542112,
      "componentType": 5126,
      "count": 801,
      "max": [
        1.0,
        1.0,
        1.0
      ],
      "min": [
        -1.0,
        -1.0,
        -1.0
      ],
      "type": "VEC3"
    },
    {
      "bufferView": 1,
      "byteOffset": 127000,
      "componentType": 5126,
      "count": 801,
      "max": [
        4.731586933135986,
        1.4798890352249146
      ],
      "min": [
        -3.0723040103912354,
        -0.2895753085613251
      ],
      "type": "VEC2"
    },
    {
      "bufferView": 0,
      "byteOffset": 263304,
      "componentType": 5125,
      "count": 1878,
      "type": "SCALAR"
    },
    {
      "bufferView": 2,
      "byteOffset": 551724,
      "componentType": 5126,
      "count": 1470,
      "max": [
        74.80314636230469,
        17.71653938293457,
        53.4986686706543
      ],
      "min": [
        3.9370079040527344,
        -5.905511856079102,
        8.267717361450195
      ],
      "type": "VEC3"
    },
    {
      "bufferView": 2,
      "byteOffset": 569364,
      "componentType": 5126,
      "count": 1470,
      "max": [
        1.0,
        5.758272912244583e-17,
        1.0
      ],
      "min": [
        -1.0,
        -1.0,
        -1.0
      ],
      "type": "VEC3"
    },
    {
      "bufferView": 0,
      "byteOffset": 270816,
      "componentType": 5125,
      "count": 3708,
      "type": "SCALAR"
    }
  ],
  "asset": {
    "extras": {
      "author": "Laetitia Irata (https://sketchfab.com/LaetitiaIrata)",
      "license": "CC-BY-4.0 (http://creativecommons.org/licenses/by/4.0/)",
      "source": "https://sketchfab.com/3d-models/antique-fireplace-c3bb117172b2403c8db450ff57f76d09",
      "title": "Antique Fireplace"
    },
    "generator": "Sketchfab-12.68.0",
    "version": "2.0"
  },
  "bufferViews": [
    {
      "buffer": 0,
      "byteLength": 285648,
      "name": "floatBufferViews",
      "target": 34963
    },
    {
      "buffer": 0,
      "byteLength": 133408,
      "byteOffset": 285648,
      "byteStride": 8,
      "name": "floatBufferViews",
      "target": 34962
    },
    {
      "buffer": 0,
      "byteLength": 587004,
      "byteOffset": 419056,
      "byteStride": 12,
      "name": "floatBufferViews",
      "target": 34962
    }
  ],
  "buffers": [
    {
      "byteLength": 1006060,
      "uri": "scene.bin"
    }
  ],
  "materials": [
    {
      "alphaMode": "BLEND",
      "name": "edge_color000255",
      "pbrMetallicRoughness": {
        "baseColorFactor": [
          1.0,
          1.0,
          1.0,
          0.0
        ],
        "metallicFactor": 0.0,
        "roughnessFactor": 0.6
      }
    },
    {
      "alphaMode": "BLEND",
      "name": "edge_color255215163255",
      "pbrMetallicRoughness": {
        "baseColorFactor": [
          1.0,
          1.0,
          1.0,
          0.0
        ],
        "metallicFactor": 0.0,
        "roughnessFactor": 0.6
      }
    },
    {
      "alphaMode": "BLEND",
      "name": "edge_color221221221255",
      "pbrMetallicRoughness": {
        "baseColorFactor": [
          1.0,
          1.0,
          1.0,
          0.0
        ],
        "metallicFactor": 0.0,
        "roughnessFactor": 0.6
      }
    },
    {
      "name": "material_1",
      "pbrMetallicRoughness": {
        "baseColorFactor": [
          0.6281055094861525,
          0.5367628530224181,
          0.34193609277921366,
          1.0
        ],
        "metallicFactor": 0.0
      }
    },
    {
      "name": "material",
      "pbrMetallicRoughness": {
        "metallicFactor": 0.0,
        "roughnessFactor": 0.6
      }
    },
    {
      "name": "Ashlar_Tiles",
      "pbrMetallicRoughness": {
        "baseColorFactor": [
          0.053573780633981286,
          0.02910367678619769,
          0.013902613627019125,
          1.0
        ],
        "metallicFactor": 0.0
      }
    },
    {
      "name": "Akroterion_2",
      "pbrMetallicRoughness": {
        "baseColorFactor": [
          0.6307571363461468,
          0.5394794890121071,
          0.3419144249086608,
          1.0
        ],
        "metallicFactor": 0.0
      }
    },
    {
      "name": "Ionian_Kyma",
      "pbrMetallicRoughness": {
        "baseColorFactor": [
          0.6307571363461468,
          0.5394794890121071,
          0.3419144249086608,
          1.0
        ],
        "metallicFactor": 0.0
      }
    },
    {
      "alphaMode": "BLEND",
      "name": "edge_color353535255",
      "pbrMetallicRoughness": {
        "baseColorFactor": [
          1.0,
          1.0,
          1.0,
          0.0
        ],
        "metallicFactor": 0.0,
        "roughnessFactor": 0.6
      }
    },
    {
      "name": "Iron_Black",
      "pbrMetallicRoughness": {
        "baseColorFactor": [
          0.010299700791112492,
          0.006113842168433394,
          0.006113842168433394,
          1.0
        ],
        "metallicFactor": 0.733422256097561,
        "roughnessFactor": 0.28487042682926833
      }
    }
  ],
  "meshes": [
    {
      "name": "Material4",
      "primitives": [
        {
          "attributes": {
            "POSITION": 0
          },
          "indices": 1,
          "material": 8,
          "mode": 1
        }
      ]
    },
    {
      "name": "Material4",
      "primitives": [
        {
          "attributes": {
            "POSITION": 2
          },
          "indices": 3,
          "material": 1,
          "mode": 1
        }
      ]
    },
    {
      "name": "Material2",
      "primitives": [
        {
          "attributes": {
            "NORMAL": 5,
            "POSITION": 4,
            "TEXCOORD_0": 6
          },
          "indices": 7,
          "material": 3,
          "mode": 4
        }
      ]
    },
    {
      "name": "Material2",
      "primitives": [
        {
          "attributes": {
            "NORMAL": 9,
            "POSITION": 8,
            "TEXCOORD_0": 10
          },
          "indices": 11,
          "material": 6,
          "mode": 4
        }
      ]
    },
    {
      "name": "Material2",
      "primitives": [
        {
          "attributes": {
            "NORMAL": 13,
            "POSITION": 12
          },
          "indices": 14,
          "material": 9,
          "mode": 4
        }
      ]
    },
    {
      "name": "Material3",
      "primitives": [
        {
          "attributes": {
            "POSITION": 15
          },
          "indices": 16,
          "material": 0,
          "mode": 1
        }
      ]
    },
    {
      "name": "Material5",
      "primitives": [
        {
          "attributes": {
            "POSITION": 17
          },
          "indices": 18,
          "material": 2,
          "mode": 1
        }
      ]
    },
    {
      "name": "Material2",
      "primitives": [
        {
          "attributes": {
            "NORMAL": 20,
            "POSITION": 19,
            "TEXCOORD_0": 21
          },
          "indices": 22,
          "material": 7,
          "mode": 4
        }
      ]
    },
    {
      "name": "Material2",
      "primitives": [
        {
          "attributes": {
            "NORMAL": 24,
            "POSITION": 23,
            "TEXCOORD_0": 25
          },
          "indices": 26,
          "material": 5,
          "mode": 4
        }
      ]
    },
    {
      "name": "Material2",
      "primitives": [
        {
          "attributes": {
            "NORMAL": 28,
            "POSITION": 27
          },
          "indices": 29,
          "material": 4,
          "mode": 4
        }
      ]
    }
  ],
  "nodes": [
    {
      "children": [
        1
      ],
      "matrix": [
        1.0,
        0.0,
        0.0,
        0.0,
        0.0,
        2.220446049250313e-16,
        -1.0,
        0.0,
        0.0,
        1.0,
        2.220446049250313e-16,
        0.0,
        0.0,
        0.0,
        0.0,
        1.0
      ],
      "name": "Sketchfab_model"
    },
    {
      "children": [
        2
      ],
      "name": "Collada visual scene group"
    },
    {
      "children": [
        5,
        6,
        7,
        8,
        9,
        10,
        11,
        12,
        13,
        14,
        3
      ],
      "name": "SketchUp"
    },
    {
      "children": [
        4
      ],
      "matrix": [
        0.9940639,
        0.108798,
        -1.734723e-18,
        0.0,
        -0.00658357,
        0.06015268,
        0.9981675,
        0.0,
        0.1085986,
        -0.9922422,
        0.06051188,
        0.0,
        73.61028,
        -150.95,
        41.97864,
        1.0
      ],
      "name": "skp_camera_Last_Saved_SketchUp_View"
    },
    {
      "name": "ID1"
    },
    {
      "mesh": 0,
      "name": "Material4"
    },
    {
      "mesh": 1,
      "name": "Material4"
    },
    {
      "mesh": 2,
      "name": "Material2"
    },
    {
      "mesh": 3,
      "name": "Material2"
    },
    {
      "mesh": 4,
      "name": "Material2"
    },
    {
      "mesh": 5,
      "name": "Material3"
    },
    {
      "mesh": 6,
      "name": "Material5"
    },
    {
      "mesh": 7,
      "name": "Material2"
    },
    {
      "mesh": 8,
      "name": "Material2"
    },
    {
      "mesh": 9,
      "name": "Material2"
    }
  ],
  "scene": 0,
  "scenes": [
    {
      "name": "Sketchfab_Scene",
      "nodes": [
        0
      ]
    }
  ]
}
