{
  "accessors": [
    {
      "bufferView": 2,
      "componentType": 5126,
      "count": 4,
      "max": [
        0.6829500198364258,
        0.194240003824234,
        0.41926899552345276
      ],
      "min": [
        -0.6829500198364258,
        0.194240003824234,
        -0.49386900663375854
      ],
      "type": "VEC3"
    },
    {
      "bufferView": 2,
      "byteOffset": 48,
      "componentType": 5126,
      "count": 4,
      "max": [
        0.0,
        1.0,
        -0.0
      ],
      "min": [
        0.0,
        1.0,
        -0.0
      ],
      "type": "VEC3"
    },
    {
      "bufferView": 3,
      "componentType": 5126,
      "count": 4,
      "max": [
        0.0,
        0.0,
        1.0,
        1.0
      ],
      "min": [
        0.0,
        0.0,
        1.0,
        1.0
      ],
      "type": "VEC4"
    },
    {
      "bufferView": 1,
      "componentType": 5126,
      "count": 4,
      "max": [
        0.4444560110569,
        0.29789701104164124
      ],
      "min": [
        0.24676600098609924,
        0.0021860001143068075
      ],
      "type": "VEC2"
    },
    {
      "bufferView": 0,
      "componentType": 5125,
      "count": 6,
      "type": "SCALAR"
    },
    {
      "bufferView": 2,
      "byteOffset": 96,
      "componentType": 5126,
      "count": 201,
      "max": [
        0.08512900024652481,
        -0.06913500279188156,
        -0.5429390072822571
      ],
      "min": [
        -0.08466199785470963,
        -0.1473889946937561,
        -0.5760149955749512
      ],
      "type": "VEC3"
    },
    {
      "bufferView": 2,
      "byteOffset": 2508,
      "componentType": 5126,
      "count": 201,
      "max": [
        0.9904671311378479,
        0.8601353168487549,
        1.0
      ],
      "min": [
        -0.9904671311378479,
        -0.9906435012817383,
        0.13646800816059113
      ],
      "type": "VEC3"
    },
    {
      "bufferView": 3,
      "byteOffset": 64,
      "componentType": 5126,
      "count": 201,
      "max": [
        1.0,
        0.48832613229751587,
        0.986312210559845,
        1.0
      ],
      "min": [
        -0.9681223630905151,
        -0.39962953329086304,
        -0.9906435012817383,
        1.0
      ],
      "type": "VEC4"
    },
    {
      "bufferView": 1,
      "byteOffset": 32,
      "componentType": 5126,
      "count": 201,
      "max": [
        0.9697049856185913,
        0.973351001739502
      ],
      "min": [
        0.0021860001143068075,
        0.280707985162735
      ],
      "type": "VEC2"
    },
    {
      "bufferView": 0,
      "byteOffset": 24,
      "componentType": 5125,
      "count": 297,
      "type": "SCALAR"
    },
    {
      "bufferView": 2,
      "byteOffset": 4920,
      "componentType": 5126,
      "count": 736,
      "max": [
        0.6477029919624329,
        -0.06415899842977524,
        0.32390499114990234
      ],
      "min": [
        -0.6477029919624329,
        -0.15763799846172333,
        0.01620499975979328
      ],
      "type": "VEC3"
    },
    {
      "bufferView": 2,
      "byteOffset": 13752,
      "componentType": 5126,
      "count": 736,
      "max": [
        0.9437874555587769,
        0.7669422030448914,
        0.9531868696212769
      ],
      "min": [
        -0.9437874555587769,
        -0.9309171438217163,
        -0.953186571598053
      ],
      "type": "VEC3"
    },
    {
      "bufferView": 3,
      "byteOffset": 3280,
      "componentType": 5126,
      "count": 736,
      "max": [
        0.9729899764060974,
        0.9820576310157776,
        0.9530782699584961,
        1.0
      ],
      "min": [
        -0.9532490372657776,
        -1.0,
        -0.9613660573959351,
        1.0
      ],
      "type": "VEC4"
    },
    {
      "bufferView": 1,
      "byteOffset": 1640,
      "componentType": 5126,
      "count": 736,
      "max": [
        0.9538009762763977,
        0.9739130139350891
      ],
      "min": [
        0.014798000454902649,
        0.27059900760650635
      ],
      "type": "VEC2"
    },
    {
      "bufferView": 0,
      "byteOffset": 1212,
      "componentType": 5125,
      "count": 1056,
      "type": "SCALAR"
    },
    {
      "bufferView": 2,
      "byteOffset": 22584,
      "componentType": 5126,
      "count": 760,
      "max": [
        0.6308519840240479,
        -0.1480329930782318,
        -0.02468400076031685
      ],
      "min": [
        -0.6308519840240479,
        -0.26019999384880066,
        -0.03433699905872345
      ],
      "type": "VEC3"
    },
    {
      "bufferView": 2,
      "byteOffset": 31704,
      "componentType": 5126,
      "count": 760,
      "max": [
        0.996512770652771,
        -1.9999999949504854e-06,
        1.0
      ],
      "min": [
        -0.996512770652771,
        -0.8815707564353943,
        0.08342397958040237
      ],
      "type": "VEC3"
    },
    {
      "bufferView": 3,
      "byteOffset": 15056,
      "componentType": 5126,
      "count": 760,
      "max": [
        0.08343072235584259,
        1.0,
        0.9965141415596008,
        1.0
      ],
      "min": [
        -1.0,
        -0.08850914984941483,
        -0.9965142011642456,
        1.0
      ],
      "type": "VEC4"
    },
    {
      "bufferView": 1,
      "byteOffset": 7528,
      "componentType": 5126,
      "count": 760,
      "max": [
        0.9739069938659668,
        0.9738289713859558
      ],
      "min": [
        0.043942999094724655,
        0.0021860001143068075
      ],
      "type": "VEC2"
    },
    {
      "bufferView": 0,
      "byteOffset": 5436,
      "componentType": 5125,
      "count": 1194,
      "type": "SCALAR"
    },
    {
      "bufferView": 2,
      "byteOffset": 40824,
      "componentType": 5126,
      "count": 196,
      "max": [
        0.7030829787254333,
        0.2643919885158539,
        -0.5949429869651794
      ],
      "min": [
        -0.7031009793281555,
        -0.26073700189590454,
        -0.6310480237007141
      ],
      "type": "VEC3"
    },
    {
      "bufferView": 2,
      "byteOffset": 43176,
      "componentType": 5126,
      "count": 196,
      "max": [
        1.0,
        0.9238806366920471,
        0.9238805174827576
      ],
      "min": [
        -1.0,
        -0.9238806366920471,
        -0.9238805174827576
      ],
      "type": "VEC3"
    },
    {
      "bufferView": 3,
      "byteOffset": 27216,
      "componentType": 5126,
      "count": 196,
      "max": [
        1.0,
        0.9240440726280212,
        0.9239474534988403,
        1.0
      ],
      "min": [
        -1.0,
        -0.3831702768802643,
        -0.3827926218509674,
        1.0
      ],
      "type": "VEC4"
    },
    {
      "bufferView": 1,
      "byteOffset": 13608,
      "componentType": 5126,
      "count": 196,
      "max": [
        0.9481210112571716,
        0.9664469957351685
      ],
      "min": [
        0.0021860001143068075,
        0.9478790163993835
      ],
      "type": "VEC2"
    },
    {
      "bufferView": 0,
      "byteOffset": 10212,
      "componentType": 5125,
      "count": 336,
      "type": "SCALAR"
    },
    {
      "bufferView": 2,
      "byteOffset": 45528,
      "componentType": 5126,
      "count": 3095,
      "max": [
        0.7618449926376343,
        0.278346985578537,
        0.6310480237007141
      ],
      "min": [
        -0.7618449926376343,
        -0.278346985578537,
        -0.6198319792747498
      ],
      "type": "VEC3"
    },
    {
      "bufferView": 2,
      "byteOffset": 82668,
      "componentType": 5126,
      "count": 3095,
      "max": [
        1.0,
        1.0,
        1.0
      ],
      "min": [
        -1.0,
        -1.0,
        -1.0
      ],
      "type": "VEC3"
    },
    {
      "bufferView": 3,
      "byteOffset": 30352,
      "componentType": 5126,
      "count": 3095,
      "max": [
        1.0,
        1.0,
        1.0,
        1.0
      ],
      "min": [
        -1.0,
        -1.0,
        -1.0,
        1.0
      ],
      "type": "VEC4"
    },
    {
      "bufferView": 1,
      "byteOffset": 15176,
      "componentType": 5126,
      "count": 3095,
      "max": [
        0.9978150129318237,
        0.9913880228996277
      ],
      "min": [
        0.0021860001143068075,
        0.002185000106692314
      ],
      "type": "VEC2"
    },
    {
      "bufferView": 0,
      "byteOffset": 11556,
      "componentType": 5125,
      "count": 5142,
      "type": "SCALAR"
    }
  ],
  "asset": {
    "extras": {
      "author": "paraverun (https://sketchfab.com/paraverun)",
      "license": "CC-BY-4.0 (http://creativecommons.org/licenses/by/4.0/)",
      "source": "https://sketchfab.com/3d-models/old-piano-8b6b1487054a4a1b9a640387f5b819c2",
      "title": "Old Piano"
    },
    "generator": "Sketchfab-12.76.0",
    "version": "2.0"
  },
  "bufferViews": [
    {
      "buffer": 0,
      "byteLength": 32124,
      "name": "floatBufferViews",
      "target": 34963
    },
    {
      "buffer": 0,
      "byteLength": 39936,
      "byteOffset": 32124,
      "byteStride": 8,
      "name": "floatBufferViews",
      "target": 34962
    },
    {
      "buffer": 0,
      "byteLength": 119808,
      "byteOffset": 72060,
      "byteStride": 12,
      "name": "floatBufferViews",
      "target": 34962
    },
    {
      "buffer": 0,
      "byteLength": 79872,
      "byteOffset": 191868,
      "byteStride": 16,
      "name": "floatBufferViews",
      "target": 34962
    }
  ],
  "buffers": [
    {
      "byteLength": 271740,
      "uri": "scene.bin"
    }
  ],
  "images": [
    {
      "uri": "textures/Material_baseColor.jpeg"
    },
    {
      "uri": "textures/Material_metallicRoughness.png"
    },
    {
      "uri": "textures/Material_normal.png"
    }
  ],
  "materials": [
    {
      "doubleSided": true,
      "name": "Material",
      "normalTexture": {
        "index": 2
      },
      "occlusionTexture": {
        "index": 1
      },
      "pbrMetallicRoughness": {
        "baseColorTexture": {
          "index": 0
        },
        "metallicRoughnessTexture": {
          "index": 1
        }
      }
    }
  ],
  "meshes": [
    {
      "name": "defaultMaterial",
      "primitives": [
        {
          "attributes": {
            "NORMAL": 1,
            "POSITION": 0,
            "TANGENT": 2,
            "TEXCOORD_0": 3
          },
          "indices": 4,
          "material": 0,
          "mode": 4
        }
      ]
    },
    {
      "name": "defaultMaterial",
      "primitives": [
        {
          "attributes": {
            "NORMAL": 6,
            "POSITION": 5,
            "TANGENT": 7,
            "TEXCOORD_0": 8
          },
          "indices": 9,
          "material": 0,
          "mode": 4
        }
      ]
    },
    {
      "name": "defaultMaterial",
      "primitives": [
        {
          "attributes": {
            "NORMAL": 11,
            "POSITION": 10,
            "TANGENT": 12,
            "TEXCOORD_0": 13
          },
          "indices": 14,
          "material": 0,
          "mode": 4
        }
      ]
    },
    {
      "name": "defaultMaterial",
      "primitives": [
        {
          "attributes": {
            "NORMAL": 16,
            "POSITION": 15,
            "TANGENT": 17,
            "TEXCOORD_0": 18
          },
          "indices": 19,
          "material": 0,
          "mode": 4
        }
      ]
    },
    {
      "name": "defaultMaterial",
      "primitives": [
        {
          "attributes": {
            "NORMAL": 21,
            "POSITION": 20,
            "TANGENT": 22,
            "TEXCOORD_0": 23
          },
          "indices": 24,
          "material": 0,
          "mode": 4
        }
      ]
    },
    {
      "name": "defaultMaterial",
      "primitives": [
        {
          "attributes": {
            "NORMAL": 26,
            "POSITION": 25,
            "TANGENT": 27,
            "TEXCOORD_0": 28
          },
          "indices": 29,
          "material": 0,
          "mode": 4
        }
      ]
    }
  ],
  "nodes": [
    {
      "children": [
        1
      ],
      "matrix": [
        1.0,
        0.0,
        0.0,
        0.0,
        0.0,
        2.220446049250313e-16,
        -1.0,
        0.0,
        0.0,
        1.0,
        2.220446049250313e-16,
        0.0,
        0.0,
        0.0,
        0.0,
        1.0
      ],
      "name": "Sketchfab_model"
    },
    {
      "children": [
        2,
        4,
        6,
        8,
        10,
        12
      ],
      "matrix": [
        1.0,
        0.0,
        0.0,
        0.0,
        0.0,
        -4.371139006309477e-08,
        0.999999999999999,
        0.0,
        0.0,
        -0.999999999999999,
        -4.371139006309477e-08,
        0.0,
        0.0,
        0.0,
        0.0,
        1.0
      ],
      "name": "Collada visual scene group"
    },
    {
      "children": [
        3
      ],
      "matrix": [
        100.0,
        0.0,
        0.0,
        0.0,
        0.0,
        -1.6e-05,
        -100.0,
        0.0,
        0.0,
        100.0,
        -1.6e-05,
        0.0,
        0.0,
        63.104759,
        -5.858992,
        1.0
      ],
      "name": "Cube.005"
    },
    {
      "mesh": 0,
      "name": "defaultMaterial"
    },
    {
      "children": [
        5
      ],
      "matrix": [
        100.0,
        0.0,
        0.0,
        0.0,
        0.0,
        -1.6e-05,
        -100.0,
        0.0,
        0.0,
        100.0,
        -1.6e-05,
        0.0,
        0.0,
        63.104759,
        -5.858992,
        1.0
      ],
      "name": "Cube.004"
    },
    {
      "mesh": 1,
      "name": "defaultMaterial"
    },
    {
      "children": [
        7
      ],
      "matrix": [
        100.0,
        0.0,
        0.0,
        0.0,
        0.0,
        -1.6e-05,
        -100.0,
        0.0,
        0.0,
        100.0,
        -1.6e-05,
        0.0,
        0.0,
        63.104759,
        -5.858992,
        1.0
      ],
      "name": "Cube.001"
    },
    {
      "mesh": 2,
      "name": "defaultMaterial"
    },
    {
      "children": [
        9
      ],
      "matrix": [
        100.0,
        0.0,
        0.0,
        0.0,
        0.0,
        -1.6e-05,
        -100.0,
        0.0,
        0.0,
        100.0,
        -1.6e-05,
        0.0,
        0.0,
        63.104759,
        -5.858992,
        1.0
      ],
      "name": "Cube.002"
    },
    {
      "mesh": 3,
      "name": "defaultMaterial"
    },
    {
      "children": [
        11
      ],
      "matrix": [
        100.0,
        0.0,
        0.0,
        0.0,
        0.0,
        -1.6e-05,
        -100.0,
        0.0,
        0.0,
        100.0,
        -1.6e-05,
        0.0,
        0.0,
        63.104759,
        -5.858992,
        1.0
      ],
      "name": "Cube.003"
    },
    {
      "mesh": 4,
      "name": "defaultMaterial"
    },
    {
      "children": [
        13
      ],
      "matrix": [
        100.0,
        0.0,
        0.0,
        0.0,
        0.0,
        -1.6e-05,
        -100.0,
        0.0,
        0.0,
        100.0,
        -1.6e-05,
        0.0,
        0.0,
        63.104759,
        -5.858992,
        1.0
      ],
      "name": "Cube"
    },
    {
      "mesh": 5,
      "name": "defaultMaterial"
    }
  ],
  "samplers": [
    {
      "magFilter": 9729,
      "minFilter": 9987,
      "wrapS": 10497,
      "wrapT": 10497
    }
  ],
  "scene": 0,
  "scenes": [
    {
      "name": "Sketchfab_Scene",
      "nodes": [
        0
      ]
    }
  ],
  "textures": [
    {
      "sampler": 0,
      "source": 0
    },
    {
      "sampler": 0,
      "source": 1
    },
    {
      "sampler": 0,
      "source": 2
    }
  ]
}
