{
  "accessors": [
    {
      "bufferView": 2,
      "componentType": 5126,
      "count": 6448,
      "max": [
        0.15988755226135254,
        0.09961403161287308,
        0.023194780573248863
      ],
      "min": [
        -0.010758023709058762,
        -0.10034429281949997,
        -0.0020946459844708443
      ],
      "type": "VEC3"
    },
    {
      "bufferView": 2,
      "byteOffset": 77376,
      "componentType": 5126,
      "count": 6448,
      "max": [
        0.9999885559082031,
        1.0,
        1.0
      ],
      "min": [
        -1.0,
        -1.0,
        -1.0
      ],
      "type": "VEC3"
    },
    {
      "bufferView": 3,
      "componentType": 5126,
      "count": 6448,
      "max": [
        1.0,
        1.0,
        1.0,
        1.0
      ],
      "min": [
        -1.0,
        -1.0,
        -0.9999998807907104,
        -1.0
      ],
      "type": "VEC4"
    },
    {
      "bufferView": 1,
      "componentType": 5126,
      "count": 6448,
      "max": [
        0.9956333041191101,
        0.9880537986755371
      ],
      "min": [
        0.004365116357803345,
        0.004365503787994385
      ],
      "type": "VEC2"
    },
    {
      "bufferView": 1,
      "byteOffset": 51584,
      "componentType": 5126,
      "count": 6448,
      "max": [
        0.9956333041191101,
        0.9880537986755371
      ],
      "min": [
        0.004365116357803345,
        0.004365503787994385
      ],
      "type": "VEC2"
    },
    {
      "bufferView": 0,
      "componentType": 5125,
      "count": 27162,
      "type": "SCALAR"
    },
    {
      "bufferView": 2,
      "byteOffset": 154752,
      "componentType": 5126,
      "count": 6578,
      "max": [
        0.20842695236206055,
        0.09961403161287308,
        0.015760298818349838
      ],
      "min": [
        -0.15681171417236328,
        -0.10034427791833878,
        -0.0020946459844708443
      ],
      "type": "VEC3"
    },
    {
      "bufferView": 2,
      "byteOffset": 233688,
      "componentType": 5126,
      "count": 6578,
      "max": [
        0.9999955296516418,
        1.0,
        1.0
      ],
      "min": [
        -1.0,
        -1.0,
        -1.0
      ],
      "type": "VEC3"
    },
    {
      "bufferView": 3,
      "byteOffset": 103168,
      "componentType": 5126,
      "count": 6578,
      "max": [
        1.0,
        1.0,
        1.0,
        1.0
      ],
      "min": [
        -1.0,
        -1.0,
        -0.9999998807907104,
        -1.0
      ],
      "type": "VEC4"
    },
    {
      "bufferView": 1,
      "byteOffset": 103168,
      "componentType": 5126,
      "count": 6578,
      "max": [
        0.9956333041191101,
        0.9880537986755371
      ],
      "min": [
        0.004365116357803345,
        0.004365503787994385
      ],
      "type": "VEC2"
    },
    {
      "bufferView": 1,
      "byteOffset": 155792,
      "componentType": 5126,
      "count": 6578,
      "max": [
        0.9956333041191101,
        0.9880537986755371
      ],
      "min": [
        0.004365116357803345,
        0.004365503787994385
      ],
      "type": "VEC2"
    },
    {
      "bufferView": 0,
      "byteOffset": 108648,
      "componentType": 5125,
      "count": 27057,
      "type": "SCALAR"
    }
  ],
  "asset": {
    "extras": {
      "author": "Console Art Cybernetic (https://sketchfab.com/cacybernetic)",
      "license": "SKETCHFAB Standard (https://sketchfab.com/licenses)",
      "source": "https://sketchfab.com/3d-models/binder-notebook-111acd67fe81443b8c8486e27505fbe4",
      "title": "Binder Notebook"
    },
    "generator": "Sketchfab-17.19.0",
    "version": "2.0"
  },
  "bufferViews": [
    {
      "buffer": 0,
      "byteLength": 216876,
      "name": "floatBufferViews",
      "target": 34963
    },
    {
      "buffer": 0,
      "byteLength": 208416,
      "byteOffset": 216876,
      "byteStride": 8,
      "name": "floatBufferViews",
      "target": 34962
    },
    {
      "buffer": 0,
      "byteLength": 312624,
      "byteOffset": 425292,
      "byteStride": 12,
      "name": "floatBufferViews",
      "target": 34962
    },
    {
      "buffer": 0,
      "byteLength": 208416,
      "byteOffset": 737916,
      "byteStride": 16,
      "name": "floatBufferViews",
      "target": 34962
    }
  ],
  "buffers": [
    {
      "byteLength": 946332,
      "uri": "scene.bin"
    }
  ],
  "images": [
    {
      "uri": "textures/binder_notebook_baseColor.jpeg"
    },
    {
      "uri": "textures/binder_notebook_metallicRoughness.png"
    },
    {
      "uri": "textures/binder_notebook_normal.png"
    }
  ],
  "materials": [
    {
      "doubleSided": true,
      "name": "binder_notebook",
      "normalTexture": {
        "index": 2
      },
      "occlusionTexture": {
        "index": 1
      },
      "pbrMetallicRoughness": {
        "baseColorTexture": {
          "index": 0
        },
        "metallicRoughnessTexture": {
          "index": 1
        }
      }
    }
  ],
  "meshes": [
    {
      "name": "closed_binder_notebook_0",
      "primitives": [
        {
          "attributes": {
            "NORMAL": 1,
            "POSITION": 0,
            "TANGENT": 2,
            "TEXCOORD_0": 3,
            "TEXCOORD_1": 4
          },
          "indices": 5,
          "material": 0,
          "mode": 4
        }
      ]
    },
    {
      "name": "opened_binder_notebook_0",
      "primitives": [
        {
          "attributes": {
            "NORMAL": 7,
            "POSITION": 6,
            "TANGENT": 8,
            "TEXCOORD_0": 9,
            "TEXCOORD_1": 10
          },
          "indices": 11,
          "material": 0,
          "mode": 4
        }
      ]
    }
  ],
  "nodes": [
    {
      "children": [
        1
      ],
      "matrix": [
        1.0,
        0.0,
        0.0,
        0.0,
        0.0,
        2.220446049250313e-16,
        -1.0,
        0.0,
        0.0,
        1.0,
        2.220446049250313e-16,
        0.0,
        0.0,
        0.0,
        0.0,
        1.0
      ],
      "name": "Sketchfab_model"
    },
    {
      "children": [
        2
      ],
      "matrix": [
        0.009999999776482582,
        0.0,
        0.0,
        0.0,
        0.0,
        0.0,
        0.009999999776482582,
        0.0,
        0.0,
        -0.009999999776482582,
        0.0,
        0.0,
        0.0,
        0.0,
        0.0,
        1.0
      ],
      "name": "1b3765dd454843b8823677258d57fd32.fbx"
    },
    {
      "children": [
        3,
        5
      ],
      "name": "RootNode"
    },
    {
      "children": [
        4
      ],
      "matrix": [
        99.06162536939938,
        8.604293533965317,
        -10.61894711509091,
        0.0,
        -10.579112783517349,
        -0.9189087775099525,
        -99.43459146279145,
        0.0,
        -8.653221900689063,
        99.62490527341369,
        -2.8053478207112903e-05,
        0.0,
        -3.4796769618988037,
        1.0031896829605103,
        0.34709200263023376,
        1.0
      ],
      "name": "closed"
    },
    {
      "mesh": 0,
      "name": "closed_binder_notebook_0"
    },
    {
      "children": [
        6
      ],
      "matrix": [
        100.0,
        0.0,
        0.0,
        0.0,
        0.0,
        -4.371139006309477e-06,
        -99.9999999999999,
        0.0,
        0.0,
        99.9999999999999,
        -4.371139006309477e-06,
        0.0,
        0.0,
        0.0,
        0.0,
        1.0
      ],
      "name": "opened"
    },
    {
      "mesh": 1,
      "name": "opened_binder_notebook_0"
    }
  ],
  "samplers": [
    {
      "magFilter": 9729,
      "minFilter": 9987,
      "wrapS": 10497,
      "wrapT": 10497
    }
  ],
  "scene": 0,
  "scenes": [
    {
      "name": "Sketchfab_Scene",
      "nodes": [
        0
      ]
    }
  ],
  "textures": [
    {
      "sampler": 0,
      "source": 0
    },
    {
      "sampler": 0,
      "source": 1
    },
    {
      "sampler": 0,
      "source": 2
    }
  ]
}
