{
  "accessors": [
    {
      "bufferView": 2,
      "componentType": 5126,
      "count": 56,
      "max": [
        0.06653200089931488,
        0.07143229991197586,
        -0.35928499698638916
      ],
      "min": [
        -0.073579803109169,
        0.04593620076775551,
        -0.4332740008831024
      ],
      "type": "VEC3"
    },
    {
      "bufferView": 2,
      "byteOffset": 672,
      "componentType": 5126,
      "count": 56,
      "max": [
        0.9999400973320007,
        0.9997468590736389,
        1.0
      ],
      "min": [
        -0.9985057711601257,
        0.0,
        -1.0
      ],
      "type": "VEC3"
    },
    {
      "bufferView": 3,
      "componentType": 5126,
      "count": 56,
      "max": [
        1.0,
        1.0,
        0.01958981528878212,
        1.0
      ],
      "min": [
        -0.04865707457065582,
        -1.0,
        -0.06153301149606705,
        1.0
      ],
      "type": "VEC4"
    },
    {
      "bufferView": 1,
      "componentType": 5126,
      "count": 56,
      "max": [
        0.3710399866104126,
        0.8832700252532959
      ],
      "min": [
        0.09261299669742584,
        0.6497120261192322
      ],
      "type": "VEC2"
    },
    {
      "bufferView": 0,
      "componentType": 5125,
      "count": 120,
      "type": "SCALAR"
    },
    {
      "bufferView": 2,
      "byteOffset": 1344,
      "componentType": 5126,
      "count": 83,
      "max": [
        -0.06953050196170807,
        0.07143229991197586,
        -0.3002200126647949
      ],
      "min": [
        -0.2064879983663559,
        0.04593620076775551,
        -0.4332740008831024
      ],
      "type": "VEC3"
    },
    {
      "bufferView": 2,
      "byteOffset": 2340,
      "componentType": 5126,
      "count": 83,
      "max": [
        0.9985057711601257,
        0.9999434947967529,
        1.0
      ],
      "min": [
        -1.0,
        -2.0000004496978363e-06,
        -1.0
      ],
      "type": "VEC3"
    },
    {
      "bufferView": 3,
      "byteOffset": 896,
      "componentType": 5126,
      "count": 83,
      "max": [
        1.0,
        1.0,
        0.036390818655490875,
        1.0
      ],
      "min": [
        -0.04910051077604294,
        -1.0,
        -0.2515333592891693,
        1.0
      ],
      "type": "VEC4"
    },
    {
      "bufferView": 1,
      "byteOffset": 448,
      "componentType": 5126,
      "count": 83,
      "max": [
        0.3725999891757965,
        0.8832700252532959
      ],
      "min": [
        0.012275000102818012,
        0.6150220036506653
      ],
      "type": "VEC2"
    },
    {
      "bufferView": 0,
      "byteOffset": 480,
      "componentType": 5125,
      "count": 204,
      "type": "SCALAR"
    },
    {
      "bufferView": 2,
      "byteOffset": 3336,
      "componentType": 5126,
      "count": 83,
      "max": [
        0.19893699884414673,
        0.07143229991197586,
        -0.3002200126647949
      ],
      "min": [
        0.06572219729423523,
        0.04593620076775551,
        -0.4332740008831024
      ],
      "type": "VEC3"
    },
    {
      "bufferView": 2,
      "byteOffset": 4332,
      "componentType": 5126,
      "count": 83,
      "max": [
        1.0,
        0.9999620914459229,
        1.0
      ],
      "min": [
        -0.9999400973320007,
        -2.0000004496978363e-06,
        -1.0
      ],
      "type": "VEC3"
    },
    {
      "bufferView": 3,
      "byteOffset": 2224,
      "componentType": 5126,
      "count": 83,
      "max": [
        1.0,
        1.0,
        0.2373446375131607,
        1.0
      ],
      "min": [
        -0.05112437158823013,
        -1.0,
        -0.11743272095918655,
        1.0
      ],
      "type": "VEC4"
    },
    {
      "bufferView": 1,
      "byteOffset": 1112,
      "componentType": 5126,
      "count": 83,
      "max": [
        0.3774249851703644,
        0.8832700252532959
      ],
      "min": [
        0.176815003156662,
        0.6150220036506653
      ],
      "type": "VEC2"
    },
    {
      "bufferView": 0,
      "byteOffset": 1296,
      "componentType": 5125,
      "count": 204,
      "type": "SCALAR"
    },
    {
      "bufferView": 2,
      "byteOffset": 5328,
      "componentType": 5126,
      "count": 100,
      "max": [
        0.21208399534225464,
        0.07352049648761749,
        0.5704349875450134
      ],
      "min": [
        0.0839196965098381,
        0.043800801038742065,
        0.515720009803772
      ],
      "type": "VEC3"
    },
    {
      "bufferView": 2,
      "byteOffset": 6528,
      "componentType": 5126,
      "count": 100,
      "max": [
        0.9998174905776978,
        0.9998357892036438,
        0.9999825358390808
      ],
      "min": [
        -0.9998174905776978,
        0.0,
        -0.9999825358390808
      ],
      "type": "VEC3"
    },
    {
      "bufferView": 3,
      "byteOffset": 3552,
      "componentType": 5126,
      "count": 100,
      "max": [
        0.9999767541885376,
        1.0,
        0.23518076539039612,
        1.0
      ],
      "min": [
        -0.0330183207988739,
        -1.0,
        -0.22030484676361084,
        1.0
      ],
      "type": "VEC4"
    },
    {
      "bufferView": 1,
      "byteOffset": 1776,
      "componentType": 5126,
      "count": 100,
      "max": [
        0.3965489864349365,
        0.8832700252532959
      ],
      "min": [
        0.18781499564647675,
        0.10368499904870987
      ],
      "type": "VEC2"
    },
    {
      "bufferView": 0,
      "byteOffset": 2112,
      "componentType": 5125,
      "count": 330,
      "type": "SCALAR"
    },
    {
      "bufferView": 2,
      "byteOffset": 7728,
      "componentType": 5126,
      "count": 100,
      "max": [
        -0.07611119747161865,
        0.07352049648761749,
        0.4858750104904175
      ],
      "min": [
        -0.20427599549293518,
        0.043800801038742065,
        0.43115898966789246
      ],
      "type": "VEC3"
    },
    {
      "bufferView": 2,
      "byteOffset": 8928,
      "componentType": 5126,
      "count": 100,
      "max": [
        0.9998174905776978,
        0.9998357892036438,
        0.9999825358390808
      ],
      "min": [
        -0.9998174905776978,
        0.0,
        -0.9999825358390808
      ],
      "type": "VEC3"
    },
    {
      "bufferView": 3,
      "byteOffset": 5152,
      "componentType": 5126,
      "count": 100,
      "max": [
        0.9999766945838928,
        1.0,
        0.2346406728029251,
        1.0
      ],
      "min": [
        -0.0330183170735836,
        -1.0,
        -0.22048552334308624,
        1.0
      ],
      "type": "VEC4"
    },
    {
      "bufferView": 1,
      "byteOffset": 2576,
      "componentType": 5126,
      "count": 100,
      "max": [
        0.3965489864349365,
        0.8832700252532959
      ],
      "min": [
        0.013612000271677971,
        0.15334700047969818
      ],
      "type": "VEC2"
    },
    {
      "bufferView": 0,
      "byteOffset": 3432,
      "componentType": 5125,
      "count": 330,
      "type": "SCALAR"
    },
    {
      "bufferView": 2,
      "byteOffset": 10128,
      "componentType": 5126,
      "count": 100,
      "max": [
        0.06798660010099411,
        0.07352049648761749,
        0.4858750104904175
      ],
      "min": [
        -0.06017810106277466,
        0.043800801038742065,
        0.43115898966789246
      ],
      "type": "VEC3"
    },
    {
      "bufferView": 2,
      "byteOffset": 11328,
      "componentType": 5126,
      "count": 100,
      "max": [
        0.9998174905776978,
        0.9998357892036438,
        0.9999825358390808
      ],
      "min": [
        -0.9998174905776978,
        0.0,
        -0.9999825358390808
      ],
      "type": "VEC3"
    },
    {
      "bufferView": 3,
      "byteOffset": 6752,
      "componentType": 5126,
      "count": 100,
      "max": [
        0.9999766945838928,
        1.0,
        0.234650120139122,
        1.0
      ],
      "min": [
        -0.033017322421073914,
        -1.0,
        -0.22048257291316986,
        1.0
      ],
      "type": "VEC4"
    },
    {
      "bufferView": 1,
      "byteOffset": 3376,
      "componentType": 5126,
      "count": 100,
      "max": [
        0.3965489864349365,
        0.8832700252532959
      ],
      "min": [
        0.10071399807929993,
        0.15334700047969818
      ],
      "type": "VEC2"
    },
    {
      "bufferView": 0,
      "byteOffset": 4752,
      "componentType": 5125,
      "count": 330,
      "type": "SCALAR"
    },
    {
      "bufferView": 2,
      "byteOffset": 12528,
      "componentType": 5126,
      "count": 100,
      "max": [
        0.21208399534225464,
        0.07352049648761749,
        0.4858750104904175
      ],
      "min": [
        0.0839196965098381,
        0.043800801038742065,
        0.43115898966789246
      ],
      "type": "VEC3"
    },
    {
      "bufferView": 2,
      "byteOffset": 13728,
      "componentType": 5126,
      "count": 100,
      "max": [
        0.9998173713684082,
        0.9998357892036438,
        0.9999825358390808
      ],
      "min": [
        -0.9998174905776978,
        0.0,
        -0.9999825358390808
      ],
      "type": "VEC3"
    },
    {
      "bufferView": 3,
      "byteOffset": 8352,
      "componentType": 5126,
      "count": 100,
      "max": [
        0.9999766945838928,
        1.0,
        0.23456422984600067,
        1.0
      ],
      "min": [
        -0.0330183207988739,
        -1.0,
        -0.22047944366931915,
        1.0
      ],
      "type": "VEC4"
    },
    {
      "bufferView": 1,
      "byteOffset": 4176,
      "componentType": 5126,
      "count": 100,
      "max": [
        0.3965489864349365,
        0.8832700252532959
      ],
      "min": [
        0.18781499564647675,
        0.15334700047969818
      ],
      "type": "VEC2"
    },
    {
      "bufferView": 0,
      "byteOffset": 6072,
      "componentType": 5125,
      "count": 330,
      "type": "SCALAR"
    },
    {
      "bufferView": 2,
      "byteOffset": 14928,
      "componentType": 5126,
      "count": 100,
      "max": [
        -0.011550200171768665,
        0.07300449907779694,
        0.3341119885444641
      ],
      "min": [
        -0.09622610360383987,
        0.04431679844856262,
        0.28599101305007935
      ],
      "type": "VEC3"
    },
    {
      "bufferView": 2,
      "byteOffset": 16128,
      "componentType": 5126,
      "count": 100,
      "max": [
        0.9998970031738281,
        0.9997819066047668,
        0.9999690055847168
      ],
      "min": [
        -0.9998970031738281,
        0.0,
        -0.9999690055847168
      ],
      "type": "VEC3"
    },
    {
      "bufferView": 3,
      "byteOffset": 9952,
      "componentType": 5126,
      "count": 100,
      "max": [
        0.9999496936798096,
        1.0,
        0.21431319415569305,
        1.0
      ],
      "min": [
        -0.022632788866758347,
        -1.0,
        -0.2137889266014099,
        1.0
      ],
      "type": "VEC4"
    },
    {
      "bufferView": 1,
      "byteOffset": 4976,
      "componentType": 5126,
      "count": 100,
      "max": [
        0.4154619872570038,
        0.8832700252532959
      ],
      "min": [
        0.07892400026321411,
        0.24247799813747406
      ],
      "type": "VEC2"
    },
    {
      "bufferView": 0,
      "byteOffset": 7392,
      "componentType": 5125,
      "count": 330,
      "type": "SCALAR"
    },
    {
      "bufferView": 2,
      "byteOffset": 17328,
      "componentType": 5126,
      "count": 100,
      "max": [
        0.20225200057029724,
        0.07300449907779694,
        0.3341119885444641
      ],
      "min": [
        0.117576003074646,
        0.04431679844856262,
        0.28599101305007935
      ],
      "type": "VEC3"
    },
    {
      "bufferView": 2,
      "byteOffset": 18528,
      "componentType": 5126,
      "count": 100,
      "max": [
        0.9998970031738281,
        0.9997819066047668,
        0.9999690055847168
      ],
      "min": [
        -0.9998970031738281,
        0.0,
        -0.9999690055847168
      ],
      "type": "VEC3"
    },
    {
      "bufferView": 3,
      "byteOffset": 11552,
      "componentType": 5126,
      "count": 100,
      "max": [
        0.9999496936798096,
        1.0,
        0.21441631019115448,
        1.0
      ],
      "min": [
        -0.022633787244558334,
        -1.0,
        -0.21379593014717102,
        1.0
      ],
      "type": "VEC4"
    },
    {
      "bufferView": 1,
      "byteOffset": 5776,
      "componentType": 5126,
      "count": 100,
      "max": [
        0.4154619872570038,
        0.8832700252532959
      ],
      "min": [
        0.20815899968147278,
        0.24247799813747406
      ],
      "type": "VEC2"
    },
    {
      "bufferView": 0,
      "byteOffset": 8712,
      "componentType": 5125,
      "count": 330,
      "type": "SCALAR"
    },
    {
      "bufferView": 2,
      "byteOffset": 19728,
      "componentType": 5126,
      "count": 100,
      "max": [
        0.09535089880228043,
        0.07300449907779694,
        0.3341119885444641
      ],
      "min": [
        0.01067500002682209,
        0.04431679844856262,
        0.28599101305007935
      ],
      "type": "VEC3"
    },
    {
      "bufferView": 2,
      "byteOffset": 20928,
      "componentType": 5126,
      "count": 100,
      "max": [
        0.9998970031738281,
        0.9997819066047668,
        0.9999690055847168
      ],
      "min": [
        -0.9998970031738281,
        0.0,
        -0.9999690055847168
      ],
      "type": "VEC3"
    },
    {
      "bufferView": 3,
      "byteOffset": 13152,
      "componentType": 5126,
      "count": 100,
      "max": [
        0.9999497532844543,
        1.0,
        0.21429067850112915,
        1.0
      ],
      "min": [
        -0.022632788866758347,
        -1.0,
        -0.21383732557296753,
        1.0
      ],
      "type": "VEC4"
    },
    {
      "bufferView": 1,
      "byteOffset": 6576,
      "componentType": 5126,
      "count": 100,
      "max": [
        0.4154619872570038,
        0.8832700252532959
      ],
      "min": [
        0.14354099333286285,
        0.24247799813747406
      ],
      "type": "VEC2"
    },
    {
      "bufferView": 0,
      "byteOffset": 10032,
      "componentType": 5125,
      "count": 330,
      "type": "SCALAR"
    },
    {
      "bufferView": 2,
      "byteOffset": 22128,
      "componentType": 5126,
      "count": 100,
      "max": [
        -0.11845099925994873,
        0.07300449907779694,
        0.3341119885444641
      ],
      "min": [
        -0.20312699675559998,
        0.04431679844856262,
        0.28599101305007935
      ],
      "type": "VEC3"
    },
    {
      "bufferView": 2,
      "byteOffset": 23328,
      "componentType": 5126,
      "count": 100,
      "max": [
        0.9998970031738281,
        0.9997819066047668,
        0.9999690055847168
      ],
      "min": [
        -0.9998970031738281,
        0.0,
        -0.9999690055847168
      ],
      "type": "VEC3"
    },
    {
      "bufferView": 3,
      "byteOffset": 14752,
      "componentType": 5126,
      "count": 100,
      "max": [
        0.9999496936798096,
        1.0,
        0.2144164741039276,
        1.0
      ],
      "min": [
        -0.022632790729403496,
        -1.0,
        -0.2137545645236969,
        1.0
      ],
      "type": "VEC4"
    },
    {
      "bufferView": 1,
      "byteOffset": 7376,
      "componentType": 5126,
      "count": 100,
      "max": [
        0.4154619872570038,
        0.8832700252532959
      ],
      "min": [
        0.014306999742984772,
        0.24247799813747406
      ],
      "type": "VEC2"
    },
    {
      "bufferView": 0,
      "byteOffset": 11352,
      "componentType": 5125,
      "count": 330,
      "type": "SCALAR"
    },
    {
      "bufferView": 2,
      "byteOffset": 24528,
      "componentType": 5126,
      "count": 56,
      "max": [
        -0.16998299956321716,
        0.07143229991197586,
        -0.0928473025560379
      ],
      "min": [
        -0.2064879983663559,
        0.04593620076775551,
        -0.3002200126647949
      ],
      "type": "VEC3"
    },
    {
      "bufferView": 2,
      "byteOffset": 25200,
      "componentType": 5126,
      "count": 56,
      "max": [
        1.0,
        0.9994214773178101,
        1.0
      ],
      "min": [
        -1.0,
        -9.999999974752427e-07,
        -1.0
      ],
      "type": "VEC3"
    },
    {
      "bufferView": 3,
      "byteOffset": 16352,
      "componentType": 5126,
      "count": 56,
      "max": [
        1.0,
        1.0,
        0.0007786224014125764,
        1.0
      ],
      "min": [
        -0.04352501779794693,
        -1.0,
        -0.03348500281572342,
        1.0
      ],
      "type": "VEC4"
    },
    {
      "bufferView": 1,
      "byteOffset": 8176,
      "componentType": 5126,
      "count": 56,
      "max": [
        0.34973999857902527,
        0.8832700252532959
      ],
      "min": [
        0.012275000102818012,
        0.49323201179504395
      ],
      "type": "VEC2"
    },
    {
      "bufferView": 0,
      "byteOffset": 12672,
      "componentType": 5125,
      "count": 120,
      "type": "SCALAR"
    },
    {
      "bufferView": 2,
      "byteOffset": 25872,
      "componentType": 5126,
      "count": 56,
      "max": [
        0.19893699884414673,
        0.07143229991197586,
        -0.0928473025560379
      ],
      "min": [
        0.16529099643230438,
        0.04593620076775551,
        -0.3002200126647949
      ],
      "type": "VEC3"
    },
    {
      "bufferView": 2,
      "byteOffset": 26544,
      "componentType": 5126,
      "count": 56,
      "max": [
        1.0,
        0.999422550201416,
        1.0
      ],
      "min": [
        -1.0,
        -1.9999999949504854e-06,
        -1.0
      ],
      "type": "VEC3"
    },
    {
      "bufferView": 3,
      "byteOffset": 17248,
      "componentType": 5126,
      "count": 56,
      "max": [
        1.0,
        1.0,
        0.0007962999516166747,
        1.0
      ],
      "min": [
        -0.03999599814414978,
        -1.0,
        -0.030690999701619148,
        1.0
      ],
      "type": "VEC4"
    },
    {
      "bufferView": 1,
      "byteOffset": 8624,
      "componentType": 5126,
      "count": 56,
      "max": [
        0.350614994764328,
        0.8832700252532959
      ],
      "min": [
        0.23700100183486938,
        0.49323201179504395
      ],
      "type": "VEC2"
    },
    {
      "bufferView": 0,
      "byteOffset": 13152,
      "componentType": 5125,
      "count": 120,
      "type": "SCALAR"
    },
    {
      "bufferView": 2,
      "byteOffset": 27216,
      "componentType": 5126,
      "count": 100,
      "max": [
        0.06105149909853935,
        0.07143869996070862,
        0.26267099380493164
      ],
      "min": [
        -0.0665799006819725,
        0.04588260129094124,
        0.19288399815559387
      ],
      "type": "VEC3"
    },
    {
      "bufferView": 2,
      "byteOffset": 28416,
      "componentType": 5126,
      "count": 100,
      "max": [
        0.9999495148658752,
        0.9999258518218994,
        0.9999875426292419
      ],
      "min": [
        -0.9999495148658752,
        0.0,
        -0.9999875426292419
      ],
      "type": "VEC3"
    },
    {
      "bufferView": 3,
      "byteOffset": 18144,
      "componentType": 5126,
      "count": 100,
      "max": [
        0.9999834299087524,
        1.0,
        0.23389847576618195,
        1.0
      ],
      "min": [
        -0.027302714064717293,
        -1.0,
        -0.24018412828445435,
        1.0
      ],
      "type": "VEC4"
    },
    {
      "bufferView": 1,
      "byteOffset": 9072,
      "componentType": 5126,
      "count": 100,
      "max": [
        0.3815000057220459,
        0.8832700252532959
      ],
      "min": [
        0.09684400260448456,
        0.2844350039958954
      ],
      "type": "VEC2"
    },
    {
      "bufferView": 0,
      "byteOffset": 13632,
      "componentType": 5125,
      "count": 330,
      "type": "SCALAR"
    },
    {
      "bufferView": 2,
      "byteOffset": 29616,
      "componentType": 5126,
      "count": 100,
      "max": [
        0.2039009928703308,
        0.07143869996070862,
        0.26267099380493164
      ],
      "min": [
        0.07626920193433762,
        0.04588260129094124,
        0.19288399815559387
      ],
      "type": "VEC3"
    },
    {
      "bufferView": 2,
      "byteOffset": 30816,
      "componentType": 5126,
      "count": 100,
      "max": [
        0.9999495148658752,
        0.9999258518218994,
        0.9999875426292419
      ],
      "min": [
        -0.9999495148658752,
        0.0,
        -0.9999875426292419
      ],
      "type": "VEC3"
    },
    {
      "bufferView": 3,
      "byteOffset": 19744,
      "componentType": 5126,
      "count": 100,
      "max": [
        0.9999834895133972,
        1.0,
        0.23393389582633972,
        1.0
      ],
      "min": [
        -0.027302714064717293,
        -1.0,
        -0.24017179012298584,
        1.0
      ],
      "type": "VEC4"
    },
    {
      "bufferView": 1,
      "byteOffset": 9872,
      "componentType": 5126,
      "count": 100,
      "max": [
        0.3815000057220459,
        0.8832700252532959
      ],
      "min": [
        0.1831900030374527,
        0.2844350039958954
      ],
      "type": "VEC2"
    },
    {
      "bufferView": 0,
      "byteOffset": 14952,
      "componentType": 5125,
      "count": 330,
      "type": "SCALAR"
    },
    {
      "bufferView": 2,
      "byteOffset": 32016,
      "componentType": 5126,
      "count": 352,
      "max": [
        0.16089600324630737,
        0.07143890112638474,
        -0.034915998578071594
      ],
      "min": [
        -0.1676509976387024,
        0.02463030070066452,
        -0.35823801159858704
      ],
      "type": "VEC3"
    },
    {
      "bufferView": 2,
      "byteOffset": 36240,
      "componentType": 5126,
      "count": 352,
      "max": [
        1.0,
        1.0,
        1.0
      ],
      "min": [
        -1.0,
        -0.0031930007971823215,
        -1.0
      ],
      "type": "VEC3"
    },
    {
      "bufferView": 3,
      "byteOffset": 21344,
      "componentType": 5126,
      "count": 352,
      "max": [
        1.0,
        1.0,
        0.6979781985282898,
        1.0
      ],
      "min": [
        -0.026443079113960266,
        -1.0,
        -0.685160756111145,
        1.0
      ],
      "type": "VEC4"
    },
    {
      "bufferView": 1,
      "byteOffset": 10672,
      "componentType": 5126,
      "count": 352,
      "max": [
        0.42195001244544983,
        0.8735780119895935
      ],
      "min": [
        0.035750001668930054,
        0.4592120051383972
      ],
      "type": "VEC2"
    },
    {
      "bufferView": 0,
      "byteOffset": 16272,
      "componentType": 5125,
      "count": 810,
      "type": "SCALAR"
    },
    {
      "bufferView": 2,
      "byteOffset": 40464,
      "componentType": 5126,
      "count": 100,
      "max": [
        0.2039009928703308,
        0.07143869996070862,
        0.13651199638843536
      ],
      "min": [
        0.07626920193433762,
        0.04588260129094124,
        0.06672479957342148
      ],
      "type": "VEC3"
    },
    {
      "bufferView": 2,
      "byteOffset": 41664,
      "componentType": 5126,
      "count": 100,
      "max": [
        0.9999495148658752,
        0.9999258518218994,
        0.9999875426292419
      ],
      "min": [
        -0.9999495148658752,
        0.0,
        -0.9999875426292419
      ],
      "type": "VEC3"
    },
    {
      "bufferView": 3,
      "byteOffset": 26976,
      "componentType": 5126,
      "count": 100,
      "max": [
        0.9999834299087524,
        1.0,
        0.2339557558298111,
        1.0
      ],
      "min": [
        -0.027302714064717293,
        -1.0,
        -0.24009858071804047,
        1.0
      ],
      "type": "VEC4"
    },
    {
      "bufferView": 1,
      "byteOffset": 13488,
      "componentType": 5126,
      "count": 100,
      "max": [
        0.3815000057220459,
        0.8832700252532959
      ],
      "min": [
        0.1831900030374527,
        0.3585290014743805
      ],
      "type": "VEC2"
    },
    {
      "bufferView": 0,
      "byteOffset": 19512,
      "componentType": 5125,
      "count": 330,
      "type": "SCALAR"
    },
    {
      "bufferView": 2,
      "byteOffset": 42864,
      "componentType": 5126,
      "count": 100,
      "max": [
        0.06105149909853935,
        0.07143869996070862,
        0.13651199638843536
      ],
      "min": [
        -0.0665799006819725,
        0.04588260129094124,
        0.06672479957342148
      ],
      "type": "VEC3"
    },
    {
      "bufferView": 2,
      "byteOffset": 44064,
      "componentType": 5126,
      "count": 100,
      "max": [
        0.9999495148658752,
        0.9999258518218994,
        0.9999875426292419
      ],
      "min": [
        -0.9999495148658752,
        0.0,
        -0.9999875426292419
      ],
      "type": "VEC3"
    },
    {
      "bufferView": 3,
      "byteOffset": 28576,
      "componentType": 5126,
      "count": 100,
      "max": [
        0.9999834895133972,
        1.0,
        0.23392044007778168,
        1.0
      ],
      "min": [
        -0.027302712202072144,
        -1.0,
        -0.24011088907718658,
        1.0
      ],
      "type": "VEC4"
    },
    {
      "bufferView": 1,
      "byteOffset": 14288,
      "componentType": 5126,
      "count": 100,
      "max": [
        0.3815000057220459,
        0.8832700252532959
      ],
      "min": [
        0.09684400260448456,
        0.3585290014743805
      ],
      "type": "VEC2"
    },
    {
      "bufferView": 0,
      "byteOffset": 20832,
      "componentType": 5125,
      "count": 330,
      "type": "SCALAR"
    },
    {
      "bufferView": 2,
      "byteOffset": 45264,
      "componentType": 5126,
      "count": 100,
      "max": [
        -0.07911170274019241,
        0.07143869996070862,
        0.13651199638843536
      ],
      "min": [
        -0.2067430019378662,
        0.04588260129094124,
        0.06672479957342148
      ],
      "type": "VEC3"
    },
    {
      "bufferView": 2,
      "byteOffset": 46464,
      "componentType": 5126,
      "count": 100,
      "max": [
        0.9999495148658752,
        0.9999258518218994,
        0.9999875426292419
      ],
      "min": [
        -0.9999495148658752,
        0.0,
        -0.9999875426292419
      ],
      "type": "VEC3"
    },
    {
      "bufferView": 3,
      "byteOffset": 30176,
      "componentType": 5126,
      "count": 100,
      "max": [
        0.9999834895133972,
        1.0,
        0.23402461409568787,
        1.0
      ],
      "min": [
        -0.027302712202072144,
        -1.0,
        -0.24010349810123444,
        1.0
      ],
      "type": "VEC4"
    },
    {
      "bufferView": 1,
      "byteOffset": 15088,
      "componentType": 5126,
      "count": 100,
      "max": [
        0.3815000057220459,
        0.8832700252532959
      ],
      "min": [
        0.012121000327169895,
        0.3585290014743805
      ],
      "type": "VEC2"
    },
    {
      "bufferView": 0,
      "byteOffset": 22152,
      "componentType": 5125,
      "count": 330,
      "type": "SCALAR"
    },
    {
      "bufferView": 2,
      "byteOffset": 47664,
      "componentType": 5126,
      "count": 100,
      "max": [
        -0.008416970260441303,
        0.07143869996070862,
        -0.7854819893836975
      ],
      "min": [
        -0.10279499739408493,
        0.04588260129094124,
        -0.8325319886207581
      ],
      "type": "VEC3"
    },
    {
      "bufferView": 2,
      "byteOffset": 48864,
      "componentType": 5126,
      "count": 100,
      "max": [
        0.9998661279678345,
        0.9998277425765991,
        0.9999762177467346
      ],
      "min": [
        -0.9998661279678345,
        0.0,
        -0.9999762177467346
      ],
      "type": "VEC3"
    },
    {
      "bufferView": 3,
      "byteOffset": 31776,
      "componentType": 5126,
      "count": 100,
      "max": [
        0.9999681711196899,
        1.0,
        0.23509322106838226,
        1.0
      ],
      "min": [
        -0.02829740382730961,
        -1.0,
        -0.2117420881986618,
        1.0
      ],
      "type": "VEC4"
    },
    {
      "bufferView": 1,
      "byteOffset": 15888,
      "componentType": 5126,
      "count": 100,
      "max": [
        0.41339200735092163,
        0.927649974822998
      ],
      "min": [
        0.07495400309562683,
        0.7547320127487183
      ],
      "type": "VEC2"
    },
    {
      "bufferView": 0,
      "byteOffset": 23472,
      "componentType": 5125,
      "count": 330,
      "type": "SCALAR"
    },
    {
      "bufferView": 2,
      "byteOffset": 50064,
      "componentType": 5126,
      "count": 100,
      "max": [
        0.1971299946308136,
        0.07143869996070862,
        -0.7854819893836975
      ],
      "min": [
        0.10275200009346008,
        0.04588260129094124,
        -0.8325319886207581
      ],
      "type": "VEC3"
    },
    {
      "bufferView": 2,
      "byteOffset": 51264,
      "componentType": 5126,
      "count": 100,
      "max": [
        0.9998661279678345,
        0.9998277425765991,
        0.9999762177467346
      ],
      "min": [
        -0.9998661279678345,
        0.0,
        -0.9999762177467346
      ],
      "type": "VEC3"
    },
    {
      "bufferView": 3,
      "byteOffset": 33376,
      "componentType": 5126,
      "count": 100,
      "max": [
        0.9999682307243347,
        1.0,
        0.2349618822336197,
        1.0
      ],
      "min": [
        -0.028298404067754745,
        -1.0,
        -0.2116706371307373,
        1.0
      ],
      "type": "VEC4"
    },
    {
      "bufferView": 1,
      "byteOffset": 16688,
      "componentType": 5126,
      "count": 100,
      "max": [
        0.41339200735092163,
        0.927649974822998
      ],
      "min": [
        0.19919799268245697,
        0.7547320127487183
      ],
      "type": "VEC2"
    },
    {
      "bufferView": 0,
      "byteOffset": 24792,
      "componentType": 5125,
      "count": 330,
      "type": "SCALAR"
    },
    {
      "bufferView": 2,
      "byteOffset": 52464,
      "componentType": 5126,
      "count": 100,
      "max": [
        0.09435649961233139,
        0.07143869996070862,
        -0.7854819893836975
      ],
      "min": [
        -2.1243400624371134e-05,
        0.04588260129094124,
        -0.8325319886207581
      ],
      "type": "VEC3"
    },
    {
      "bufferView": 2,
      "byteOffset": 53664,
      "componentType": 5126,
      "count": 100,
      "max": [
        0.9998661279678345,
        0.9998277425765991,
        0.9999762177467346
      ],
      "min": [
        -0.9998661279678345,
        0.0,
        -0.9999762177467346
      ],
      "type": "VEC3"
    },
    {
      "bufferView": 3,
      "byteOffset": 34976,
      "componentType": 5126,
      "count": 100,
      "max": [
        0.9999682307243347,
        1.0,
        0.23491904139518738,
        1.0
      ],
      "min": [
        -0.02829740382730961,
        -1.0,
        -0.21182191371917725,
        1.0
      ],
      "type": "VEC4"
    },
    {
      "bufferView": 1,
      "byteOffset": 17488,
      "componentType": 5126,
      "count": 100,
      "max": [
        0.41339200735092163,
        0.927649974822998
      ],
      "min": [
        0.1370760053396225,
        0.7547320127487183
      ],
      "type": "VEC2"
    },
    {
      "bufferView": 0,
      "byteOffset": 26112,
      "componentType": 5125,
      "count": 330,
      "type": "SCALAR"
    },
    {
      "bufferView": 2,
      "byteOffset": 54864,
      "componentType": 5126,
      "count": 100,
      "max": [
        -0.11119099706411362,
        0.07143869996070862,
        -0.7854819893836975
      ],
      "min": [
        -0.20556800067424774,
        0.04588260129094124,
        -0.8325319886207581
      ],
      "type": "VEC3"
    },
    {
      "bufferView": 2,
      "byteOffset": 56064,
      "componentType": 5126,
      "count": 100,
      "max": [
        0.9998661279678345,
        0.9998277425765991,
        0.9999762177467346
      ],
      "min": [
        -0.9998661279678345,
        0.0,
        -0.9999762177467346
      ],
      "type": "VEC3"
    },
    {
      "bufferView": 3,
      "byteOffset": 36576,
      "componentType": 5126,
      "count": 100,
      "max": [
        0.9999681711196899,
        1.0,
        0.23498156666755676,
        1.0
      ],
      "min": [
        -0.028297405689954758,
        -1.0,
        -0.2118718922138214,
        1.0
      ],
      "type": "VEC4"
    },
    {
      "bufferView": 1,
      "byteOffset": 18288,
      "componentType": 5126,
      "count": 100,
      "max": [
        0.41339200735092163,
        0.927649974822998
      ],
      "min": [
        0.012830999679863453,
        0.7547320127487183
      ],
      "type": "VEC2"
    },
    {
      "bufferView": 0,
      "byteOffset": 27432,
      "componentType": 5125,
      "count": 330,
      "type": "SCALAR"
    },
    {
      "bufferView": 2,
      "byteOffset": 57264,
      "componentType": 5126,
      "count": 312,
      "max": [
        0.24199000000953674,
        0.05630150064826012,
        1.0
      ],
      "min": [
        -0.24199000000953674,
        -0.07352049648761749,
        -1.0
      ],
      "type": "VEC3"
    },
    {
      "bufferView": 2,
      "byteOffset": 61008,
      "componentType": 5126,
      "count": 312,
      "max": [
        0.9989606142044067,
        0.9999784827232361,
        0.9997459053993225
      ],
      "min": [
        -0.9988997578620911,
        -0.9999855160713196,
        -0.9969918727874756
      ],
      "type": "VEC3"
    },
    {
      "bufferView": 3,
      "byteOffset": 38176,
      "componentType": 5126,
      "count": 312,
      "max": [
        0.9999892711639404,
        0.9990542531013489,
        0.8392276763916016,
        1.0
      ],
      "min": [
        -0.99998539686203,
        -0.9994745254516602,
        -0.8415917754173279,
        1.0
      ],
      "type": "VEC4"
    },
    {
      "bufferView": 1,
      "byteOffset": 19088,
      "componentType": 5126,
      "count": 312,
      "max": [
        0.9650880098342896,
        0.9986680150032043
      ],
      "min": [
        0.45305898785591125,
        0.0069240001030266285
      ],
      "type": "VEC2"
    },
    {
      "bufferView": 0,
      "byteOffset": 28752,
      "componentType": 5125,
      "count": 948,
      "type": "SCALAR"
    },
    {
      "bufferView": 2,
      "byteOffset": 64752,
      "componentType": 5126,
      "count": 226,
      "max": [
        0.04428059980273247,
        0.07143869996070862,
        -0.8651300072669983
      ],
      "min": [
        -0.04697690159082413,
        0.017297500744462013,
        -0.9557219743728638
      ],
      "type": "VEC3"
    },
    {
      "bufferView": 2,
      "byteOffset": 67464,
      "componentType": 5126,
      "count": 226,
      "max": [
        1.0,
        1.0,
        0.9927088618278503
      ],
      "min": [
        -1.0,
        -1.0,
        -0.9927088618278503
      ],
      "type": "VEC3"
    },
    {
      "bufferView": 3,
      "byteOffset": 43168,
      "componentType": 5126,
      "count": 226,
      "max": [
        1.0,
        1.0,
        1.0,
        1.0
      ],
      "min": [
        -0.011482002213597298,
        -1.0,
        -0.18764804303646088,
        1.0
      ],
      "type": "VEC4"
    },
    {
      "bufferView": 1,
      "byteOffset": 21584,
      "componentType": 5126,
      "count": 226,
      "max": [
        0.42195001244544983,
        1.0
      ],
      "min": [
        0.10869300365447998,
        0.754718005657196
      ],
      "type": "VEC2"
    },
    {
      "bufferView": 0,
      "byteOffset": 32544,
      "componentType": 5125,
      "count": 780,
      "type": "SCALAR"
    },
    {
      "bufferView": 2,
      "byteOffset": 70176,
      "componentType": 5126,
      "count": 100,
      "max": [
        0.08214060217142105,
        0.0700296014547348,
        -0.5799189805984497
      ],
      "min": [
        -0.08419489860534668,
        0.04729140177369118,
        -0.6511579751968384
      ],
      "type": "VEC3"
    },
    {
      "bufferView": 2,
      "byteOffset": 71376,
      "componentType": 5126,
      "count": 100,
      "max": [
        0.9999627470970154,
        0.9999496340751648,
        0.9999944567680359
      ],
      "min": [
        -0.9999627470970154,
        0.0,
        -0.9999944567680359
      ],
      "type": "VEC3"
    },
    {
      "bufferView": 3,
      "byteOffset": 46784,
      "componentType": 5126,
      "count": 100,
      "max": [
        0.9999924302101135,
        1.0,
        0.3315560519695282,
        1.0
      ],
      "min": [
        -0.02733503468334675,
        -1.0,
        -0.27736663818359375,
        1.0
      ],
      "type": "VEC4"
    },
    {
      "bufferView": 1,
      "byteOffset": 23392,
      "componentType": 5126,
      "count": 100,
      "max": [
        0.3534500002861023,
        0.8832700252532959
      ],
      "min": [
        0.08619599789381027,
        0.7547320127487183
      ],
      "type": "VEC2"
    },
    {
      "bufferView": 0,
      "byteOffset": 35664,
      "componentType": 5125,
      "count": 330,
      "type": "SCALAR"
    },
    {
      "bufferView": 2,
      "byteOffset": 72576,
      "componentType": 5126,
      "count": 100,
      "max": [
        0.20599399507045746,
        0.0700296014547348,
        -0.5799189805984497
      ],
      "min": [
        0.10369600355625153,
        0.04729140177369118,
        -0.6511579751968384
      ],
      "type": "VEC3"
    },
    {
      "bufferView": 2,
      "byteOffset": 73776,
      "componentType": 5126,
      "count": 100,
      "max": [
        0.9999627470970154,
        0.999937117099762,
        0.9999845027923584
      ],
      "min": [
        -0.9999627470970154,
        0.0,
        -0.9999845027923584
      ],
      "type": "VEC3"
    },
    {
      "bufferView": 3,
      "byteOffset": 48384,
      "componentType": 5126,
      "count": 100,
      "max": [
        0.9999797344207764,
        1.0,
        0.3313518762588501,
        1.0
      ],
      "min": [
        -0.02733404003083706,
        -1.0,
        -0.2773568034172058,
        1.0
      ],
      "type": "VEC4"
    },
    {
      "bufferView": 1,
      "byteOffset": 24192,
      "componentType": 5126,
      "count": 100,
      "max": [
        0.39142701029777527,
        0.8832700252532959
      ],
      "min": [
        0.1997690051794052,
        0.7547320127487183
      ],
      "type": "VEC2"
    },
    {
      "bufferView": 0,
      "byteOffset": 36984,
      "componentType": 5125,
      "count": 330,
      "type": "SCALAR"
    },
    {
      "bufferView": 2,
      "byteOffset": 74976,
      "componentType": 5126,
      "count": 100,
      "max": [
        -0.10774800181388855,
        0.0700296014547348,
        -0.5799189805984497
      ],
      "min": [
        -0.2100449949502945,
        0.04729140177369118,
        -0.6511579751968384
      ],
      "type": "VEC3"
    },
    {
      "bufferView": 2,
      "byteOffset": 76176,
      "componentType": 5126,
      "count": 100,
      "max": [
        0.9999627470970154,
        0.999937117099762,
        0.9999845027923584
      ],
      "min": [
        -0.9999627470970154,
        0.0,
        -0.9999845027923584
      ],
      "type": "VEC3"
    },
    {
      "bufferView": 3,
      "byteOffset": 49984,
      "componentType": 5126,
      "count": 100,
      "max": [
        0.9999796748161316,
        1.0,
        0.3313463628292084,
        1.0
      ],
      "min": [
        -0.027335040271282196,
        -1.0,
        -0.27727895975112915,
        1.0
      ],
      "type": "VEC4"
    },
    {
      "bufferView": 1,
      "byteOffset": 24992,
      "componentType": 5126,
      "count": 100,
      "max": [
        0.39142701029777527,
        0.8832700252532959
      ],
      "min": [
        0.010125000029802322,
        0.7547320127487183
      ],
      "type": "VEC2"
    },
    {
      "bufferView": 0,
      "byteOffset": 38304,
      "componentType": 5125,
      "count": 330,
      "type": "SCALAR"
    },
    {
      "bufferView": 2,
      "byteOffset": 77376,
      "componentType": 5126,
      "count": 100,
      "max": [
        -0.10774800181388855,
        0.0700296014547348,
        -0.47867101430892944
      ],
      "min": [
        -0.2100449949502945,
        0.04729140177369118,
        -0.5499110221862793
      ],
      "type": "VEC3"
    },
    {
      "bufferView": 2,
      "byteOffset": 78576,
      "componentType": 5126,
      "count": 100,
      "max": [
        0.9999627470970154,
        0.999937117099762,
        0.9999845027923584
      ],
      "min": [
        -0.9999627470970154,
        0.0,
        -0.9999845027923584
      ],
      "type": "VEC3"
    },
    {
      "bufferView": 3,
      "byteOffset": 51584,
      "componentType": 5126,
      "count": 100,
      "max": [
        0.9999796748161316,
        1.0,
        0.33135196566581726,
        1.0
      ],
      "min": [
        -0.027335038408637047,
        -1.0,
        -0.27728089690208435,
        1.0
      ],
      "type": "VEC4"
    },
    {
      "bufferView": 1,
      "byteOffset": 25792,
      "componentType": 5126,
      "count": 100,
      "max": [
        0.39142701029777527,
        0.8832700252532959
      ],
      "min": [
        0.010125000029802322,
        0.7198269963264465
      ],
      "type": "VEC2"
    },
    {
      "bufferView": 0,
      "byteOffset": 39624,
      "componentType": 5125,
      "count": 330,
      "type": "SCALAR"
    },
    {
      "bufferView": 2,
      "byteOffset": 79776,
      "componentType": 5126,
      "count": 100,
      "max": [
        0.20599399507045746,
        0.0700296014547348,
        -0.47867101430892944
      ],
      "min": [
        0.10369600355625153,
        0.04729140177369118,
        -0.5499110221862793
      ],
      "type": "VEC3"
    },
    {
      "bufferView": 2,
      "byteOffset": 80976,
      "componentType": 5126,
      "count": 100,
      "max": [
        0.9999627470970154,
        0.999937117099762,
        0.9999845027923584
      ],
      "min": [
        -0.9999627470970154,
        0.0,
        -0.9999845027923584
      ],
      "type": "VEC3"
    },
    {
      "bufferView": 3,
      "byteOffset": 53184,
      "componentType": 5126,
      "count": 100,
      "max": [
        0.9999797344207764,
        1.0,
        0.3313576281070709,
        1.0
      ],
      "min": [
        -0.02733404003083706,
        -1.0,
        -0.2773575484752655,
        1.0
      ],
      "type": "VEC4"
    },
    {
      "bufferView": 1,
      "byteOffset": 26592,
      "componentType": 5126,
      "count": 100,
      "max": [
        0.39142701029777527,
        0.8832700252532959
      ],
      "min": [
        0.1997690051794052,
        0.7198269963264465
      ],
      "type": "VEC2"
    },
    {
      "bufferView": 0,
      "byteOffset": 40944,
      "componentType": 5125,
      "count": 330,
      "type": "SCALAR"
    },
    {
      "bufferView": 2,
      "byteOffset": 82176,
      "componentType": 5126,
      "count": 100,
      "max": [
        0.08214060217142105,
        0.0700296014547348,
        -0.47867101430892944
      ],
      "min": [
        -0.08419489860534668,
        0.04729140177369118,
        -0.5499110221862793
      ],
      "type": "VEC3"
    },
    {
      "bufferView": 2,
      "byteOffset": 83376,
      "componentType": 5126,
      "count": 100,
      "max": [
        0.9999627470970154,
        0.9999496340751648,
        0.9999944567680359
      ],
      "min": [
        -0.9999627470970154,
        0.0,
        -0.9999944567680359
      ],
      "type": "VEC3"
    },
    {
      "bufferView": 3,
      "byteOffset": 54784,
      "componentType": 5126,
      "count": 100,
      "max": [
        0.9999923706054688,
        1.0,
        0.33119404315948486,
        1.0
      ],
      "min": [
        -0.027335036545991898,
        -1.0,
        -0.27736908197402954,
        1.0
      ],
      "type": "VEC4"
    },
    {
      "bufferView": 1,
      "byteOffset": 27392,
      "componentType": 5126,
      "count": 100,
      "max": [
        0.3534500002861023,
        0.8832700252532959
      ],
      "min": [
        0.08619599789381027,
        0.7198269963264465
      ],
      "type": "VEC2"
    },
    {
      "bufferView": 0,
      "byteOffset": 42264,
      "componentType": 5125,
      "count": 330,
      "type": "SCALAR"
    },
    {
      "bufferView": 2,
      "byteOffset": 84576,
      "componentType": 5126,
      "count": 100,
      "max": [
        0.09435649961233139,
        0.07143869996070862,
        -0.7034810185432434
      ],
      "min": [
        -2.1243400624371134e-05,
        0.04588260129094124,
        -0.750531017780304
      ],
      "type": "VEC3"
    },
    {
      "bufferView": 2,
      "byteOffset": 85776,
      "componentType": 5126,
      "count": 100,
      "max": [
        0.9998661279678345,
        0.9998277425765991,
        0.9999762177467346
      ],
      "min": [
        -0.9998661279678345,
        0.0,
        -0.9999762177467346
      ],
      "type": "VEC3"
    },
    {
      "bufferView": 3,
      "byteOffset": 56384,
      "componentType": 5126,
      "count": 100,
      "max": [
        0.9999682307243347,
        1.0,
        0.23563438653945923,
        1.0
      ],
      "min": [
        -0.028297409415245056,
        -1.0,
        -0.21221917867660522,
        1.0
      ],
      "type": "VEC4"
    },
    {
      "bufferView": 1,
      "byteOffset": 28192,
      "componentType": 5126,
      "count": 100,
      "max": [
        0.41339200735092163,
        0.8832700252532959
      ],
      "min": [
        0.1370760053396225,
        0.7547320127487183
      ],
      "type": "VEC2"
    },
    {
      "bufferView": 0,
      "byteOffset": 43584,
      "componentType": 5125,
      "count": 330,
      "type": "SCALAR"
    },
    {
      "bufferView": 2,
      "byteOffset": 86976,
      "componentType": 5126,
      "count": 83,
      "max": [
        0.19893699884414673,
        0.07143229991197586,
        0.04020639881491661
      ],
      "min": [
        0.06572219729423523,
        0.04593620076775551,
        -0.0928473025560379
      ],
      "type": "VEC3"
    },
    {
      "bufferView": 2,
      "byteOffset": 87972,
      "componentType": 5126,
      "count": 83,
      "max": [
        1.0,
        0.9999620914459229,
        1.0
      ],
      "min": [
        -0.9999400973320007,
        -2.0000004496978363e-06,
        -1.0
      ],
      "type": "VEC3"
    },
    {
      "bufferView": 3,
      "byteOffset": 57984,
      "componentType": 5126,
      "count": 83,
      "max": [
        1.0,
        1.0,
        0.0765780583024025,
        1.0
      ],
      "min": [
        -0.051124390214681625,
        -1.0,
        -0.26241764426231384,
        1.0
      ],
      "type": "VEC4"
    },
    {
      "bufferView": 1,
      "byteOffset": 28992,
      "componentType": 5126,
      "count": 83,
      "max": [
        0.3774249851703644,
        0.8832700252532959
      ],
      "min": [
        0.176815003156662,
        0.4150890111923218
      ],
      "type": "VEC2"
    },
    {
      "bufferView": 0,
      "byteOffset": 44904,
      "componentType": 5125,
      "count": 204,
      "type": "SCALAR"
    },
    {
      "bufferView": 2,
      "byteOffset": 88968,
      "componentType": 5126,
      "count": 56,
      "max": [
        0.06653200089931488,
        0.07143229991197586,
        0.04020639881491661
      ],
      "min": [
        -0.073579803109169,
        0.04593620076775551,
        -0.033782098442316055
      ],
      "type": "VEC3"
    },
    {
      "bufferView": 2,
      "byteOffset": 89640,
      "componentType": 5126,
      "count": 56,
      "max": [
        0.9999400973320007,
        0.9997468590736389,
        1.0
      ],
      "min": [
        -0.9985057711601257,
        -9.999999974752427e-07,
        -1.0
      ],
      "type": "VEC3"
    },
    {
      "bufferView": 3,
      "byteOffset": 59312,
      "componentType": 5126,
      "count": 56,
      "max": [
        1.0,
        1.0,
        0.0026867252308875322,
        1.0
      ],
      "min": [
        -0.04865707457065582,
        -1.0,
        -0.06153200939297676,
        1.0
      ],
      "type": "VEC4"
    },
    {
      "bufferView": 1,
      "byteOffset": 29656,
      "componentType": 5126,
      "count": 56,
      "max": [
        0.3710399866104126,
        0.8832700252532959
      ],
      "min": [
        0.09261299669742584,
        0.4150890111923218
      ],
      "type": "VEC2"
    },
    {
      "bufferView": 0,
      "byteOffset": 45720,
      "componentType": 5125,
      "count": 120,
      "type": "SCALAR"
    },
    {
      "bufferView": 2,
      "byteOffset": 90312,
      "componentType": 5126,
      "count": 83,
      "max": [
        -0.06953050196170807,
        0.07143229991197586,
        0.04020639881491661
      ],
      "min": [
        -0.2064879983663559,
        0.04593620076775551,
        -0.0928473025560379
      ],
      "type": "VEC3"
    },
    {
      "bufferView": 2,
      "byteOffset": 91308,
      "componentType": 5126,
      "count": 83,
      "max": [
        0.9985057711601257,
        0.9999492168426514,
        1.0
      ],
      "min": [
        -1.0,
        -2.000000222324161e-06,
        -1.0
      ],
      "type": "VEC3"
    },
    {
      "bufferView": 3,
      "byteOffset": 60208,
      "componentType": 5126,
      "count": 83,
      "max": [
        1.0,
        1.0,
        0.23261195421218872,
        1.0
      ],
      "min": [
        -0.046718090772628784,
        -1.0,
        -0.11731607466936111,
        1.0
      ],
      "type": "VEC4"
    },
    {
      "bufferView": 1,
      "byteOffset": 30104,
      "componentType": 5126,
      "count": 83,
      "max": [
        0.3733629882335663,
        0.8832700252532959
      ],
      "min": [
        0.012275000102818012,
        0.4150890111923218
      ],
      "type": "VEC2"
    },
    {
      "bufferView": 0,
      "byteOffset": 46200,
      "componentType": 5125,
      "count": 204,
      "type": "SCALAR"
    },
    {
      "bufferView": 2,
      "byteOffset": 92304,
      "componentType": 5126,
      "count": 100,
      "max": [
        0.06798660010099411,
        0.07352049648761749,
        0.6549959778785706
      ],
      "min": [
        -0.06017810106277466,
        0.043800801038742065,
        0.6002810001373291
      ],
      "type": "VEC3"
    },
    {
      "bufferView": 2,
      "byteOffset": 93504,
      "componentType": 5126,
      "count": 100,
      "max": [
        0.9998174905776978,
        0.9998357892036438,
        0.9999825358390808
      ],
      "min": [
        -0.9998174905776978,
        0.0,
        -0.9999825358390808
      ],
      "type": "VEC3"
    },
    {
      "bufferView": 3,
      "byteOffset": 61536,
      "componentType": 5126,
      "count": 100,
      "max": [
        0.999976634979248,
        1.0,
        0.23471643030643463,
        1.0
      ],
      "min": [
        -0.033017318695783615,
        -1.0,
        -0.22051654756069183,
        1.0
      ],
      "type": "VEC4"
    },
    {
      "bufferView": 1,
      "byteOffset": 30768,
      "componentType": 5126,
      "count": 100,
      "max": [
        0.3965489864349365,
        0.8832700252532959
      ],
      "min": [
        0.10071399807929993,
        0.05402199923992157
      ],
      "type": "VEC2"
    },
    {
      "bufferView": 0,
      "byteOffset": 47016,
      "componentType": 5125,
      "count": 330,
      "type": "SCALAR"
    },
    {
      "bufferView": 2,
      "byteOffset": 94704,
      "componentType": 5126,
      "count": 100,
      "max": [
        -0.07611119747161865,
        0.07352049648761749,
        0.6549959778785706
      ],
      "min": [
        -0.20427599549293518,
        0.043800801038742065,
        0.6002810001373291
      ],
      "type": "VEC3"
    },
    {
      "bufferView": 2,
      "byteOffset": 95904,
      "componentType": 5126,
      "count": 100,
      "max": [
        0.9998174905776978,
        0.9998357892036438,
        0.9999825358390808
      ],
      "min": [
        -0.9998174905776978,
        0.0,
        -0.9999825358390808
      ],
      "type": "VEC3"
    },
    {
      "bufferView": 3,
      "byteOffset": 63136,
      "componentType": 5126,
      "count": 100,
      "max": [
        0.9999766945838928,
        1.0,
        0.2347073256969452,
        1.0
      ],
      "min": [
        -0.0330183170735836,
        -1.0,
        -0.22051826119422913,
        1.0
      ],
      "type": "VEC4"
    },
    {
      "bufferView": 1,
      "byteOffset": 31568,
      "componentType": 5126,
      "count": 100,
      "max": [
        0.3965489864349365,
        0.8832700252532959
      ],
      "min": [
        0.013612000271677971,
        0.05402199923992157
      ],
      "type": "VEC2"
    },
    {
      "bufferView": 0,
      "byteOffset": 48336,
      "componentType": 5125,
      "count": 330,
      "type": "SCALAR"
    },
    {
      "bufferView": 2,
      "byteOffset": 97104,
      "componentType": 5126,
      "count": 100,
      "max": [
        -0.07611119747161865,
        0.07352049648761749,
        0.5704349875450134
      ],
      "min": [
        -0.20427599549293518,
        0.043800801038742065,
        0.515720009803772
      ],
      "type": "VEC3"
    },
    {
      "bufferView": 2,
      "byteOffset": 98304,
      "componentType": 5126,
      "count": 100,
      "max": [
        0.9998174905776978,
        0.9998357892036438,
        0.9999825358390808
      ],
      "min": [
        -0.9998174905776978,
        0.0,
        -0.9999825358390808
      ],
      "type": "VEC3"
    },
    {
      "bufferView": 3,
      "byteOffset": 64736,
      "componentType": 5126,
      "count": 100,
      "max": [
        0.9999767541885376,
        1.0,
        0.23525643348693848,
        1.0
      ],
      "min": [
        -0.0330183207988739,
        -1.0,
        -0.22031094133853912,
        1.0
      ],
      "type": "VEC4"
    },
    {
      "bufferView": 1,
      "byteOffset": 32368,
      "componentType": 5126,
      "count": 100,
      "max": [
        0.3965489864349365,
        0.8832700252532959
      ],
      "min": [
        0.013612000271677971,
        0.10368499904870987
      ],
      "type": "VEC2"
    },
    {
      "bufferView": 0,
      "byteOffset": 49656,
      "componentType": 5125,
      "count": 330,
      "type": "SCALAR"
    },
    {
      "bufferView": 2,
      "byteOffset": 99504,
      "componentType": 5126,
      "count": 100,
      "max": [
        0.06798660010099411,
        0.07352049648761749,
        0.5704349875450134
      ],
      "min": [
        -0.06017810106277466,
        0.043800801038742065,
        0.515720009803772
      ],
      "type": "VEC3"
    },
    {
      "bufferView": 2,
      "byteOffset": 100704,
      "componentType": 5126,
      "count": 100,
      "max": [
        0.9998174905776978,
        0.9998357892036438,
        0.9999825358390808
      ],
      "min": [
        -0.9998174905776978,
        0.0,
        -0.9999825358390808
      ],
      "type": "VEC3"
    },
    {
      "bufferView": 3,
      "byteOffset": 66336,
      "componentType": 5126,
      "count": 100,
      "max": [
        0.9999767541885376,
        1.0,
        0.23526570200920105,
        1.0
      ],
      "min": [
        -0.033017318695783615,
        -1.0,
        -0.2203083038330078,
        1.0
      ],
      "type": "VEC4"
    },
    {
      "bufferView": 1,
      "byteOffset": 33168,
      "componentType": 5126,
      "count": 100,
      "max": [
        0.3965489864349365,
        0.8832700252532959
      ],
      "min": [
        0.10071399807929993,
        0.10368499904870987
      ],
      "type": "VEC2"
    },
    {
      "bufferView": 0,
      "byteOffset": 50976,
      "componentType": 5125,
      "count": 330,
      "type": "SCALAR"
    },
    {
      "bufferView": 2,
      "byteOffset": 101904,
      "componentType": 5126,
      "count": 100,
      "max": [
        -0.07911170274019241,
        0.07143869996070862,
        0.26267099380493164
      ],
      "min": [
        -0.2067430019378662,
        0.04588260129094124,
        0.19288399815559387
      ],
      "type": "VEC3"
    },
    {
      "bufferView": 2,
      "byteOffset": 103104,
      "componentType": 5126,
      "count": 100,
      "max": [
        0.9999495148658752,
        0.9999258518218994,
        0.9999875426292419
      ],
      "min": [
        -0.9999495148658752,
        0.0,
        -0.9999875426292419
      ],
      "type": "VEC3"
    },
    {
      "bufferView": 3,
      "byteOffset": 67936,
      "componentType": 5126,
      "count": 100,
      "max": [
        0.9999833703041077,
        1.0,
        0.2340027093887329,
        1.0
      ],
      "min": [
        -0.027302714064717293,
        -1.0,
        -0.2401767522096634,
        1.0
      ],
      "type": "VEC4"
    },
    {
      "bufferView": 1,
      "byteOffset": 33968,
      "componentType": 5126,
      "count": 100,
      "max": [
        0.3815000057220459,
        0.8832700252532959
      ],
      "min": [
        0.012121000327169895,
        0.2844350039958954
      ],
      "type": "VEC2"
    },
    {
      "bufferView": 0,
      "byteOffset": 52296,
      "componentType": 5125,
      "count": 330,
      "type": "SCALAR"
    },
    {
      "bufferView": 2,
      "byteOffset": 104304,
      "componentType": 5126,
      "count": 100,
      "max": [
        0.20225200057029724,
        0.07300449907779694,
        0.7469800114631653
      ],
      "min": [
        0.117576003074646,
        0.04431679844856262,
        0.6988589763641357
      ],
      "type": "VEC3"
    },
    {
      "bufferView": 2,
      "byteOffset": 105504,
      "componentType": 5126,
      "count": 100,
      "max": [
        0.9998970031738281,
        0.9997819066047668,
        0.9999690055847168
      ],
      "min": [
        -0.9998970031738281,
        0.0,
        -0.9999690055847168
      ],
      "type": "VEC3"
    },
    {
      "bufferView": 3,
      "byteOffset": 69536,
      "componentType": 5126,
      "count": 100,
      "max": [
        0.9999497532844543,
        1.0,
        0.21439264714717865,
        1.0
      ],
      "min": [
        -0.022632788866758347,
        -1.0,
        -0.21380645036697388,
        1.0
      ],
      "type": "VEC4"
    },
    {
      "bufferView": 1,
      "byteOffset": 34768,
      "componentType": 5126,
      "count": 100,
      "max": [
        0.4154619872570038,
        0.8832700252532959
      ],
      "min": [
        0.20815899968147278,
        0.0
      ],
      "type": "VEC2"
    },
    {
      "bufferView": 0,
      "byteOffset": 53616,
      "componentType": 5125,
      "count": 330,
      "type": "SCALAR"
    },
    {
      "bufferView": 2,
      "byteOffset": 106704,
      "componentType": 5126,
      "count": 100,
      "max": [
        0.09535089880228043,
        0.07300449907779694,
        0.7469800114631653
      ],
      "min": [
        0.01067500002682209,
        0.04431679844856262,
        0.6988589763641357
      ],
      "type": "VEC3"
    },
    {
      "bufferView": 2,
      "byteOffset": 107904,
      "componentType": 5126,
      "count": 100,
      "max": [
        0.9998970031738281,
        0.9997819066047668,
        0.9999690055847168
      ],
      "min": [
        -0.9998970031738281,
        0.0,
        -0.9999690055847168
      ],
      "type": "VEC3"
    },
    {
      "bufferView": 3,
      "byteOffset": 71136,
      "componentType": 5126,
      "count": 100,
      "max": [
        0.9999497532844543,
        1.0,
        0.21426701545715332,
        1.0
      ],
      "min": [
        -0.022632788866758347,
        -1.0,
        -0.21384674310684204,
        1.0
      ],
      "type": "VEC4"
    },
    {
      "bufferView": 1,
      "byteOffset": 35568,
      "componentType": 5126,
      "count": 100,
      "max": [
        0.4154619872570038,
        0.8832700252532959
      ],
      "min": [
        0.14354099333286285,
        0.0
      ],
      "type": "VEC2"
    },
    {
      "bufferView": 0,
      "byteOffset": 54936,
      "componentType": 5125,
      "count": 330,
      "type": "SCALAR"
    },
    {
      "bufferView": 2,
      "byteOffset": 109104,
      "componentType": 5126,
      "count": 100,
      "max": [
        -0.011550200171768665,
        0.07300449907779694,
        0.7469800114631653
      ],
      "min": [
        -0.09622610360383987,
        0.04431679844856262,
        0.6988589763641357
      ],
      "type": "VEC3"
    },
    {
      "bufferView": 2,
      "byteOffset": 110304,
      "componentType": 5126,
      "count": 100,
      "max": [
        0.9998970031738281,
        0.9997819066047668,
        0.9999690055847168
      ],
      "min": [
        -0.9998970031738281,
        0.0,
        -0.9999690055847168
      ],
      "type": "VEC3"
    },
    {
      "bufferView": 3,
      "byteOffset": 72736,
      "componentType": 5126,
      "count": 100,
      "max": [
        0.9999496936798096,
        1.0,
        0.21428954601287842,
        1.0
      ],
      "min": [
        -0.022632788866758347,
        -1.0,
        -0.2137981653213501,
        1.0
      ],
      "type": "VEC4"
    },
    {
      "bufferView": 1,
      "byteOffset": 36368,
      "componentType": 5126,
      "count": 100,
      "max": [
        0.4154619872570038,
        0.8832700252532959
      ],
      "min": [
        0.07892400026321411,
        0.0
      ],
      "type": "VEC2"
    },
    {
      "bufferView": 0,
      "byteOffset": 56256,
      "componentType": 5125,
      "count": 330,
      "type": "SCALAR"
    },
    {
      "bufferView": 2,
      "byteOffset": 111504,
      "componentType": 5126,
      "count": 100,
      "max": [
        -0.11845099925994873,
        0.07300449907779694,
        0.7469800114631653
      ],
      "min": [
        -0.20312699675559998,
        0.04431679844856262,
        0.6988589763641357
      ],
      "type": "VEC3"
    },
    {
      "bufferView": 2,
      "byteOffset": 112704,
      "componentType": 5126,
      "count": 100,
      "max": [
        0.9998970031738281,
        0.9997819066047668,
        0.9999690055847168
      ],
      "min": [
        -0.9998970031738281,
        0.0,
        -0.9999690055847168
      ],
      "type": "VEC3"
    },
    {
      "bufferView": 3,
      "byteOffset": 74336,
      "componentType": 5126,
      "count": 100,
      "max": [
        0.9999496936798096,
        1.0,
        0.21439287066459656,
        1.0
      ],
      "min": [
        -0.022632790729403496,
        -1.0,
        -0.21376505494117737,
        1.0
      ],
      "type": "VEC4"
    },
    {
      "bufferView": 1,
      "byteOffset": 37168,
      "componentType": 5126,
      "count": 100,
      "max": [
        0.4154619872570038,
        0.8832700252532959
      ],
      "min": [
        0.014306999742984772,
        0.0
      ],
      "type": "VEC2"
    },
    {
      "bufferView": 0,
      "byteOffset": 57576,
      "componentType": 5125,
      "count": 330,
      "type": "SCALAR"
    },
    {
      "bufferView": 2,
      "byteOffset": 113904,
      "componentType": 5126,
      "count": 100,
      "max": [
        0.21208399534225464,
        0.07352049648761749,
        0.6549959778785706
      ],
      "min": [
        0.0839196965098381,
        0.043800801038742065,
        0.6002810001373291
      ],
      "type": "VEC3"
    },
    {
      "bufferView": 2,
      "byteOffset": 115104,
      "componentType": 5126,
      "count": 100,
      "max": [
        0.9998174905776978,
        0.9998357892036438,
        0.9999825358390808
      ],
      "min": [
        -0.9998174905776978,
        0.0,
        -0.9999825358390808
      ],
      "type": "VEC3"
    },
    {
      "bufferView": 3,
      "byteOffset": 75936,
      "componentType": 5126,
      "count": 100,
      "max": [
        0.9999766945838928,
        1.0,
        0.23463137447834015,
        1.0
      ],
      "min": [
        -0.0330183207988739,
        -1.0,
        -0.22051231563091278,
        1.0
      ],
      "type": "VEC4"
    },
    {
      "bufferView": 1,
      "byteOffset": 37968,
      "componentType": 5126,
      "count": 100,
      "max": [
        0.3965489864349365,
        0.8832700252532959
      ],
      "min": [
        0.18781499564647675,
        0.05402199923992157
      ],
      "type": "VEC2"
    },
    {
      "bufferView": 0,
      "byteOffset": 58896,
      "componentType": 5125,
      "count": 330,
      "type": "SCALAR"
    },
    {
      "bufferView": 2,
      "byteOffset": 116304,
      "componentType": 5126,
      "count": 100,
      "max": [
        -0.11119099706411362,
        0.07143869996070862,
        -0.7034810185432434
      ],
      "min": [
        -0.20556800067424774,
        0.04588260129094124,
        -0.750531017780304
      ],
      "type": "VEC3"
    },
    {
      "bufferView": 2,
      "byteOffset": 117504,
      "componentType": 5126,
      "count": 100,
      "max": [
        0.9998661279678345,
        0.9998277425765991,
        0.9999762177467346
      ],
      "min": [
        -0.9998661279678345,
        0.0,
        -0.9999762177467346
      ],
      "type": "VEC3"
    },
    {
      "bufferView": 3,
      "byteOffset": 77536,
      "componentType": 5126,
      "count": 100,
      "max": [
        0.9999682307243347,
        1.0,
        0.2355642169713974,
        1.0
      ],
      "min": [
        -0.028297411277890205,
        -1.0,
        -0.2121930569410324,
        1.0
      ],
      "type": "VEC4"
    },
    {
      "bufferView": 1,
      "byteOffset": 38768,
      "componentType": 5126,
      "count": 100,
      "max": [
        0.41339099407196045,
        0.8832700252532959
      ],
      "min": [
        0.012830999679863453,
        0.7547320127487183
      ],
      "type": "VEC2"
    },
    {
      "bufferView": 0,
      "byteOffset": 60216,
      "componentType": 5125,
      "count": 330,
      "type": "SCALAR"
    },
    {
      "bufferView": 2,
      "byteOffset": 118704,
      "componentType": 5126,
      "count": 100,
      "max": [
        0.1971299946308136,
        0.07143869996070862,
        -0.7034810185432434
      ],
      "min": [
        0.10275200009346008,
        0.04588260129094124,
        -0.750531017780304
      ],
      "type": "VEC3"
    },
    {
      "bufferView": 2,
      "byteOffset": 119904,
      "componentType": 5126,
      "count": 100,
      "max": [
        0.9998661279678345,
        0.9998277425765991,
        0.9999762177467346
      ],
      "min": [
        -0.9998661279678345,
        0.0,
        -0.9999762177467346
      ],
      "type": "VEC3"
    },
    {
      "bufferView": 3,
      "byteOffset": 79136,
      "componentType": 5126,
      "count": 100,
      "max": [
        0.9999682307243347,
        1.0,
        0.23567691445350647,
        1.0
      ],
      "min": [
        -0.028297405689954758,
        -1.0,
        -0.21206863224506378,
        1.0
      ],
      "type": "VEC4"
    },
    {
      "bufferView": 1,
      "byteOffset": 39568,
      "componentType": 5126,
      "count": 100,
      "max": [
        0.41339099407196045,
        0.8832700252532959
      ],
      "min": [
        0.19919799268245697,
        0.7547320127487183
      ],
      "type": "VEC2"
    },
    {
      "bufferView": 0,
      "byteOffset": 61536,
      "componentType": 5125,
      "count": 330,
      "type": "SCALAR"
    },
    {
      "bufferView": 2,
      "byteOffset": 121104,
      "componentType": 5126,
      "count": 100,
      "max": [
        -0.008416970260441303,
        0.07143869996070862,
        -0.7034810185432434
      ],
      "min": [
        -0.10279499739408493,
        0.04588260129094124,
        -0.750531017780304
      ],
      "type": "VEC3"
    },
    {
      "bufferView": 2,
      "byteOffset": 122304,
      "componentType": 5126,
      "count": 100,
      "max": [
        0.9998661279678345,
        0.9998277425765991,
        0.9999762177467346
      ],
      "min": [
        -0.9998661279678345,
        0.0,
        -0.9999762177467346
      ],
      "type": "VEC3"
    },
    {
      "bufferView": 3,
      "byteOffset": 80736,
      "componentType": 5126,
      "count": 100,
      "max": [
        0.9999682307243347,
        1.0,
        0.23580829799175262,
        1.0
      ],
      "min": [
        -0.028297409415245056,
        -1.0,
        -0.21213984489440918,
        1.0
      ],
      "type": "VEC4"
    },
    {
      "bufferView": 1,
      "byteOffset": 40368,
      "componentType": 5126,
      "count": 100,
      "max": [
        0.41339200735092163,
        0.8832700252532959
      ],
      "min": [
        0.07495400309562683,
        0.7547320127487183
      ],
      "type": "VEC2"
    },
    {
      "bufferView": 0,
      "byteOffset": 62856,
      "componentType": 5125,
      "count": 330,
      "type": "SCALAR"
    }
  ],
  "asset": {
    "extras": {
      "author": "Vijaysarathi (https://sketchfab.com/vjprojects2020)",
      "license": "CC-BY-4.0 (http://creativecommons.org/licenses/by/4.0/)",
      "source": "https://sketchfab.com/3d-models/tv-remote-2924224f899b43de93e9fd43c9a0a079",
      "title": "TV Remote"
    },
    "generator": "Sketchfab-16.95.0",
    "version": "2.0"
  },
  "bufferViews": [
    {
      "buffer": 0,
      "byteLength": 64176,
      "name": "floatBufferViews",
      "target": 34963
    },
    {
      "buffer": 0,
      "byteLength": 41168,
      "byteOffset": 64176,
      "byteStride": 8,
      "name": "floatBufferViews",
      "target": 34962
    },
    {
      "buffer": 0,
      "byteLength": 123504,
      "byteOffset": 105344,
      "byteStride": 12,
      "name": "floatBufferViews",
      "target": 34962
    },
    {
      "buffer": 0,
      "byteLength": 82336,
      "byteOffset": 228848,
      "byteStride": 16,
      "name": "floatBufferViews",
      "target": 34962
    }
  ],
  "buffers": [
    {
      "byteLength": 311184,
      "uri": "scene.bin"
    }
  ],
  "images": [
    {
      "uri": "textures/blinn1SG_baseColor.jpeg"
    },
    {
      "uri": "textures/blinn1SG_metallicRoughness.png"
    },
    {
      "uri": "textures/blinn1SG_normal.png"
    }
  ],
  "materials": [
    {
      "doubleSided": true,
      "name": "blinn1SG",
      "normalTexture": {
        "index": 2
      },
      "occlusionTexture": {
        "index": 1
      },
      "pbrMetallicRoughness": {
        "baseColorTexture": {
          "index": 0
        },
        "metallicRoughnessTexture": {
          "index": 1
        }
      }
    }
  ],
  "meshes": [
    {
      "name": "defaultMaterial",
      "primitives": [
        {
          "attributes": {
            "NORMAL": 1,
            "POSITION": 0,
            "TANGENT": 2,
            "TEXCOORD_0": 3
          },
          "indices": 4,
          "material": 0,
          "mode": 4
        }
      ]
    },
    {
      "name": "defaultMaterial",
      "primitives": [
        {
          "attributes": {
            "NORMAL": 6,
            "POSITION": 5,
            "TANGENT": 7,
            "TEXCOORD_0": 8
          },
          "indices": 9,
          "material": 0,
          "mode": 4
        }
      ]
    },
    {
      "name": "defaultMaterial",
      "primitives": [
        {
          "attributes": {
            "NORMAL": 11,
            "POSITION": 10,
            "TANGENT": 12,
            "TEXCOORD_0": 13
          },
          "indices": 14,
          "material": 0,
          "mode": 4
        }
      ]
    },
    {
      "name": "defaultMaterial",
      "primitives": [
        {
          "attributes": {
            "NORMAL": 16,
            "POSITION": 15,
            "TANGENT": 17,
            "TEXCOORD_0": 18
          },
          "indices": 19,
          "material": 0,
          "mode": 4
        }
      ]
    },
    {
      "name": "defaultMaterial",
      "primitives": [
        {
          "attributes": {
            "NORMAL": 21,
            "POSITION": 20,
            "TANGENT": 22,
            "TEXCOORD_0": 23
          },
          "indices": 24,
          "material": 0,
          "mode": 4
        }
      ]
    },
    {
      "name": "defaultMaterial",
      "primitives": [
        {
          "attributes": {
            "NORMAL": 26,
            "POSITION": 25,
            "TANGENT": 27,
            "TEXCOORD_0": 28
          },
          "indices": 29,
          "material": 0,
          "mode": 4
        }
      ]
    },
    {
      "name": "defaultMaterial",
      "primitives": [
        {
          "attributes": {
            "NORMAL": 31,
            "POSITION": 30,
            "TANGENT": 32,
            "TEXCOORD_0": 33
          },
          "indices": 34,
          "material": 0,
          "mode": 4
        }
      ]
    },
    {
      "name": "defaultMaterial",
      "primitives": [
        {
          "attributes": {
            "NORMAL": 36,
            "POSITION": 35,
            "TANGENT": 37,
            "TEXCOORD_0": 38
          },
          "indices": 39,
          "material": 0,
          "mode": 4
        }
      ]
    },
    {
      "name": "defaultMaterial",
      "primitives": [
        {
          "attributes": {
            "NORMAL": 41,
            "POSITION": 40,
            "TANGENT": 42,
            "TEXCOORD_0": 43
          },
          "indices": 44,
          "material": 0,
          "mode": 4
        }
      ]
    },
    {
      "name": "defaultMaterial",
      "primitives": [
        {
          "attributes": {
            "NORMAL": 46,
            "POSITION": 45,
            "TANGENT": 47,
            "TEXCOORD_0": 48
          },
          "indices": 49,
          "material": 0,
          "mode": 4
        }
      ]
    },
    {
      "name": "defaultMaterial",
      "primitives": [
        {
          "attributes": {
            "NORMAL": 51,
            "POSITION": 50,
            "TANGENT": 52,
            "TEXCOORD_0": 53
          },
          "indices": 54,
          "material": 0,
          "mode": 4
        }
      ]
    },
    {
      "name": "defaultMaterial",
      "primitives": [
        {
          "attributes": {
            "NORMAL": 56,
            "POSITION": 55,
            "TANGENT": 57,
            "TEXCOORD_0": 58
          },
          "indices": 59,
          "material": 0,
          "mode": 4
        }
      ]
    },
    {
      "name": "defaultMaterial",
      "primitives": [
        {
          "attributes": {
            "NORMAL": 61,
            "POSITION": 60,
            "TANGENT": 62,
            "TEXCOORD_0": 63
          },
          "indices": 64,
          "material": 0,
          "mode": 4
        }
      ]
    },
    {
      "name": "defaultMaterial",
      "primitives": [
        {
          "attributes": {
            "NORMAL": 66,
            "POSITION": 65,
            "TANGENT": 67,
            "TEXCOORD_0": 68
          },
          "indices": 69,
          "material": 0,
          "mode": 4
        }
      ]
    },
    {
      "name": "defaultMaterial",
      "primitives": [
        {
          "attributes": {
            "NORMAL": 71,
            "POSITION": 70,
            "TANGENT": 72,
            "TEXCOORD_0": 73
          },
          "indices": 74,
          "material": 0,
          "mode": 4
        }
      ]
    },
    {
      "name": "defaultMaterial",
      "primitives": [
        {
          "attributes": {
            "NORMAL": 76,
            "POSITION": 75,
            "TANGENT": 77,
            "TEXCOORD_0": 78
          },
          "indices": 79,
          "material": 0,
          "mode": 4
        }
      ]
    },
    {
      "name": "defaultMaterial",
      "primitives": [
        {
          "attributes": {
            "NORMAL": 81,
            "POSITION": 80,
            "TANGENT": 82,
            "TEXCOORD_0": 83
          },
          "indices": 84,
          "material": 0,
          "mode": 4
        }
      ]
    },
    {
      "name": "defaultMaterial",
      "primitives": [
        {
          "attributes": {
            "NORMAL": 86,
            "POSITION": 85,
            "TANGENT": 87,
            "TEXCOORD_0": 88
          },
          "indices": 89,
          "material": 0,
          "mode": 4
        }
      ]
    },
    {
      "name": "defaultMaterial",
      "primitives": [
        {
          "attributes": {
            "NORMAL": 91,
            "POSITION": 90,
            "TANGENT": 92,
            "TEXCOORD_0": 93
          },
          "indices": 94,
          "material": 0,
          "mode": 4
        }
      ]
    },
    {
      "name": "defaultMaterial",
      "primitives": [
        {
          "attributes": {
            "NORMAL": 96,
            "POSITION": 95,
            "TANGENT": 97,
            "TEXCOORD_0": 98
          },
          "indices": 99,
          "material": 0,
          "mode": 4
        }
      ]
    },
    {
      "name": "defaultMaterial",
      "primitives": [
        {
          "attributes": {
            "NORMAL": 101,
            "POSITION": 100,
            "TANGENT": 102,
            "TEXCOORD_0": 103
          },
          "indices": 104,
          "material": 0,
          "mode": 4
        }
      ]
    },
    {
      "name": "defaultMaterial",
      "primitives": [
        {
          "attributes": {
            "NORMAL": 106,
            "POSITION": 105,
            "TANGENT": 107,
            "TEXCOORD_0": 108
          },
          "indices": 109,
          "material": 0,
          "mode": 4
        }
      ]
    },
    {
      "name": "defaultMaterial",
      "primitives": [
        {
          "attributes": {
            "NORMAL": 111,
            "POSITION": 110,
            "TANGENT": 112,
            "TEXCOORD_0": 113
          },
          "indices": 114,
          "material": 0,
          "mode": 4
        }
      ]
    },
    {
      "name": "defaultMaterial",
      "primitives": [
        {
          "attributes": {
            "NORMAL": 116,
            "POSITION": 115,
            "TANGENT": 117,
            "TEXCOORD_0": 118
          },
          "indices": 119,
          "material": 0,
          "mode": 4
        }
      ]
    },
    {
      "name": "defaultMaterial",
      "primitives": [
        {
          "attributes": {
            "NORMAL": 121,
            "POSITION": 120,
            "TANGENT": 122,
            "TEXCOORD_0": 123
          },
          "indices": 124,
          "material": 0,
          "mode": 4
        }
      ]
    },
    {
      "name": "defaultMaterial",
      "primitives": [
        {
          "attributes": {
            "NORMAL": 126,
            "POSITION": 125,
            "TANGENT": 127,
            "TEXCOORD_0": 128
          },
          "indices": 129,
          "material": 0,
          "mode": 4
        }
      ]
    },
    {
      "name": "defaultMaterial",
      "primitives": [
        {
          "attributes": {
            "NORMAL": 131,
            "POSITION": 130,
            "TANGENT": 132,
            "TEXCOORD_0": 133
          },
          "indices": 134,
          "material": 0,
          "mode": 4
        }
      ]
    },
    {
      "name": "defaultMaterial",
      "primitives": [
        {
          "attributes": {
            "NORMAL": 136,
            "POSITION": 135,
            "TANGENT": 137,
            "TEXCOORD_0": 138
          },
          "indices": 139,
          "material": 0,
          "mode": 4
        }
      ]
    },
    {
      "name": "defaultMaterial",
      "primitives": [
        {
          "attributes": {
            "NORMAL": 141,
            "POSITION": 140,
            "TANGENT": 142,
            "TEXCOORD_0": 143
          },
          "indices": 144,
          "material": 0,
          "mode": 4
        }
      ]
    },
    {
      "name": "defaultMaterial",
      "primitives": [
        {
          "attributes": {
            "NORMAL": 146,
            "POSITION": 145,
            "TANGENT": 147,
            "TEXCOORD_0": 148
          },
          "indices": 149,
          "material": 0,
          "mode": 4
        }
      ]
    },
    {
      "name": "defaultMaterial",
      "primitives": [
        {
          "attributes": {
            "NORMAL": 151,
            "POSITION": 150,
            "TANGENT": 152,
            "TEXCOORD_0": 153
          },
          "indices": 154,
          "material": 0,
          "mode": 4
        }
      ]
    },
    {
      "name": "defaultMaterial",
      "primitives": [
        {
          "attributes": {
            "NORMAL": 156,
            "POSITION": 155,
            "TANGENT": 157,
            "TEXCOORD_0": 158
          },
          "indices": 159,
          "material": 0,
          "mode": 4
        }
      ]
    },
    {
      "name": "defaultMaterial",
      "primitives": [
        {
          "attributes": {
            "NORMAL": 161,
            "POSITION": 160,
            "TANGENT": 162,
            "TEXCOORD_0": 163
          },
          "indices": 164,
          "material": 0,
          "mode": 4
        }
      ]
    },
    {
      "name": "defaultMaterial",
      "primitives": [
        {
          "attributes": {
            "NORMAL": 166,
            "POSITION": 165,
            "TANGENT": 167,
            "TEXCOORD_0": 168
          },
          "indices": 169,
          "material": 0,
          "mode": 4
        }
      ]
    },
    {
      "name": "defaultMaterial",
      "primitives": [
        {
          "attributes": {
            "NORMAL": 171,
            "POSITION": 170,
            "TANGENT": 172,
            "TEXCOORD_0": 173
          },
          "indices": 174,
          "material": 0,
          "mode": 4
        }
      ]
    },
    {
      "name": "defaultMaterial",
      "primitives": [
        {
          "attributes": {
            "NORMAL": 176,
            "POSITION": 175,
            "TANGENT": 177,
            "TEXCOORD_0": 178
          },
          "indices": 179,
          "material": 0,
          "mode": 4
        }
      ]
    },
    {
      "name": "defaultMaterial",
      "primitives": [
        {
          "attributes": {
            "NORMAL": 181,
            "POSITION": 180,
            "TANGENT": 182,
            "TEXCOORD_0": 183
          },
          "indices": 184,
          "material": 0,
          "mode": 4
        }
      ]
    },
    {
      "name": "defaultMaterial",
      "primitives": [
        {
          "attributes": {
            "NORMAL": 186,
            "POSITION": 185,
            "TANGENT": 187,
            "TEXCOORD_0": 188
          },
          "indices": 189,
          "material": 0,
          "mode": 4
        }
      ]
    },
    {
      "name": "defaultMaterial",
      "primitives": [
        {
          "attributes": {
            "NORMAL": 191,
            "POSITION": 190,
            "TANGENT": 192,
            "TEXCOORD_0": 193
          },
          "indices": 194,
          "material": 0,
          "mode": 4
        }
      ]
    },
    {
      "name": "defaultMaterial",
      "primitives": [
        {
          "attributes": {
            "NORMAL": 196,
            "POSITION": 195,
            "TANGENT": 197,
            "TEXCOORD_0": 198
          },
          "indices": 199,
          "material": 0,
          "mode": 4
        }
      ]
    },
    {
      "name": "defaultMaterial",
      "primitives": [
        {
          "attributes": {
            "NORMAL": 201,
            "POSITION": 200,
            "TANGENT": 202,
            "TEXCOORD_0": 203
          },
          "indices": 204,
          "material": 0,
          "mode": 4
        }
      ]
    },
    {
      "name": "defaultMaterial",
      "primitives": [
        {
          "attributes": {
            "NORMAL": 206,
            "POSITION": 205,
            "TANGENT": 207,
            "TEXCOORD_0": 208
          },
          "indices": 209,
          "material": 0,
          "mode": 4
        }
      ]
    },
    {
      "name": "defaultMaterial",
      "primitives": [
        {
          "attributes": {
            "NORMAL": 211,
            "POSITION": 210,
            "TANGENT": 212,
            "TEXCOORD_0": 213
          },
          "indices": 214,
          "material": 0,
          "mode": 4
        }
      ]
    },
    {
      "name": "defaultMaterial",
      "primitives": [
        {
          "attributes": {
            "NORMAL": 216,
            "POSITION": 215,
            "TANGENT": 217,
            "TEXCOORD_0": 218
          },
          "indices": 219,
          "material": 0,
          "mode": 4
        }
      ]
    },
    {
      "name": "defaultMaterial",
      "primitives": [
        {
          "attributes": {
            "NORMAL": 221,
            "POSITION": 220,
            "TANGENT": 222,
            "TEXCOORD_0": 223
          },
          "indices": 224,
          "material": 0,
          "mode": 4
        }
      ]
    },
    {
      "name": "defaultMaterial",
      "primitives": [
        {
          "attributes": {
            "NORMAL": 226,
            "POSITION": 225,
            "TANGENT": 227,
            "TEXCOORD_0": 228
          },
          "indices": 229,
          "material": 0,
          "mode": 4
        }
      ]
    },
    {
      "name": "defaultMaterial",
      "primitives": [
        {
          "attributes": {
            "NORMAL": 231,
            "POSITION": 230,
            "TANGENT": 232,
            "TEXCOORD_0": 233
          },
          "indices": 234,
          "material": 0,
          "mode": 4
        }
      ]
    },
    {
      "name": "defaultMaterial",
      "primitives": [
        {
          "attributes": {
            "NORMAL": 236,
            "POSITION": 235,
            "TANGENT": 237,
            "TEXCOORD_0": 238
          },
          "indices": 239,
          "material": 0,
          "mode": 4
        }
      ]
    }
  ],
  "nodes": [
    {
      "children": [
        1
      ],
      "matrix": [
        1.0,
        0.0,
        0.0,
        0.0,
        0.0,
        2.220446049250313e-16,
        -1.0,
        0.0,
        0.0,
        1.0,
        2.220446049250313e-16,
        0.0,
        0.0,
        0.0,
        0.0,
        1.0
      ],
      "name": "Sketchfab_model"
    },
    {
      "children": [
        2,
        4,
        6,
        8,
        10,
        12,
        14,
        16,
        18,
        20,
        22,
        24,
        26,
        28,
        30,
        32,
        34,
        36,
        38,
        40,
        42,
        44,
        46,
        48,
        50,
        52,
        54,
        56,
        58,
        60,
        62,
        64,
        66,
        68,
        70,
        72,
        74,
        76,
        78,
        80,
        82,
        84,
        86,
        88,
        90,
        92,
        94,
        96
      ],
      "matrix": [
        1.0,
        0.0,
        0.0,
        0.0,
        0.0,
        -4.371139006309477e-08,
        0.999999999999999,
        0.0,
        0.0,
        -0.999999999999999,
        -4.371139006309477e-08,
        0.0,
        0.0,
        0.0,
        0.0,
        1.0
      ],
      "name": "Collada visual scene group"
    },
    {
      "children": [
        3
      ],
      "name": "g"
    },
    {
      "mesh": 0,
      "name": "defaultMaterial"
    },
    {
      "children": [
        5
      ],
      "name": "g"
    },
    {
      "mesh": 1,
      "name": "defaultMaterial"
    },
    {
      "children": [
        7
      ],
      "name": "g"
    },
    {
      "mesh": 2,
      "name": "defaultMaterial"
    },
    {
      "children": [
        9
      ],
      "name": "g"
    },
    {
      "mesh": 3,
      "name": "defaultMaterial"
    },
    {
      "children": [
        11
      ],
      "name": "g"
    },
    {
      "mesh": 4,
      "name": "defaultMaterial"
    },
    {
      "children": [
        13
      ],
      "name": "g"
    },
    {
      "mesh": 5,
      "name": "defaultMaterial"
    },
    {
      "children": [
        15
      ],
      "name": "g"
    },
    {
      "mesh": 6,
      "name": "defaultMaterial"
    },
    {
      "children": [
        17
      ],
      "name": "g"
    },
    {
      "mesh": 7,
      "name": "defaultMaterial"
    },
    {
      "children": [
        19
      ],
      "name": "g"
    },
    {
      "mesh": 8,
      "name": "defaultMaterial"
    },
    {
      "children": [
        21
      ],
      "name": "g"
    },
    {
      "mesh": 9,
      "name": "defaultMaterial"
    },
    {
      "children": [
        23
      ],
      "name": "g"
    },
    {
      "mesh": 10,
      "name": "defaultMaterial"
    },
    {
      "children": [
        25
      ],
      "name": "g"
    },
    {
      "mesh": 11,
      "name": "defaultMaterial"
    },
    {
      "children": [
        27
      ],
      "name": "g"
    },
    {
      "mesh": 12,
      "name": "defaultMaterial"
    },
    {
      "children": [
        29
      ],
      "name": "g"
    },
    {
      "mesh": 13,
      "name": "defaultMaterial"
    },
    {
      "children": [
        31
      ],
      "name": "g"
    },
    {
      "mesh": 14,
      "name": "defaultMaterial"
    },
    {
      "children": [
        33
      ],
      "name": "g"
    },
    {
      "mesh": 15,
      "name": "defaultMaterial"
    },
    {
      "children": [
        35
      ],
      "name": "g"
    },
    {
      "mesh": 16,
      "name": "defaultMaterial"
    },
    {
      "children": [
        37
      ],
      "name": "g"
    },
    {
      "mesh": 17,
      "name": "defaultMaterial"
    },
    {
      "children": [
        39
      ],
      "name": "g"
    },
    {
      "mesh": 18,
      "name": "defaultMaterial"
    },
    {
      "children": [
        41
      ],
      "name": "g"
    },
    {
      "mesh": 19,
      "name": "defaultMaterial"
    },
    {
      "children": [
        43
      ],
      "name": "g"
    },
    {
      "mesh": 20,
      "name": "defaultMaterial"
    },
    {
      "children": [
        45
      ],
      "name": "g"
    },
    {
      "mesh": 21,
      "name": "defaultMaterial"
    },
    {
      "children": [
        47
      ],
      "name": "g"
    },
    {
      "mesh": 22,
      "name": "defaultMaterial"
    },
    {
      "children": [
        49
      ],
      "name": "g"
    },
    {
      "mesh": 23,
      "name": "defaultMaterial"
    },
    {
      "children": [
        51
      ],
      "name": "g"
    },
    {
      "mesh": 24,
      "name": "defaultMaterial"
    },
    {
      "children": [
        53
      ],
      "name": "g"
    },
    {
      "mesh": 25,
      "name": "defaultMaterial"
    },
    {
      "children": [
        55
      ],
      "name": "g"
    },
    {
      "mesh": 26,
      "name": "defaultMaterial"
    },
    {
      "children": [
        57
      ],
      "name": "g"
    },
    {
      "mesh": 27,
      "name": "defaultMaterial"
    },
    {
      "children": [
        59
      ],
      "name": "g"
    },
    {
      "mesh": 28,
      "name": "defaultMaterial"
    },
    {
      "children": [
        61
      ],
      "name": "g"
    },
    {
      "mesh": 29,
      "name": "defaultMaterial"
    },
    {
      "children": [
        63
      ],
      "name": "g"
    },
    {
      "mesh": 30,
      "name": "defaultMaterial"
    },
    {
      "children": [
        65
      ],
      "name": "g"
    },
    {
      "mesh": 31,
      "name": "defaultMaterial"
    },
    {
      "children": [
        67
      ],
      "name": "g"
    },
    {
      "mesh": 32,
      "name": "defaultMaterial"
    },
    {
      "children": [
        69
      ],
      "name": "g"
    },
    {
      "mesh": 33,
      "name": "defaultMaterial"
    },
    {
      "children": [
        71
      ],
      "name": "g"
    },
    {
      "mesh": 34,
      "name": "defaultMaterial"
    },
    {
      "children": [
        73
      ],
      "name": "g"
    },
    {
      "mesh": 35,
      "name": "defaultMaterial"
    },
    {
      "children": [
        75
      ],
      "name": "g"
    },
    {
      "mesh": 36,
      "name": "defaultMaterial"
    },
    {
      "children": [
        77
      ],
      "name": "g"
    },
    {
      "mesh": 37,
      "name": "defaultMaterial"
    },
    {
      "children": [
        79
      ],
      "name": "g"
    },
    {
      "mesh": 38,
      "name": "defaultMaterial"
    },
    {
      "children": [
        81
      ],
      "name": "g"
    },
    {
      "mesh": 39,
      "name": "defaultMaterial"
    },
    {
      "children": [
        83
      ],
      "name": "g"
    },
    {
      "mesh": 40,
      "name": "defaultMaterial"
    },
    {
      "children": [
        85
      ],
      "name": "g"
    },
    {
      "mesh": 41,
      "name": "defaultMaterial"
    },
    {
      "children": [
        87
      ],
      "name": "g"
    },
    {
      "mesh": 42,
      "name": "defaultMaterial"
    },
    {
      "children": [
        89
      ],
      "name": "g"
    },
    {
      "mesh": 43,
      "name": "defaultMaterial"
    },
    {
      "children": [
        91
      ],
      "name": "g"
    },
    {
      "mesh": 44,
      "name": "defaultMaterial"
    },
    {
      "children": [
        93
      ],
      "name": "g"
    },
    {
      "mesh": 45,
      "name": "defaultMaterial"
    },
    {
      "children": [
        95
      ],
      "name": "g"
    },
    {
      "mesh": 46,
      "name": "defaultMaterial"
    },
    {
      "children": [
        97
      ],
      "name": "g"
    },
    {
      "mesh": 47,
      "name": "defaultMaterial"
    }
  ],
  "samplers": [
    {
      "magFilter": 9729,
      "minFilter": 9987,
      "wrapS": 10497,
      "wrapT": 10497
    }
  ],
  "scene": 0,
  "scenes": [
    {
      "name": "Sketchfab_Scene",
      "nodes": [
        0
      ]
    }
  ],
  "textures": [
    {
      "sampler": 0,
      "source": 0
    },
    {
      "sampler": 0,
      "source": 1
    },
    {
      "sampler": 0,
      "source": 2
    }
  ]
}
