{
  "accessors": [
    {
      "bufferView": 2,
      "componentType": 5126,
      "count": 14378,
      "max": [
        0.03400301933288574,
        0.15106536448001862,
        0.1292516440153122
      ],
      "min": [
        -0.033881884068250656,
        -0.15106536448001862,
        -0.09427476674318314
      ],
      "type": "VEC3"
    },
    {
      "bufferView": 2,
      "byteOffset": 172536,
      "componentType": 5126,
      "count": 14378,
      "max": [
        1.0,
        1.0,
        1.0
      ],
      "min": [
        -1.0,
        -1.0,
        -1.0
      ],
      "type": "VEC3"
    },
    {
      "bufferView": 3,
      "componentType": 5126,
      "count": 14378,
      "max": [
        1.0,
        1.0,
        1.0,
        1.0
      ],
      "min": [
        -1.0,
        -1.0,
        -1.0,
        -1.0
      ],
      "type": "VEC4"
    },
    {
      "bufferView": 1,
      "componentType": 5126,
      "count": 14378,
      "max": [
        0.9982142448425293,
        1.0000001192092896
      ],
      "min": [
        0.00026970088947564363,
        0.00013186229625716805
      ],
      "type": "VEC2"
    },
    {
      "bufferView": 1,
      "byteOffset": 115024,
      "componentType": 5126,
      "count": 14378,
      "max": [
        0.9982142448425293,
        1.0000001192092896
      ],
      "min": [
        0.00026970088947564363,
        0.00013186229625716805
      ],
      "type": "VEC2"
    },
    {
      "bufferView": 1,
      "byteOffset": 230048,
      "componentType": 5126,
      "count": 14378,
      "max": [
        0.9982142448425293,
        1.0000001192092896
      ],
      "min": [
        0.00026970088947564363,
        0.00013186229625716805
      ],
      "type": "VEC2"
    },
    {
      "bufferView": 1,
      "byteOffset": 345072,
      "componentType": 5126,
      "count": 14378,
      "max": [
        0.9982142448425293,
        1.0000001192092896
      ],
      "min": [
        0.00026970088947564363,
        0.00013186229625716805
      ],
      "type": "VEC2"
    },
    {
      "bufferView": 0,
      "componentType": 5125,
      "count": 64506,
      "type": "SCALAR"
    }
  ],
  "asset": {
    "extras": {
      "author": "3DMOAN (https://sketchfab.com/3DMOAN)",
      "license": "CC-BY-4.0 (http://creativecommons.org/licenses/by/4.0/)",
      "source": "https://sketchfab.com/3d-models/rugged-sci-fi-tactical-military-tablet-f7d8e3c008e24e0c9b32748b3d6105f1",
      "title": "Rugged Sci-Fi Tactical Military Tablet"
    },
    "generator": "Sketchfab-0.2.0",
    "version": "2.0"
  },
  "bufferViews": [
    {
      "buffer": 0,
      "byteLength": 258024,
      "name": "floatBufferViews",
      "target": 34963
    },
    {
      "buffer": 0,
      "byteLength": 460096,
      "byteOffset": 258024,
      "byteStride": 8,
      "name": "floatBufferViews",
      "target": 34962
    },
    {
      "buffer": 0,
      "byteLength": 345072,
      "byteOffset": 718120,
      "byteStride": 12,
      "name": "floatBufferViews",
      "target": 34962
    },
    {
      "buffer": 0,
      "byteLength": 230048,
      "byteOffset": 1063192,
      "byteStride": 16,
      "name": "floatBufferViews",
      "target": 34962
    }
  ],
  "buffers": [
    {
      "byteLength": 1293240,
      "uri": "scene.bin"
    }
  ],
  "images": [
    {
      "uri": "textures/Material_baseColor.jpeg"
    },
    {
      "uri": "textures/Material_metallicRoughness.png"
    },
    {
      "uri": "textures/Material_emissive.jpeg"
    },
    {
      "uri": "textures/Material_normal.png"
    }
  ],
  "materials": [
    {
      "doubleSided": true,
      "emissiveFactor": [
        1.0,
        1.0,
        1.0
      ],
      "emissiveTexture": {
        "index": 2
      },
      "name": "Material",
      "normalTexture": {
        "index": 3
      },
      "pbrMetallicRoughness": {
        "baseColorTexture": {
          "index": 0
        },
        "metallicRoughnessTexture": {
          "index": 1
        }
      }
    }
  ],
  "meshes": [
    {
      "name": "battery_frame_low_Material_0",
      "primitives": [
        {
          "attributes": {
            "NORMAL": 1,
            "POSITION": 0,
            "TANGENT": 2,
            "TEXCOORD_0": 3,
            "TEXCOORD_1": 4,
            "TEXCOORD_2": 5,
            "TEXCOORD_3": 6
          },
          "indices": 7,
          "material": 0,
          "mode": 4
        }
      ]
    }
  ],
  "nodes": [
    {
      "children": [
        1
      ],
      "matrix": [
        1.0,
        0.0,
        0.0,
        0.0,
        0.0,
        2.220446049250313e-16,
        -1.0,
        0.0,
        0.0,
        1.0,
        2.220446049250313e-16,
        0.0,
        0.0,
        0.0,
        0.0,
        1.0
      ],
      "name": "Sketchfab_model"
    },
    {
      "children": [
        2
      ],
      "matrix": [
        0.009999999776482582,
        0.0,
        0.0,
        0.0,
        0.0,
        0.0,
        0.009999999776482582,
        0.0,
        0.0,
        -0.009999999776482582,
        0.0,
        0.0,
        0.0,
        0.0,
        0.0,
        1.0
      ],
      "name": "final_mesh.fbx"
    },
    {
      "children": [
        3
      ],
      "name": "RootNode"
    },
    {
      "children": [
        4
      ],
      "matrix": [
        100.0,
        0.0,
        0.0,
        0.0,
        0.0,
        -1.629206793918314e-05,
        -99.99999999999868,
        0.0,
        0.0,
        99.99999999999868,
        -1.629206793918314e-05,
        0.0,
        0.914214551448822,
        -1.1589831113815308,
        0.0654936209321022,
        1.0
      ],
      "name": "battery_frame_low"
    },
    {
      "mesh": 0,
      "name": "battery_frame_low_Material_0"
    }
  ],
  "samplers": [
    {
      "magFilter": 9729,
      "minFilter": 9987,
      "wrapS": 10497,
      "wrapT": 10497
    }
  ],
  "scene": 0,
  "scenes": [
    {
      "name": "Sketchfab_Scene",
      "nodes": [
        0
      ]
    }
  ],
  "textures": [
    {
      "sampler": 0,
      "source": 0
    },
    {
      "sampler": 0,
      "source": 1
    },
    {
      "sampler": 0,
      "source": 2
    },
    {
      "sampler": 0,
      "source": 3
    }
  ]
}
