{
  "accessors": [
    {
      "bufferView": 2,
      "componentType": 5126,
      "count": 748,
      "max": [
        0.5104159116744995,
        0.49462324380874634,
        0.5057200193405151
      ],
      "min": [
        -0.537608802318573,
        -1.001814603805542,
        -0.5094619393348694
      ],
      "type": "VEC3"
    },
    {
      "bufferView": 2,
      "byteOffset": 8976,
      "componentType": 5126,
      "count": 748,
      "max": [
        0.9999998211860657,
        1.0,
        0.999998927116394
      ],
      "min": [
        -0.9999985694885254,
        -1.0,
        -1.0
      ],
      "type": "VEC3"
    },
    {
      "bufferView": 1,
      "componentType": 5126,
      "count": 748,
      "max": [
        0.9552514553070068,
        0.9663074016571045
      ],
      "min": [
        0.05115613341331482,
        0.041389212012290955
      ],
      "type": "VEC2"
    },
    {
      "bufferView": 1,
      "byteOffset": 5984,
      "componentType": 5126,
      "count": 748,
      "max": [
        0.9552514553070068,
        0.9663074016571045
      ],
      "min": [
        0.05115613341331482,
        0.041389212012290955
      ],
      "type": "VEC2"
    },
    {
      "bufferView": 0,
      "componentType": 5125,
      "count": 4080,
      "type": "SCALAR"
    }
  ],
  "asset": {
    "extras": {
      "author": "abdillaamy (https://sketchfab.com/abdillaamy)",
      "license": "CC-BY-4.0 (http://creativecommons.org/licenses/by/4.0/)",
      "source": "https://sketchfab.com/3d-models/closed-newspaper-9844f791b54a4f499adad837237fdf0a",
      "title": "Closed Newspaper"
    },
    "generator": "Sketchfab-12.66.0",
    "version": "2.0"
  },
  "bufferViews": [
    {
      "buffer": 0,
      "byteLength": 16320,
      "name": "floatBufferViews",
      "target": 34963
    },
    {
      "buffer": 0,
      "byteLength": 11968,
      "byteOffset": 16320,
      "byteStride": 8,
      "name": "floatBufferViews",
      "target": 34962
    },
    {
      "buffer": 0,
      "byteLength": 17952,
      "byteOffset": 28288,
      "byteStride": 12,
      "name": "floatBufferViews",
      "target": 34962
    }
  ],
  "buffers": [
    {
      "byteLength": 46240,
      "uri": "scene.bin"
    }
  ],
  "images": [
    {
      "uri": "textures/Newspaper_Texture_baseColor.jpeg"
    }
  ],
  "materials": [
    {
      "doubleSided": true,
      "name": "Newspaper_Texture",
      "pbrMetallicRoughness": {
        "baseColorTexture": {
          "index": 0
        },
        "metallicFactor": 0.0,
        "roughnessFactor": 0.6
      }
    }
  ],
  "meshes": [
    {
      "name": "Closed_NewsPaper1_Newspaper_Texture_0",
      "primitives": [
        {
          "attributes": {
            "NORMAL": 1,
            "POSITION": 0,
            "TEXCOORD_0": 2,
            "TEXCOORD_1": 3
          },
          "indices": 4,
          "material": 0,
          "mode": 4
        }
      ]
    }
  ],
  "nodes": [
    {
      "children": [
        1
      ],
      "matrix": [
        1.0,
        0.0,
        0.0,
        0.0,
        0.0,
        2.220446049250313e-16,
        -1.0,
        0.0,
        0.0,
        1.0,
        2.220446049250313e-16,
        0.0,
        0.0,
        0.0,
        0.0,
        1.0
      ],
      "name": "Sketchfab_model"
    },
    {
      "children": [
        2
      ],
      "matrix": [
        1.0,
        0.0,
        0.0,
        0.0,
        0.0,
        0.0,
        1.0,
        0.0,
        0.0,
        -1.0,
        0.0,
        0.0,
        0.0,
        0.0,
        0.0,
        1.0
      ],
      "name": "a4bc8ce505a94529853347847425549b.fbx"
    },
    {
      "children": [
        3
      ],
      "name": "RootNode"
    },
    {
      "children": [
        4
      ],
      "matrix": [
        18.344175338745117,
        0.0,
        0.0,
        0.0,
        0.0,
        0.7265284061431885,
        0.0,
        0.0,
        0.0,
        0.0,
        28.33163833618164,
        0.0,
        0.6433375477790833,
        0.518142819404602,
        0.0,
        1.0
      ],
      "name": "Closed_NewsPaper1"
    },
    {
      "mesh": 0,
      "name": "Closed_NewsPaper1_Newspaper_Texture_0"
    }
  ],
  "samplers": [
    {
      "magFilter": 9729,
      "minFilter": 9987,
      "wrapS": 10497,
      "wrapT": 10497
    }
  ],
  "scene": 0,
  "scenes": [
    {
      "name": "Sketchfab_Scene",
      "nodes": [
        0
      ]
    }
  ],
  "textures": [
    {
      "sampler": 0,
      "source": 0
    }
  ]
}
