{
  "accessors": [
    {
      "bufferView": 2,
      "componentType": 5126,
      "count": 293,
      "max": [
        19.999998092651367,
        120.00000762939453,
        39.999996185302734
      ],
      "min": [
        -19.999998092651367,
        0.0,
        -0.0
      ],
      "type": "VEC3"
    },
    {
      "bufferView": 2,
      "byteOffset": 3516,
      "componentType": 5126,
      "count": 293,
      "max": [
        1.0,
        1.0,
        1.0
      ],
      "min": [
        -1.0,
        -1.0,
        -1.0
      ],
      "type": "VEC3"
    },
    {
      "bufferView": 1,
      "componentType": 5126,
      "count": 293,
      "max": [
        0.9985566139221191,
        0.9985566139221191
      ],
      "min": [
        0.001443360815756023,
        0.0043299198150634766
      ],
      "type": "VEC2"
    },
    {
      "bufferView": 0,
      "componentType": 5125,
      "count": 492,
      "type": "SCALAR"
    },
    {
      "bufferView": 2,
      "byteOffset": 7032,
      "componentType": 5126,
      "count": 224,
      "max": [
        18.873088836669922,
        27.87492561340332,
        40.06499099731445
      ],
      "min": [
        -18.873088836669922,
        0.08218862861394882,
        -0.0
      ],
      "type": "VEC3"
    },
    {
      "bufferView": 2,
      "byteOffset": 9720,
      "componentType": 5126,
      "count": 224,
      "max": [
        1.0,
        1.0,
        1.0
      ],
      "min": [
        -1.0,
        -1.0,
        -1.0
      ],
      "type": "VEC3"
    },
    {
      "bufferView": 1,
      "byteOffset": 2344,
      "componentType": 5126,
      "count": 224,
      "max": [
        0.9965732097625732,
        0.9794363975524902
      ],
      "min": [
        0.027076631784439087,
        0.012263059616088867
      ],
      "type": "VEC2"
    },
    {
      "bufferView": 0,
      "byteOffset": 1968,
      "componentType": 5125,
      "count": 366,
      "type": "SCALAR"
    },
    {
      "bufferView": 2,
      "byteOffset": 12408,
      "componentType": 5126,
      "count": 224,
      "max": [
        18.873088836669922,
        27.87492561340332,
        40.06499099731445
      ],
      "min": [
        -18.873088836669922,
        0.08218862861394882,
        -0.0
      ],
      "type": "VEC3"
    },
    {
      "bufferView": 2,
      "byteOffset": 15096,
      "componentType": 5126,
      "count": 224,
      "max": [
        1.0,
        1.0,
        1.0
      ],
      "min": [
        -1.0,
        -1.0,
        -1.0
      ],
      "type": "VEC3"
    },
    {
      "bufferView": 1,
      "byteOffset": 4136,
      "componentType": 5126,
      "count": 224,
      "max": [
        0.9965732097625732,
        0.9794363975524902
      ],
      "min": [
        0.027076631784439087,
        0.012263059616088867
      ],
      "type": "VEC2"
    },
    {
      "bufferView": 0,
      "byteOffset": 3432,
      "componentType": 5125,
      "count": 366,
      "type": "SCALAR"
    },
    {
      "bufferView": 2,
      "byteOffset": 17784,
      "componentType": 5126,
      "count": 224,
      "max": [
        18.873088836669922,
        27.87492561340332,
        40.06499099731445
      ],
      "min": [
        -18.873088836669922,
        0.08218862861394882,
        -0.0
      ],
      "type": "VEC3"
    },
    {
      "bufferView": 2,
      "byteOffset": 20472,
      "componentType": 5126,
      "count": 224,
      "max": [
        1.0,
        1.0,
        1.0
      ],
      "min": [
        -1.0,
        -1.0,
        -1.0
      ],
      "type": "VEC3"
    },
    {
      "bufferView": 1,
      "byteOffset": 5928,
      "componentType": 5126,
      "count": 224,
      "max": [
        0.9965732097625732,
        0.9794363975524902
      ],
      "min": [
        0.027076631784439087,
        0.012263059616088867
      ],
      "type": "VEC2"
    },
    {
      "bufferView": 0,
      "byteOffset": 4896,
      "componentType": 5125,
      "count": 366,
      "type": "SCALAR"
    },
    {
      "bufferView": 2,
      "byteOffset": 23160,
      "componentType": 5126,
      "count": 224,
      "max": [
        18.873088836669922,
        27.87492561340332,
        40.06499099731445
      ],
      "min": [
        -18.873088836669922,
        0.08218862861394882,
        -0.0
      ],
      "type": "VEC3"
    },
    {
      "bufferView": 2,
      "byteOffset": 25848,
      "componentType": 5126,
      "count": 224,
      "max": [
        1.0,
        1.0,
        1.0
      ],
      "min": [
        -1.0,
        -1.0,
        -1.0
      ],
      "type": "VEC3"
    },
    {
      "bufferView": 1,
      "byteOffset": 7720,
      "componentType": 5126,
      "count": 224,
      "max": [
        0.9965732097625732,
        0.9794363975524902
      ],
      "min": [
        0.027076631784439087,
        0.012263059616088867
      ],
      "type": "VEC2"
    },
    {
      "bufferView": 0,
      "byteOffset": 6360,
      "componentType": 5125,
      "count": 366,
      "type": "SCALAR"
    },
    {
      "bufferView": 2,
      "byteOffset": 28536,
      "componentType": 5126,
      "count": 293,
      "max": [
        19.999998092651367,
        120.00000762939453,
        39.999996185302734
      ],
      "min": [
        -19.999998092651367,
        0.0,
        -0.0
      ],
      "type": "VEC3"
    },
    {
      "bufferView": 2,
      "byteOffset": 32052,
      "componentType": 5126,
      "count": 293,
      "max": [
        1.0,
        1.0,
        1.0
      ],
      "min": [
        -1.0,
        -1.0,
        -1.0
      ],
      "type": "VEC3"
    },
    {
      "bufferView": 1,
      "byteOffset": 9512,
      "componentType": 5126,
      "count": 293,
      "max": [
        0.9985566139221191,
        0.9985566139221191
      ],
      "min": [
        0.001443360815756023,
        0.0043299198150634766
      ],
      "type": "VEC2"
    },
    {
      "bufferView": 0,
      "byteOffset": 7824,
      "componentType": 5125,
      "count": 492,
      "type": "SCALAR"
    },
    {
      "bufferView": 2,
      "byteOffset": 35568,
      "componentType": 5126,
      "count": 224,
      "max": [
        18.873088836669922,
        27.87492561340332,
        40.06499099731445
      ],
      "min": [
        -18.873088836669922,
        0.08218862861394882,
        -0.0
      ],
      "type": "VEC3"
    },
    {
      "bufferView": 2,
      "byteOffset": 38256,
      "componentType": 5126,
      "count": 224,
      "max": [
        1.0,
        1.0,
        1.0
      ],
      "min": [
        -1.0,
        -1.0,
        -1.0
      ],
      "type": "VEC3"
    },
    {
      "bufferView": 1,
      "byteOffset": 11856,
      "componentType": 5126,
      "count": 224,
      "max": [
        0.9965732097625732,
        0.9794363975524902
      ],
      "min": [
        0.027076631784439087,
        0.012263059616088867
      ],
      "type": "VEC2"
    },
    {
      "bufferView": 0,
      "byteOffset": 9792,
      "componentType": 5125,
      "count": 366,
      "type": "SCALAR"
    },
    {
      "bufferView": 2,
      "byteOffset": 40944,
      "componentType": 5126,
      "count": 224,
      "max": [
        18.873088836669922,
        27.87492561340332,
        40.06499099731445
      ],
      "min": [
        -18.873088836669922,
        0.08218862861394882,
        -0.0
      ],
      "type": "VEC3"
    },
    {
      "bufferView": 2,
      "byteOffset": 43632,
      "componentType": 5126,
      "count": 224,
      "max": [
        1.0,
        1.0,
        1.0
      ],
      "min": [
        -1.0,
        -1.0,
        -1.0
      ],
      "type": "VEC3"
    },
    {
      "bufferView": 1,
      "byteOffset": 13648,
      "componentType": 5126,
      "count": 224,
      "max": [
        0.9965732097625732,
        0.9794363975524902
      ],
      "min": [
        0.027076631784439087,
        0.012263059616088867
      ],
      "type": "VEC2"
    },
    {
      "bufferView": 0,
      "byteOffset": 11256,
      "componentType": 5125,
      "count": 366,
      "type": "SCALAR"
    },
    {
      "bufferView": 2,
      "byteOffset": 46320,
      "componentType": 5126,
      "count": 224,
      "max": [
        18.873088836669922,
        27.87492561340332,
        40.06499099731445
      ],
      "min": [
        -18.873088836669922,
        0.08218862861394882,
        -0.0
      ],
      "type": "VEC3"
    },
    {
      "bufferView": 2,
      "byteOffset": 49008,
      "componentType": 5126,
      "count": 224,
      "max": [
        1.0,
        1.0,
        1.0
      ],
      "min": [
        -1.0,
        -1.0,
        -1.0
      ],
      "type": "VEC3"
    },
    {
      "bufferView": 1,
      "byteOffset": 15440,
      "componentType": 5126,
      "count": 224,
      "max": [
        0.9965732097625732,
        0.9794363975524902
      ],
      "min": [
        0.027076631784439087,
        0.012263059616088867
      ],
      "type": "VEC2"
    },
    {
      "bufferView": 0,
      "byteOffset": 12720,
      "componentType": 5125,
      "count": 366,
      "type": "SCALAR"
    },
    {
      "bufferView": 2,
      "byteOffset": 51696,
      "componentType": 5126,
      "count": 224,
      "max": [
        18.873088836669922,
        27.87492561340332,
        40.06499099731445
      ],
      "min": [
        -18.873088836669922,
        0.08218862861394882,
        -0.0
      ],
      "type": "VEC3"
    },
    {
      "bufferView": 2,
      "byteOffset": 54384,
      "componentType": 5126,
      "count": 224,
      "max": [
        1.0,
        1.0,
        1.0
      ],
      "min": [
        -1.0,
        -1.0,
        -1.0
      ],
      "type": "VEC3"
    },
    {
      "bufferView": 1,
      "byteOffset": 17232,
      "componentType": 5126,
      "count": 224,
      "max": [
        0.9965732097625732,
        0.9794363975524902
      ],
      "min": [
        0.027076631784439087,
        0.012263059616088867
      ],
      "type": "VEC2"
    },
    {
      "bufferView": 0,
      "byteOffset": 14184,
      "componentType": 5125,
      "count": 366,
      "type": "SCALAR"
    },
    {
      "bufferView": 2,
      "byteOffset": 57072,
      "componentType": 5126,
      "count": 293,
      "max": [
        19.999998092651367,
        120.00000762939453,
        39.999996185302734
      ],
      "min": [
        -19.999998092651367,
        0.0,
        -0.0
      ],
      "type": "VEC3"
    },
    {
      "bufferView": 2,
      "byteOffset": 60588,
      "componentType": 5126,
      "count": 293,
      "max": [
        1.0,
        1.0,
        1.0
      ],
      "min": [
        -1.0,
        -1.0,
        -1.0
      ],
      "type": "VEC3"
    },
    {
      "bufferView": 1,
      "byteOffset": 19024,
      "componentType": 5126,
      "count": 293,
      "max": [
        0.9985566139221191,
        0.9985566139221191
      ],
      "min": [
        0.001443360815756023,
        0.0043299198150634766
      ],
      "type": "VEC2"
    },
    {
      "bufferView": 0,
      "byteOffset": 15648,
      "componentType": 5125,
      "count": 492,
      "type": "SCALAR"
    },
    {
      "bufferView": 2,
      "byteOffset": 64104,
      "componentType": 5126,
      "count": 224,
      "max": [
        18.873088836669922,
        27.87492561340332,
        40.06499099731445
      ],
      "min": [
        -18.873088836669922,
        0.08218862861394882,
        -0.0
      ],
      "type": "VEC3"
    },
    {
      "bufferView": 2,
      "byteOffset": 66792,
      "componentType": 5126,
      "count": 224,
      "max": [
        1.0,
        1.0,
        1.0
      ],
      "min": [
        -1.0,
        -1.0,
        -1.0
      ],
      "type": "VEC3"
    },
    {
      "bufferView": 1,
      "byteOffset": 21368,
      "componentType": 5126,
      "count": 224,
      "max": [
        0.9965732097625732,
        0.9794363975524902
      ],
      "min": [
        0.027076631784439087,
        0.012263059616088867
      ],
      "type": "VEC2"
    },
    {
      "bufferView": 0,
      "byteOffset": 17616,
      "componentType": 5125,
      "count": 366,
      "type": "SCALAR"
    },
    {
      "bufferView": 2,
      "byteOffset": 69480,
      "componentType": 5126,
      "count": 224,
      "max": [
        18.873088836669922,
        27.87492561340332,
        40.06499099731445
      ],
      "min": [
        -18.873088836669922,
        0.08218862861394882,
        -0.0
      ],
      "type": "VEC3"
    },
    {
      "bufferView": 2,
      "byteOffset": 72168,
      "componentType": 5126,
      "count": 224,
      "max": [
        1.0,
        1.0,
        1.0
      ],
      "min": [
        -1.0,
        -1.0,
        -1.0
      ],
      "type": "VEC3"
    },
    {
      "bufferView": 1,
      "byteOffset": 23160,
      "componentType": 5126,
      "count": 224,
      "max": [
        0.9965732097625732,
        0.9794363975524902
      ],
      "min": [
        0.027076631784439087,
        0.012263059616088867
      ],
      "type": "VEC2"
    },
    {
      "bufferView": 0,
      "byteOffset": 19080,
      "componentType": 5125,
      "count": 366,
      "type": "SCALAR"
    },
    {
      "bufferView": 2,
      "byteOffset": 74856,
      "componentType": 5126,
      "count": 224,
      "max": [
        18.873088836669922,
        27.87492561340332,
        40.06499099731445
      ],
      "min": [
        -18.873088836669922,
        0.08218862861394882,
        -0.0
      ],
      "type": "VEC3"
    },
    {
      "bufferView": 2,
      "byteOffset": 77544,
      "componentType": 5126,
      "count": 224,
      "max": [
        1.0,
        1.0,
        1.0
      ],
      "min": [
        -1.0,
        -1.0,
        -1.0
      ],
      "type": "VEC3"
    },
    {
      "bufferView": 1,
      "byteOffset": 24952,
      "componentType": 5126,
      "count": 224,
      "max": [
        0.9965732097625732,
        0.9794363975524902
      ],
      "min": [
        0.027076631784439087,
        0.012263059616088867
      ],
      "type": "VEC2"
    },
    {
      "bufferView": 0,
      "byteOffset": 20544,
      "componentType": 5125,
      "count": 366,
      "type": "SCALAR"
    },
    {
      "bufferView": 2,
      "byteOffset": 80232,
      "componentType": 5126,
      "count": 224,
      "max": [
        18.873088836669922,
        27.87492561340332,
        40.06499099731445
      ],
      "min": [
        -18.873088836669922,
        0.08218862861394882,
        -0.0
      ],
      "type": "VEC3"
    },
    {
      "bufferView": 2,
      "byteOffset": 82920,
      "componentType": 5126,
      "count": 224,
      "max": [
        1.0,
        1.0,
        1.0
      ],
      "min": [
        -1.0,
        -1.0,
        -1.0
      ],
      "type": "VEC3"
    },
    {
      "bufferView": 1,
      "byteOffset": 26744,
      "componentType": 5126,
      "count": 224,
      "max": [
        0.9965732097625732,
        0.9794363975524902
      ],
      "min": [
        0.027076631784439087,
        0.012263059616088867
      ],
      "type": "VEC2"
    },
    {
      "bufferView": 0,
      "byteOffset": 22008,
      "componentType": 5125,
      "count": 366,
      "type": "SCALAR"
    },
    {
      "bufferView": 2,
      "byteOffset": 85608,
      "componentType": 5126,
      "count": 293,
      "max": [
        19.999998092651367,
        120.00000762939453,
        39.999996185302734
      ],
      "min": [
        -19.999998092651367,
        0.0,
        -0.0
      ],
      "type": "VEC3"
    },
    {
      "bufferView": 2,
      "byteOffset": 89124,
      "componentType": 5126,
      "count": 293,
      "max": [
        1.0,
        1.0,
        1.0
      ],
      "min": [
        -1.0,
        -1.0,
        -1.0
      ],
      "type": "VEC3"
    },
    {
      "bufferView": 1,
      "byteOffset": 28536,
      "componentType": 5126,
      "count": 293,
      "max": [
        0.9985566139221191,
        0.9985566139221191
      ],
      "min": [
        0.001443360815756023,
        0.0043299198150634766
      ],
      "type": "VEC2"
    },
    {
      "bufferView": 0,
      "byteOffset": 23472,
      "componentType": 5125,
      "count": 492,
      "type": "SCALAR"
    },
    {
      "bufferView": 2,
      "byteOffset": 92640,
      "componentType": 5126,
      "count": 224,
      "max": [
        18.873088836669922,
        27.87492561340332,
        40.06499099731445
      ],
      "min": [
        -18.873088836669922,
        0.08218862861394882,
        -0.0
      ],
      "type": "VEC3"
    },
    {
      "bufferView": 2,
      "byteOffset": 95328,
      "componentType": 5126,
      "count": 224,
      "max": [
        1.0,
        1.0,
        1.0
      ],
      "min": [
        -1.0,
        -1.0,
        -1.0
      ],
      "type": "VEC3"
    },
    {
      "bufferView": 1,
      "byteOffset": 30880,
      "componentType": 5126,
      "count": 224,
      "max": [
        0.9965732097625732,
        0.9794363975524902
      ],
      "min": [
        0.027076631784439087,
        0.012263059616088867
      ],
      "type": "VEC2"
    },
    {
      "bufferView": 0,
      "byteOffset": 25440,
      "componentType": 5125,
      "count": 366,
      "type": "SCALAR"
    },
    {
      "bufferView": 2,
      "byteOffset": 98016,
      "componentType": 5126,
      "count": 224,
      "max": [
        18.873088836669922,
        27.87492561340332,
        40.06499099731445
      ],
      "min": [
        -18.873088836669922,
        0.08218862861394882,
        -0.0
      ],
      "type": "VEC3"
    },
    {
      "bufferView": 2,
      "byteOffset": 100704,
      "componentType": 5126,
      "count": 224,
      "max": [
        1.0,
        1.0,
        1.0
      ],
      "min": [
        -1.0,
        -1.0,
        -1.0
      ],
      "type": "VEC3"
    },
    {
      "bufferView": 1,
      "byteOffset": 32672,
      "componentType": 5126,
      "count": 224,
      "max": [
        0.9965732097625732,
        0.9794363975524902
      ],
      "min": [
        0.027076631784439087,
        0.012263059616088867
      ],
      "type": "VEC2"
    },
    {
      "bufferView": 0,
      "byteOffset": 26904,
      "componentType": 5125,
      "count": 366,
      "type": "SCALAR"
    },
    {
      "bufferView": 2,
      "byteOffset": 103392,
      "componentType": 5126,
      "count": 224,
      "max": [
        18.873088836669922,
        27.87492561340332,
        40.06499099731445
      ],
      "min": [
        -18.873088836669922,
        0.08218862861394882,
        -0.0
      ],
      "type": "VEC3"
    },
    {
      "bufferView": 2,
      "byteOffset": 106080,
      "componentType": 5126,
      "count": 224,
      "max": [
        1.0,
        1.0,
        1.0
      ],
      "min": [
        -1.0,
        -1.0,
        -1.0
      ],
      "type": "VEC3"
    },
    {
      "bufferView": 1,
      "byteOffset": 34464,
      "componentType": 5126,
      "count": 224,
      "max": [
        0.9965732097625732,
        0.9794363975524902
      ],
      "min": [
        0.027076631784439087,
        0.012263059616088867
      ],
      "type": "VEC2"
    },
    {
      "bufferView": 0,
      "byteOffset": 28368,
      "componentType": 5125,
      "count": 366,
      "type": "SCALAR"
    },
    {
      "bufferView": 2,
      "byteOffset": 108768,
      "componentType": 5126,
      "count": 224,
      "max": [
        18.873088836669922,
        27.87492561340332,
        40.06499099731445
      ],
      "min": [
        -18.873088836669922,
        0.08218862861394882,
        -0.0
      ],
      "type": "VEC3"
    },
    {
      "bufferView": 2,
      "byteOffset": 111456,
      "componentType": 5126,
      "count": 224,
      "max": [
        1.0,
        1.0,
        1.0
      ],
      "min": [
        -1.0,
        -1.0,
        -1.0
      ],
      "type": "VEC3"
    },
    {
      "bufferView": 1,
      "byteOffset": 36256,
      "componentType": 5126,
      "count": 224,
      "max": [
        0.9965732097625732,
        0.9794363975524902
      ],
      "min": [
        0.027076631784439087,
        0.012263059616088867
      ],
      "type": "VEC2"
    },
    {
      "bufferView": 0,
      "byteOffset": 29832,
      "componentType": 5125,
      "count": 366,
      "type": "SCALAR"
    },
    {
      "bufferView": 2,
      "byteOffset": 114144,
      "componentType": 5126,
      "count": 293,
      "max": [
        19.999998092651367,
        120.00000762939453,
        39.999996185302734
      ],
      "min": [
        -19.999998092651367,
        0.0,
        -0.0
      ],
      "type": "VEC3"
    },
    {
      "bufferView": 2,
      "byteOffset": 117660,
      "componentType": 5126,
      "count": 293,
      "max": [
        1.0,
        1.0,
        1.0
      ],
      "min": [
        -1.0,
        -1.0,
        -1.0
      ],
      "type": "VEC3"
    },
    {
      "bufferView": 1,
      "byteOffset": 38048,
      "componentType": 5126,
      "count": 293,
      "max": [
        0.9985566139221191,
        0.9985566139221191
      ],
      "min": [
        0.001443360815756023,
        0.0043299198150634766
      ],
      "type": "VEC2"
    },
    {
      "bufferView": 0,
      "byteOffset": 31296,
      "componentType": 5125,
      "count": 492,
      "type": "SCALAR"
    },
    {
      "bufferView": 2,
      "byteOffset": 121176,
      "componentType": 5126,
      "count": 224,
      "max": [
        18.873088836669922,
        27.87492561340332,
        40.06499099731445
      ],
      "min": [
        -18.873088836669922,
        0.08218862861394882,
        -0.0
      ],
      "type": "VEC3"
    },
    {
      "bufferView": 2,
      "byteOffset": 123864,
      "componentType": 5126,
      "count": 224,
      "max": [
        1.0,
        1.0,
        1.0
      ],
      "min": [
        -1.0,
        -1.0,
        -1.0
      ],
      "type": "VEC3"
    },
    {
      "bufferView": 1,
      "byteOffset": 40392,
      "componentType": 5126,
      "count": 224,
      "max": [
        0.9965732097625732,
        0.9794363975524902
      ],
      "min": [
        0.027076631784439087,
        0.012263059616088867
      ],
      "type": "VEC2"
    },
    {
      "bufferView": 0,
      "byteOffset": 33264,
      "componentType": 5125,
      "count": 366,
      "type": "SCALAR"
    },
    {
      "bufferView": 2,
      "byteOffset": 126552,
      "componentType": 5126,
      "count": 293,
      "max": [
        19.999998092651367,
        120.00000762939453,
        39.999996185302734
      ],
      "min": [
        -19.999998092651367,
        0.0,
        -0.0
      ],
      "type": "VEC3"
    },
    {
      "bufferView": 2,
      "byteOffset": 130068,
      "componentType": 5126,
      "count": 293,
      "max": [
        1.0,
        1.0,
        1.0
      ],
      "min": [
        -1.0,
        -1.0,
        -1.0
      ],
      "type": "VEC3"
    },
    {
      "bufferView": 1,
      "byteOffset": 42184,
      "componentType": 5126,
      "count": 293,
      "max": [
        0.9985566139221191,
        0.9985566139221191
      ],
      "min": [
        0.001443360815756023,
        0.0043299198150634766
      ],
      "type": "VEC2"
    },
    {
      "bufferView": 0,
      "byteOffset": 34728,
      "componentType": 5125,
      "count": 492,
      "type": "SCALAR"
    },
    {
      "bufferView": 2,
      "byteOffset": 133584,
      "componentType": 5126,
      "count": 224,
      "max": [
        18.873088836669922,
        27.87492561340332,
        40.06499099731445
      ],
      "min": [
        -18.873088836669922,
        0.08218862861394882,
        -0.0
      ],
      "type": "VEC3"
    },
    {
      "bufferView": 2,
      "byteOffset": 136272,
      "componentType": 5126,
      "count": 224,
      "max": [
        1.0,
        1.0,
        1.0
      ],
      "min": [
        -1.0,
        -1.0,
        -1.0
      ],
      "type": "VEC3"
    },
    {
      "bufferView": 1,
      "byteOffset": 44528,
      "componentType": 5126,
      "count": 224,
      "max": [
        0.9965732097625732,
        0.9794363975524902
      ],
      "min": [
        0.027076631784439087,
        0.012263059616088867
      ],
      "type": "VEC2"
    },
    {
      "bufferView": 0,
      "byteOffset": 36696,
      "componentType": 5125,
      "count": 366,
      "type": "SCALAR"
    },
    {
      "bufferView": 2,
      "byteOffset": 138960,
      "componentType": 5126,
      "count": 224,
      "max": [
        18.873088836669922,
        27.87492561340332,
        40.06499099731445
      ],
      "min": [
        -18.873088836669922,
        0.08218862861394882,
        -0.0
      ],
      "type": "VEC3"
    },
    {
      "bufferView": 2,
      "byteOffset": 141648,
      "componentType": 5126,
      "count": 224,
      "max": [
        1.0,
        1.0,
        1.0
      ],
      "min": [
        -1.0,
        -1.0,
        -1.0
      ],
      "type": "VEC3"
    },
    {
      "bufferView": 1,
      "byteOffset": 46320,
      "componentType": 5126,
      "count": 224,
      "max": [
        0.9965732097625732,
        0.9794363975524902
      ],
      "min": [
        0.027076631784439087,
        0.012263059616088867
      ],
      "type": "VEC2"
    },
    {
      "bufferView": 0,
      "byteOffset": 38160,
      "componentType": 5125,
      "count": 366,
      "type": "SCALAR"
    },
    {
      "bufferView": 2,
      "byteOffset": 144336,
      "componentType": 5126,
      "count": 224,
      "max": [
        18.873088836669922,
        27.87492561340332,
        40.06499099731445
      ],
      "min": [
        -18.873088836669922,
        0.08218862861394882,
        -0.0
      ],
      "type": "VEC3"
    },
    {
      "bufferView": 2,
      "byteOffset": 147024,
      "componentType": 5126,
      "count": 224,
      "max": [
        1.0,
        1.0,
        1.0
      ],
      "min": [
        -1.0,
        -1.0,
        -1.0
      ],
      "type": "VEC3"
    },
    {
      "bufferView": 1,
      "byteOffset": 48112,
      "componentType": 5126,
      "count": 224,
      "max": [
        0.9965732097625732,
        0.9794363975524902
      ],
      "min": [
        0.027076631784439087,
        0.012263059616088867
      ],
      "type": "VEC2"
    },
    {
      "bufferView": 0,
      "byteOffset": 39624,
      "componentType": 5125,
      "count": 366,
      "type": "SCALAR"
    },
    {
      "bufferView": 2,
      "byteOffset": 149712,
      "componentType": 5126,
      "count": 224,
      "max": [
        18.873088836669922,
        27.87492561340332,
        40.06499099731445
      ],
      "min": [
        -18.873088836669922,
        0.08218862861394882,
        -0.0
      ],
      "type": "VEC3"
    },
    {
      "bufferView": 2,
      "byteOffset": 152400,
      "componentType": 5126,
      "count": 224,
      "max": [
        1.0,
        1.0,
        1.0
      ],
      "min": [
        -1.0,
        -1.0,
        -1.0
      ],
      "type": "VEC3"
    },
    {
      "bufferView": 1,
      "byteOffset": 49904,
      "componentType": 5126,
      "count": 224,
      "max": [
        0.9965732097625732,
        0.9794363975524902
      ],
      "min": [
        0.027076631784439087,
        0.012263059616088867
      ],
      "type": "VEC2"
    },
    {
      "bufferView": 0,
      "byteOffset": 41088,
      "componentType": 5125,
      "count": 366,
      "type": "SCALAR"
    },
    {
      "bufferView": 2,
      "byteOffset": 155088,
      "componentType": 5126,
      "count": 293,
      "max": [
        19.999998092651367,
        120.00000762939453,
        39.999996185302734
      ],
      "min": [
        -19.999998092651367,
        0.0,
        -0.0
      ],
      "type": "VEC3"
    },
    {
      "bufferView": 2,
      "byteOffset": 158604,
      "componentType": 5126,
      "count": 293,
      "max": [
        1.0,
        1.0,
        1.0
      ],
      "min": [
        -1.0,
        -1.0,
        -1.0
      ],
      "type": "VEC3"
    },
    {
      "bufferView": 1,
      "byteOffset": 51696,
      "componentType": 5126,
      "count": 293,
      "max": [
        0.9985566139221191,
        0.9985566139221191
      ],
      "min": [
        0.001443360815756023,
        0.0043299198150634766
      ],
      "type": "VEC2"
    },
    {
      "bufferView": 0,
      "byteOffset": 42552,
      "componentType": 5125,
      "count": 492,
      "type": "SCALAR"
    },
    {
      "bufferView": 2,
      "byteOffset": 162120,
      "componentType": 5126,
      "count": 224,
      "max": [
        18.873088836669922,
        27.87492561340332,
        40.06499099731445
      ],
      "min": [
        -18.873088836669922,
        0.08218862861394882,
        -0.0
      ],
      "type": "VEC3"
    },
    {
      "bufferView": 2,
      "byteOffset": 164808,
      "componentType": 5126,
      "count": 224,
      "max": [
        1.0,
        1.0,
        1.0
      ],
      "min": [
        -1.0,
        -1.0,
        -1.0
      ],
      "type": "VEC3"
    },
    {
      "bufferView": 1,
      "byteOffset": 54040,
      "componentType": 5126,
      "count": 224,
      "max": [
        0.9965732097625732,
        0.9794363975524902
      ],
      "min": [
        0.027076631784439087,
        0.012263059616088867
      ],
      "type": "VEC2"
    },
    {
      "bufferView": 0,
      "byteOffset": 44520,
      "componentType": 5125,
      "count": 366,
      "type": "SCALAR"
    },
    {
      "bufferView": 2,
      "byteOffset": 167496,
      "componentType": 5126,
      "count": 224,
      "max": [
        18.873088836669922,
        27.87492561340332,
        40.06499099731445
      ],
      "min": [
        -18.873088836669922,
        0.08218862861394882,
        -0.0
      ],
      "type": "VEC3"
    },
    {
      "bufferView": 2,
      "byteOffset": 170184,
      "componentType": 5126,
      "count": 224,
      "max": [
        1.0,
        1.0,
        1.0
      ],
      "min": [
        -1.0,
        -1.0,
        -1.0
      ],
      "type": "VEC3"
    },
    {
      "bufferView": 1,
      "byteOffset": 55832,
      "componentType": 5126,
      "count": 224,
      "max": [
        0.9965732097625732,
        0.9794363975524902
      ],
      "min": [
        0.027076631784439087,
        0.012263059616088867
      ],
      "type": "VEC2"
    },
    {
      "bufferView": 0,
      "byteOffset": 45984,
      "componentType": 5125,
      "count": 366,
      "type": "SCALAR"
    },
    {
      "bufferView": 2,
      "byteOffset": 172872,
      "componentType": 5126,
      "count": 224,
      "max": [
        18.873088836669922,
        27.87492561340332,
        40.06499099731445
      ],
      "min": [
        -18.873088836669922,
        0.08218862861394882,
        -0.0
      ],
      "type": "VEC3"
    },
    {
      "bufferView": 2,
      "byteOffset": 175560,
      "componentType": 5126,
      "count": 224,
      "max": [
        1.0,
        1.0,
        1.0
      ],
      "min": [
        -1.0,
        -1.0,
        -1.0
      ],
      "type": "VEC3"
    },
    {
      "bufferView": 1,
      "byteOffset": 57624,
      "componentType": 5126,
      "count": 224,
      "max": [
        0.9965732097625732,
        0.9794363975524902
      ],
      "min": [
        0.027076631784439087,
        0.012263059616088867
      ],
      "type": "VEC2"
    },
    {
      "bufferView": 0,
      "byteOffset": 47448,
      "componentType": 5125,
      "count": 366,
      "type": "SCALAR"
    },
    {
      "bufferView": 2,
      "byteOffset": 178248,
      "componentType": 5126,
      "count": 224,
      "max": [
        17.78070640563965,
        27.87492561340332,
        40.06499099731445
      ],
      "min": [
        -17.915203094482422,
        0.08218862861394882,
        -0.0
      ],
      "type": "VEC3"
    },
    {
      "bufferView": 2,
      "byteOffset": 180936,
      "componentType": 5126,
      "count": 224,
      "max": [
        1.0,
        1.0,
        1.0
      ],
      "min": [
        -1.0,
        -1.0,
        -1.0
      ],
      "type": "VEC3"
    },
    {
      "bufferView": 1,
      "byteOffset": 59416,
      "componentType": 5126,
      "count": 224,
      "max": [
        0.9965732097625732,
        0.9794363975524902
      ],
      "min": [
        0.027076631784439087,
        0.012263059616088867
      ],
      "type": "VEC2"
    },
    {
      "bufferView": 0,
      "byteOffset": 48912,
      "componentType": 5125,
      "count": 366,
      "type": "SCALAR"
    },
    {
      "bufferView": 2,
      "byteOffset": 183624,
      "componentType": 5126,
      "count": 293,
      "max": [
        19.999998092651367,
        120.00000762939453,
        39.999996185302734
      ],
      "min": [
        -19.999998092651367,
        0.0,
        -0.0
      ],
      "type": "VEC3"
    },
    {
      "bufferView": 2,
      "byteOffset": 187140,
      "componentType": 5126,
      "count": 293,
      "max": [
        1.0,
        1.0,
        1.0
      ],
      "min": [
        -1.0,
        -1.0,
        -1.0
      ],
      "type": "VEC3"
    },
    {
      "bufferView": 1,
      "byteOffset": 61208,
      "componentType": 5126,
      "count": 293,
      "max": [
        0.9985566139221191,
        0.9985566139221191
      ],
      "min": [
        0.001443360815756023,
        0.0043299198150634766
      ],
      "type": "VEC2"
    },
    {
      "bufferView": 0,
      "byteOffset": 50376,
      "componentType": 5125,
      "count": 492,
      "type": "SCALAR"
    },
    {
      "bufferView": 2,
      "byteOffset": 190656,
      "componentType": 5126,
      "count": 224,
      "max": [
        18.873088836669922,
        27.87492561340332,
        40.06499099731445
      ],
      "min": [
        -18.873088836669922,
        0.08218862861394882,
        -0.0
      ],
      "type": "VEC3"
    },
    {
      "bufferView": 2,
      "byteOffset": 193344,
      "componentType": 5126,
      "count": 224,
      "max": [
        1.0,
        1.0,
        1.0
      ],
      "min": [
        -1.0,
        -1.0,
        -1.0
      ],
      "type": "VEC3"
    },
    {
      "bufferView": 1,
      "byteOffset": 63552,
      "componentType": 5126,
      "count": 224,
      "max": [
        0.9965732097625732,
        0.9794363975524902
      ],
      "min": [
        0.027076631784439087,
        0.012263059616088867
      ],
      "type": "VEC2"
    },
    {
      "bufferView": 0,
      "byteOffset": 52344,
      "componentType": 5125,
      "count": 366,
      "type": "SCALAR"
    },
    {
      "bufferView": 2,
      "byteOffset": 196032,
      "componentType": 5126,
      "count": 224,
      "max": [
        18.873088836669922,
        27.87492561340332,
        40.06499099731445
      ],
      "min": [
        -18.873088836669922,
        0.08218862861394882,
        -0.0
      ],
      "type": "VEC3"
    },
    {
      "bufferView": 2,
      "byteOffset": 198720,
      "componentType": 5126,
      "count": 224,
      "max": [
        1.0,
        1.0,
        1.0
      ],
      "min": [
        -1.0,
        -1.0,
        -1.0
      ],
      "type": "VEC3"
    },
    {
      "bufferView": 1,
      "byteOffset": 65344,
      "componentType": 5126,
      "count": 224,
      "max": [
        0.9965732097625732,
        0.9794363975524902
      ],
      "min": [
        0.027076631784439087,
        0.012263059616088867
      ],
      "type": "VEC2"
    },
    {
      "bufferView": 0,
      "byteOffset": 53808,
      "componentType": 5125,
      "count": 366,
      "type": "SCALAR"
    },
    {
      "bufferView": 2,
      "byteOffset": 201408,
      "componentType": 5126,
      "count": 224,
      "max": [
        18.873088836669922,
        27.87492561340332,
        40.06499099731445
      ],
      "min": [
        -18.873088836669922,
        0.08218862861394882,
        -0.0
      ],
      "type": "VEC3"
    },
    {
      "bufferView": 2,
      "byteOffset": 204096,
      "componentType": 5126,
      "count": 224,
      "max": [
        1.0,
        1.0,
        1.0
      ],
      "min": [
        -1.0,
        -1.0,
        -1.0
      ],
      "type": "VEC3"
    },
    {
      "bufferView": 1,
      "byteOffset": 67136,
      "componentType": 5126,
      "count": 224,
      "max": [
        0.9965732097625732,
        0.9794363975524902
      ],
      "min": [
        0.027076631784439087,
        0.012263059616088867
      ],
      "type": "VEC2"
    },
    {
      "bufferView": 0,
      "byteOffset": 55272,
      "componentType": 5125,
      "count": 366,
      "type": "SCALAR"
    },
    {
      "bufferView": 2,
      "byteOffset": 206784,
      "componentType": 5126,
      "count": 224,
      "max": [
        18.873088836669922,
        27.87492561340332,
        40.06499099731445
      ],
      "min": [
        -18.873088836669922,
        0.08218862861394882,
        -0.0
      ],
      "type": "VEC3"
    },
    {
      "bufferView": 2,
      "byteOffset": 209472,
      "componentType": 5126,
      "count": 224,
      "max": [
        1.0,
        1.0,
        1.0
      ],
      "min": [
        -1.0,
        -1.0,
        -1.0
      ],
      "type": "VEC3"
    },
    {
      "bufferView": 1,
      "byteOffset": 68928,
      "componentType": 5126,
      "count": 224,
      "max": [
        0.9965732097625732,
        0.9794363975524902
      ],
      "min": [
        0.027076631784439087,
        0.012263059616088867
      ],
      "type": "VEC2"
    },
    {
      "bufferView": 0,
      "byteOffset": 56736,
      "componentType": 5125,
      "count": 366,
      "type": "SCALAR"
    },
    {
      "bufferView": 2,
      "byteOffset": 212160,
      "componentType": 5126,
      "count": 293,
      "max": [
        19.999998092651367,
        120.00000762939453,
        39.999996185302734
      ],
      "min": [
        -19.999998092651367,
        0.0,
        -0.0
      ],
      "type": "VEC3"
    },
    {
      "bufferView": 2,
      "byteOffset": 215676,
      "componentType": 5126,
      "count": 293,
      "max": [
        1.0,
        1.0,
        1.0
      ],
      "min": [
        -1.0,
        -1.0,
        -1.0
      ],
      "type": "VEC3"
    },
    {
      "bufferView": 1,
      "byteOffset": 70720,
      "componentType": 5126,
      "count": 293,
      "max": [
        0.9985566139221191,
        0.9985566139221191
      ],
      "min": [
        0.001443360815756023,
        0.0043299198150634766
      ],
      "type": "VEC2"
    },
    {
      "bufferView": 0,
      "byteOffset": 58200,
      "componentType": 5125,
      "count": 492,
      "type": "SCALAR"
    },
    {
      "bufferView": 2,
      "byteOffset": 219192,
      "componentType": 5126,
      "count": 224,
      "max": [
        18.873088836669922,
        27.87492561340332,
        40.06499099731445
      ],
      "min": [
        -18.873088836669922,
        0.08218862861394882,
        -0.0
      ],
      "type": "VEC3"
    },
    {
      "bufferView": 2,
      "byteOffset": 221880,
      "componentType": 5126,
      "count": 224,
      "max": [
        1.0,
        1.0,
        1.0
      ],
      "min": [
        -1.0,
        -1.0,
        -1.0
      ],
      "type": "VEC3"
    },
    {
      "bufferView": 1,
      "byteOffset": 73064,
      "componentType": 5126,
      "count": 224,
      "max": [
        0.9965732097625732,
        0.9794363975524902
      ],
      "min": [
        0.027076631784439087,
        0.012263059616088867
      ],
      "type": "VEC2"
    },
    {
      "bufferView": 0,
      "byteOffset": 60168,
      "componentType": 5125,
      "count": 366,
      "type": "SCALAR"
    },
    {
      "bufferView": 2,
      "byteOffset": 224568,
      "componentType": 5126,
      "count": 224,
      "max": [
        18.873088836669922,
        27.87492561340332,
        40.06499099731445
      ],
      "min": [
        -18.873088836669922,
        0.08218862861394882,
        -0.0
      ],
      "type": "VEC3"
    },
    {
      "bufferView": 2,
      "byteOffset": 227256,
      "componentType": 5126,
      "count": 224,
      "max": [
        1.0,
        1.0,
        1.0
      ],
      "min": [
        -1.0,
        -1.0,
        -1.0
      ],
      "type": "VEC3"
    },
    {
      "bufferView": 1,
      "byteOffset": 74856,
      "componentType": 5126,
      "count": 224,
      "max": [
        0.9965732097625732,
        0.9794363975524902
      ],
      "min": [
        0.027076631784439087,
        0.012263059616088867
      ],
      "type": "VEC2"
    },
    {
      "bufferView": 0,
      "byteOffset": 61632,
      "componentType": 5125,
      "count": 366,
      "type": "SCALAR"
    },
    {
      "bufferView": 2,
      "byteOffset": 229944,
      "componentType": 5126,
      "count": 224,
      "max": [
        18.873088836669922,
        27.87492561340332,
        40.06499099731445
      ],
      "min": [
        -18.873088836669922,
        0.08218862861394882,
        -0.0
      ],
      "type": "VEC3"
    },
    {
      "bufferView": 2,
      "byteOffset": 232632,
      "componentType": 5126,
      "count": 224,
      "max": [
        1.0,
        1.0,
        1.0
      ],
      "min": [
        -1.0,
        -1.0,
        -1.0
      ],
      "type": "VEC3"
    },
    {
      "bufferView": 1,
      "byteOffset": 76648,
      "componentType": 5126,
      "count": 224,
      "max": [
        0.9965732097625732,
        0.9794363975524902
      ],
      "min": [
        0.027076631784439087,
        0.012263059616088867
      ],
      "type": "VEC2"
    },
    {
      "bufferView": 0,
      "byteOffset": 63096,
      "componentType": 5125,
      "count": 366,
      "type": "SCALAR"
    },
    {
      "bufferView": 2,
      "byteOffset": 235320,
      "componentType": 5126,
      "count": 224,
      "max": [
        18.873088836669922,
        27.87492561340332,
        40.06499099731445
      ],
      "min": [
        -18.873088836669922,
        0.08218862861394882,
        -0.0
      ],
      "type": "VEC3"
    },
    {
      "bufferView": 2,
      "byteOffset": 238008,
      "componentType": 5126,
      "count": 224,
      "max": [
        1.0,
        1.0,
        1.0
      ],
      "min": [
        -1.0,
        -1.0,
        -1.0
      ],
      "type": "VEC3"
    },
    {
      "bufferView": 1,
      "byteOffset": 78440,
      "componentType": 5126,
      "count": 224,
      "max": [
        0.9965732097625732,
        0.9794363975524902
      ],
      "min": [
        0.027076631784439087,
        0.012263059616088867
      ],
      "type": "VEC2"
    },
    {
      "bufferView": 0,
      "byteOffset": 64560,
      "componentType": 5125,
      "count": 366,
      "type": "SCALAR"
    },
    {
      "bufferView": 2,
      "byteOffset": 240696,
      "componentType": 5126,
      "count": 293,
      "max": [
        19.999998092651367,
        120.00000762939453,
        39.999996185302734
      ],
      "min": [
        -19.999998092651367,
        0.0,
        -0.0
      ],
      "type": "VEC3"
    },
    {
      "bufferView": 2,
      "byteOffset": 244212,
      "componentType": 5126,
      "count": 293,
      "max": [
        1.0,
        1.0,
        1.0
      ],
      "min": [
        -1.0,
        -1.0,
        -1.0
      ],
      "type": "VEC3"
    },
    {
      "bufferView": 1,
      "byteOffset": 80232,
      "componentType": 5126,
      "count": 293,
      "max": [
        0.9985566139221191,
        0.9985566139221191
      ],
      "min": [
        0.001443360815756023,
        0.0043299198150634766
      ],
      "type": "VEC2"
    },
    {
      "bufferView": 0,
      "byteOffset": 66024,
      "componentType": 5125,
      "count": 492,
      "type": "SCALAR"
    },
    {
      "bufferView": 2,
      "byteOffset": 247728,
      "componentType": 5126,
      "count": 224,
      "max": [
        18.873088836669922,
        27.87492561340332,
        40.06499099731445
      ],
      "min": [
        -18.873088836669922,
        0.08218862861394882,
        -0.0
      ],
      "type": "VEC3"
    },
    {
      "bufferView": 2,
      "byteOffset": 250416,
      "componentType": 5126,
      "count": 224,
      "max": [
        1.0,
        1.0,
        1.0
      ],
      "min": [
        -1.0,
        -1.0,
        -1.0
      ],
      "type": "VEC3"
    },
    {
      "bufferView": 1,
      "byteOffset": 82576,
      "componentType": 5126,
      "count": 224,
      "max": [
        0.9965732097625732,
        0.9794363975524902
      ],
      "min": [
        0.027076631784439087,
        0.012263059616088867
      ],
      "type": "VEC2"
    },
    {
      "bufferView": 0,
      "byteOffset": 67992,
      "componentType": 5125,
      "count": 366,
      "type": "SCALAR"
    },
    {
      "bufferView": 2,
      "byteOffset": 253104,
      "componentType": 5126,
      "count": 224,
      "max": [
        18.873088836669922,
        27.87492561340332,
        40.06499099731445
      ],
      "min": [
        -18.873088836669922,
        0.08218862861394882,
        -0.0
      ],
      "type": "VEC3"
    },
    {
      "bufferView": 2,
      "byteOffset": 255792,
      "componentType": 5126,
      "count": 224,
      "max": [
        1.0,
        1.0,
        1.0
      ],
      "min": [
        -1.0,
        -1.0,
        -1.0
      ],
      "type": "VEC3"
    },
    {
      "bufferView": 1,
      "byteOffset": 84368,
      "componentType": 5126,
      "count": 224,
      "max": [
        0.9965732097625732,
        0.9794363975524902
      ],
      "min": [
        0.027076631784439087,
        0.012263059616088867
      ],
      "type": "VEC2"
    },
    {
      "bufferView": 0,
      "byteOffset": 69456,
      "componentType": 5125,
      "count": 366,
      "type": "SCALAR"
    },
    {
      "bufferView": 2,
      "byteOffset": 258480,
      "componentType": 5126,
      "count": 224,
      "max": [
        18.873088836669922,
        27.87492561340332,
        40.06499099731445
      ],
      "min": [
        -18.873088836669922,
        0.08218862861394882,
        -0.0
      ],
      "type": "VEC3"
    },
    {
      "bufferView": 2,
      "byteOffset": 261168,
      "componentType": 5126,
      "count": 224,
      "max": [
        1.0,
        1.0,
        1.0
      ],
      "min": [
        -1.0,
        -1.0,
        -1.0
      ],
      "type": "VEC3"
    },
    {
      "bufferView": 1,
      "byteOffset": 86160,
      "componentType": 5126,
      "count": 224,
      "max": [
        0.9965732097625732,
        0.9794363975524902
      ],
      "min": [
        0.027076631784439087,
        0.012263059616088867
      ],
      "type": "VEC2"
    },
    {
      "bufferView": 0,
      "byteOffset": 70920,
      "componentType": 5125,
      "count": 366,
      "type": "SCALAR"
    },
    {
      "bufferView": 2,
      "byteOffset": 263856,
      "componentType": 5126,
      "count": 224,
      "max": [
        18.873088836669922,
        27.87492561340332,
        40.06499099731445
      ],
      "min": [
        -18.873088836669922,
        0.08218862861394882,
        -0.0
      ],
      "type": "VEC3"
    },
    {
      "bufferView": 2,
      "byteOffset": 266544,
      "componentType": 5126,
      "count": 224,
      "max": [
        1.0,
        1.0,
        1.0
      ],
      "min": [
        -1.0,
        -1.0,
        -1.0
      ],
      "type": "VEC3"
    },
    {
      "bufferView": 1,
      "byteOffset": 87952,
      "componentType": 5126,
      "count": 224,
      "max": [
        0.9965732097625732,
        0.9794363975524902
      ],
      "min": [
        0.027076631784439087,
        0.012263059616088867
      ],
      "type": "VEC2"
    },
    {
      "bufferView": 0,
      "byteOffset": 72384,
      "componentType": 5125,
      "count": 366,
      "type": "SCALAR"
    },
    {
      "bufferView": 2,
      "byteOffset": 269232,
      "componentType": 5126,
      "count": 293,
      "max": [
        19.999998092651367,
        120.00000762939453,
        39.999996185302734
      ],
      "min": [
        -19.999998092651367,
        0.0,
        -0.0
      ],
      "type": "VEC3"
    },
    {
      "bufferView": 2,
      "byteOffset": 272748,
      "componentType": 5126,
      "count": 293,
      "max": [
        1.0,
        1.0,
        1.0
      ],
      "min": [
        -1.0,
        -1.0,
        -1.0
      ],
      "type": "VEC3"
    },
    {
      "bufferView": 1,
      "byteOffset": 89744,
      "componentType": 5126,
      "count": 293,
      "max": [
        0.9985566139221191,
        0.9985566139221191
      ],
      "min": [
        0.001443360815756023,
        0.0043299198150634766
      ],
      "type": "VEC2"
    },
    {
      "bufferView": 0,
      "byteOffset": 73848,
      "componentType": 5125,
      "count": 492,
      "type": "SCALAR"
    },
    {
      "bufferView": 2,
      "byteOffset": 276264,
      "componentType": 5126,
      "count": 224,
      "max": [
        18.873088836669922,
        27.87492561340332,
        40.06499099731445
      ],
      "min": [
        -18.873088836669922,
        0.08218862861394882,
        -0.0
      ],
      "type": "VEC3"
    },
    {
      "bufferView": 2,
      "byteOffset": 278952,
      "componentType": 5126,
      "count": 224,
      "max": [
        1.0,
        1.0,
        1.0
      ],
      "min": [
        -1.0,
        -1.0,
        -1.0
      ],
      "type": "VEC3"
    },
    {
      "bufferView": 1,
      "byteOffset": 92088,
      "componentType": 5126,
      "count": 224,
      "max": [
        0.9965732097625732,
        0.9794363975524902
      ],
      "min": [
        0.027076631784439087,
        0.012263059616088867
      ],
      "type": "VEC2"
    },
    {
      "bufferView": 0,
      "byteOffset": 75816,
      "componentType": 5125,
      "count": 366,
      "type": "SCALAR"
    },
    {
      "bufferView": 2,
      "byteOffset": 281640,
      "componentType": 5126,
      "count": 224,
      "max": [
        18.873088836669922,
        27.87492561340332,
        40.06499099731445
      ],
      "min": [
        -18.873088836669922,
        0.08218862861394882,
        -0.0
      ],
      "type": "VEC3"
    },
    {
      "bufferView": 2,
      "byteOffset": 284328,
      "componentType": 5126,
      "count": 224,
      "max": [
        1.0,
        1.0,
        1.0
      ],
      "min": [
        -1.0,
        -1.0,
        -1.0
      ],
      "type": "VEC3"
    },
    {
      "bufferView": 1,
      "byteOffset": 93880,
      "componentType": 5126,
      "count": 224,
      "max": [
        0.9965732097625732,
        0.9794363975524902
      ],
      "min": [
        0.027076631784439087,
        0.012263059616088867
      ],
      "type": "VEC2"
    },
    {
      "bufferView": 0,
      "byteOffset": 77280,
      "componentType": 5125,
      "count": 366,
      "type": "SCALAR"
    },
    {
      "bufferView": 2,
      "byteOffset": 287016,
      "componentType": 5126,
      "count": 224,
      "max": [
        18.873088836669922,
        27.87492561340332,
        40.06499099731445
      ],
      "min": [
        -18.873088836669922,
        0.08218862861394882,
        -0.0
      ],
      "type": "VEC3"
    },
    {
      "bufferView": 2,
      "byteOffset": 289704,
      "componentType": 5126,
      "count": 224,
      "max": [
        1.0,
        1.0,
        1.0
      ],
      "min": [
        -1.0,
        -1.0,
        -1.0
      ],
      "type": "VEC3"
    },
    {
      "bufferView": 1,
      "byteOffset": 95672,
      "componentType": 5126,
      "count": 224,
      "max": [
        0.9965732097625732,
        0.9794363975524902
      ],
      "min": [
        0.027076631784439087,
        0.012263059616088867
      ],
      "type": "VEC2"
    },
    {
      "bufferView": 0,
      "byteOffset": 78744,
      "componentType": 5125,
      "count": 366,
      "type": "SCALAR"
    },
    {
      "bufferView": 2,
      "byteOffset": 292392,
      "componentType": 5126,
      "count": 224,
      "max": [
        18.873088836669922,
        27.87492561340332,
        40.06499099731445
      ],
      "min": [
        -18.873088836669922,
        0.08218862861394882,
        -0.0
      ],
      "type": "VEC3"
    },
    {
      "bufferView": 2,
      "byteOffset": 295080,
      "componentType": 5126,
      "count": 224,
      "max": [
        1.0,
        1.0,
        1.0
      ],
      "min": [
        -1.0,
        -1.0,
        -1.0
      ],
      "type": "VEC3"
    },
    {
      "bufferView": 1,
      "byteOffset": 97464,
      "componentType": 5126,
      "count": 224,
      "max": [
        0.9965732097625732,
        0.9794363975524902
      ],
      "min": [
        0.027076631784439087,
        0.012263059616088867
      ],
      "type": "VEC2"
    },
    {
      "bufferView": 0,
      "byteOffset": 80208,
      "componentType": 5125,
      "count": 366,
      "type": "SCALAR"
    }
  ],
  "asset": {
    "extras": {
      "author": "Mehdi Shahsavan (https://sketchfab.com/ahmagh2e)",
      "license": "CC-BY-4.0 (http://creativecommons.org/licenses/by/4.0/)",
      "source": "https://sketchfab.com/3d-models/filing-cabinet-6mb-d217a4bbdfa2426eb32ebf3b1007a8c3",
      "title": "Filing Cabinet - 6MB"
    },
    "generator": "Sketchfab-16.15.0",
    "version": "2.0"
  },
  "bufferViews": [
    {
      "buffer": 0,
      "byteLength": 81672,
      "name": "floatBufferViews",
      "target": 34963
    },
    {
      "buffer": 0,
      "byteLength": 99256,
      "byteOffset": 81672,
      "byteStride": 8,
      "name": "floatBufferViews",
      "target": 34962
    },
    {
      "buffer": 0,
      "byteLength": 297768,
      "byteOffset": 180928,
      "byteStride": 12,
      "name": "floatBufferViews",
      "target": 34962
    }
  ],
  "buffers": [
    {
      "byteLength": 478696,
      "uri": "scene.bin"
    }
  ],
  "extensionsUsed": [
    "KHR_materials_specular"
  ],
  "images": [
    {
      "uri": "textures/Scene_-_Root_baseColor.png"
    },
    {
      "uri": "textures/Scene_-_Root_metallicRoughness.png"
    },
    {
      "uri": "textures/Scene_-_Root_specularf0.png"
    }
  ],
  "materials": [
    {
      "doubleSided": true,
      "extensions": {
        "KHR_materials_specular": {
          "specularColorFactor": [
            1.0,
            1.0,
            1.0
          ],
          "specularFactor": 1.0,
          "specularTexture": {
            "index": 2
          }
        }
      },
      "name": "Scene_-_Root",
      "pbrMetallicRoughness": {
        "baseColorTexture": {
          "index": 0
        },
        "metallicRoughnessTexture": {
          "index": 1
        }
      }
    }
  ],
  "meshes": [
    {
      "name": "box_7__0",
      "primitives": [
        {
          "attributes": {
            "NORMAL": 1,
            "POSITION": 0,
            "TEXCOORD_0": 2
          },
          "indices": 3,
          "material": 0,
          "mode": 4
        }
      ]
    },
    {
      "name": "01__0",
      "primitives": [
        {
          "attributes": {
            "NORMAL": 5,
            "POSITION": 4,
            "TEXCOORD_0": 6
          },
          "indices": 7,
          "material": 0,
          "mode": 4
        }
      ]
    },
    {
      "name": "02__0",
      "primitives": [
        {
          "attributes": {
            "NORMAL": 9,
            "POSITION": 8,
            "TEXCOORD_0": 10
          },
          "indices": 11,
          "material": 0,
          "mode": 4
        }
      ]
    },
    {
      "name": "03__0",
      "primitives": [
        {
          "attributes": {
            "NORMAL": 13,
            "POSITION": 12,
            "TEXCOORD_0": 14
          },
          "indices": 15,
          "material": 0,
          "mode": 4
        }
      ]
    },
    {
      "name": "04__0",
      "primitives": [
        {
          "attributes": {
            "NORMAL": 17,
            "POSITION": 16,
            "TEXCOORD_0": 18
          },
          "indices": 19,
          "material": 0,
          "mode": 4
        }
      ]
    },
    {
      "name": "box_8__0",
      "primitives": [
        {
          "attributes": {
            "NORMAL": 21,
            "POSITION": 20,
            "TEXCOORD_0": 22
          },
          "indices": 23,
          "material": 0,
          "mode": 4
        }
      ]
    },
    {
      "name": "01_2__0",
      "primitives": [
        {
          "attributes": {
            "NORMAL": 25,
            "POSITION": 24,
            "TEXCOORD_0": 26
          },
          "indices": 27,
          "material": 0,
          "mode": 4
        }
      ]
    },
    {
      "name": "02_2__0",
      "primitives": [
        {
          "attributes": {
            "NORMAL": 29,
            "POSITION": 28,
            "TEXCOORD_0": 30
          },
          "indices": 31,
          "material": 0,
          "mode": 4
        }
      ]
    },
    {
      "name": "03_2__0",
      "primitives": [
        {
          "attributes": {
            "NORMAL": 33,
            "POSITION": 32,
            "TEXCOORD_0": 34
          },
          "indices": 35,
          "material": 0,
          "mode": 4
        }
      ]
    },
    {
      "name": "04_2__0",
      "primitives": [
        {
          "attributes": {
            "NORMAL": 37,
            "POSITION": 36,
            "TEXCOORD_0": 38
          },
          "indices": 39,
          "material": 0,
          "mode": 4
        }
      ]
    },
    {
      "name": "box_9__0",
      "primitives": [
        {
          "attributes": {
            "NORMAL": 41,
            "POSITION": 40,
            "TEXCOORD_0": 42
          },
          "indices": 43,
          "material": 0,
          "mode": 4
        }
      ]
    },
    {
      "name": "01_3__0",
      "primitives": [
        {
          "attributes": {
            "NORMAL": 45,
            "POSITION": 44,
            "TEXCOORD_0": 46
          },
          "indices": 47,
          "material": 0,
          "mode": 4
        }
      ]
    },
    {
      "name": "02_3__0",
      "primitives": [
        {
          "attributes": {
            "NORMAL": 49,
            "POSITION": 48,
            "TEXCOORD_0": 50
          },
          "indices": 51,
          "material": 0,
          "mode": 4
        }
      ]
    },
    {
      "name": "03_3__0",
      "primitives": [
        {
          "attributes": {
            "NORMAL": 53,
            "POSITION": 52,
            "TEXCOORD_0": 54
          },
          "indices": 55,
          "material": 0,
          "mode": 4
        }
      ]
    },
    {
      "name": "04_3__0",
      "primitives": [
        {
          "attributes": {
            "NORMAL": 57,
            "POSITION": 56,
            "TEXCOORD_0": 58
          },
          "indices": 59,
          "material": 0,
          "mode": 4
        }
      ]
    },
    {
      "name": "box_10__0",
      "primitives": [
        {
          "attributes": {
            "NORMAL": 61,
            "POSITION": 60,
            "TEXCOORD_0": 62
          },
          "indices": 63,
          "material": 0,
          "mode": 4
        }
      ]
    },
    {
      "name": "01_4__0",
      "primitives": [
        {
          "attributes": {
            "NORMAL": 65,
            "POSITION": 64,
            "TEXCOORD_0": 66
          },
          "indices": 67,
          "material": 0,
          "mode": 4
        }
      ]
    },
    {
      "name": "02_4__0",
      "primitives": [
        {
          "attributes": {
            "NORMAL": 69,
            "POSITION": 68,
            "TEXCOORD_0": 70
          },
          "indices": 71,
          "material": 0,
          "mode": 4
        }
      ]
    },
    {
      "name": "03_4__0",
      "primitives": [
        {
          "attributes": {
            "NORMAL": 73,
            "POSITION": 72,
            "TEXCOORD_0": 74
          },
          "indices": 75,
          "material": 0,
          "mode": 4
        }
      ]
    },
    {
      "name": "04_4__0",
      "primitives": [
        {
          "attributes": {
            "NORMAL": 77,
            "POSITION": 76,
            "TEXCOORD_0": 78
          },
          "indices": 79,
          "material": 0,
          "mode": 4
        }
      ]
    },
    {
      "name": "box_2__0",
      "primitives": [
        {
          "attributes": {
            "NORMAL": 81,
            "POSITION": 80,
            "TEXCOORD_0": 82
          },
          "indices": 83,
          "material": 0,
          "mode": 4
        }
      ]
    },
    {
      "name": "03_5__0",
      "primitives": [
        {
          "attributes": {
            "NORMAL": 85,
            "POSITION": 84,
            "TEXCOORD_0": 86
          },
          "indices": 87,
          "material": 0,
          "mode": 4
        }
      ]
    },
    {
      "name": "box__0",
      "primitives": [
        {
          "attributes": {
            "NORMAL": 89,
            "POSITION": 88,
            "TEXCOORD_0": 90
          },
          "indices": 91,
          "material": 0,
          "mode": 4
        }
      ]
    },
    {
      "name": "01_5__0",
      "primitives": [
        {
          "attributes": {
            "NORMAL": 93,
            "POSITION": 92,
            "TEXCOORD_0": 94
          },
          "indices": 95,
          "material": 0,
          "mode": 4
        }
      ]
    },
    {
      "name": "02_5__0",
      "primitives": [
        {
          "attributes": {
            "NORMAL": 97,
            "POSITION": 96,
            "TEXCOORD_0": 98
          },
          "indices": 99,
          "material": 0,
          "mode": 4
        }
      ]
    },
    {
      "name": "03_6__0",
      "primitives": [
        {
          "attributes": {
            "NORMAL": 101,
            "POSITION": 100,
            "TEXCOORD_0": 102
          },
          "indices": 103,
          "material": 0,
          "mode": 4
        }
      ]
    },
    {
      "name": "04_5__0",
      "primitives": [
        {
          "attributes": {
            "NORMAL": 105,
            "POSITION": 104,
            "TEXCOORD_0": 106
          },
          "indices": 107,
          "material": 0,
          "mode": 4
        }
      ]
    },
    {
      "name": "box_1__0",
      "primitives": [
        {
          "attributes": {
            "NORMAL": 109,
            "POSITION": 108,
            "TEXCOORD_0": 110
          },
          "indices": 111,
          "material": 0,
          "mode": 4
        }
      ]
    },
    {
      "name": "01_6__0",
      "primitives": [
        {
          "attributes": {
            "NORMAL": 113,
            "POSITION": 112,
            "TEXCOORD_0": 114
          },
          "indices": 115,
          "material": 0,
          "mode": 4
        }
      ]
    },
    {
      "name": "02_6__0",
      "primitives": [
        {
          "attributes": {
            "NORMAL": 117,
            "POSITION": 116,
            "TEXCOORD_0": 118
          },
          "indices": 119,
          "material": 0,
          "mode": 4
        }
      ]
    },
    {
      "name": "03_7__0",
      "primitives": [
        {
          "attributes": {
            "NORMAL": 121,
            "POSITION": 120,
            "TEXCOORD_0": 122
          },
          "indices": 123,
          "material": 0,
          "mode": 4
        }
      ]
    },
    {
      "name": "04_6__0",
      "primitives": [
        {
          "attributes": {
            "NORMAL": 125,
            "POSITION": 124,
            "TEXCOORD_0": 126
          },
          "indices": 127,
          "material": 0,
          "mode": 4
        }
      ]
    },
    {
      "name": "box_6__0",
      "primitives": [
        {
          "attributes": {
            "NORMAL": 129,
            "POSITION": 128,
            "TEXCOORD_0": 130
          },
          "indices": 131,
          "material": 0,
          "mode": 4
        }
      ]
    },
    {
      "name": "01_7__0",
      "primitives": [
        {
          "attributes": {
            "NORMAL": 133,
            "POSITION": 132,
            "TEXCOORD_0": 134
          },
          "indices": 135,
          "material": 0,
          "mode": 4
        }
      ]
    },
    {
      "name": "02_7__0",
      "primitives": [
        {
          "attributes": {
            "NORMAL": 137,
            "POSITION": 136,
            "TEXCOORD_0": 138
          },
          "indices": 139,
          "material": 0,
          "mode": 4
        }
      ]
    },
    {
      "name": "03_8__0",
      "primitives": [
        {
          "attributes": {
            "NORMAL": 141,
            "POSITION": 140,
            "TEXCOORD_0": 142
          },
          "indices": 143,
          "material": 0,
          "mode": 4
        }
      ]
    },
    {
      "name": "04_7__0",
      "primitives": [
        {
          "attributes": {
            "NORMAL": 145,
            "POSITION": 144,
            "TEXCOORD_0": 146
          },
          "indices": 147,
          "material": 0,
          "mode": 4
        }
      ]
    },
    {
      "name": "box_5__0",
      "primitives": [
        {
          "attributes": {
            "NORMAL": 149,
            "POSITION": 148,
            "TEXCOORD_0": 150
          },
          "indices": 151,
          "material": 0,
          "mode": 4
        }
      ]
    },
    {
      "name": "01_8__0",
      "primitives": [
        {
          "attributes": {
            "NORMAL": 153,
            "POSITION": 152,
            "TEXCOORD_0": 154
          },
          "indices": 155,
          "material": 0,
          "mode": 4
        }
      ]
    },
    {
      "name": "02_8__0",
      "primitives": [
        {
          "attributes": {
            "NORMAL": 157,
            "POSITION": 156,
            "TEXCOORD_0": 158
          },
          "indices": 159,
          "material": 0,
          "mode": 4
        }
      ]
    },
    {
      "name": "03_9__0",
      "primitives": [
        {
          "attributes": {
            "NORMAL": 161,
            "POSITION": 160,
            "TEXCOORD_0": 162
          },
          "indices": 163,
          "material": 0,
          "mode": 4
        }
      ]
    },
    {
      "name": "04_8__0",
      "primitives": [
        {
          "attributes": {
            "NORMAL": 165,
            "POSITION": 164,
            "TEXCOORD_0": 166
          },
          "indices": 167,
          "material": 0,
          "mode": 4
        }
      ]
    },
    {
      "name": "box_4__0",
      "primitives": [
        {
          "attributes": {
            "NORMAL": 169,
            "POSITION": 168,
            "TEXCOORD_0": 170
          },
          "indices": 171,
          "material": 0,
          "mode": 4
        }
      ]
    },
    {
      "name": "01_9__0",
      "primitives": [
        {
          "attributes": {
            "NORMAL": 173,
            "POSITION": 172,
            "TEXCOORD_0": 174
          },
          "indices": 175,
          "material": 0,
          "mode": 4
        }
      ]
    },
    {
      "name": "02_9__0",
      "primitives": [
        {
          "attributes": {
            "NORMAL": 177,
            "POSITION": 176,
            "TEXCOORD_0": 178
          },
          "indices": 179,
          "material": 0,
          "mode": 4
        }
      ]
    },
    {
      "name": "03_10__0",
      "primitives": [
        {
          "attributes": {
            "NORMAL": 181,
            "POSITION": 180,
            "TEXCOORD_0": 182
          },
          "indices": 183,
          "material": 0,
          "mode": 4
        }
      ]
    },
    {
      "name": "04_9__0",
      "primitives": [
        {
          "attributes": {
            "NORMAL": 185,
            "POSITION": 184,
            "TEXCOORD_0": 186
          },
          "indices": 187,
          "material": 0,
          "mode": 4
        }
      ]
    },
    {
      "name": "box_3__0",
      "primitives": [
        {
          "attributes": {
            "NORMAL": 189,
            "POSITION": 188,
            "TEXCOORD_0": 190
          },
          "indices": 191,
          "material": 0,
          "mode": 4
        }
      ]
    },
    {
      "name": "01_10__0",
      "primitives": [
        {
          "attributes": {
            "NORMAL": 193,
            "POSITION": 192,
            "TEXCOORD_0": 194
          },
          "indices": 195,
          "material": 0,
          "mode": 4
        }
      ]
    },
    {
      "name": "02_10__0",
      "primitives": [
        {
          "attributes": {
            "NORMAL": 197,
            "POSITION": 196,
            "TEXCOORD_0": 198
          },
          "indices": 199,
          "material": 0,
          "mode": 4
        }
      ]
    },
    {
      "name": "03_11__0",
      "primitives": [
        {
          "attributes": {
            "NORMAL": 201,
            "POSITION": 200,
            "TEXCOORD_0": 202
          },
          "indices": 203,
          "material": 0,
          "mode": 4
        }
      ]
    },
    {
      "name": "04_10__0",
      "primitives": [
        {
          "attributes": {
            "NORMAL": 205,
            "POSITION": 204,
            "TEXCOORD_0": 206
          },
          "indices": 207,
          "material": 0,
          "mode": 4
        }
      ]
    }
  ],
  "nodes": [
    {
      "children": [
        1
      ],
      "matrix": [
        1.0,
        0.0,
        0.0,
        0.0,
        0.0,
        2.220446049250313e-16,
        -1.0,
        0.0,
        0.0,
        1.0,
        2.220446049250313e-16,
        0.0,
        0.0,
        0.0,
        0.0,
        1.0
      ],
      "name": "Sketchfab_model"
    },
    {
      "children": [
        2
      ],
      "matrix": [
        0.009999999776482582,
        0.0,
        0.0,
        0.0,
        0.0,
        0.0,
        0.009999999776482582,
        0.0,
        0.0,
        -0.009999999776482582,
        0.0,
        0.0,
        0.0,
        0.0,
        0.0,
        1.0
      ],
      "name": "a9d4cf4503e942d8910f294925b53780.fbx"
    },
    {
      "children": [
        3,
        5,
        15,
        25,
        35,
        45,
        49,
        59,
        69,
        79,
        89,
        99
      ],
      "name": "RootNode"
    },
    {
      "children": [
        4
      ],
      "matrix": [
        0.6123217822110463,
        -0.2578173232111716,
        -0.7473903015708153,
        0.0,
        0.1633908046101903,
        0.9661936803002937,
        -0.1994322369041885,
        0.0,
        0.7735408715761066,
        -2.7755575615628914e-17,
        0.6337464161644445,
        0.0,
        -348.179931640625,
        187.72698974609375,
        344.427490234375,
        1.0
      ],
      "name": "CINEMA_4D_Editor"
    },
    {
      "name": "Object_4"
    },
    {
      "children": [
        6,
        7,
        9,
        11,
        13
      ],
      "matrix": [
        -1.0,
        -1.2246467991473535e-16,
        1.224646799147353e-16,
        0.0,
        -1.2246467991473535e-16,
        1.0,
        -1.2246467991473535e-16,
        0.0,
        -1.224646799147353e-16,
        -1.2246467991473535e-16,
        -1.0,
        0.0,
        -86.29222869873047,
        0.0,
        -20.250137329101563,
        1.0
      ],
      "name": "box_7"
    },
    {
      "mesh": 0,
      "name": "box_7__0"
    },
    {
      "children": [
        8
      ],
      "matrix": [
        1.0,
        2.449293598294707e-16,
        -1.232595164407831e-31,
        0.0,
        -2.449293598294707e-16,
        1.0,
        -7.395570986446987e-32,
        0.0,
        1.232595164407831e-31,
        7.395570986446989e-32,
        1.0,
        0.0,
        0.03388577327132225,
        91.05118560791016,
        2.2192556858062744,
        1.0
      ],
      "name": "01"
    },
    {
      "mesh": 1,
      "name": "01__0"
    },
    {
      "children": [
        10
      ],
      "matrix": [
        1.0,
        2.449293598294707e-16,
        -1.232595164407831e-31,
        0.0,
        -2.449293598294707e-16,
        1.0,
        -7.395570986446987e-32,
        0.0,
        1.232595164407831e-31,
        7.395570986446989e-32,
        1.0,
        0.0,
        0.03388577327132225,
        61.084434509277344,
        2.2192556858062744,
        1.0
      ],
      "name": "02"
    },
    {
      "mesh": 2,
      "name": "02__0"
    },
    {
      "children": [
        12
      ],
      "matrix": [
        1.0,
        2.449293598294707e-16,
        -1.232595164407831e-31,
        0.0,
        -2.449293598294707e-16,
        1.0,
        -7.395570986446987e-32,
        0.0,
        1.232595164407831e-31,
        7.395570986446989e-32,
        1.0,
        0.0,
        0.03388577327132225,
        31.073596954345703,
        2.2192556858062744,
        1.0
      ],
      "name": "03"
    },
    {
      "mesh": 3,
      "name": "03__0"
    },
    {
      "children": [
        14
      ],
      "matrix": [
        1.0,
        2.449293598294707e-16,
        -1.232595164407831e-31,
        0.0,
        -2.449293598294707e-16,
        1.0,
        -7.395570986446987e-32,
        0.0,
        1.232595164407831e-31,
        7.395570986446989e-32,
        1.0,
        0.0,
        0.03388577327132225,
        1.0038437843322754,
        2.2192556858062744,
        1.0
      ],
      "name": "04"
    },
    {
      "mesh": 4,
      "name": "04__0"
    },
    {
      "children": [
        16,
        17,
        19,
        21,
        23
      ],
      "matrix": [
        -1.0,
        -1.2246467991473535e-16,
        1.224646799147353e-16,
        0.0,
        -1.2246467991473535e-16,
        1.0,
        -1.2246467991473535e-16,
        0.0,
        -1.224646799147353e-16,
        -1.2246467991473535e-16,
        -1.0,
        0.0,
        -126.43788146972656,
        0.0,
        -20.250137329101563,
        1.0
      ],
      "name": "box_8"
    },
    {
      "mesh": 5,
      "name": "box_8__0"
    },
    {
      "children": [
        18
      ],
      "matrix": [
        1.0,
        2.449293598294707e-16,
        -1.232595164407831e-31,
        0.0,
        -2.449293598294707e-16,
        1.0,
        -7.395570986446987e-32,
        0.0,
        1.232595164407831e-31,
        7.395570986446989e-32,
        1.0,
        0.0,
        0.03388577327132225,
        91.05118560791016,
        2.2192556858062744,
        1.0
      ],
      "name": "01_2"
    },
    {
      "mesh": 6,
      "name": "01_2__0"
    },
    {
      "children": [
        20
      ],
      "matrix": [
        1.0,
        2.449293598294707e-16,
        -1.232595164407831e-31,
        0.0,
        -2.449293598294707e-16,
        1.0,
        -7.395570986446987e-32,
        0.0,
        1.232595164407831e-31,
        7.395570986446989e-32,
        1.0,
        0.0,
        0.03388577327132225,
        61.084434509277344,
        2.2192556858062744,
        1.0
      ],
      "name": "02_2"
    },
    {
      "mesh": 7,
      "name": "02_2__0"
    },
    {
      "children": [
        22
      ],
      "matrix": [
        1.0,
        2.449293598294707e-16,
        -1.232595164407831e-31,
        0.0,
        -2.449293598294707e-16,
        1.0,
        -7.395570986446987e-32,
        0.0,
        1.232595164407831e-31,
        7.395570986446989e-32,
        1.0,
        0.0,
        0.03388577327132225,
        31.073596954345703,
        2.2192556858062744,
        1.0
      ],
      "name": "03_2"
    },
    {
      "mesh": 8,
      "name": "03_2__0"
    },
    {
      "children": [
        24
      ],
      "matrix": [
        1.0,
        2.449293598294707e-16,
        -1.232595164407831e-31,
        0.0,
        -2.449293598294707e-16,
        1.0,
        -7.395570986446987e-32,
        0.0,
        1.232595164407831e-31,
        7.395570986446989e-32,
        1.0,
        0.0,
        0.03388577327132225,
        1.0038437843322754,
        2.2192556858062744,
        1.0
      ],
      "name": "04_2"
    },
    {
      "mesh": 9,
      "name": "04_2__0"
    },
    {
      "children": [
        26,
        27,
        29,
        31,
        33
      ],
      "matrix": [
        -1.0,
        -1.2246467991473535e-16,
        1.224646799147353e-16,
        0.0,
        -1.2246467991473535e-16,
        1.0,
        -1.2246467991473535e-16,
        0.0,
        -1.224646799147353e-16,
        -1.2246467991473535e-16,
        -1.0,
        0.0,
        -166.60594177246094,
        0.0,
        -20.250137329101563,
        1.0
      ],
      "name": "box_9"
    },
    {
      "mesh": 10,
      "name": "box_9__0"
    },
    {
      "children": [
        28
      ],
      "matrix": [
        1.0,
        2.449293598294707e-16,
        -1.232595164407831e-31,
        0.0,
        -2.449293598294707e-16,
        1.0,
        -7.395570986446987e-32,
        0.0,
        1.232595164407831e-31,
        7.395570986446989e-32,
        1.0,
        0.0,
        0.03388577327132225,
        91.05118560791016,
        2.2192556858062744,
        1.0
      ],
      "name": "01_3"
    },
    {
      "mesh": 11,
      "name": "01_3__0"
    },
    {
      "children": [
        30
      ],
      "matrix": [
        1.0,
        2.449293598294707e-16,
        -1.232595164407831e-31,
        0.0,
        -2.449293598294707e-16,
        1.0,
        -7.395570986446987e-32,
        0.0,
        1.232595164407831e-31,
        7.395570986446989e-32,
        1.0,
        0.0,
        0.03388577327132225,
        61.084434509277344,
        2.2192556858062744,
        1.0
      ],
      "name": "02_3"
    },
    {
      "mesh": 12,
      "name": "02_3__0"
    },
    {
      "children": [
        32
      ],
      "matrix": [
        1.0,
        2.449293598294707e-16,
        -1.232595164407831e-31,
        0.0,
        -2.449293598294707e-16,
        1.0,
        -7.395570986446987e-32,
        0.0,
        1.232595164407831e-31,
        7.395570986446989e-32,
        1.0,
        0.0,
        0.03388577327132225,
        31.073596954345703,
        2.2192556858062744,
        1.0
      ],
      "name": "03_3"
    },
    {
      "mesh": 13,
      "name": "03_3__0"
    },
    {
      "children": [
        34
      ],
      "matrix": [
        1.0,
        2.449293598294707e-16,
        -1.232595164407831e-31,
        0.0,
        -2.449293598294707e-16,
        1.0,
        -7.395570986446987e-32,
        0.0,
        1.232595164407831e-31,
        7.395570986446989e-32,
        1.0,
        0.0,
        0.03388577327132225,
        1.0038437843322754,
        2.2192556858062744,
        1.0
      ],
      "name": "04_3"
    },
    {
      "mesh": 14,
      "name": "04_3__0"
    },
    {
      "children": [
        36,
        37,
        39,
        41,
        43
      ],
      "matrix": [
        -1.0,
        -1.2246467991473535e-16,
        1.224646799147353e-16,
        0.0,
        -1.2246467991473535e-16,
        1.0,
        -1.2246467991473535e-16,
        0.0,
        -1.224646799147353e-16,
        -1.2246467991473535e-16,
        -1.0,
        0.0,
        -206.75218200683594,
        0.0,
        -20.250137329101563,
        1.0
      ],
      "name": "box_10"
    },
    {
      "mesh": 15,
      "name": "box_10__0"
    },
    {
      "children": [
        38
      ],
      "matrix": [
        1.0,
        2.449293598294707e-16,
        -1.232595164407831e-31,
        0.0,
        -2.449293598294707e-16,
        1.0,
        -7.395570986446987e-32,
        0.0,
        1.232595164407831e-31,
        7.395570986446989e-32,
        1.0,
        0.0,
        0.03388577327132225,
        91.05118560791016,
        2.2192556858062744,
        1.0
      ],
      "name": "01_4"
    },
    {
      "mesh": 16,
      "name": "01_4__0"
    },
    {
      "children": [
        40
      ],
      "matrix": [
        1.0,
        2.449293598294707e-16,
        -1.232595164407831e-31,
        0.0,
        -2.449293598294707e-16,
        1.0,
        -7.395570986446987e-32,
        0.0,
        1.232595164407831e-31,
        7.395570986446989e-32,
        1.0,
        0.0,
        0.03388577327132225,
        61.084434509277344,
        2.2192556858062744,
        1.0
      ],
      "name": "02_4"
    },
    {
      "mesh": 17,
      "name": "02_4__0"
    },
    {
      "children": [
        42
      ],
      "matrix": [
        1.0,
        2.449293598294707e-16,
        -1.232595164407831e-31,
        0.0,
        -2.449293598294707e-16,
        1.0,
        -7.395570986446987e-32,
        0.0,
        1.232595164407831e-31,
        7.395570986446989e-32,
        1.0,
        0.0,
        0.03388577327132225,
        31.073596954345703,
        2.2192556858062744,
        1.0
      ],
      "name": "03_4"
    },
    {
      "mesh": 18,
      "name": "03_4__0"
    },
    {
      "children": [
        44
      ],
      "matrix": [
        1.0,
        2.449293598294707e-16,
        -1.232595164407831e-31,
        0.0,
        -2.449293598294707e-16,
        1.0,
        -7.395570986446987e-32,
        0.0,
        1.232595164407831e-31,
        7.395570986446989e-32,
        1.0,
        0.0,
        0.03388577327132225,
        1.0038437843322754,
        2.2192556858062744,
        1.0
      ],
      "name": "04_4"
    },
    {
      "mesh": 19,
      "name": "04_4__0"
    },
    {
      "children": [
        46,
        47
      ],
      "matrix": [
        1.0,
        0.0,
        0.0,
        0.0,
        0.0,
        1.0,
        0.0,
        0.0,
        0.0,
        0.0,
        1.0,
        0.0,
        209.87994384765625,
        0.0,
        -19.999998092651367,
        1.0
      ],
      "name": "box_2"
    },
    {
      "mesh": 20,
      "name": "box_2__0"
    },
    {
      "children": [
        48
      ],
      "matrix": [
        1.0,
        0.0,
        0.0,
        0.0,
        0.0,
        1.0,
        0.0,
        0.0,
        0.0,
        0.0,
        1.0,
        0.0,
        0.03388577327132225,
        31.073596954345703,
        73.14378356933594,
        1.0
      ],
      "name": "03_5"
    },
    {
      "mesh": 21,
      "name": "03_5__0"
    },
    {
      "children": [
        50,
        51,
        53,
        55,
        57
      ],
      "matrix": [
        1.0,
        0.0,
        0.0,
        0.0,
        0.0,
        1.0,
        0.0,
        0.0,
        0.0,
        0.0,
        1.0,
        0.0,
        139.0808563232422,
        0.0,
        -19.999998092651367,
        1.0
      ],
      "name": "box"
    },
    {
      "mesh": 22,
      "name": "box__0"
    },
    {
      "children": [
        52
      ],
      "matrix": [
        1.0,
        0.0,
        0.0,
        0.0,
        0.0,
        1.0,
        0.0,
        0.0,
        0.0,
        0.0,
        1.0,
        0.0,
        0.03388577327132225,
        91.05118560791016,
        2.2192556858062744,
        1.0
      ],
      "name": "01_5"
    },
    {
      "mesh": 23,
      "name": "01_5__0"
    },
    {
      "children": [
        54
      ],
      "matrix": [
        1.0,
        0.0,
        0.0,
        0.0,
        0.0,
        1.0,
        0.0,
        0.0,
        0.0,
        0.0,
        1.0,
        0.0,
        0.03388577327132225,
        61.084434509277344,
        2.2192556858062744,
        1.0
      ],
      "name": "02_5"
    },
    {
      "mesh": 24,
      "name": "02_5__0"
    },
    {
      "children": [
        56
      ],
      "matrix": [
        1.0,
        0.0,
        0.0,
        0.0,
        0.0,
        1.0,
        0.0,
        0.0,
        0.0,
        0.0,
        1.0,
        0.0,
        0.03388577327132225,
        31.073596954345703,
        2.2192556858062744,
        1.0
      ],
      "name": "03_6"
    },
    {
      "mesh": 25,
      "name": "03_6__0"
    },
    {
      "children": [
        58
      ],
      "matrix": [
        1.0,
        0.0,
        0.0,
        0.0,
        0.0,
        1.0,
        0.0,
        0.0,
        0.0,
        0.0,
        1.0,
        0.0,
        0.03388577327132225,
        1.0038437843322754,
        2.2192556858062744,
        1.0
      ],
      "name": "04_5"
    },
    {
      "mesh": 26,
      "name": "04_5__0"
    },
    {
      "children": [
        60,
        61,
        63,
        65,
        67
      ],
      "matrix": [
        1.0,
        0.0,
        0.0,
        0.0,
        0.0,
        1.0,
        0.0,
        0.0,
        0.0,
        0.0,
        1.0,
        0.0,
        64.63902282714844,
        0.0,
        -19.999998092651367,
        1.0
      ],
      "name": "box_1"
    },
    {
      "mesh": 27,
      "name": "box_1__0"
    },
    {
      "children": [
        62
      ],
      "matrix": [
        1.0,
        0.0,
        0.0,
        0.0,
        0.0,
        1.0,
        0.0,
        0.0,
        0.0,
        0.0,
        1.0,
        0.0,
        0.03388577327132225,
        91.05118560791016,
        15.461078643798828,
        1.0
      ],
      "name": "01_6"
    },
    {
      "mesh": 28,
      "name": "01_6__0"
    },
    {
      "children": [
        64
      ],
      "matrix": [
        1.0,
        0.0,
        0.0,
        0.0,
        0.0,
        0.9926192331738874,
        0.12127265946322655,
        0.0,
        0.0,
        -0.12127265946322655,
        0.9926192331738874,
        0.0,
        0.03388577327132225,
        61.084434509277344,
        17.561172485351563,
        1.0
      ],
      "name": "02_6"
    },
    {
      "mesh": 29,
      "name": "02_6__0"
    },
    {
      "children": [
        66
      ],
      "matrix": [
        1.0,
        0.0,
        0.0,
        0.0,
        0.0,
        1.0,
        0.0,
        0.0,
        0.0,
        0.0,
        1.0,
        0.0,
        0.03388577327132225,
        31.073596954345703,
        18.931730270385742,
        1.0
      ],
      "name": "03_7"
    },
    {
      "mesh": 30,
      "name": "03_7__0"
    },
    {
      "children": [
        68
      ],
      "matrix": [
        1.0,
        0.0,
        0.0,
        0.0,
        0.0,
        1.0,
        0.0,
        0.0,
        0.0,
        0.0,
        1.0,
        0.0,
        0.03388577327132225,
        1.0038437843322754,
        8.2844820022583,
        1.0
      ],
      "name": "04_6"
    },
    {
      "mesh": 31,
      "name": "04_6__0"
    },
    {
      "children": [
        70,
        71,
        73,
        75,
        77
      ],
      "matrix": [
        1.0,
        0.0,
        0.0,
        0.0,
        0.0,
        1.0,
        0.0,
        0.0,
        0.0,
        0.0,
        1.0,
        0.0,
        -206.75218200683594,
        0.0,
        -19.999998092651367,
        1.0
      ],
      "name": "box_6"
    },
    {
      "mesh": 32,
      "name": "box_6__0"
    },
    {
      "children": [
        72
      ],
      "matrix": [
        1.0,
        0.0,
        0.0,
        0.0,
        0.0,
        1.0,
        0.0,
        0.0,
        0.0,
        0.0,
        1.0,
        0.0,
        0.03388577327132225,
        91.05118560791016,
        2.2192556858062744,
        1.0
      ],
      "name": "01_7"
    },
    {
      "mesh": 33,
      "name": "01_7__0"
    },
    {
      "children": [
        74
      ],
      "matrix": [
        1.0,
        0.0,
        0.0,
        0.0,
        0.0,
        1.0,
        0.0,
        0.0,
        0.0,
        0.0,
        1.0,
        0.0,
        0.03388577327132225,
        61.084434509277344,
        2.2192556858062744,
        1.0
      ],
      "name": "02_7"
    },
    {
      "mesh": 34,
      "name": "02_7__0"
    },
    {
      "children": [
        76
      ],
      "matrix": [
        1.0,
        0.0,
        0.0,
        0.0,
        0.0,
        1.0,
        0.0,
        0.0,
        0.0,
        0.0,
        1.0,
        0.0,
        0.03388577327132225,
        31.073596954345703,
        2.2192556858062744,
        1.0
      ],
      "name": "03_8"
    },
    {
      "mesh": 35,
      "name": "03_8__0"
    },
    {
      "children": [
        78
      ],
      "matrix": [
        1.0,
        0.0,
        0.0,
        0.0,
        0.0,
        1.0,
        0.0,
        0.0,
        0.0,
        0.0,
        1.0,
        0.0,
        0.03388577327132225,
        1.0038437843322754,
        2.2192556858062744,
        1.0
      ],
      "name": "04_7"
    },
    {
      "mesh": 36,
      "name": "04_7__0"
    },
    {
      "children": [
        80,
        81,
        83,
        85,
        87
      ],
      "matrix": [
        1.0,
        0.0,
        0.0,
        0.0,
        0.0,
        1.0,
        0.0,
        0.0,
        0.0,
        0.0,
        1.0,
        0.0,
        -166.6065216064453,
        0.0,
        -19.999998092651367,
        1.0
      ],
      "name": "box_5"
    },
    {
      "mesh": 37,
      "name": "box_5__0"
    },
    {
      "children": [
        82
      ],
      "matrix": [
        1.0,
        0.0,
        0.0,
        0.0,
        0.0,
        1.0,
        0.0,
        0.0,
        0.0,
        0.0,
        1.0,
        0.0,
        0.03388577327132225,
        91.05118560791016,
        2.2192556858062744,
        1.0
      ],
      "name": "01_8"
    },
    {
      "mesh": 38,
      "name": "01_8__0"
    },
    {
      "children": [
        84
      ],
      "matrix": [
        1.0,
        0.0,
        0.0,
        0.0,
        0.0,
        1.0,
        0.0,
        0.0,
        0.0,
        0.0,
        1.0,
        0.0,
        0.03388577327132225,
        61.084434509277344,
        2.2192556858062744,
        1.0
      ],
      "name": "02_8"
    },
    {
      "mesh": 39,
      "name": "02_8__0"
    },
    {
      "children": [
        86
      ],
      "matrix": [
        1.0,
        0.0,
        0.0,
        0.0,
        0.0,
        1.0,
        0.0,
        0.0,
        0.0,
        0.0,
        1.0,
        0.0,
        0.03388577327132225,
        31.073596954345703,
        2.2192556858062744,
        1.0
      ],
      "name": "03_9"
    },
    {
      "mesh": 40,
      "name": "03_9__0"
    },
    {
      "children": [
        88
      ],
      "matrix": [
        1.0,
        0.0,
        0.0,
        0.0,
        0.0,
        1.0,
        0.0,
        0.0,
        0.0,
        0.0,
        1.0,
        0.0,
        0.03388577327132225,
        1.0038437843322754,
        2.2192556858062744,
        1.0
      ],
      "name": "04_8"
    },
    {
      "mesh": 41,
      "name": "04_8__0"
    },
    {
      "children": [
        90,
        91,
        93,
        95,
        97
      ],
      "matrix": [
        1.0,
        0.0,
        0.0,
        0.0,
        0.0,
        1.0,
        0.0,
        0.0,
        0.0,
        0.0,
        1.0,
        0.0,
        -126.43846130371094,
        0.0,
        -19.999998092651367,
        1.0
      ],
      "name": "box_4"
    },
    {
      "mesh": 42,
      "name": "box_4__0"
    },
    {
      "children": [
        92
      ],
      "matrix": [
        1.0,
        0.0,
        0.0,
        0.0,
        0.0,
        1.0,
        0.0,
        0.0,
        0.0,
        0.0,
        1.0,
        0.0,
        0.03388577327132225,
        91.05118560791016,
        2.2192556858062744,
        1.0
      ],
      "name": "01_9"
    },
    {
      "mesh": 43,
      "name": "01_9__0"
    },
    {
      "children": [
        94
      ],
      "matrix": [
        1.0,
        0.0,
        0.0,
        0.0,
        0.0,
        1.0,
        0.0,
        0.0,
        0.0,
        0.0,
        1.0,
        0.0,
        0.03388577327132225,
        61.084434509277344,
        2.2192556858062744,
        1.0
      ],
      "name": "02_9"
    },
    {
      "mesh": 44,
      "name": "02_9__0"
    },
    {
      "children": [
        96
      ],
      "matrix": [
        1.0,
        0.0,
        0.0,
        0.0,
        0.0,
        1.0,
        0.0,
        0.0,
        0.0,
        0.0,
        1.0,
        0.0,
        0.03388577327132225,
        31.073596954345703,
        2.2192556858062744,
        1.0
      ],
      "name": "03_10"
    },
    {
      "mesh": 45,
      "name": "03_10__0"
    },
    {
      "children": [
        98
      ],
      "matrix": [
        1.0,
        0.0,
        0.0,
        0.0,
        0.0,
        1.0,
        0.0,
        0.0,
        0.0,
        0.0,
        1.0,
        0.0,
        0.03388577327132225,
        1.0038437843322754,
        2.2192556858062744,
        1.0
      ],
      "name": "04_9"
    },
    {
      "mesh": 46,
      "name": "04_9__0"
    },
    {
      "children": [
        100,
        101,
        103,
        105,
        107
      ],
      "matrix": [
        1.0,
        0.0,
        0.0,
        0.0,
        0.0,
        1.0,
        0.0,
        0.0,
        0.0,
        0.0,
        1.0,
        0.0,
        -86.29222869873047,
        0.0,
        -19.999998092651367,
        1.0
      ],
      "name": "box_3"
    },
    {
      "mesh": 47,
      "name": "box_3__0"
    },
    {
      "children": [
        102
      ],
      "matrix": [
        1.0,
        0.0,
        0.0,
        0.0,
        0.0,
        1.0,
        0.0,
        0.0,
        0.0,
        0.0,
        1.0,
        0.0,
        0.03388577327132225,
        91.05118560791016,
        2.2192556858062744,
        1.0
      ],
      "name": "01_10"
    },
    {
      "mesh": 48,
      "name": "01_10__0"
    },
    {
      "children": [
        104
      ],
      "matrix": [
        1.0,
        0.0,
        0.0,
        0.0,
        0.0,
        1.0,
        0.0,
        0.0,
        0.0,
        0.0,
        1.0,
        0.0,
        0.03388577327132225,
        61.084434509277344,
        2.2192556858062744,
        1.0
      ],
      "name": "02_10"
    },
    {
      "mesh": 49,
      "name": "02_10__0"
    },
    {
      "children": [
        106
      ],
      "matrix": [
        1.0,
        0.0,
        0.0,
        0.0,
        0.0,
        1.0,
        0.0,
        0.0,
        0.0,
        0.0,
        1.0,
        0.0,
        0.03388577327132225,
        31.073596954345703,
        2.2192556858062744,
        1.0
      ],
      "name": "03_11"
    },
    {
      "mesh": 50,
      "name": "03_11__0"
    },
    {
      "children": [
        108
      ],
      "matrix": [
        1.0,
        0.0,
        0.0,
        0.0,
        0.0,
        1.0,
        0.0,
        0.0,
        0.0,
        0.0,
        1.0,
        0.0,
        0.03388577327132225,
        1.0038437843322754,
        2.2192556858062744,
        1.0
      ],
      "name": "04_10"
    },
    {
      "mesh": 51,
      "name": "04_10__0"
    }
  ],
  "samplers": [
    {
      "magFilter": 9729,
      "minFilter": 9987,
      "wrapS": 10497,
      "wrapT": 10497
    }
  ],
  "scene": 0,
  "scenes": [
    {
      "name": "Sketchfab_Scene",
      "nodes": [
        0
      ]
    }
  ],
  "textures": [
    {
      "sampler": 0,
      "source": 0
    },
    {
      "sampler": 0,
      "source": 1
    },
    {
      "sampler": 0,
      "source": 2
    }
  ]
}
